<?plantuml 1.2026.1?><svg xmlns="http://www.w3.org/2000/svg" xmlns:xlink="http://www.w3.org/1999/xlink" contentStyleType="text/css" data-diagram-type="DESCRIPTION" height="483px" preserveAspectRatio="none" style="width:1277px;height:483px;background:#FFFFFF;" version="1.1" viewBox="0 0 1277 483" width="1277px" zoomAndPan="magnify"><title>MAL data pipeline</title><defs/><g><g class="title" data-source-line="1"><text fill="#000000" font-family="sans-serif" font-size="14" font-weight="bold" lengthAdjust="spacing" textLength="125.7475" x="569.0163" y="24.9659">MAL data pipeline</text></g><!--cluster data/raw--><g class="cluster" data-qualified-name="data.raw" data-source-line="5" id="ent0002"><path d="M458.14,46.6699 L523.2738,46.6699 A3.75,3.75 0 0 1 525.7738,49.1699 L532.7738,71.7378 L916.14,71.7378 A2.5,2.5 0 0 1 918.64,74.2378 L918.64,137.2399 A2.5,2.5 0 0 1 916.14,139.7399 L458.14,139.7399 A2.5,2.5 0 0 1 455.64,137.2399 L455.64,49.1699 A2.5,2.5 0 0 1 458.14,46.6699" fill="none" style="stroke:#000000;stroke-width:1.5;"/><line style="stroke:#000000;stroke-width:1.5;" x1="455.64" x2="532.7738" y1="71.7378" y2="71.7378"/><text fill="#000000" font-family="sans-serif" font-size="14" font-weight="bold" lengthAdjust="spacing" textLength="64.1338" x="459.64" y="63.6358">data/raw</text></g><!--cluster data/interim--><g class="cluster" data-qualified-name="data.interim" data-source-line="10" id="ent0005"><path d="M945.14,46.6699 L1035.4597,46.6699 A3.75,3.75 0 0 1 1037.9597,49.1699 L1044.9597,71.7378 L1156.14,71.7378 A2.5,2.5 0 0 1 1158.64,74.2378 L1158.64,137.2399 A2.5,2.5 0 0 1 1156.14,139.7399 L945.14,139.7399 A2.5,2.5 0 0 1 942.64,137.2399 L942.64,49.1699 A2.5,2.5 0 0 1 945.14,46.6699" fill="none" style="stroke:#000000;stroke-width:1.5;"/><line style="stroke:#000000;stroke-width:1.5;" x1="942.64" x2="1044.9597" y1="71.7378" y2="71.7378"/><text fill="#000000" font-family="sans-serif" font-size="14" font-weight="bold" lengthAdjust="spacing" textLength="89.3197" x="946.64" y="63.6358">data/interim</text></g><!--cluster data/processed--><g class="cluster" data-qualified-name="data.processed" data-source-line="14" id="ent0007"><path d="M45.14,290.8099 L154.3456,290.8099 A3.75,3.75 0 0 1 156.8456,293.3099 L163.8456,315.8778 L1244.14,315.8778 A2.5,2.5 0 0 1 1246.64,318.3778 L1246.64,381.3799 A2.5,2.5 0 0 1 1244.14,383.8799 L45.14,383.8799 A2.5,2.5 0 0 1 42.64,381.3799 L42.64,293.3099 A2.5,2.5 0 0 1 45.14,290.8099" fill="none" style="stroke:#000000;stroke-width:1.5;"/><line style="stroke:#000000;stroke-width:1.5;" x1="42.64" x2="163.8456" y1="315.8778" y2="315.8778"/><text fill="#000000" font-family="sans-serif" font-size="14" font-weight="bold" lengthAdjust="spacing" textLength="108.2056" x="46.64" y="307.7758">data/processed</text></g><!--entity homecoach--><g class="entity" data-qualified-name="data.raw.homecoach" data-source-line="6" id="ent0003"><path d="M471.63,87.1699 L471.63,121.2378 A2.5,2.5 0 0 0 474.13,123.7378 L711.1551,123.7378 A2.5,2.5 0 0 0 713.6551,121.2378 L713.6551,94.6699 L703.6551,84.6699 L474.13,84.6699 A2.5,2.5 0 0 0 471.63,87.1699" fill="#F1F1F1" style="stroke:#181818;stroke-width:0.5;"/><path d="M703.6551,84.6699 L703.6551,92.1699 A2.5,2.5 0 0 0 706.1551,94.6699 L713.6551,94.6699" fill="#F1F1F1" style="stroke:#181818;stroke-width:0.5;"/><text fill="#000000" font-family="sans-serif" font-size="14" lengthAdjust="spacing" textLength="222.0251" x="481.63" y="109.6358">HomeCoach_5min_2023..2026.csv</text></g><!--entity room_conditions--><g class="entity" data-qualified-name="data.raw.room_conditions" data-source-line="7" id="ent0004"><path d="M748.21,87.1699 L748.21,121.2378 A2.5,2.5 0 0 0 750.71,123.7378 L900.5855,123.7378 A2.5,2.5 0 0 0 903.0855,121.2378 L903.0855,94.6699 L893.0855,84.6699 L750.71,84.6699 A2.5,2.5 0 0 0 748.21,87.1699" fill="#F1F1F1" style="stroke:#181818;stroke-width:0.5;"/><path d="M893.0855,84.6699 L893.0855,92.1699 A2.5,2.5 0 0 0 895.5855,94.6699 L903.0855,94.6699" fill="#F1F1F1" style="stroke:#181818;stroke-width:0.5;"/><text fill="#000000" font-family="sans-serif" font-size="14" lengthAdjust="spacing" textLength="134.8755" x="758.21" y="109.6358">room_conditions.csv</text></g><!--entity keti--><g class="entity" data-qualified-name="data.interim.keti" data-source-line="11" id="ent0006"><path d="M958.56,87.1699 L958.56,121.2378 A2.5,2.5 0 0 0 961.06,123.7378 L1140.2374,123.7378 A2.5,2.5 0 0 0 1142.7374,121.2378 L1142.7374,94.6699 L1132.7374,84.6699 L961.06,84.6699 A2.5,2.5 0 0 0 958.56,87.1699" fill="#F1F1F1" style="stroke:#181818;stroke-width:0.5;"/><path d="M1132.7374,84.6699 L1132.7374,92.1699 A2.5,2.5 0 0 0 1135.2374,94.6699 L1142.7374,94.6699" fill="#F1F1F1" style="stroke:#181818;stroke-width:0.5;"/><text fill="#000000" font-family="sans-serif" font-size="14" lengthAdjust="spacing" textLength="164.1774" x="968.56" y="109.6358">keti_1min_resampled.csv</text></g><!--entity room_comfort--><g class="entity" data-qualified-name="data.processed.room_comfort" data-source-line="15" id="ent0008"><path d="M419.16,331.3099 L419.16,365.3778 A2.5,2.5 0 0 0 421.66,367.8778 L709.631,367.8778 A2.5,2.5 0 0 0 712.131,365.3778 L712.131,338.8099 L702.131,328.8099 L421.66,328.8099 A2.5,2.5 0 0 0 419.16,331.3099" fill="#F1F1F1" style="stroke:#181818;stroke-width:0.5;"/><path d="M702.131,328.8099 L702.131,336.3099 A2.5,2.5 0 0 0 704.631,338.8099 L712.131,338.8099" fill="#F1F1F1" style="stroke:#181818;stroke-width:0.5;"/><text fill="#000000" font-family="sans-serif" font-size="14" lengthAdjust="spacing" textLength="272.971" x="429.16" y="353.7758">1_room_measurements_with_comfort.csv</text></g><!--entity unified--><g class="entity" data-qualified-name="data.processed.unified" data-source-line="16" id="ent0009"><path d="M747.62,331.3099 L747.62,365.3778 A2.5,2.5 0 0 0 750.12,367.8778 L1023.167,367.8778 A2.5,2.5 0 0 0 1025.667,365.3778 L1025.667,338.8099 L1015.667,328.8099 L750.12,328.8099 A2.5,2.5 0 0 0 747.62,331.3099" fill="#F1F1F1" style="stroke:#181818;stroke-width:0.5;"/><path d="M1015.667,328.8099 L1015.667,336.3099 A2.5,2.5 0 0 0 1018.167,338.8099 L1025.667,338.8099" fill="#F1F1F1" style="stroke:#181818;stroke-width:0.5;"/><text fill="#000000" font-family="sans-serif" font-size="14" lengthAdjust="spacing" textLength="258.047" x="757.62" y="353.7758">unified_environment_focus_dataset.csv</text></g><!--entity report--><g class="entity" data-qualified-name="data.processed.report" data-source-line="17" id="ent0010"><path d="M58.72,331.3099 L58.72,365.3778 A2.5,2.5 0 0 0 61.22,367.8778 L382.0768,367.8778 A2.5,2.5 0 0 0 384.5768,365.3778 L384.5768,338.8099 L374.5768,328.8099 L61.22,328.8099 A2.5,2.5 0 0 0 58.72,331.3099" fill="#F1F1F1" style="stroke:#181818;stroke-width:0.5;"/><path d="M374.5768,328.8099 L374.5768,336.3099 A2.5,2.5 0 0 0 377.0768,338.8099 L384.5768,338.8099" fill="#F1F1F1" style="stroke:#181818;stroke-width:0.5;"/><text fill="#000000" font-family="sans-serif" font-size="14" lengthAdjust="spacing" textLength="305.8568" x="68.72" y="353.7758">unified_environment_focus_dataset_report.csv</text></g><!--entity final_mock--><g class="entity" data-qualified-name="data.processed.final_mock" data-source-line="18" id="ent0011"><path d="M1060.62,331.3099 L1060.62,365.3778 A2.5,2.5 0 0 0 1063.12,367.8778 L1228.1714,367.8778 A2.5,2.5 0 0 0 1230.6714,365.3778 L1230.6714,338.8099 L1220.6714,328.8099 L1063.12,328.8099 A2.5,2.5 0 0 0 1060.62,331.3099" fill="#F1F1F1" style="stroke:#181818;stroke-width:0.5;"/><path d="M1220.6714,328.8099 L1220.6714,336.3099 A2.5,2.5 0 0 0 1223.1714,338.8099 L1230.6714,338.8099" fill="#F1F1F1" style="stroke:#181818;stroke-width:0.5;"/><text fill="#000000" font-family="sans-serif" font-size="14" lengthAdjust="spacing" textLength="150.0514" x="1070.62" y="353.7758">final_mock_dataset.csv</text></g><!--entity builder--><g class="entity" data-qualified-name="builder" data-source-line="21" id="ent0012"><rect fill="#F1F1F1" height="39.0679" rx="2.5" ry="2.5" style="stroke:#181818;stroke-width:0.5;" width="319.3888" x="432.95" y="204.7399"/><text fill="#000000" font-family="sans-serif" font-size="14" lengthAdjust="spacing" textLength="299.3888" x="442.95" y="229.7058">scripts/build_unified_environment_dataset.py</text></g><!--entity unified_nb--><g class="entity" data-qualified-name="unified_nb" data-source-line="22" id="ent0013"><rect fill="#F1F1F1" height="39.0679" rx="2.5" ry="2.5" style="stroke:#181818;stroke-width:0.5;" width="429.2885" x="7" y="84.6699"/><text fill="#000000" font-family="sans-serif" font-size="14" lengthAdjust="spacing" textLength="409.2885" x="17" y="109.6358">notebooks/data_related/5_unified_environment_dataset.ipynb</text></g><!--entity mock_nb--><g class="entity" data-qualified-name="mock_nb" data-source-line="23" id="ent0014"><rect fill="#F1F1F1" height="39.0679" rx="2.5" ry="2.5" style="stroke:#181818;stroke-width:0.5;" width="379.4907" x="870.9" y="204.7399"/><text fill="#000000" font-family="sans-serif" font-size="14" lengthAdjust="spacing" textLength="359.4907" x="880.9" y="229.7058">notebooks/data_related/full_mock_data_analysis.ipynb</text></g><!--entity sessions_nb--><g class="entity" data-qualified-name="sessions_nb" data-source-line="24" id="ent0015"><rect fill="#F1F1F1" height="39.0679" rx="2.5" ry="2.5" style="stroke:#181818;stroke-width:0.5;" width="278.341" x="747.47" y="434.0499"/><text fill="#000000" font-family="sans-serif" font-size="14" lengthAdjust="spacing" textLength="258.341" x="757.47" y="459.0158">notebooks/data_related/sessions.ipynb</text></g><g class="entity" data-qualified-name="GMN28" data-source-line="43" id="ent0029"><path d="M1060.5,430.8799 L1060.5,449.5799 L1026.14,453.5799 L1060.5,457.5799 L1060.5,476.2919 A0,0 0 0 0 1060.5,476.2919 L1270.7802,476.2919 A0,0 0 0 0 1270.7802,476.2919 L1270.7802,440.8799 L1260.7802,430.8799 L1060.5,430.8799 A0,0 0 0 0 1060.5,430.8799" fill="#FEFFDD" style="stroke:#181818;stroke-width:0.5;"/><path d="M1260.7802,430.8799 L1260.7802,440.8799 L1270.7802,440.8799 L1260.7802,430.8799" fill="#FEFFDD" style="stroke:#181818;stroke-width:0.5;"/><text fill="#000000" font-family="sans-serif" font-size="13" lengthAdjust="spacing" textLength="82.1731" x="1066.5" y="449.7769">Analysis only.</text><text fill="#000000" font-family="sans-serif" font-size="13" lengthAdjust="spacing" textLength="189.2802" x="1066.5" y="467.4829">Does not generate session IDs.</text></g><!--link keti to builder--><g class="link" data-entity-1="ent0006" data-entity-2="ent0012" data-link-type="dependency" data-source-line="26" id="lnk16"><path d="M995.4,124.1499 C971.88,131.9199 944.06,140.7199 918.64,147.7399 C839.97,169.4899 755.3248,188.8533 689.6648,203.0333" fill="none" id="keti-to-builder" style="stroke:#181818;stroke-width:1;"/><polygon fill="#181818" points="683.8,204.2999,693.4416,206.3099,688.6873,203.2444,691.7528,198.4902,683.8,204.2999" style="stroke:#181818;stroke-width:1;"/></g><!--link room_conditions to builder--><g class="link" data-entity-1="ent0004" data-entity-2="ent0012" data-link-type="dependency" data-source-line="27" id="lnk17"><path d="M788.21,124.1799 C744.73,146.2099 678.7822,179.6281 635.3422,201.6381" fill="none" id="room_conditions-to-builder" style="stroke:#181818;stroke-width:1;"/><polygon fill="#181818" points="629.99,204.3499,639.8262,203.8503,634.4502,202.09,636.2104,196.714,629.99,204.3499" style="stroke:#181818;stroke-width:1;"/></g><!--link room_comfort to builder--><g class="link" data-entity-1="ent0008" data-entity-2="ent0012" data-link-type="dependency" data-source-line="28" id="lnk18"><path d="M569.85,328.3199 C574.93,305.3399 582.1363,272.8088 587.1863,249.9388" fill="none" id="room_comfort-to-builder" style="stroke:#181818;stroke-width:1;"/><polygon fill="#181818" points="588.48,244.0799,582.6335,252.0057,587.4019,248.9623,590.4453,253.7307,588.48,244.0799" style="stroke:#181818;stroke-width:1;"/></g><!--link homecoach to builder--><g class="link" data-entity-1="ent0003" data-entity-2="ent0012" data-link-type="dependency" data-source-line="29" id="lnk19"><path d="M592.64,124.1799 C592.64,146.2099 592.64,176.3399 592.64,198.3499" fill="none" id="homecoach-to-builder" style="stroke:#181818;stroke-width:1;"/><polygon fill="#181818" points="592.64,204.3499,596.64,195.3499,592.64,199.3499,588.64,195.3499,592.64,204.3499" style="stroke:#181818;stroke-width:1;"/></g><!--link builder to unified--><g class="link" data-entity-1="ent0012" data-entity-2="ent0009" data-link-type="dependency" data-source-line="31" id="lnk20"><path d="M638.26,244.2199 C693.42,267.1199 780.1685,303.1394 835.3785,326.0594" fill="none" id="builder-to-unified" style="stroke:#181818;stroke-width:1;"/><polygon fill="#181818" points="840.92,328.3599,834.1415,321.2149,836.3021,326.4428,831.0742,328.6035,840.92,328.3599" style="stroke:#181818;stroke-width:1;"/></g><!--link builder to report--><g class="link" data-entity-1="ent0012" data-entity-2="ent0010" data-link-type="dependency" data-source-line="32" id="lnk21"><path d="M526.53,244.2799 C489.63,255.1099 442.92,269.1999 401.64,282.8099 C357.66,297.3099 313.7896,313.0944 277.8496,326.3444" fill="none" id="builder-to-report" style="stroke:#181818;stroke-width:1;"/><polygon fill="#181818" points="272.22,328.4199,282.048,329.0598,276.9113,326.6903,279.2808,321.5536,272.22,328.4199" style="stroke:#181818;stroke-width:1;"/></g><!--link unified_nb to builder--><g class="link" data-entity-1="ent0013" data-entity-2="ent0012" data-link-type="dependency" data-source-line="34" id="lnk22"><path d="M281.25,124.1799 C350.38,146.1799 457.9627,180.4098 527.1627,202.4398" fill="none" id="unified_nb-to-builder" style="stroke:#181818;stroke-width:1;"/><polygon fill="#181818" points="532.88,204.2599,525.5175,197.7182,528.1156,202.7431,523.0907,205.3413,532.88,204.2599" style="stroke:#181818;stroke-width:1;"/><text fill="#000000" font-family="sans-serif" font-size="13" lengthAdjust="spacing" textLength="102.3881" x="430.36" y="170.6369">rebuilds or loads</text></g><!--link unified_nb to unified--><g class="link" data-entity-1="ent0013" data-entity-2="ent0009" data-link-type="dependency" data-source-line="35" id="lnk23"><path d="M234.33,124.0099 C256.45,155.0699 305.35,216.3899 363.64,243.8099 C511.67,313.4499 571.06,242.6399 729.64,282.8099 C772.07,293.5599 812.6864,310.9629 843.8664,325.8629" fill="none" id="unified_nb-to-unified" style="stroke:#181818;stroke-width:1;"/><polygon fill="#181818" points="849.28,328.4499,842.8842,320.9603,844.7686,326.2941,839.4349,328.1785,849.28,328.4499" style="stroke:#181818;stroke-width:1;"/><text fill="#000000" font-family="sans-serif" font-size="13" lengthAdjust="spacing" textLength="50.1021" x="364.64" y="229.6769">inspects</text></g><!--link unified_nb to report--><g class="link" data-entity-1="ent0013" data-entity-2="ent0010" data-link-type="dependency" data-source-line="36" id="lnk24"><path d="M221.64,124.2099 C221.64,169.4699 221.64,277.2599 221.64,322.4299" fill="none" id="unified_nb-to-report" style="stroke:#181818;stroke-width:1;"/><polygon fill="#181818" points="221.64,328.4299,225.64,319.4299,221.64,323.4299,217.64,319.4299,221.64,328.4299" style="stroke:#181818;stroke-width:1;"/><text fill="#000000" font-family="sans-serif" font-size="13" lengthAdjust="spacing" textLength="50.1021" x="222.64" y="229.6769">inspects</text></g><!--link unified to mock_nb--><g class="link" data-entity-1="ent0009" data-entity-2="ent0014" data-link-type="dependency" data-source-line="38" id="lnk25"><path d="M913.77,328.3199 C946.51,305.3399 996.3282,270.3957 1028.9282,247.5257" fill="none" id="unified-to-mock_nb" style="stroke:#181818;stroke-width:1;"/><polygon fill="#181818" points="1033.84,244.0799,1024.175,245.9741,1029.7468,246.9514,1028.7694,252.5232,1033.84,244.0799" style="stroke:#181818;stroke-width:1;"/></g><!--link mock_nb to final_mock--><g class="link" data-entity-1="ent0014" data-entity-2="ent0011" data-link-type="dependency" data-source-line="39" id="lnk26"><path d="M1073.74,244.0799 C1089.67,266.9499 1112.973,300.4149 1128.963,323.3949" fill="none" id="mock_nb-to-final_mock" style="stroke:#181818;stroke-width:1;"/><polygon fill="#181818" points="1132.39,328.3199,1130.5329,318.6477,1129.5342,324.2157,1123.9662,323.217,1132.39,328.3199" style="stroke:#181818;stroke-width:1;"/></g><!--link unified to sessions_nb--><g class="link" data-entity-1="ent0009" data-entity-2="ent0015" data-link-type="dependency" data-source-line="40" id="lnk27"><path d="M886.64,368.2799 C886.64,386.9099 886.64,409.1799 886.64,427.7699" fill="none" id="unified-to-sessions_nb" style="stroke:#181818;stroke-width:1;"/><polygon fill="#181818" points="886.64,433.7699,890.64,424.7699,886.64,428.7699,882.64,424.7699,886.64,433.7699" style="stroke:#181818;stroke-width:1;"/></g><?plantuml-src ZLFDRjim3BxxAOZSwwmTkiCE0uhri0BTQGyWA3QT4954GPHR1CFUVP9cEt9I3BdO5hyVKYGTAHg4dq-lqEkemPD7GmwRHexal0xQGiVMiqCNVyLJuWRiedPxapW3cnu3RB9q6_Jx1dut00CbrkO7M_pEkZkeHqjEFNnw-DoswVcbxUHj0rhWa1XTPYoQm6nLnwwdIEnaOLx4cpyNgSb536Jhz4UCfEvpve2YhJVOBtOPk_BmWJiKmRvskLSbjKKjOq2RUY3gdU8X5MC73l6omX9SrAEZWR1NwDueiCjoDN0tYieP1S_oYNcxCjtAh_ANuw8Vo6cZB7V7grHdABTWcIrif0laesnt8vbUVLJ1RELFnQaGCTGUZYFkc8-opTnKfD4H--tZV-t8dzokReDoknjCXz5KLrGwNUia99LT0M_oaZJvid5dyHpA1atU6BYx-xRS-M8ZFyBABgo0PU5NqMRwAC5v4UhODDlct9rQ3ryJeNmBS033kfTBwdHCL7BYq_zxnVYNeoRCZ0BFdPpU9LOjKarTzIst6mBj3n5uM440JzF0W9qvjIdmp2YG5B17Xo7DPHR0oxEq3Re-ezZy1G00?></g></svg>