<?plantuml 1.2026.1?><svg xmlns="http://www.w3.org/2000/svg" xmlns:xlink="http://www.w3.org/1999/xlink" contentStyleType="text/css" data-diagram-type="ACTIVITY" height="495px" preserveAspectRatio="none" style="width:1575px;height:495px;background:#FFFFFF;" version="1.1" viewBox="0 0 1575 495" width="1575px" zoomAndPan="magnify"><title>Activity Diagram: StudyHelper</title><defs/><g><g class="title" data-source-line="3"><text fill="#000000" font-family="sans-serif" font-size="14" font-weight="bold" lengthAdjust="spacing" textLength="211.0352" x="680.6207" y="34.9659">Activity Diagram: StudyHelper</text></g><ellipse cx="795.1383" cy="60.0679" fill="#222222" rx="10" ry="10" style="stroke:#222222;stroke-width:1;"/><line style="stroke:#181818;stroke-width:1.5;" x1="81.9584" x2="1482.1788" y1="90.0679" y2="90.0679"/><rect fill="none" height="228.4373" style="stroke:#000000;stroke-width:1.5;" width="141.9167" x="11" y="169.3329"/><path d="M131.7675,169.3329 L131.7675,181.4008 L121.7675,191.4008 L11,191.4008" fill="none" style="stroke:#000000;stroke-width:1.5;"/><text fill="#000000" font-family="sans-serif" font-size="14" lengthAdjust="spacing" textLength="110.7675" x="14" y="185.2988">CheckNoiseLevel</text><rect fill="#F1F1F1" height="36.3441" rx="12.5" ry="12.5" style="stroke:#181818;stroke-width:0.5;" width="121.9167" x="21" y="211.4008"/><text fill="#000000" font-family="sans-serif" font-size="12" lengthAdjust="spacing" textLength="101.9167" x="31" y="234.2289">requestNoiseData</text><rect fill="#F1F1F1" height="36.3441" rx="12.5" ry="12.5" style="stroke:#181818;stroke-width:0.5;" width="42.6322" x="60.6423" y="317.7449"/><text fill="#000000" font-family="sans-serif" font-size="12" lengthAdjust="spacing" textLength="22.6322" x="70.6423" y="340.573">skip</text><rect fill="none" height="228.4373" style="stroke:#000000;stroke-width:1.5;" width="138.4367" x="162.9167" y="169.3329"/><path d="M279.6243,169.3329 L279.6243,181.4008 L269.6243,191.4008 L162.9167,191.4008" fill="none" style="stroke:#000000;stroke-width:1.5;"/><text fill="#000000" font-family="sans-serif" font-size="14" lengthAdjust="spacing" textLength="106.7076" x="165.9167" y="185.2988">CheckLightLevel</text><rect fill="#F1F1F1" height="36.3441" rx="12.5" ry="12.5" style="stroke:#181818;stroke-width:0.5;" width="118.4367" x="172.9167" y="211.4008"/><text fill="#000000" font-family="sans-serif" font-size="12" lengthAdjust="spacing" textLength="98.4367" x="182.9167" y="234.2289">requestLightData</text><rect fill="#F1F1F1" height="36.3441" rx="12.5" ry="12.5" style="stroke:#181818;stroke-width:0.5;" width="42.6322" x="210.819" y="317.7449"/><text fill="#000000" font-family="sans-serif" font-size="12" lengthAdjust="spacing" textLength="22.6322" x="220.819" y="340.573">skip</text><rect fill="none" height="228.4373" style="stroke:#000000;stroke-width:1.5;" width="133.7447" x="311.3534" y="169.3329"/><path d="M422.587,169.3329 L422.587,181.4008 L412.587,191.4008 L311.3534,191.4008" fill="none" style="stroke:#000000;stroke-width:1.5;"/><text fill="#000000" font-family="sans-serif" font-size="14" lengthAdjust="spacing" textLength="101.2336" x="314.3534" y="185.2988">CheckCO2Level</text><rect fill="#F1F1F1" height="36.3441" rx="12.5" ry="12.5" style="stroke:#181818;stroke-width:0.5;" width="113.7447" x="321.3534" y="211.4008"/><text fill="#000000" font-family="sans-serif" font-size="12" lengthAdjust="spacing" textLength="93.7447" x="331.3534" y="234.2289">requestCO2Data</text><rect fill="#F1F1F1" height="36.3441" rx="12.5" ry="12.5" style="stroke:#181818;stroke-width:0.5;" width="42.6322" x="356.9097" y="317.7449"/><text fill="#000000" font-family="sans-serif" font-size="12" lengthAdjust="spacing" textLength="22.6322" x="366.9097" y="340.573">skip</text><rect fill="none" height="228.4373" style="stroke:#000000;stroke-width:1.5;" width="183.893" x="455.0981" y="169.3329"/><path d="M590.9856,169.3329 L590.9856,181.4008 L580.9856,191.4008 L455.0981,191.4008" fill="none" style="stroke:#000000;stroke-width:1.5;"/><text fill="#000000" font-family="sans-serif" font-size="14" lengthAdjust="spacing" textLength="125.8875" x="458.0981" y="185.2988">CheckTemperature</text><rect fill="#F1F1F1" height="36.3441" rx="12.5" ry="12.5" style="stroke:#181818;stroke-width:0.5;" width="163.893" x="465.0981" y="211.4008"/><text fill="#000000" font-family="sans-serif" font-size="12" lengthAdjust="spacing" textLength="143.893" x="475.0981" y="234.2289">requestTemperatureData</text><rect fill="#F1F1F1" height="36.3441" rx="12.5" ry="12.5" style="stroke:#181818;stroke-width:0.5;" width="42.6322" x="525.7285" y="317.7449"/><text fill="#000000" font-family="sans-serif" font-size="12" lengthAdjust="spacing" textLength="22.6322" x="535.7285" y="340.573">skip</text><rect fill="none" height="228.4373" style="stroke:#000000;stroke-width:1.5;" width="161.4768" x="648.9911" y="169.3329"/><path d="M758.7267,169.3329 L758.7267,181.4008 L748.7267,191.4008 L648.9911,191.4008" fill="none" style="stroke:#000000;stroke-width:1.5;"/><text fill="#000000" font-family="sans-serif" font-size="14" lengthAdjust="spacing" textLength="99.7356" x="651.9911" y="185.2988">CheckHumidity</text><rect fill="#F1F1F1" height="36.3441" rx="12.5" ry="12.5" style="stroke:#181818;stroke-width:0.5;" width="141.4768" x="658.9911" y="211.4008"/><text fill="#000000" font-family="sans-serif" font-size="12" lengthAdjust="spacing" textLength="121.4768" x="668.9911" y="234.2289">requestHumidityData</text><rect fill="#F1F1F1" height="36.3441" rx="12.5" ry="12.5" style="stroke:#181818;stroke-width:0.5;" width="42.6322" x="708.4134" y="317.7449"/><text fill="#000000" font-family="sans-serif" font-size="12" lengthAdjust="spacing" textLength="22.6322" x="718.4134" y="340.573">skip</text><rect fill="none" height="228.4373" style="stroke:#000000;stroke-width:1.5;" width="182.2714" x="820.4679" y="169.3329"/><path d="M997.7393,169.3329 L997.7393,181.4008 L987.7393,191.4008 L820.4679,191.4008" fill="none" style="stroke:#000000;stroke-width:1.5;"/><text fill="#000000" font-family="sans-serif" font-size="14" lengthAdjust="spacing" textLength="167.2714" x="823.4679" y="185.2988">SetDataCollectionInterval</text><rect fill="#F1F1F1" height="36.3441" rx="12.5" ry="12.5" style="stroke:#181818;stroke-width:0.5;" width="117.6447" x="855.2813" y="211.4008"/><text fill="#000000" font-family="sans-serif" font-size="12" lengthAdjust="spacing" textLength="97.6447" x="865.2813" y="234.2289">configureInterval</text><rect fill="#F1F1F1" height="36.3441" rx="12.5" ry="12.5" style="stroke:#181818;stroke-width:0.5;" width="42.6322" x="892.7875" y="317.7449"/><text fill="#000000" font-family="sans-serif" font-size="12" lengthAdjust="spacing" textLength="22.6322" x="902.7875" y="340.573">skip</text><rect fill="none" height="228.4373" style="stroke:#000000;stroke-width:1.5;" width="136.1807" x="1012.7393" y="169.3329"/><path d="M1126.8148,169.3329 L1126.8148,181.4008 L1116.8148,191.4008 L1012.7393,191.4008" fill="none" style="stroke:#000000;stroke-width:1.5;"/><text fill="#000000" font-family="sans-serif" font-size="14" lengthAdjust="spacing" textLength="104.0756" x="1015.7393" y="185.2988">CheckDustLevel</text><rect fill="#F1F1F1" height="36.3441" rx="12.5" ry="12.5" style="stroke:#181818;stroke-width:0.5;" width="116.1807" x="1022.7393" y="211.4008"/><text fill="#000000" font-family="sans-serif" font-size="12" lengthAdjust="spacing" textLength="96.1807" x="1032.7393" y="234.2289">requestDustData</text><rect fill="#F1F1F1" height="36.3441" rx="12.5" ry="12.5" style="stroke:#181818;stroke-width:0.5;" width="42.6322" x="1059.5135" y="317.7449"/><text fill="#000000" font-family="sans-serif" font-size="12" lengthAdjust="spacing" textLength="22.6322" x="1069.5135" y="340.573">skip</text><rect fill="none" height="320.7633" style="stroke:#000000;stroke-width:1.5;" width="226.1611" x="1158.9199" y="101.6699"/><path d="M1380.0811,101.6699 L1380.0811,113.7378 L1370.0811,123.7378 L1158.9199,123.7378" fill="none" style="stroke:#000000;stroke-width:1.5;"/><text fill="#000000" font-family="sans-serif" font-size="14" lengthAdjust="spacing" textLength="211.1611" x="1161.9199" y="117.6358">ReceiveEnvironmentNotification</text><rect fill="#F1F1F1" height="36.3441" rx="12.5" ry="12.5" style="stroke:#181818;stroke-width:0.5;" width="138.1888" x="1194.9061" y="140.7378"/><text fill="#000000" font-family="sans-serif" font-size="12" lengthAdjust="spacing" textLength="118.1888" x="1204.9061" y="163.5659">monitorEnvironment</text><rect fill="#F1F1F1" height="36.3441" rx="12.5" ry="12.5" style="stroke:#181818;stroke-width:0.5;" width="42.6322" x="1242.6844" y="264.5729"/><text fill="#000000" font-family="sans-serif" font-size="12" lengthAdjust="spacing" textLength="22.6322" x="1252.6844" y="287.401">skip</text><polygon fill="#F1F1F1" points="1202.6594,215.0819,1325.3416,215.0819,1337.3416,227.0819,1325.3416,239.0819,1202.6594,239.0819,1190.6594,227.0819,1202.6594,215.0819" style="stroke:#181818;stroke-width:0.5;"/><text fill="#000000" font-family="sans-serif" font-size="11" lengthAdjust="spacing" textLength="17.0829" x="1268.0005" y="250.8408">yes</text><text fill="#000000" font-family="sans-serif" font-size="11" lengthAdjust="spacing" textLength="122.6822" x="1202.6594" y="231.3499">Parameters not optimal</text><text fill="#000000" font-family="sans-serif" font-size="11" lengthAdjust="spacing" textLength="13.4529" x="1337.3416" y="223.859">no</text><polygon fill="#F1F1F1" points="1264.0005,326.4079,1276.0005,338.4079,1264.0005,350.4079,1252.0005,338.4079,1264.0005,326.4079" style="stroke:#181818;stroke-width:0.5;"/><rect fill="#F1F1F1" height="36.3441" rx="12.5" ry="12.5" style="stroke:#181818;stroke-width:0.5;" width="112.9407" x="1207.5302" y="374.089"/><text fill="#000000" font-family="sans-serif" font-size="12" lengthAdjust="spacing" textLength="92.9407" x="1217.5302" y="396.9171">sendNotification</text><rect fill="none" height="130.412" style="stroke:#000000;stroke-width:1.5;" width="169.1954" x="1395.0811" y="208.005"/><path d="M1559.2765,208.005 L1559.2765,220.0729 L1549.2765,230.0729 L1395.0811,230.0729" fill="none" style="stroke:#000000;stroke-width:1.5;"/><text fill="#000000" font-family="sans-serif" font-size="14" lengthAdjust="spacing" textLength="154.1954" x="1398.0811" y="223.9709">RateStudySessionFocus</text><rect fill="#F1F1F1" height="36.3441" rx="12.5" ry="12.5" style="stroke:#181818;stroke-width:0.5;" width="128.0247" x="1418.1664" y="247.0729"/><text fill="#000000" font-family="sans-serif" font-size="12" lengthAdjust="spacing" textLength="108.0247" x="1428.1664" y="269.901">submitFocusRating</text><line style="stroke:#181818;stroke-width:1.5;" x1="81.9584" x2="1482.1788" y1="442.4332" y2="442.4332"/><ellipse cx="795.1383" cy="473.4332" fill="none" rx="11" ry="11" style="stroke:#222222;stroke-width:1;"/><ellipse cx="795.1383" cy="473.4332" fill="#222222" rx="6" ry="6" style="stroke:#222222;stroke-width:1;"/><line style="stroke:#181818;stroke-width:1;" x1="81.9584" x2="81.9584" y1="91.5679" y2="211.4008"/><polygon fill="#181818" points="77.9584,201.4008,81.9584,211.4008,85.9584,201.4008,81.9584,205.4008" style="stroke:#181818;stroke-width:1;"/><line style="stroke:#181818;stroke-width:1;" x1="81.9584" x2="81.9584" y1="247.7449" y2="317.7449"/><polygon fill="#181818" points="77.9584,307.7449,81.9584,317.7449,85.9584,307.7449,81.9584,311.7449" style="stroke:#181818;stroke-width:1;"/><line style="stroke:#181818;stroke-width:1;" x1="81.9584" x2="81.9584" y1="354.089" y2="442.4332"/><polygon fill="#181818" points="77.9584,432.4332,81.9584,442.4332,85.9584,432.4332,81.9584,436.4332" style="stroke:#181818;stroke-width:1;"/><line style="stroke:#181818;stroke-width:1;" x1="232.1351" x2="232.1351" y1="91.5679" y2="211.4008"/><polygon fill="#181818" points="228.1351,201.4008,232.1351,211.4008,236.1351,201.4008,232.1351,205.4008" style="stroke:#181818;stroke-width:1;"/><line style="stroke:#181818;stroke-width:1;" x1="232.1351" x2="232.1351" y1="247.7449" y2="317.7449"/><polygon fill="#181818" points="228.1351,307.7449,232.1351,317.7449,236.1351,307.7449,232.1351,311.7449" style="stroke:#181818;stroke-width:1;"/><line style="stroke:#181818;stroke-width:1;" x1="232.1351" x2="232.1351" y1="354.089" y2="442.4332"/><polygon fill="#181818" points="228.1351,432.4332,232.1351,442.4332,236.1351,432.4332,232.1351,436.4332" style="stroke:#181818;stroke-width:1;"/><line style="stroke:#181818;stroke-width:1;" x1="378.2257" x2="378.2257" y1="91.5679" y2="211.4008"/><polygon fill="#181818" points="374.2257,201.4008,378.2257,211.4008,382.2257,201.4008,378.2257,205.4008" style="stroke:#181818;stroke-width:1;"/><line style="stroke:#181818;stroke-width:1;" x1="378.2257" x2="378.2257" y1="247.7449" y2="317.7449"/><polygon fill="#181818" points="374.2257,307.7449,378.2257,317.7449,382.2257,307.7449,378.2257,311.7449" style="stroke:#181818;stroke-width:1;"/><line style="stroke:#181818;stroke-width:1;" x1="378.2257" x2="378.2257" y1="354.089" y2="442.4332"/><polygon fill="#181818" points="374.2257,432.4332,378.2257,442.4332,382.2257,432.4332,378.2257,436.4332" style="stroke:#181818;stroke-width:1;"/><line style="stroke:#181818;stroke-width:1;" x1="547.0446" x2="547.0446" y1="91.5679" y2="211.4008"/><polygon fill="#181818" points="543.0446,201.4008,547.0446,211.4008,551.0446,201.4008,547.0446,205.4008" style="stroke:#181818;stroke-width:1;"/><line style="stroke:#181818;stroke-width:1;" x1="547.0446" x2="547.0446" y1="247.7449" y2="317.7449"/><polygon fill="#181818" points="543.0446,307.7449,547.0446,317.7449,551.0446,307.7449,547.0446,311.7449" style="stroke:#181818;stroke-width:1;"/><line style="stroke:#181818;stroke-width:1;" x1="547.0446" x2="547.0446" y1="354.089" y2="442.4332"/><polygon fill="#181818" points="543.0446,432.4332,547.0446,442.4332,551.0446,432.4332,547.0446,436.4332" style="stroke:#181818;stroke-width:1;"/><line style="stroke:#181818;stroke-width:1;" x1="729.7295" x2="729.7295" y1="91.5679" y2="211.4008"/><polygon fill="#181818" points="725.7295,201.4008,729.7295,211.4008,733.7295,201.4008,729.7295,205.4008" style="stroke:#181818;stroke-width:1;"/><line style="stroke:#181818;stroke-width:1;" x1="729.7295" x2="729.7295" y1="247.7449" y2="317.7449"/><polygon fill="#181818" points="725.7295,307.7449,729.7295,317.7449,733.7295,307.7449,729.7295,311.7449" style="stroke:#181818;stroke-width:1;"/><line style="stroke:#181818;stroke-width:1;" x1="729.7295" x2="729.7295" y1="354.089" y2="442.4332"/><polygon fill="#181818" points="725.7295,432.4332,729.7295,442.4332,733.7295,432.4332,729.7295,436.4332" style="stroke:#181818;stroke-width:1;"/><line style="stroke:#181818;stroke-width:1;" x1="914.1036" x2="914.1036" y1="91.5679" y2="211.4008"/><polygon fill="#181818" points="910.1036,201.4008,914.1036,211.4008,918.1036,201.4008,914.1036,205.4008" style="stroke:#181818;stroke-width:1;"/><line style="stroke:#181818;stroke-width:1;" x1="914.1036" x2="914.1036" y1="247.7449" y2="317.7449"/><polygon fill="#181818" points="910.1036,307.7449,914.1036,317.7449,918.1036,307.7449,914.1036,311.7449" style="stroke:#181818;stroke-width:1;"/><line style="stroke:#181818;stroke-width:1;" x1="914.1036" x2="914.1036" y1="354.089" y2="442.4332"/><polygon fill="#181818" points="910.1036,432.4332,914.1036,442.4332,918.1036,432.4332,914.1036,436.4332" style="stroke:#181818;stroke-width:1;"/><line style="stroke:#181818;stroke-width:1;" x1="1080.8296" x2="1080.8296" y1="91.5679" y2="211.4008"/><polygon fill="#181818" points="1076.8296,201.4008,1080.8296,211.4008,1084.8296,201.4008,1080.8296,205.4008" style="stroke:#181818;stroke-width:1;"/><line style="stroke:#181818;stroke-width:1;" x1="1080.8296" x2="1080.8296" y1="247.7449" y2="317.7449"/><polygon fill="#181818" points="1076.8296,307.7449,1080.8296,317.7449,1084.8296,307.7449,1080.8296,311.7449" style="stroke:#181818;stroke-width:1;"/><line style="stroke:#181818;stroke-width:1;" x1="1080.8296" x2="1080.8296" y1="354.089" y2="442.4332"/><polygon fill="#181818" points="1076.8296,432.4332,1080.8296,442.4332,1084.8296,432.4332,1080.8296,436.4332" style="stroke:#181818;stroke-width:1;"/><line style="stroke:#181818;stroke-width:1;" x1="1264.0005" x2="1264.0005" y1="177.0819" y2="215.0819"/><polygon fill="#181818" points="1260.0005,205.0819,1264.0005,215.0819,1268.0005,205.0819,1264.0005,209.0819" style="stroke:#181818;stroke-width:1;"/><line style="stroke:#181818;stroke-width:1;" x1="1264.0005" x2="1264.0005" y1="239.0819" y2="264.5729"/><polygon fill="#181818" points="1260.0005,254.5729,1264.0005,264.5729,1268.0005,254.5729,1264.0005,258.5729" style="stroke:#181818;stroke-width:1;"/><line style="stroke:#181818;stroke-width:1;" x1="1337.3416" x2="1349.3416" y1="227.0819" y2="227.0819"/><polygon fill="#181818" points="1345.3416,272.7449,1349.3416,282.7449,1353.3416,272.7449,1349.3416,276.7449" style="stroke:#181818;stroke-width:1;"/><line style="stroke:#181818;stroke-width:1;" x1="1349.3416" x2="1349.3416" y1="227.0819" y2="338.4079"/><line style="stroke:#181818;stroke-width:1;" x1="1349.3416" x2="1276.0005" y1="338.4079" y2="338.4079"/><polygon fill="#181818" points="1286.0005,334.4079,1276.0005,338.4079,1286.0005,342.4079,1282.0005,338.4079" style="stroke:#181818;stroke-width:1;"/><line style="stroke:#181818;stroke-width:1;" x1="1264.0005" x2="1264.0005" y1="300.917" y2="326.4079"/><polygon fill="#181818" points="1260.0005,316.4079,1264.0005,326.4079,1268.0005,316.4079,1264.0005,320.4079" style="stroke:#181818;stroke-width:1;"/><line style="stroke:#181818;stroke-width:1;" x1="1264.0005" x2="1264.0005" y1="350.4079" y2="374.089"/><polygon fill="#181818" points="1260.0005,364.089,1264.0005,374.089,1268.0005,364.089,1264.0005,368.089" style="stroke:#181818;stroke-width:1;"/><line style="stroke:#181818;stroke-width:1;" x1="1264.0005" x2="1264.0005" y1="410.4332" y2="442.4332"/><polygon fill="#181818" points="1260.0005,432.4332,1264.0005,442.4332,1268.0005,432.4332,1264.0005,436.4332" style="stroke:#181818;stroke-width:1;"/><line style="stroke:#181818;stroke-width:1;" x1="1482.1788" x2="1482.1788" y1="283.417" y2="442.4332"/><polygon fill="#181818" points="1478.1788,432.4332,1482.1788,442.4332,1486.1788,432.4332,1482.1788,436.4332" style="stroke:#181818;stroke-width:1;"/><line style="stroke:#181818;stroke-width:1;" x1="1264.0005" x2="1264.0005" y1="91.5679" y2="140.7378"/><polygon fill="#181818" points="1260.0005,130.7378,1264.0005,140.7378,1268.0005,130.7378,1264.0005,134.7378" style="stroke:#181818;stroke-width:1;"/><line style="stroke:#181818;stroke-width:1;" x1="1482.1788" x2="1482.1788" y1="91.5679" y2="247.0729"/><polygon fill="#181818" points="1478.1788,237.0729,1482.1788,247.0729,1486.1788,237.0729,1482.1788,241.0729" style="stroke:#181818;stroke-width:1;"/><line style="stroke:#181818;stroke-width:1;" x1="795.1383" x2="795.1383" y1="70.0679" y2="90.0679"/><polygon fill="#181818" points="791.1383,80.0679,795.1383,90.0679,799.1383,80.0679,795.1383,84.0679" style="stroke:#181818;stroke-width:1;"/><line style="stroke:#181818;stroke-width:1;" x1="795.1383" x2="795.1383" y1="443.9332" y2="462.4332"/><polygon fill="#181818" points="791.1383,452.4332,795.1383,462.4332,799.1383,452.4332,795.1383,456.4332" style="stroke:#181818;stroke-width:1;"/><?plantuml-src bPL1J-Cm48Nl-HKZBfJh7ii9jI2GMa2KFICtdQQZEdQ89v4Yn7_VIK9QbtLSo26A_DwplnavzYKyQsNuxt816Hei5UC6rWqid-QlYTkJALIfSbYYSoh36qsPWHGDOvamiKQuIPbguWRcf3AnJc75rQQvHrs8nx4gEN659ava9ecGDN0nss6wVxJaS84rwWluI40UhTQeuPluri_HwjCItojqt8bpnUew5cjS7v8gYfWHpIRvx1b1POhCVwGBodOyHdeK0wIT62JrOr5IptYUTFRqPunpa0AK8WKPZv4euS5sdkyLywBTP5M90KHF3L1wQf3s91q5zftdcU-hd3QommF0WnIW7QGWwZ4NvJpOef0hx7ROp6gDQJlqqFwUjVgs2KPjFdngpPOowSiWNlziXh4onYFd-pwltEXFTz02dM-rODUzKBJjHryKyWLJf1flJKsbDRaSYe-MQKkfQlK1UffRGsnBp-Ol69_ahNFI5YRFxJ6CqZi7nZBOWYbN-WfuXmOc3RghpdfI4cg7C36sbwGMsdvLBT_-Chy0YdT4Re_kz5_9TI4ZTpQjtA4HhbhdnDsO6Cba9yk6eb-hoRk_GHpRuXy0?></g></svg>