<?plantuml 1.2026.1?><svg xmlns="http://www.w3.org/2000/svg" xmlns:xlink="http://www.w3.org/1999/xlink" contentStyleType="text/css" data-diagram-type="CLASS" height="267px" preserveAspectRatio="none" style="width:216px;height:267px;background:#FFFFFF;" version="1.1" viewBox="0 0 216 267" width="216px" zoomAndPan="magnify"><title>Design Model: StudyHelper</title><defs/><g><g class="title" data-source-line="2"><text fill="#000000" font-family="sans-serif" font-size="14" font-weight="bold" lengthAdjust="spacing" textLength="188.7473" x="10" y="24.9659">Design Model: StudyHelper</text></g><!--class Student--><g class="entity" data-qualified-name="Student" data-source-line="3" id="ent0002"><rect fill="#F1F1F1" height="86.1358" rx="2.5" ry="2.5" style="stroke:#181818;stroke-width:0.5;" width="123.3556" x="49.6949" y="47.0679"/><ellipse cx="82.5832" cy="63.0679" fill="#ADD1B2" rx="11" ry="11" style="stroke:#181818;stroke-width:1;"/><path d="M82.0519,69.9898 Q80.3019,69.9898 79.1613,69.2554 Q78.0363,68.5054 77.4738,67.1617 Q76.9269,65.8023 76.9269,64.0054 Q76.9269,61.9742 77.5832,60.521 Q78.2394,59.0679 79.5207,58.2867 Q80.8019,57.5054 82.6769,57.5054 Q83.5675,57.5054 84.2394,57.6929 Q84.9113,57.8648 85.5988,58.2085 L84.7863,60.2242 Q84.1613,59.9117 83.6144,59.7867 Q83.0832,59.6617 82.5988,59.6617 Q81.4269,59.6617 80.7238,60.1929 Q80.0207,60.7242 79.7238,61.6773 Q79.4269,62.6304 79.4269,63.896 Q79.4269,65.9117 80.1457,66.8804 Q80.8644,67.8335 82.4582,67.8335 Q83.0519,67.8335 83.6769,67.6773 Q84.3019,67.521 85.13,67.146 L85.13,69.3648 Q84.3957,69.6773 83.5988,69.8335 Q82.8175,69.9898 82.0519,69.9898 Z " fill="#000000"/><text fill="#000000" font-family="sans-serif" font-size="14" lengthAdjust="spacing" textLength="51.6038" x="100.5583" y="68.4999">Student</text><line style="stroke:#181818;stroke-width:0.5;" x1="50.6949" x2="172.0504" y1="79.0679" y2="79.0679"/><text fill="#000000" font-family="sans-serif" font-size="14" lengthAdjust="spacing" textLength="97.2296" x="55.6949" y="98.0339">studying : bool</text><text fill="#000000" font-family="sans-serif" font-size="14" lengthAdjust="spacing" textLength="111.3556" x="55.6949" y="117.1018">authorized : bool</text><line style="stroke:#181818;stroke-width:0.5;" x1="50.6949" x2="172.0504" y1="125.2038" y2="125.2038"/></g><!--class StudyEnvironment--><g class="entity" data-qualified-name="StudyEnvironment" data-source-line="7" id="ent0003"><rect fill="#F1F1F1" height="48" rx="2.5" ry="2.5" style="stroke:#181818;stroke-width:0.5;" width="153.8975" x="34.4249" y="212.2079"/><ellipse cx="49.4249" cy="228.2079" fill="#ADD1B2" rx="11" ry="11" style="stroke:#181818;stroke-width:1;"/><path d="M48.8936,235.1298 Q47.1436,235.1298 46.003,234.3954 Q44.878,233.6454 44.3155,232.3017 Q43.7686,230.9423 43.7686,229.1454 Q43.7686,227.1142 44.4249,225.661 Q45.0811,224.2079 46.3624,223.4267 Q47.6436,222.6454 49.5186,222.6454 Q50.4092,222.6454 51.0811,222.8329 Q51.753,223.0048 52.4405,223.3485 L51.628,225.3642 Q51.003,225.0517 50.4561,224.9267 Q49.9249,224.8017 49.4405,224.8017 Q48.2686,224.8017 47.5655,225.3329 Q46.8624,225.8642 46.5655,226.8173 Q46.2686,227.7704 46.2686,229.036 Q46.2686,231.0517 46.9874,232.0204 Q47.7061,232.9735 49.2999,232.9735 Q49.8936,232.9735 50.5186,232.8173 Q51.1436,232.661 51.9717,232.286 L51.9717,234.5048 Q51.2374,234.8173 50.4405,234.9735 Q49.6592,235.1298 48.8936,235.1298 Z " fill="#000000"/><text fill="#000000" font-family="sans-serif" font-size="14" lengthAdjust="spacing" textLength="121.8975" x="63.4249" y="233.6399">StudyEnvironment</text><line style="stroke:#181818;stroke-width:0.5;" x1="35.4249" x2="187.3224" y1="244.2079" y2="244.2079"/><line style="stroke:#181818;stroke-width:0.5;" x1="35.4249" x2="187.3224" y1="252.2079" y2="252.2079"/></g><!--link Student to StudyEnvironment--><g class="link" data-entity-1="ent0002" data-entity-2="ent0003" data-link-type="association" data-source-line="9" id="lnk4"><path codeLine="9" d="M111.3749,133.5879 C111.3749,159.1479 111.3749,190.7279 111.3749,211.8379" fill="none" id="Student-StudyEnvironment" style="stroke:#181818;stroke-width:1;"/><text fill="#000000" font-family="sans-serif" font-size="13" lengthAdjust="spacing" textLength="55.5621" x="112.3749" y="178.1049">monitors</text><text fill="#000000" font-family="sans-serif" font-size="13" lengthAdjust="spacing" textLength="7.436" x="103.8932" y="155.1672">1</text><text fill="#000000" font-family="sans-serif" font-size="13" lengthAdjust="spacing" textLength="7.163" x="103.4992" y="200.4025">*</text></g><?plantuml-src POpB2i8m44Nt-OfBDeBGXTkiAxYmA5G_8BL33QGpaao5Alrtwmi4j-VUSnROHyzwhBReY2bvfHRDY6fN7em6ZOIISkWObRGK7MeTsd53yKB9dABF-KM85NS3vESQk8D38n9duWSzImgtEVjXquythlaQad3_3apc6xChYwA0NTh_dqCl75HIVW00?></g></svg>