<?plantuml 1.2026.1?><svg xmlns="http://www.w3.org/2000/svg" xmlns:xlink="http://www.w3.org/1999/xlink" contentStyleType="text/css" data-diagram-type="CLASS" height="267px" preserveAspectRatio="none" style="width:223px;height:267px;background:#FFFFFF;" version="1.1" viewBox="0 0 223 267" width="223px" zoomAndPan="magnify"><title>Domain Model: StudyHelper</title><defs/><g><g class="title" data-source-line="2"><text fill="#000000" font-family="sans-serif" font-size="14" font-weight="bold" lengthAdjust="spacing" textLength="195.2993" x="10" y="24.9659">Domain Model: StudyHelper</text></g><!--class Student--><g class="entity" data-qualified-name="Student" data-source-line="3" id="ent0002"><rect fill="#F1F1F1" height="86.1358" rx="2.5" ry="2.5" style="stroke:#181818;stroke-width:0.5;" width="123.3556" x="52.9709" y="47.0679"/><ellipse cx="85.8592" cy="63.0679" fill="#ADD1B2" rx="11" ry="11" style="stroke:#181818;stroke-width:1;"/><path d="M85.3279,69.9898 Q83.5779,69.9898 82.4373,69.2554 Q81.3123,68.5054 80.7498,67.1617 Q80.2029,65.8023 80.2029,64.0054 Q80.2029,61.9742 80.8592,60.521 Q81.5154,59.0679 82.7967,58.2867 Q84.0779,57.5054 85.9529,57.5054 Q86.8435,57.5054 87.5154,57.6929 Q88.1873,57.8648 88.8748,58.2085 L88.0623,60.2242 Q87.4373,59.9117 86.8904,59.7867 Q86.3592,59.6617 85.8748,59.6617 Q84.7029,59.6617 83.9998,60.1929 Q83.2967,60.7242 82.9998,61.6773 Q82.7029,62.6304 82.7029,63.896 Q82.7029,65.9117 83.4217,66.8804 Q84.1404,67.8335 85.7342,67.8335 Q86.3279,67.8335 86.9529,67.6773 Q87.5779,67.521 88.406,67.146 L88.406,69.3648 Q87.6717,69.6773 86.8748,69.8335 Q86.0935,69.9898 85.3279,69.9898 Z " fill="#000000"/><text fill="#000000" font-family="sans-serif" font-size="14" lengthAdjust="spacing" textLength="51.6038" x="103.8343" y="68.4999">Student</text><line style="stroke:#181818;stroke-width:0.5;" x1="53.9709" x2="175.3264" y1="79.0679" y2="79.0679"/><text fill="#000000" font-family="sans-serif" font-size="14" lengthAdjust="spacing" textLength="97.2296" x="58.9709" y="98.0339">studying : bool</text><text fill="#000000" font-family="sans-serif" font-size="14" lengthAdjust="spacing" textLength="111.3556" x="58.9709" y="117.1018">authorized : bool</text><line style="stroke:#181818;stroke-width:0.5;" x1="53.9709" x2="175.3264" y1="125.2038" y2="125.2038"/></g><!--class StudyEnvironment--><g class="entity" data-qualified-name="StudyEnvironment" data-source-line="7" id="ent0003"><rect fill="#F1F1F1" height="48" rx="2.5" ry="2.5" style="stroke:#181818;stroke-width:0.5;" width="153.8975" x="37.7009" y="212.2079"/><ellipse cx="52.7009" cy="228.2079" fill="#ADD1B2" rx="11" ry="11" style="stroke:#181818;stroke-width:1;"/><path d="M52.1696,235.1298 Q50.4196,235.1298 49.279,234.3954 Q48.154,233.6454 47.5915,232.3017 Q47.0446,230.9423 47.0446,229.1454 Q47.0446,227.1142 47.7009,225.661 Q48.3571,224.2079 49.6384,223.4267 Q50.9196,222.6454 52.7946,222.6454 Q53.6852,222.6454 54.3571,222.8329 Q55.029,223.0048 55.7165,223.3485 L54.904,225.3642 Q54.279,225.0517 53.7321,224.9267 Q53.2009,224.8017 52.7165,224.8017 Q51.5446,224.8017 50.8415,225.3329 Q50.1384,225.8642 49.8415,226.8173 Q49.5446,227.7704 49.5446,229.036 Q49.5446,231.0517 50.2634,232.0204 Q50.9821,232.9735 52.5759,232.9735 Q53.1696,232.9735 53.7946,232.8173 Q54.4196,232.661 55.2477,232.286 L55.2477,234.5048 Q54.5134,234.8173 53.7165,234.9735 Q52.9352,235.1298 52.1696,235.1298 Z " fill="#000000"/><text fill="#000000" font-family="sans-serif" font-size="14" lengthAdjust="spacing" textLength="121.8975" x="66.7009" y="233.6399">StudyEnvironment</text><line style="stroke:#181818;stroke-width:0.5;" x1="38.7009" x2="190.5984" y1="244.2079" y2="244.2079"/><line style="stroke:#181818;stroke-width:0.5;" x1="38.7009" x2="190.5984" y1="252.2079" y2="252.2079"/></g><!--link Student to StudyEnvironment--><g class="link" data-entity-1="ent0002" data-entity-2="ent0003" data-link-type="association" data-source-line="9" id="lnk4"><path codeLine="9" d="M114.6509,133.5879 C114.6509,159.1479 114.6509,190.7279 114.6509,211.8379" fill="none" id="Student-StudyEnvironment" style="stroke:#181818;stroke-width:1;"/><text fill="#000000" font-family="sans-serif" font-size="13" lengthAdjust="spacing" textLength="55.5621" x="115.6509" y="178.1049">monitors</text><text fill="#000000" font-family="sans-serif" font-size="13" lengthAdjust="spacing" textLength="7.436" x="107.1691" y="155.1672">1</text><text fill="#000000" font-family="sans-serif" font-size="13" lengthAdjust="spacing" textLength="7.163" x="106.7752" y="200.4025">*</text></g><?plantuml-src POpB2i8m44Nt-OfBDeBGXTkiAxYmA5G_8BL33QGpaao5Alrtwmi4j-VUSnROHyzwhBReY2bvfHRDY6fN7em6ZOHIUXyObRGK7MeTsd53yKB9dABF-KM85NS3vESQk8D38n9duWSzImgtEVjXquythlaQad3_3apc6xChYwA0NTh_dqCl75HIVW00?></g></svg>