<?plantuml 1.2026.1?><svg xmlns="http://www.w3.org/2000/svg" xmlns:xlink="http://www.w3.org/1999/xlink" contentStyleType="text/css" data-diagram-type="ACTIVITY" height="525px" preserveAspectRatio="none" style="width:1468px;height:525px;background:#FFFFFF;" version="1.1" viewBox="0 0 1468 525" width="1468px" zoomAndPan="magnify"><title>Activity Diagram: StudyHelper</title><defs/><g><g class="title" data-source-line="3"><text fill="#000000" font-family="sans-serif" font-size="14" font-weight="bold" lengthAdjust="spacing" textLength="211.0352" x="626.9825" y="34.9659">Activity Diagram: StudyHelper</text></g><ellipse cx="735.5001" cy="60.0679" fill="#222222" rx="10" ry="10" style="stroke:#222222;stroke-width:1;"/><line style="stroke:#181818;stroke-width:1.5;" x1="81.9584" x2="1382.9878" y1="90.0679" y2="90.0679"/><rect fill="none" height="225.075" style="stroke:#000000;stroke-width:1.5;" width="141.9167" x="11" y="185.2309"/><path d="M72.6038,185.2309 L72.6038,197.2988 L62.6038,207.2988 L11,207.2988" fill="none" style="stroke:#000000;stroke-width:1.5;"/><text fill="#000000" font-family="sans-serif" font-size="14" lengthAdjust="spacing" textLength="51.6038" x="14" y="201.1969">Student</text><rect fill="#F1F1F1" height="36.3441" rx="12.5" ry="12.5" style="stroke:#181818;stroke-width:0.5;" width="121.9167" x="21" y="259.2988"/><text fill="#000000" font-family="sans-serif" font-size="12" lengthAdjust="spacing" textLength="101.9167" x="31" y="282.1269">requestNoiseData</text><rect fill="#F1F1F1" height="36.3441" rx="12.5" ry="12.5" style="stroke:#181818;stroke-width:0.5;" width="108.3206" x="27.798" y="330.6429"/><text fill="#000000" font-family="sans-serif" font-size="12" lengthAdjust="spacing" textLength="88.3206" x="37.798" y="353.471">sendNoiseLevel</text><rect fill="none" height="225.075" style="stroke:#000000;stroke-width:1.5;" width="138.4367" x="162.9167" y="185.2309"/><path d="M224.5205,185.2309 L224.5205,197.2988 L214.5205,207.2988 L162.9167,207.2988" fill="none" style="stroke:#000000;stroke-width:1.5;"/><text fill="#000000" font-family="sans-serif" font-size="14" lengthAdjust="spacing" textLength="51.6038" x="165.9167" y="201.1969">Student</text><rect fill="#F1F1F1" height="36.3441" rx="12.5" ry="12.5" style="stroke:#181818;stroke-width:0.5;" width="118.4367" x="172.9167" y="259.2988"/><text fill="#000000" font-family="sans-serif" font-size="12" lengthAdjust="spacing" textLength="98.4367" x="182.9167" y="282.1269">requestLightData</text><rect fill="#F1F1F1" height="36.3441" rx="12.5" ry="12.5" style="stroke:#181818;stroke-width:0.5;" width="104.8406" x="179.7148" y="330.6429"/><text fill="#000000" font-family="sans-serif" font-size="12" lengthAdjust="spacing" textLength="84.8406" x="189.7148" y="353.471">sendLightLevel</text><rect fill="none" height="225.075" style="stroke:#000000;stroke-width:1.5;" width="133.7447" x="311.3534" y="185.2309"/><path d="M372.9572,185.2309 L372.9572,197.2988 L362.9572,207.2988 L311.3534,207.2988" fill="none" style="stroke:#000000;stroke-width:1.5;"/><text fill="#000000" font-family="sans-serif" font-size="14" lengthAdjust="spacing" textLength="51.6038" x="314.3534" y="201.1969">Student</text><rect fill="#F1F1F1" height="36.3441" rx="12.5" ry="12.5" style="stroke:#181818;stroke-width:0.5;" width="113.7447" x="321.3534" y="259.2988"/><text fill="#000000" font-family="sans-serif" font-size="12" lengthAdjust="spacing" textLength="93.7447" x="331.3534" y="282.1269">requestCO2Data</text><rect fill="#F1F1F1" height="36.3441" rx="12.5" ry="12.5" style="stroke:#181818;stroke-width:0.5;" width="100.1486" x="328.1515" y="330.6429"/><text fill="#000000" font-family="sans-serif" font-size="12" lengthAdjust="spacing" textLength="80.1486" x="338.1515" y="353.471">sendCO2Level</text><rect fill="none" height="225.075" style="stroke:#000000;stroke-width:1.5;" width="183.893" x="455.0981" y="185.2309"/><path d="M516.7019,185.2309 L516.7019,197.2988 L506.7019,207.2988 L455.0981,207.2988" fill="none" style="stroke:#000000;stroke-width:1.5;"/><text fill="#000000" font-family="sans-serif" font-size="14" lengthAdjust="spacing" textLength="51.6038" x="458.0981" y="201.1969">Student</text><rect fill="#F1F1F1" height="36.3441" rx="12.5" ry="12.5" style="stroke:#181818;stroke-width:0.5;" width="163.893" x="465.0981" y="259.2988"/><text fill="#000000" font-family="sans-serif" font-size="12" lengthAdjust="spacing" textLength="143.893" x="475.0981" y="282.1269">requestTemperatureData</text><rect fill="#F1F1F1" height="36.3441" rx="12.5" ry="12.5" style="stroke:#181818;stroke-width:0.5;" width="121.2807" x="486.4042" y="330.6429"/><text fill="#000000" font-family="sans-serif" font-size="12" lengthAdjust="spacing" textLength="101.2807" x="496.4042" y="353.471">sendTemperature</text><rect fill="none" height="225.075" style="stroke:#000000;stroke-width:1.5;" width="161.4768" x="648.9911" y="185.2309"/><path d="M710.5949,185.2309 L710.5949,197.2988 L700.5949,207.2988 L648.9911,207.2988" fill="none" style="stroke:#000000;stroke-width:1.5;"/><text fill="#000000" font-family="sans-serif" font-size="14" lengthAdjust="spacing" textLength="51.6038" x="651.9911" y="201.1969">Student</text><rect fill="#F1F1F1" height="36.3441" rx="12.5" ry="12.5" style="stroke:#181818;stroke-width:0.5;" width="141.4768" x="658.9911" y="259.2988"/><text fill="#000000" font-family="sans-serif" font-size="12" lengthAdjust="spacing" textLength="121.4768" x="668.9911" y="282.1269">requestHumidityData</text><rect fill="#F1F1F1" height="36.3441" rx="12.5" ry="12.5" style="stroke:#181818;stroke-width:0.5;" width="98.8645" x="680.2972" y="330.6429"/><text fill="#000000" font-family="sans-serif" font-size="12" lengthAdjust="spacing" textLength="78.8645" x="690.2972" y="353.471">sendHumidity</text><rect fill="none" height="225.075" style="stroke:#000000;stroke-width:1.5;" width="137.6447" x="820.4679" y="185.2309"/><path d="M882.0717,185.2309 L882.0717,197.2988 L872.0717,207.2988 L820.4679,207.2988" fill="none" style="stroke:#000000;stroke-width:1.5;"/><text fill="#000000" font-family="sans-serif" font-size="14" lengthAdjust="spacing" textLength="51.6038" x="823.4679" y="201.1969">Student</text><rect fill="#F1F1F1" height="36.3441" rx="12.5" ry="12.5" style="stroke:#181818;stroke-width:0.5;" width="117.6447" x="830.4679" y="259.2988"/><text fill="#000000" font-family="sans-serif" font-size="12" lengthAdjust="spacing" textLength="97.6447" x="840.4679" y="282.1269">configureInterval</text><rect fill="#F1F1F1" height="36.3441" rx="12.5" ry="12.5" style="stroke:#181818;stroke-width:0.5;" width="93.7165" x="842.432" y="330.6429"/><text fill="#000000" font-family="sans-serif" font-size="12" lengthAdjust="spacing" textLength="73.7165" x="852.432" y="353.471">notifyUpdate</text><rect fill="none" height="225.075" style="stroke:#000000;stroke-width:1.5;" width="136.1807" x="968.1126" y="185.2309"/><path d="M1029.7164,185.2309 L1029.7164,197.2988 L1019.7164,207.2988 L968.1126,207.2988" fill="none" style="stroke:#000000;stroke-width:1.5;"/><text fill="#000000" font-family="sans-serif" font-size="14" lengthAdjust="spacing" textLength="51.6038" x="971.1126" y="201.1969">Student</text><rect fill="#F1F1F1" height="36.3441" rx="12.5" ry="12.5" style="stroke:#181818;stroke-width:0.5;" width="116.1807" x="978.1126" y="259.2988"/><text fill="#000000" font-family="sans-serif" font-size="12" lengthAdjust="spacing" textLength="96.1807" x="988.1126" y="282.1269">requestDustData</text><rect fill="#F1F1F1" height="36.3441" rx="12.5" ry="12.5" style="stroke:#181818;stroke-width:0.5;" width="102.5846" x="984.9106" y="330.6429"/><text fill="#000000" font-family="sans-serif" font-size="12" lengthAdjust="spacing" textLength="82.5846" x="994.9106" y="353.471">sendDustLevel</text><rect fill="none" height="352.401" style="stroke:#000000;stroke-width:1.5;" width="184.6822" x="1114.2933" y="100.0679"/><path d="M1175.8971,100.0679 L1175.8971,112.1358 L1165.8971,122.1358 L1114.2933,122.1358" fill="none" style="stroke:#000000;stroke-width:1.5;"/><text fill="#000000" font-family="sans-serif" font-size="14" lengthAdjust="spacing" textLength="51.6038" x="1117.2933" y="116.0339">Student</text><rect fill="#F1F1F1" height="36.3441" rx="12.5" ry="12.5" style="stroke:#181818;stroke-width:0.5;" width="138.1888" x="1128.5399" y="139.1358"/><text fill="#000000" font-family="sans-serif" font-size="12" lengthAdjust="spacing" textLength="118.1888" x="1138.5399" y="161.9639">monitorEnvironment</text><rect fill="#F1F1F1" height="36.3441" rx="12.5" ry="12.5" style="stroke:#181818;stroke-width:0.5;" width="42.6322" x="1176.3183" y="294.9709"/><text fill="#000000" font-family="sans-serif" font-size="12" lengthAdjust="spacing" textLength="22.6322" x="1186.3183" y="317.799">skip</text><polygon fill="#F1F1F1" points="1136.2933,245.4799,1258.9754,245.4799,1270.9754,257.4799,1258.9754,269.4799,1136.2933,269.4799,1124.2933,257.4799,1136.2933,245.4799" style="stroke:#181818;stroke-width:0.5;"/><text fill="#000000" font-family="sans-serif" font-size="11" lengthAdjust="spacing" textLength="17.0829" x="1201.6343" y="281.2389">yes</text><text fill="#000000" font-family="sans-serif" font-size="11" lengthAdjust="spacing" textLength="122.6822" x="1136.2933" y="261.7479">Parameters not optimal</text><text fill="#000000" font-family="sans-serif" font-size="11" lengthAdjust="spacing" textLength="13.4529" x="1270.9754" y="254.257">no</text><polygon fill="#F1F1F1" points="1197.6343,356.806,1209.6343,368.806,1197.6343,380.806,1185.6343,368.806,1197.6343,356.806" style="stroke:#181818;stroke-width:0.5;"/><rect fill="#F1F1F1" height="36.3441" rx="12.5" ry="12.5" style="stroke:#181818;stroke-width:0.5;" width="112.9407" x="1141.164" y="404.1248"/><text fill="#000000" font-family="sans-serif" font-size="12" lengthAdjust="spacing" textLength="92.9407" x="1151.164" y="426.9529">sendNotification</text><rect fill="none" height="190.075" style="stroke:#000000;stroke-width:1.5;" width="148.0247" x="1308.9754" y="202.7309"/><path d="M1370.5792,202.7309 L1370.5792,214.7988 L1360.5792,224.7988 L1308.9754,224.7988" fill="none" style="stroke:#000000;stroke-width:1.5;"/><text fill="#000000" font-family="sans-serif" font-size="14" lengthAdjust="spacing" textLength="51.6038" x="1311.9754" y="218.6969">Student</text><rect fill="#F1F1F1" height="36.3441" rx="12.5" ry="12.5" style="stroke:#181818;stroke-width:0.5;" width="128.0247" x="1318.9754" y="241.7988"/><text fill="#000000" font-family="sans-serif" font-size="12" lengthAdjust="spacing" textLength="108.0247" x="1328.9754" y="264.6269">submitFocusRating</text><rect fill="#F1F1F1" height="36.3441" rx="12.5" ry="12.5" style="stroke:#181818;stroke-width:0.5;" width="100.2566" x="1332.8595" y="313.1429"/><text fill="#000000" font-family="sans-serif" font-size="12" lengthAdjust="spacing" textLength="80.2566" x="1342.8595" y="335.971">confirmRating</text><line style="stroke:#181818;stroke-width:1.5;" x1="81.9584" x2="1382.9878" y1="472.469" y2="472.469"/><ellipse cx="735.5001" cy="503.469" fill="none" rx="11" ry="11" style="stroke:#222222;stroke-width:1;"/><ellipse cx="735.5001" cy="503.469" fill="#222222" rx="6" ry="6" style="stroke:#222222;stroke-width:1;"/><line style="stroke:#181818;stroke-width:1;" x1="81.9584" x2="81.9584" y1="91.5679" y2="259.2988"/><polygon fill="#181818" points="77.9584,249.2988,81.9584,259.2988,85.9584,249.2988,81.9584,253.2988" style="stroke:#181818;stroke-width:1;"/><line style="stroke:#181818;stroke-width:1;" x1="81.9584" x2="81.9584" y1="295.6429" y2="330.6429"/><polygon fill="#181818" points="77.9584,320.6429,81.9584,330.6429,85.9584,320.6429,81.9584,324.6429" style="stroke:#181818;stroke-width:1;"/><line style="stroke:#181818;stroke-width:1;" x1="81.9584" x2="81.9584" y1="366.9871" y2="472.469"/><polygon fill="#181818" points="77.9584,462.469,81.9584,472.469,85.9584,462.469,81.9584,466.469" style="stroke:#181818;stroke-width:1;"/><line style="stroke:#181818;stroke-width:1;" x1="232.1351" x2="232.1351" y1="91.5679" y2="259.2988"/><polygon fill="#181818" points="228.1351,249.2988,232.1351,259.2988,236.1351,249.2988,232.1351,253.2988" style="stroke:#181818;stroke-width:1;"/><line style="stroke:#181818;stroke-width:1;" x1="232.1351" x2="232.1351" y1="295.6429" y2="330.6429"/><polygon fill="#181818" points="228.1351,320.6429,232.1351,330.6429,236.1351,320.6429,232.1351,324.6429" style="stroke:#181818;stroke-width:1;"/><line style="stroke:#181818;stroke-width:1;" x1="232.1351" x2="232.1351" y1="366.9871" y2="472.469"/><polygon fill="#181818" points="228.1351,462.469,232.1351,472.469,236.1351,462.469,232.1351,466.469" style="stroke:#181818;stroke-width:1;"/><line style="stroke:#181818;stroke-width:1;" x1="378.2257" x2="378.2257" y1="91.5679" y2="259.2988"/><polygon fill="#181818" points="374.2257,249.2988,378.2257,259.2988,382.2257,249.2988,378.2257,253.2988" style="stroke:#181818;stroke-width:1;"/><line style="stroke:#181818;stroke-width:1;" x1="378.2257" x2="378.2257" y1="295.6429" y2="330.6429"/><polygon fill="#181818" points="374.2257,320.6429,378.2257,330.6429,382.2257,320.6429,378.2257,324.6429" style="stroke:#181818;stroke-width:1;"/><line style="stroke:#181818;stroke-width:1;" x1="378.2257" x2="378.2257" y1="366.9871" y2="472.469"/><polygon fill="#181818" points="374.2257,462.469,378.2257,472.469,382.2257,462.469,378.2257,466.469" style="stroke:#181818;stroke-width:1;"/><line style="stroke:#181818;stroke-width:1;" x1="547.0446" x2="547.0446" y1="91.5679" y2="259.2988"/><polygon fill="#181818" points="543.0446,249.2988,547.0446,259.2988,551.0446,249.2988,547.0446,253.2988" style="stroke:#181818;stroke-width:1;"/><line style="stroke:#181818;stroke-width:1;" x1="547.0446" x2="547.0446" y1="295.6429" y2="330.6429"/><polygon fill="#181818" points="543.0446,320.6429,547.0446,330.6429,551.0446,320.6429,547.0446,324.6429" style="stroke:#181818;stroke-width:1;"/><line style="stroke:#181818;stroke-width:1;" x1="547.0446" x2="547.0446" y1="366.9871" y2="472.469"/><polygon fill="#181818" points="543.0446,462.469,547.0446,472.469,551.0446,462.469,547.0446,466.469" style="stroke:#181818;stroke-width:1;"/><line style="stroke:#181818;stroke-width:1;" x1="729.7295" x2="729.7295" y1="91.5679" y2="259.2988"/><polygon fill="#181818" points="725.7295,249.2988,729.7295,259.2988,733.7295,249.2988,729.7295,253.2988" style="stroke:#181818;stroke-width:1;"/><line style="stroke:#181818;stroke-width:1;" x1="729.7295" x2="729.7295" y1="295.6429" y2="330.6429"/><polygon fill="#181818" points="725.7295,320.6429,729.7295,330.6429,733.7295,320.6429,729.7295,324.6429" style="stroke:#181818;stroke-width:1;"/><line style="stroke:#181818;stroke-width:1;" x1="729.7295" x2="729.7295" y1="366.9871" y2="472.469"/><polygon fill="#181818" points="725.7295,462.469,729.7295,472.469,733.7295,462.469,729.7295,466.469" style="stroke:#181818;stroke-width:1;"/><line style="stroke:#181818;stroke-width:1;" x1="889.2903" x2="889.2903" y1="91.5679" y2="259.2988"/><polygon fill="#181818" points="885.2903,249.2988,889.2903,259.2988,893.2903,249.2988,889.2903,253.2988" style="stroke:#181818;stroke-width:1;"/><line style="stroke:#181818;stroke-width:1;" x1="889.2903" x2="889.2903" y1="295.6429" y2="330.6429"/><polygon fill="#181818" points="885.2903,320.6429,889.2903,330.6429,893.2903,320.6429,889.2903,324.6429" style="stroke:#181818;stroke-width:1;"/><line style="stroke:#181818;stroke-width:1;" x1="889.2903" x2="889.2903" y1="366.9871" y2="472.469"/><polygon fill="#181818" points="885.2903,462.469,889.2903,472.469,893.2903,462.469,889.2903,466.469" style="stroke:#181818;stroke-width:1;"/><line style="stroke:#181818;stroke-width:1;" x1="1036.2029" x2="1036.2029" y1="91.5679" y2="259.2988"/><polygon fill="#181818" points="1032.2029,249.2988,1036.2029,259.2988,1040.2029,249.2988,1036.2029,253.2988" style="stroke:#181818;stroke-width:1;"/><line style="stroke:#181818;stroke-width:1;" x1="1036.2029" x2="1036.2029" y1="295.6429" y2="330.6429"/><polygon fill="#181818" points="1032.2029,320.6429,1036.2029,330.6429,1040.2029,320.6429,1036.2029,324.6429" style="stroke:#181818;stroke-width:1;"/><line style="stroke:#181818;stroke-width:1;" x1="1036.2029" x2="1036.2029" y1="366.9871" y2="472.469"/><polygon fill="#181818" points="1032.2029,462.469,1036.2029,472.469,1040.2029,462.469,1036.2029,466.469" style="stroke:#181818;stroke-width:1;"/><line style="stroke:#181818;stroke-width:1;" x1="1197.6343" x2="1197.6343" y1="175.4799" y2="245.4799"/><polygon fill="#181818" points="1193.6343,235.4799,1197.6343,245.4799,1201.6343,235.4799,1197.6343,239.4799" style="stroke:#181818;stroke-width:1;"/><line style="stroke:#181818;stroke-width:1;" x1="1197.6343" x2="1197.6343" y1="269.4799" y2="294.9709"/><polygon fill="#181818" points="1193.6343,284.9709,1197.6343,294.9709,1201.6343,284.9709,1197.6343,288.9709" style="stroke:#181818;stroke-width:1;"/><line style="stroke:#181818;stroke-width:1;" x1="1270.9754" x2="1282.9754" y1="257.4799" y2="257.4799"/><polygon fill="#181818" points="1278.9754,303.1429,1282.9754,313.1429,1286.9754,303.1429,1282.9754,307.1429" style="stroke:#181818;stroke-width:1;"/><line style="stroke:#181818;stroke-width:1;" x1="1282.9754" x2="1282.9754" y1="257.4799" y2="368.806"/><line style="stroke:#181818;stroke-width:1;" x1="1282.9754" x2="1209.6343" y1="368.806" y2="368.806"/><polygon fill="#181818" points="1219.6343,364.806,1209.6343,368.806,1219.6343,372.806,1215.6343,368.806" style="stroke:#181818;stroke-width:1;"/><line style="stroke:#181818;stroke-width:1;" x1="1197.6343" x2="1197.6343" y1="331.315" y2="356.806"/><polygon fill="#181818" points="1193.6343,346.806,1197.6343,356.806,1201.6343,346.806,1197.6343,350.806" style="stroke:#181818;stroke-width:1;"/><line style="stroke:#181818;stroke-width:1;" x1="1197.6343" x2="1197.6343" y1="380.806" y2="404.1248"/><polygon fill="#181818" points="1193.6343,394.1248,1197.6343,404.1248,1201.6343,394.1248,1197.6343,398.1248" style="stroke:#181818;stroke-width:1;"/><line style="stroke:#181818;stroke-width:1;" x1="1197.6343" x2="1197.6343" y1="440.469" y2="472.469"/><polygon fill="#181818" points="1193.6343,462.469,1197.6343,472.469,1201.6343,462.469,1197.6343,466.469" style="stroke:#181818;stroke-width:1;"/><line style="stroke:#181818;stroke-width:1;" x1="1382.9878" x2="1382.9878" y1="278.1429" y2="313.1429"/><polygon fill="#181818" points="1378.9878,303.1429,1382.9878,313.1429,1386.9878,303.1429,1382.9878,307.1429" style="stroke:#181818;stroke-width:1;"/><line style="stroke:#181818;stroke-width:1;" x1="1382.9878" x2="1382.9878" y1="349.4871" y2="472.469"/><polygon fill="#181818" points="1378.9878,462.469,1382.9878,472.469,1386.9878,462.469,1382.9878,466.469" style="stroke:#181818;stroke-width:1;"/><line style="stroke:#181818;stroke-width:1;" x1="1197.6343" x2="1197.6343" y1="91.5679" y2="139.1358"/><polygon fill="#181818" points="1193.6343,129.1358,1197.6343,139.1358,1201.6343,129.1358,1197.6343,133.1358" style="stroke:#181818;stroke-width:1;"/><line style="stroke:#181818;stroke-width:1;" x1="1382.9878" x2="1382.9878" y1="91.5679" y2="241.7988"/><polygon fill="#181818" points="1378.9878,231.7988,1382.9878,241.7988,1386.9878,231.7988,1382.9878,235.7988" style="stroke:#181818;stroke-width:1;"/><line style="stroke:#181818;stroke-width:1;" x1="735.5001" x2="735.5001" y1="70.0679" y2="90.0679"/><polygon fill="#181818" points="731.5001,80.0679,735.5001,90.0679,739.5001,80.0679,735.5001,84.0679" style="stroke:#181818;stroke-width:1;"/><line style="stroke:#181818;stroke-width:1;" x1="735.5001" x2="735.5001" y1="473.969" y2="492.469"/><polygon fill="#181818" points="731.5001,482.469,735.5001,492.469,739.5001,482.469,735.5001,486.469" style="stroke:#181818;stroke-width:1;"/><?plantuml-src dPH1J-im3CVl_HGM5yRr7PSJsXu2QGF4u8oorkkifKb9t4eLuhi_fzrONqKdjXvwoD_--nVNzJKy6stvRRc072rwpPZ1ke7bq_mr2JkofVQwW2M6e7EyDPHRID4o-eI93S9jobGJDp0ddKle55PSPSqzcb9Y0clFIIWDSI9EaaBEmbKC4PCh-4n07gFNQ62snNJtw2ZW0ciqxrrkrASUFoeCt8fppLfrnm5jTanG9xmaCFdgE43dckplQ1QKRtcCfXK7DCS4TSBhGfhPqvyn5f4698TWDUfo8SKh5cMSayhZ3o0zTG3KKzGfpmknxgk2Cfd37vWEqW3eSAn6hSv7MM4x4JDd3AOnxY7-AhN-xvkbpcuebxiUn3sKTKoRvgtCv2TKlpAzi5VpAenETTG6ZVeEL-D6vv1C2sU9dVzhQ_BE5YBrdLymHQgnfpx6nb2gezjx6qaRc3p7pOJIYG3IEN0bKw7D3V0MBKmQ33TjQBp4Zigk0fg0CB6kamIQDlrLSYnp1j1PLm_LkY2-SsaLNYJTvget4xxed-sBop2q6tKbArWiszHzJNbtgpMmA_y1?></g></svg>