<?plantuml 1.2026.2?><svg xmlns="http://www.w3.org/2000/svg" xmlns:xlink="http://www.w3.org/1999/xlink" contentStyleType="text/css" data-diagram-type="ACTIVITY" height="2618.2292px" preserveAspectRatio="none" style="width:2282px;height:2618px;background:#FFFFFF;" version="1.1" viewBox="0 0 2282 2618" width="2282.5px" zoomAndPan="magnify"><title>Activity Diagram: StudyHelper Detailed Workflow (Device-Backend Integration)</title><defs/><g><g class="title" data-source-line="2"><text fill="#000000" font-family="'Helvetica, Arial, sans-serif'" font-size="25.2083" font-weight="bold" lengthAdjust="spacing" textLength="995.0267" x="642.4189" y="47.5728">Activity Diagram: StudyHelper Detailed Workflow (Device-Backend Integration)</text></g><rect fill="#FFFFFF" height="27.1631" style="stroke:#FFFFFF;stroke-width:1.1458;" width="2256.9478" x="11.4583" y="72.1464"/><ellipse cx="152.7271" cy="116.497" fill="#FFFFFF" rx="11.4583" ry="11.4583" style="stroke:#000000;stroke-width:1.1458;"/><rect fill="#FFFFFF" height="50.0798" style="stroke:#000000;stroke-width:1.1458;" width="157.7321" x="73.861" y="150.872"/><text fill="#000000" font-family="'Helvetica, Arial, sans-serif'" font-size="14.8958" lengthAdjust="spacing" textLength="127.9404" x="88.7569" y="181.6915">submitCredentials</text><rect fill="#FFFFFF" height="50.0798" style="stroke:#000000;stroke-width:1.1458;" width="127.7765" x="88.8388" y="359.7346"/><text fill="#000000" font-family="'Helvetica, Arial, sans-serif'" font-size="14.8958" lengthAdjust="spacing" textLength="97.9849" x="103.7347" y="390.5541">enterDeviceId</text><polygon fill="#FFFFFF" points="84.4703,298.028,220.9839,298.028,234.7339,311.778,220.9839,325.528,84.4703,325.528,70.7203,311.778,84.4703,298.028" style="stroke:#000000;stroke-width:1.1458;"/><text fill="#000000" font-family="'Helvetica, Arial, sans-serif'" font-size="14.8958" lengthAdjust="spacing" textLength="18.2176" x="160.7479" y="344.8892">no</text><text fill="#000000" font-family="'Helvetica, Arial, sans-serif'" font-size="14.8958" lengthAdjust="spacing" textLength="129.6385" x="87.9078" y="317.5576">Device connected?</text><text fill="#000000" font-family="'Helvetica, Arial, sans-serif'" font-size="14.8958" lengthAdjust="spacing" textLength="23.1332" x="44.1496" y="303.976">yes</text><polygon fill="#FFFFFF" points="152.7271,522.3421,166.4771,536.0921,152.7271,549.8421,138.9771,536.0921,152.7271,522.3421" style="stroke:#000000;stroke-width:1.1458;"/><rect fill="#FFFFFF" height="50.0798" style="stroke:#000000;stroke-width:1.1458;" width="219.2818" x="43.0862" y="572.7588"/><text fill="#000000" font-family="'Helvetica, Arial, sans-serif'" font-size="14.8958" lengthAdjust="spacing" textLength="189.4901" x="57.982" y="603.5783">pressButtonToStartSession</text><rect fill="#FFFFFF" height="50.0798" style="stroke:#000000;stroke-width:1.1458;" width="256.4916" x="254.8037" y="1093.8004"/><text fill="#000000" font-family="'Helvetica, Arial, sans-serif'" font-size="14.8958" lengthAdjust="spacing" textLength="226.6999" x="269.6995" y="1124.6199">requestStudyConditionOverview</text><rect fill="#FFFFFF" height="50.0798" style="stroke:#000000;stroke-width:1.1458;" width="142.2553" x="311.9218" y="1321.353"/><text fill="#000000" font-family="'Helvetica, Arial, sans-serif'" font-size="14.8958" lengthAdjust="spacing" textLength="112.4636" x="326.8177" y="1352.1725">View dashboard</text><rect fill="#FFFFFF" height="50.0798" style="stroke:#000000;stroke-width:1.1458;" width="216.0792" x="275.0099" y="1472.492"/><text fill="#000000" font-family="'Helvetica, Arial, sans-serif'" font-size="14.8958" lengthAdjust="spacing" textLength="186.2875" x="289.9057" y="1503.3115">submitStudySessionRating</text><polygon fill="#FFFFFF" points="316.0142,1410.7854,450.0848,1410.7854,463.8348,1424.5354,450.0848,1438.2854,316.0142,1438.2854,302.2642,1424.5354,316.0142,1410.7854" style="stroke:#000000;stroke-width:1.1458;"/><text fill="#000000" font-family="'Helvetica, Arial, sans-serif'" font-size="14.8958" lengthAdjust="spacing" textLength="23.1332" x="391.0703" y="1457.6466">yes</text><text fill="#000000" font-family="'Helvetica, Arial, sans-serif'" font-size="14.8958" lengthAdjust="spacing" textLength="127.1956" x="319.4517" y="1430.315">Provide feedback?</text><text fill="#000000" font-family="'Helvetica, Arial, sans-serif'" font-size="14.8958" lengthAdjust="spacing" textLength="18.2176" x="280.609" y="1416.7334">no</text><polygon fill="#FFFFFF" points="383.0495,1728.7108,396.7995,1742.4608,383.0495,1756.2108,369.2995,1742.4608,383.0495,1728.7108" style="stroke:#000000;stroke-width:1.1458;"/><polygon fill="#FFFFFF" points="383.0495,1025.6335,396.7995,1039.3835,383.0495,1053.1335,369.2995,1039.3835,383.0495,1025.6335" style="stroke:#000000;stroke-width:1.1458;"/><rect fill="#FFFFFF" height="50.0798" style="stroke:#000000;stroke-width:1.1458;" width="212.4893" x="46.4825" y="1960.8671"/><text fill="#000000" font-family="'Helvetica, Arial, sans-serif'" font-size="14.8958" lengthAdjust="spacing" textLength="182.6976" x="61.3783" y="1991.6866">pressButtonToEndSession</text><rect fill="#FFFFFF" height="50.0798" style="stroke:#000000;stroke-width:1.1458;" width="216.0792" x="44.6875" y="2315.7227"/><text fill="#000000" font-family="'Helvetica, Arial, sans-serif'" font-size="14.8958" lengthAdjust="spacing" textLength="186.2875" x="59.5833" y="2346.5422">submitStudySessionRating</text><polygon fill="#FFFFFF" points="81.1038,2254.0161,224.3503,2254.0161,238.1003,2267.7661,224.3503,2281.5161,81.1038,2281.5161,67.3538,2267.7661,81.1038,2254.0161" style="stroke:#000000;stroke-width:1.1458;"/><text fill="#000000" font-family="'Helvetica, Arial, sans-serif'" font-size="14.8958" lengthAdjust="spacing" textLength="23.1332" x="160.7479" y="2300.8773">yes</text><text fill="#000000" font-family="'Helvetica, Arial, sans-serif'" font-size="14.8958" lengthAdjust="spacing" textLength="136.3715" x="84.5413" y="2273.5457">Submit final rating?</text><text fill="#000000" font-family="'Helvetica, Arial, sans-serif'" font-size="14.8958" lengthAdjust="spacing" textLength="18.2176" x="45.6987" y="2259.9641">no</text><polygon fill="#FFFFFF" points="152.7271,2534.7121,166.4771,2548.4621,152.7271,2562.2121,138.9771,2548.4621,152.7271,2534.7121" style="stroke:#000000;stroke-width:1.1458;"/><ellipse cx="152.7271" cy="2597.7329" fill="none" rx="12.6042" ry="12.6042" style="stroke:#000000;stroke-width:1.1458;"/><ellipse cx="152.7271" cy="2597.7329" fill="#FFFFFF" rx="6.875" ry="6.875" style="stroke:#000000;stroke-width:1.1458;"/><line style="stroke:#000000;stroke-width:1.1458;" x1="11.4583" x2="11.4583" y1="72.1464" y2="2610.3371"/><rect fill="#FFFFFF" height="50.0798" style="stroke:#000000;stroke-width:1.1458;" width="187.2855" x="817.6065" y="223.8685"/><text fill="#000000" font-family="'Helvetica, Arial, sans-serif'" font-size="14.8958" lengthAdjust="spacing" textLength="157.4938" x="832.5024" y="254.688">confirmAuthentication</text><rect fill="#FFFFFF" height="50.0798" style="stroke:#000000;stroke-width:1.1458;" width="205.7712" x="808.3637" y="449.3456"/><text fill="#000000" font-family="'Helvetica, Arial, sans-serif'" font-size="14.8958" lengthAdjust="spacing" textLength="175.9795" x="823.2595" y="480.1651">confirmDeviceConnected</text><rect fill="#FFFFFF" height="50.0798" style="stroke:#000000;stroke-width:1.1458;" width="188.8644" x="816.8171" y="718.7517"/><text fill="#000000" font-family="'Helvetica, Arial, sans-serif'" font-size="14.8958" lengthAdjust="spacing" textLength="159.0727" x="831.7129" y="749.5712">Initialize active session</text><rect fill="#FFFFFF" height="50.0798" style="stroke:#000000;stroke-width:1.1458;" width="178.9736" x="821.7625" y="791.7482"/><text fill="#000000" font-family="'Helvetica, Arial, sans-serif'" font-size="14.8958" lengthAdjust="spacing" textLength="149.1819" x="836.6583" y="822.5677">confirmSessionActive</text><rect fill="#FFFFFF" height="50.0798" style="stroke:#000000;stroke-width:1.1458;" width="140.1997" x="593.3015" y="1172.5056"/><text fill="#000000" font-family="'Helvetica, Arial, sans-serif'" font-size="14.8958" lengthAdjust="spacing" textLength="110.408" x="608.1973" y="1203.3251">Store DataPoint</text><rect fill="#FFFFFF" height="50.0798" style="stroke:#000000;stroke-width:1.1458;" width="237.0823" x="544.8602" y="1248.3565"/><text fill="#000000" font-family="'Helvetica, Arial, sans-serif'" font-size="14.8958" lengthAdjust="spacing" textLength="207.2906" x="559.756" y="1279.176">Invoke ML pipeline prediction</text><rect fill="#FFFFFF" height="50.0798" style="stroke:#000000;stroke-width:1.1458;" width="253.7954" x="536.5036" y="1324.2074"/><text fill="#000000" font-family="'Helvetica, Arial, sans-serif'" font-size="14.8958" lengthAdjust="spacing" textLength="224.0038" x="551.3994" y="1355.0269">Calculate predictedStudyQuality</text><rect fill="#FFFFFF" height="50.0798" style="stroke:#000000;stroke-width:1.1458;" width="237.4547" x="544.6739" y="1413.6398"/><text fill="#000000" font-family="'Helvetica, Arial, sans-serif'" font-size="14.8958" lengthAdjust="spacing" textLength="207.663" x="559.5698" y="1444.4593">Return predictedStudyQuality</text><rect fill="#FFFFFF" height="50.0798" style="stroke:#000000;stroke-width:1.1458;" width="294.2377" x="994.4528" y="1169.6512"/><text fill="#000000" font-family="'Helvetica, Arial, sans-serif'" font-size="14.8958" lengthAdjust="spacing" textLength="264.446" x="1009.3486" y="1200.4707">Fetch current readings and prediction</text><rect fill="#FFFFFF" height="50.0798" style="stroke:#000000;stroke-width:1.1458;" width="236.5609" x="1023.2912" y="1245.5021"/><text fill="#000000" font-family="'Helvetica, Arial, sans-serif'" font-size="14.8958" lengthAdjust="spacing" textLength="206.7693" x="1038.187" y="1276.3216">sendStudyConditionOverview</text><rect fill="#FFFFFF" height="50.0798" style="stroke:#000000;stroke-width:1.1458;" width="112.8807" x="1085.1313" y="1562.676"/><text fill="#000000" font-family="'Helvetica, Arial, sans-serif'" font-size="14.8958" lengthAdjust="spacing" textLength="83.089" x="1100.0271" y="1593.4955">Store rating</text><rect fill="#FFFFFF" height="50.0798" style="stroke:#000000;stroke-width:1.1458;" width="181.0143" x="1051.0645" y="1652.86"/><text fill="#000000" font-family="'Helvetica, Arial, sans-serif'" font-size="14.8958" lengthAdjust="spacing" textLength="151.2227" x="1065.9603" y="1683.6794">confirmRatingReceipt</text><polygon fill="#FFFFFF" points="1078.737,1794.0233,1204.4063,1794.0233,1218.1563,1807.7733,1204.4063,1821.5233,1078.737,1821.5233,1064.987,1807.7733,1078.737,1794.0233" style="stroke:#000000;stroke-width:1.1458;"/><text fill="#000000" font-family="'Helvetica, Arial, sans-serif'" font-size="14.8958" lengthAdjust="spacing" textLength="118.7944" x="1082.1745" y="1813.5529">Session is active?</text><text fill="#000000" font-family="'Helvetica, Arial, sans-serif'" font-size="14.8958" lengthAdjust="spacing" textLength="23.1332" x="1221.5938" y="1799.9713">yes</text><rect fill="#FFFFFF" height="50.0798" style="stroke:#000000;stroke-width:1.1458;" width="187.0024" x="1300.1488" y="1385.7455"/><text fill="#000000" font-family="'Helvetica, Arial, sans-serif'" font-size="14.8958" lengthAdjust="spacing" textLength="157.2108" x="1315.0446" y="1416.565">Dashboard interaction</text><rect fill="#000000" height="6.875" rx="2.8646" ry="2.8646" style="stroke:#000000;stroke-width:1.1458;" width="978.1476" x="522.7536" y="1931.0755"/><rect fill="#FFFFFF" height="50.0798" style="stroke:#000000;stroke-width:1.1458;" width="218.9838" x="801.7573" y="2106.8601"/><text fill="#000000" font-family="'Helvetica, Arial, sans-serif'" font-size="14.8958" lengthAdjust="spacing" textLength="189.1922" x="816.6532" y="2137.6796">Set Session.isEnded to true</text><rect fill="#FFFFFF" height="50.0798" style="stroke:#000000;stroke-width:1.1458;" width="181.3271" x="820.5857" y="2179.8566"/><text fill="#000000" font-family="'Helvetica, Arial, sans-serif'" font-size="14.8958" lengthAdjust="spacing" textLength="151.5355" x="835.4815" y="2210.6761">confirmSessionEnded</text><rect fill="#FFFFFF" height="50.0798" style="stroke:#000000;stroke-width:1.1458;" width="147.1263" x="837.6861" y="2388.7191"/><text fill="#000000" font-family="'Helvetica, Arial, sans-serif'" font-size="14.8958" lengthAdjust="spacing" textLength="117.3346" x="852.582" y="2419.5386">Store final rating</text><rect fill="#FFFFFF" height="50.0798" style="stroke:#000000;stroke-width:1.1458;" width="181.0143" x="820.7421" y="2461.7156"/><text fill="#000000" font-family="'Helvetica, Arial, sans-serif'" font-size="14.8958" lengthAdjust="spacing" textLength="151.2227" x="835.6379" y="2492.5351">confirmRatingReceipt</text><line style="stroke:#000000;stroke-width:1.1458;" x1="515.8786" x2="515.8786" y1="72.1464" y2="2610.3371"/><rect fill="#FFFFFF" height="50.0798" style="stroke:#000000;stroke-width:1.1458;" width="241.7894" x="1997.1585" y="645.7553"/><text fill="#000000" font-family="'Helvetica, Arial, sans-serif'" font-size="14.8958" lengthAdjust="spacing" textLength="211.9977" x="2012.0543" y="676.5748">Transmit start session request</text><rect fill="#FFFFFF" height="50.0798" style="stroke:#000000;stroke-width:1.1458;" width="255.5829" x="1990.2618" y="864.7447"/><text fill="#000000" font-family="'Helvetica, Arial, sans-serif'" font-size="14.8958" lengthAdjust="spacing" textLength="225.7912" x="2005.1576" y="895.5642">Session marked active on device</text><rect fill="#000000" height="6.875" rx="2.8646" ry="2.8646" style="stroke:#000000;stroke-width:1.1458;" width="747.2351" x="1512.3596" y="937.7412"/><path d="M1805.3242,1015.0951 L1805.3242,1038.4061 L1782.4075,1042.9894 L1805.3242,1047.5727 L1805.3242,1070.8837 A0,0 0 0 0 1805.3242,1070.8837 L2006.5979,1070.8837 A0,0 0 0 0 2006.5979,1070.8837 L2006.5979,1026.5534 L1995.1396,1015.0951 L1805.3242,1015.0951 A0,0 0 0 0 1805.3242,1015.0951" fill="#FFFFFF" style="stroke:#000000;stroke-width:1.1458;"/><path d="M1995.1396,1015.0951 L1995.1396,1026.5534 L2006.5979,1026.5534 L1995.1396,1015.0951" fill="#FFFFFF" style="stroke:#000000;stroke-width:1.1458;"/><text fill="#000000" font-family="'Helvetica, Arial, sans-serif'" font-size="13.75" lengthAdjust="spacing" textLength="170.3362" x="1815.6367" y="1038.9606">Poll sensors: temperature,</text><text fill="#000000" font-family="'Helvetica, Arial, sans-serif'" font-size="13.75" lengthAdjust="spacing" textLength="167.9574" x="1815.6367" y="1057.6883">humidity, CO2, light levels</text><rect fill="#FFFFFF" height="50.0798" style="stroke:#000000;stroke-width:1.1458;" width="256.2979" x="1526.1096" y="1017.9495"/><text fill="#000000" font-family="'Helvetica, Arial, sans-serif'" font-size="14.8958" lengthAdjust="spacing" textLength="226.5063" x="1541.0054" y="1048.769">monitorActiveSessionConditions</text><rect fill="#FFFFFF" height="50.0798" style="stroke:#000000;stroke-width:1.1458;" width="198.5467" x="1554.9852" y="1096.6548"/><text fill="#000000" font-family="'Helvetica, Arial, sans-serif'" font-size="14.8958" lengthAdjust="spacing" textLength="168.755" x="1569.881" y="1127.4743">Transmit telemetry data</text><rect fill="#FFFFFF" height="50.0798" style="stroke:#000000;stroke-width:1.1458;" width="242.8768" x="1532.8201" y="1503.8238"/><text fill="#000000" font-family="'Helvetica, Arial, sans-serif'" font-size="14.8958" lengthAdjust="spacing" textLength="213.0851" x="1547.716" y="1534.6433">Receive predictedStudyQuality</text><rect fill="#FFFFFF" height="50.0798" style="stroke:#000000;stroke-width:1.1458;" width="232.6582" x="1537.9294" y="1655.7143"/><text fill="#000000" font-family="'Helvetica, Arial, sans-serif'" font-size="14.8958" lengthAdjust="spacing" textLength="202.8666" x="1552.8252" y="1686.5338">notifyCriticalStudyConditions</text><polygon fill="#FFFFFF" points="1556.076,1594.0078,1752.4411,1594.0078,1766.1911,1607.7578,1752.4411,1621.5078,1556.076,1621.5078,1542.326,1607.7578,1556.076,1594.0078" style="stroke:#000000;stroke-width:1.1458;"/><text fill="#000000" font-family="'Helvetica, Arial, sans-serif'" font-size="14.8958" lengthAdjust="spacing" textLength="23.1332" x="1662.2794" y="1640.8689">yes</text><text fill="#000000" font-family="'Helvetica, Arial, sans-serif'" font-size="14.8958" lengthAdjust="spacing" textLength="189.4901" x="1559.5135" y="1613.5374">predictedStudyQuality == 1</text><text fill="#000000" font-family="'Helvetica, Arial, sans-serif'" font-size="14.8958" lengthAdjust="spacing" textLength="18.2176" x="1769.6286" y="1599.9558">no</text><polygon fill="#FFFFFF" points="1654.2585,1731.5652,1668.0085,1745.3152,1654.2585,1759.0652,1640.5085,1745.3152,1654.2585,1731.5652" style="stroke:#000000;stroke-width:1.1458;"/><rect fill="#FFFFFF" height="50.0798" style="stroke:#000000;stroke-width:1.1458;" width="143.2086" x="1582.6542" y="1781.9819"/><text fill="#000000" font-family="'Helvetica, Arial, sans-serif'" font-size="14.8958" lengthAdjust="spacing" textLength="113.417" x="1597.55" y="1812.8014">Wait 30 seconds</text><polygon fill="#FFFFFF" points="1654.2585,967.5328,1668.0085,981.2828,1654.2585,995.0328,1640.5085,981.2828,1654.2585,967.5328" style="stroke:#000000;stroke-width:1.1458;"/><polygon fill="#FFFFFF" points="1591.4238,1856.1414,1717.0932,1856.1414,1730.8432,1869.8914,1717.0932,1883.6414,1591.4238,1883.6414,1577.6738,1869.8914,1591.4238,1856.1414" style="stroke:#000000;stroke-width:1.1458;"/><text fill="#000000" font-family="'Helvetica, Arial, sans-serif'" font-size="14.8958" lengthAdjust="spacing" textLength="118.7944" x="1594.8613" y="1875.671">Session is active?</text><text fill="#000000" font-family="'Helvetica, Arial, sans-serif'" font-size="14.8958" lengthAdjust="spacing" textLength="23.1332" x="1734.2807" y="1862.0894">yes</text><rect fill="#FFFFFF" height="50.0798" style="stroke:#000000;stroke-width:1.1458;" width="135.0755" x="2034.0979" y="1385.7455"/><text fill="#000000" font-family="'Helvetica, Arial, sans-serif'" font-size="14.8958" lengthAdjust="spacing" textLength="105.2838" x="2048.9937" y="1416.565">Telemetry loop</text><rect fill="#FFFFFF" height="50.0798" style="stroke:#000000;stroke-width:1.1458;" width="236.1587" x="1999.9738" y="2033.8636"/><text fill="#000000" font-family="'Helvetica, Arial, sans-serif'" font-size="14.8958" lengthAdjust="spacing" textLength="206.3671" x="2014.8697" y="2064.6831">Transmit end session request</text><line style="stroke:#000000;stroke-width:1.1458;" x1="1505.4846" x2="1505.4846" y1="72.1464" y2="2610.3371"/><line style="stroke:#000000;stroke-width:1.1458;" x1="2264.178" x2="2264.178" y1="72.1464" y2="2610.3371"/><line style="stroke:#000000;stroke-width:1.1458;" x1="152.7271" x2="152.7271" y1="127.9553" y2="150.872"/><polygon fill="#000000" points="148.1438,139.4137,152.7271,150.872,157.3104,139.4137,152.7271,143.997" style="stroke:#000000;stroke-width:1.1458;"/><line style="stroke:#000000;stroke-width:1.1458;" x1="152.7271" x2="152.7271" y1="325.528" y2="359.7346"/><polygon fill="#000000" points="148.1438,348.2762,152.7271,359.7346,157.3104,348.2762,152.7271,352.8596" style="stroke:#000000;stroke-width:1.1458;"/><line style="stroke:#000000;stroke-width:1.1458;" x1="70.7203" x2="38.3832" y1="311.778" y2="311.778"/><polygon fill="#000000" points="33.7998,421.2727,38.3832,432.7311,42.9665,421.2727,38.3832,425.8561" style="stroke:#000000;stroke-width:1.1458;"/><line style="stroke:#000000;stroke-width:1.1458;" x1="38.3832" x2="38.3832" y1="311.778" y2="536.0921"/><line style="stroke:#000000;stroke-width:1.1458;" x1="38.3832" x2="138.9771" y1="536.0921" y2="536.0921"/><polygon fill="#000000" points="127.5188,531.5088,138.9771,536.0921,127.5188,540.6755,132.1021,536.0921" style="stroke:#000000;stroke-width:1.1458;"/><line style="stroke:#000000;stroke-width:1.1458;" x1="152.7271" x2="152.7271" y1="549.8421" y2="572.7588"/><polygon fill="#000000" points="148.1438,561.3005,152.7271,572.7588,157.3104,561.3005,152.7271,565.8838" style="stroke:#000000;stroke-width:1.1458;"/><line style="stroke:#000000;stroke-width:1.1458;" x1="383.0495" x2="383.0495" y1="1438.2854" y2="1472.492"/><polygon fill="#000000" points="378.4661,1461.0337,383.0495,1472.492,387.6328,1461.0337,383.0495,1465.617" style="stroke:#000000;stroke-width:1.1458;"/><line style="stroke:#000000;stroke-width:1.1458;" x1="302.2642" x2="263.5515" y1="1424.5354" y2="1424.5354"/><polygon fill="#000000" points="258.9682,1579.695,263.5515,1591.1534,268.1349,1579.695,263.5515,1584.2784" style="stroke:#000000;stroke-width:1.1458;"/><line style="stroke:#000000;stroke-width:1.1458;" x1="263.5515" x2="263.5515" y1="1424.5354" y2="1742.4608"/><line style="stroke:#000000;stroke-width:1.1458;" x1="263.5515" x2="369.2995" y1="1742.4608" y2="1742.4608"/><polygon fill="#000000" points="357.8411,1737.8775,369.2995,1742.4608,357.8411,1747.0442,362.4245,1742.4608" style="stroke:#000000;stroke-width:1.1458;"/><line style="stroke:#000000;stroke-width:1.1458;" x1="383.0495" x2="383.0495" y1="1371.4328" y2="1410.7854"/><polygon fill="#000000" points="378.4661,1399.3271,383.0495,1410.7854,387.6328,1399.3271,383.0495,1403.9104" style="stroke:#000000;stroke-width:1.1458;"/><line style="stroke:#000000;stroke-width:1.1458;" x1="383.0495" x2="383.0495" y1="1053.1335" y2="1093.8004"/><polygon fill="#000000" points="378.4661,1082.342,383.0495,1093.8004,387.6328,1082.342,383.0495,1086.9254" style="stroke:#000000;stroke-width:1.1458;"/><line style="stroke:#000000;stroke-width:1.1458;" x1="152.7271" x2="152.7271" y1="2281.5161" y2="2315.7227"/><polygon fill="#000000" points="148.1438,2304.2643,152.7271,2315.7227,157.3104,2304.2643,152.7271,2308.8477" style="stroke:#000000;stroke-width:1.1458;"/><line style="stroke:#000000;stroke-width:1.1458;" x1="67.3538" x2="33.2292" y1="2267.7661" y2="2267.7661"/><polygon fill="#000000" points="28.6458,2405.7382,33.2292,2417.1966,37.8125,2405.7382,33.2292,2410.3216" style="stroke:#000000;stroke-width:1.1458;"/><line style="stroke:#000000;stroke-width:1.1458;" x1="33.2292" x2="33.2292" y1="2267.7661" y2="2548.4621"/><line style="stroke:#000000;stroke-width:1.1458;" x1="33.2292" x2="138.9771" y1="2548.4621" y2="2548.4621"/><polygon fill="#000000" points="127.5188,2543.8788,138.9771,2548.4621,127.5188,2553.0454,132.1021,2548.4621" style="stroke:#000000;stroke-width:1.1458;"/><line style="stroke:#000000;stroke-width:1.1458;" x1="152.7271" x2="152.7271" y1="2562.2121" y2="2585.1288"/><polygon fill="#000000" points="148.1438,2573.6704,152.7271,2585.1288,157.3104,2573.6704,152.7271,2578.2538" style="stroke:#000000;stroke-width:1.1458;"/><line style="stroke:#000000;stroke-width:1.1458;" x1="911.2493" x2="911.2493" y1="768.8316" y2="791.7482"/><polygon fill="#000000" points="906.6659,780.2899,911.2493,791.7482,915.8326,780.2899,911.2493,784.8732" style="stroke:#000000;stroke-width:1.1458;"/><line style="stroke:#000000;stroke-width:1.1458;" x1="663.4013" x2="663.4013" y1="1222.5854" y2="1248.3565"/><polygon fill="#000000" points="658.818,1236.8982,663.4013,1248.3565,667.9846,1236.8982,663.4013,1241.4815" style="stroke:#000000;stroke-width:1.1458;"/><line style="stroke:#000000;stroke-width:1.1458;" x1="663.4013" x2="663.4013" y1="1298.4363" y2="1324.2074"/><polygon fill="#000000" points="658.818,1312.749,663.4013,1324.2074,667.9846,1312.749,663.4013,1317.3324" style="stroke:#000000;stroke-width:1.1458;"/><line style="stroke:#000000;stroke-width:1.1458;" x1="663.4013" x2="663.4013" y1="1374.2872" y2="1413.6398"/><polygon fill="#000000" points="658.818,1402.1815,663.4013,1413.6398,667.9846,1402.1815,663.4013,1406.7648" style="stroke:#000000;stroke-width:1.1458;"/><line style="stroke:#000000;stroke-width:1.1458;" x1="1141.5716" x2="1141.5716" y1="1219.7311" y2="1245.5021"/><polygon fill="#000000" points="1136.9883,1234.0438,1141.5716,1245.5021,1146.155,1234.0438,1141.5716,1238.6271" style="stroke:#000000;stroke-width:1.1458;"/><line style="stroke:#000000;stroke-width:1.1458;" x1="1141.5716" x2="1141.5716" y1="1612.7558" y2="1652.86"/><polygon fill="#000000" points="1136.9883,1641.4016,1141.5716,1652.86,1146.155,1641.4016,1141.5716,1645.985" style="stroke:#000000;stroke-width:1.1458;"/><line style="stroke:#000000;stroke-width:1.1458;" x1="1218.1563" x2="1393.65" y1="1807.7733" y2="1807.7733"/><line style="stroke:#000000;stroke-width:1.1458;" x1="1393.65" x2="1393.65" y1="1435.8253" y2="1807.7733"/><polygon fill="#000000" points="1389.0667,1447.2837,1393.65,1435.8253,1398.2333,1447.2837,1393.65,1442.7003" style="stroke:#000000;stroke-width:1.1458;"/><line style="stroke:#000000;stroke-width:1.1458;" x1="1141.5716" x2="1141.5716" y1="1821.5233" y2="1931.0755"/><polygon fill="#000000" points="1136.9883,1919.6171,1141.5716,1931.0755,1146.155,1919.6171,1141.5716,1924.2005" style="stroke:#000000;stroke-width:1.1458;"/><text fill="#000000" font-family="'Helvetica, Arial, sans-serif'" font-size="14.8958" lengthAdjust="spacing" textLength="18.2176" x="1149.5925" y="1867.9417">no</text><line style="stroke:#000000;stroke-width:1.1458;" x1="911.2493" x2="911.2493" y1="2156.9399" y2="2179.8566"/><polygon fill="#000000" points="906.6659,2168.3982,911.2493,2179.8566,915.8326,2168.3982,911.2493,2172.9816" style="stroke:#000000;stroke-width:1.1458;"/><line style="stroke:#000000;stroke-width:1.1458;" x1="911.2493" x2="911.2493" y1="2438.799" y2="2461.7156"/><polygon fill="#000000" points="906.6659,2450.2573,911.2493,2461.7156,915.8326,2450.2573,911.2493,2454.8406" style="stroke:#000000;stroke-width:1.1458;"/><line style="stroke:#000000;stroke-width:1.1458;" x1="1654.2585" x2="1654.2585" y1="1068.0293" y2="1096.6548"/><polygon fill="#000000" points="1649.6752,1085.1964,1654.2585,1096.6548,1658.8419,1085.1964,1654.2585,1089.7798" style="stroke:#000000;stroke-width:1.1458;"/><line style="stroke:#000000;stroke-width:1.1458;" x1="1654.2585" x2="1654.2585" y1="1621.5078" y2="1655.7143"/><polygon fill="#000000" points="1649.6752,1644.256,1654.2585,1655.7143,1658.8419,1644.256,1654.2585,1648.8393" style="stroke:#000000;stroke-width:1.1458;"/><line style="stroke:#000000;stroke-width:1.1458;" x1="1766.1911" x2="1782.046" y1="1607.7578" y2="1607.7578"/><polygon fill="#000000" points="1777.4626,1672.7334,1782.046,1684.1917,1786.6293,1672.7334,1782.046,1677.3167" style="stroke:#000000;stroke-width:1.1458;"/><line style="stroke:#000000;stroke-width:1.1458;" x1="1782.046" x2="1782.046" y1="1607.7578" y2="1745.3152"/><line style="stroke:#000000;stroke-width:1.1458;" x1="1782.046" x2="1668.0085" y1="1745.3152" y2="1745.3152"/><polygon fill="#000000" points="1679.4669,1740.7319,1668.0085,1745.3152,1679.4669,1749.8985,1674.8835,1745.3152" style="stroke:#000000;stroke-width:1.1458;"/><line style="stroke:#000000;stroke-width:1.1458;" x1="1654.2585" x2="1654.2585" y1="1705.7942" y2="1731.5652"/><polygon fill="#000000" points="1649.6752,1720.1069,1654.2585,1731.5652,1658.8419,1720.1069,1654.2585,1724.6902" style="stroke:#000000;stroke-width:1.1458;"/><line style="stroke:#000000;stroke-width:1.1458;" x1="1654.2585" x2="1654.2585" y1="1553.9036" y2="1594.0078"/><polygon fill="#000000" points="1649.6752,1582.5494,1654.2585,1594.0078,1658.8419,1582.5494,1654.2585,1587.1328" style="stroke:#000000;stroke-width:1.1458;"/><line style="stroke:#000000;stroke-width:1.1458;" x1="1654.2585" x2="1654.2585" y1="1759.0652" y2="1781.9819"/><polygon fill="#000000" points="1649.6752,1770.5235,1654.2585,1781.9819,1658.8419,1770.5235,1654.2585,1775.1069" style="stroke:#000000;stroke-width:1.1458;"/><line style="stroke:#000000;stroke-width:1.1458;" x1="1654.2585" x2="1654.2585" y1="995.0328" y2="1017.9495"/><polygon fill="#000000" points="1649.6752,1006.4912,1654.2585,1017.9495,1658.8419,1006.4912,1654.2585,1011.0745" style="stroke:#000000;stroke-width:1.1458;"/><line style="stroke:#000000;stroke-width:1.1458;" x1="1730.8432" x2="2101.6357" y1="1869.8914" y2="1869.8914"/><line style="stroke:#000000;stroke-width:1.1458;" x1="2101.6357" x2="2101.6357" y1="1435.8253" y2="1869.8914"/><polygon fill="#000000" points="2097.0523,1447.2837,2101.6357,1435.8253,2106.219,1447.2837,2101.6357,1442.7003" style="stroke:#000000;stroke-width:1.1458;"/><line style="stroke:#000000;stroke-width:1.1458;" x1="2101.6357" x2="2101.6357" y1="981.2828" y2="1385.7455"/><line style="stroke:#000000;stroke-width:1.1458;" x1="2101.6357" x2="1668.0085" y1="981.2828" y2="981.2828"/><polygon fill="#000000" points="1679.4669,976.6995,1668.0085,981.2828,1679.4669,985.8662,1674.8835,981.2828" style="stroke:#000000;stroke-width:1.1458;"/><line style="stroke:#000000;stroke-width:1.1458;" x1="1654.2585" x2="1654.2585" y1="1832.0617" y2="1856.1414"/><polygon fill="#000000" points="1649.6752,1844.6831,1654.2585,1856.1414,1658.8419,1844.6831,1654.2585,1849.2664" style="stroke:#000000;stroke-width:1.1458;"/><line style="stroke:#000000;stroke-width:1.1458;" x1="1654.2585" x2="1654.2585" y1="944.6162" y2="967.5328"/><polygon fill="#000000" points="1649.6752,956.0745,1654.2585,967.5328,1658.8419,956.0745,1654.2585,960.6578" style="stroke:#000000;stroke-width:1.1458;"/><line style="stroke:#000000;stroke-width:1.1458;" x1="2118.0532" x2="2118.0532" y1="914.8245" y2="937.7412"/><polygon fill="#000000" points="2113.4699,926.2828,2118.0532,937.7412,2122.6365,926.2828,2118.0532,930.8662" style="stroke:#000000;stroke-width:1.1458;"/><line style="stroke:#000000;stroke-width:1.1458;" x1="152.7271" x2="152.7271" y1="200.9518" y2="206.681"/><line style="stroke:#000000;stroke-width:1.1458;" x1="152.7271" x2="911.2493" y1="206.681" y2="206.681"/><line style="stroke:#000000;stroke-width:1.1458;" x1="911.2493" x2="911.2493" y1="206.681" y2="223.8685"/><polygon fill="#000000" points="906.6659,212.4102,911.2493,223.8685,915.8326,212.4102,911.2493,216.9935" style="stroke:#000000;stroke-width:1.1458;"/><line style="stroke:#000000;stroke-width:1.1458;" x1="152.7271" x2="152.7271" y1="409.8144" y2="429.2936"/><line style="stroke:#000000;stroke-width:1.1458;" x1="152.7271" x2="911.2493" y1="429.2936" y2="429.2936"/><line style="stroke:#000000;stroke-width:1.1458;" x1="911.2493" x2="911.2493" y1="429.2936" y2="449.3456"/><polygon fill="#000000" points="906.6659,437.8873,911.2493,449.3456,915.8326,437.8873,911.2493,442.4706" style="stroke:#000000;stroke-width:1.1458;"/><line style="stroke:#000000;stroke-width:1.1458;" x1="911.2493" x2="911.2493" y1="499.4255" y2="505.1546"/><line style="stroke:#000000;stroke-width:1.1458;" x1="911.2493" x2="152.7271" y1="505.1546" y2="505.1546"/><line style="stroke:#000000;stroke-width:1.1458;" x1="152.7271" x2="152.7271" y1="505.1546" y2="522.3421"/><polygon fill="#000000" points="148.1438,510.8838,152.7271,522.3421,157.3104,510.8838,152.7271,515.4671" style="stroke:#000000;stroke-width:1.1458;"/><line style="stroke:#000000;stroke-width:1.1458;" x1="911.2493" x2="911.2493" y1="273.9483" y2="279.6775"/><line style="stroke:#000000;stroke-width:1.1458;" x1="911.2493" x2="152.7271" y1="279.6775" y2="279.6775"/><line style="stroke:#000000;stroke-width:1.1458;" x1="152.7271" x2="152.7271" y1="279.6775" y2="298.028"/><polygon fill="#000000" points="148.1438,286.5697,152.7271,298.028,157.3104,286.5697,152.7271,291.153" style="stroke:#000000;stroke-width:1.1458;"/><line style="stroke:#000000;stroke-width:1.1458;" x1="152.7271" x2="152.7271" y1="622.8386" y2="628.5678"/><line style="stroke:#000000;stroke-width:1.1458;" x1="152.7271" x2="2118.0532" y1="628.5678" y2="628.5678"/><line style="stroke:#000000;stroke-width:1.1458;" x1="2118.0532" x2="2118.0532" y1="628.5678" y2="645.7553"/><polygon fill="#000000" points="2113.4699,634.2969,2118.0532,645.7553,2122.6365,634.2969,2118.0532,638.8803" style="stroke:#000000;stroke-width:1.1458;"/><line style="stroke:#000000;stroke-width:1.1458;" x1="2118.0532" x2="2118.0532" y1="695.8351" y2="701.5642"/><line style="stroke:#000000;stroke-width:1.1458;" x1="2118.0532" x2="911.2493" y1="701.5642" y2="701.5642"/><line style="stroke:#000000;stroke-width:1.1458;" x1="911.2493" x2="911.2493" y1="701.5642" y2="718.7517"/><polygon fill="#000000" points="906.6659,707.2934,911.2493,718.7517,915.8326,707.2934,911.2493,711.8767" style="stroke:#000000;stroke-width:1.1458;"/><line style="stroke:#000000;stroke-width:1.1458;" x1="911.2493" x2="911.2493" y1="841.828" y2="847.5572"/><line style="stroke:#000000;stroke-width:1.1458;" x1="911.2493" x2="2118.0532" y1="847.5572" y2="847.5572"/><line style="stroke:#000000;stroke-width:1.1458;" x1="2118.0532" x2="2118.0532" y1="847.5572" y2="864.7447"/><polygon fill="#000000" points="2113.4699,853.2864,2118.0532,864.7447,2122.6365,853.2864,2118.0532,857.8697" style="stroke:#000000;stroke-width:1.1458;"/><line style="stroke:#000000;stroke-width:1.1458;" x1="1654.2585" x2="1654.2585" y1="1146.7346" y2="1152.4637"/><line style="stroke:#000000;stroke-width:1.1458;" x1="1654.2585" x2="663.4013" y1="1152.4637" y2="1152.4637"/><line style="stroke:#000000;stroke-width:1.1458;" x1="663.4013" x2="663.4013" y1="1152.4637" y2="1172.5056"/><polygon fill="#000000" points="658.818,1161.0473,663.4013,1172.5056,667.9846,1161.0473,663.4013,1165.6306" style="stroke:#000000;stroke-width:1.1458;"/><line style="stroke:#000000;stroke-width:1.1458;" x1="663.4013" x2="663.4013" y1="1463.7196" y2="1483.7717"/><line style="stroke:#000000;stroke-width:1.1458;" x1="663.4013" x2="1654.2585" y1="1483.7717" y2="1483.7717"/><line style="stroke:#000000;stroke-width:1.1458;" x1="1654.2585" x2="1654.2585" y1="1483.7717" y2="1503.8238"/><polygon fill="#000000" points="1649.6752,1492.3655,1654.2585,1503.8238,1658.8419,1492.3655,1654.2585,1496.9488" style="stroke:#000000;stroke-width:1.1458;"/><line style="stroke:#000000;stroke-width:1.1458;" x1="383.0495" x2="383.0495" y1="1143.8802" y2="1152.4637"/><line style="stroke:#000000;stroke-width:1.1458;" x1="383.0495" x2="1141.5716" y1="1152.4637" y2="1152.4637"/><line style="stroke:#000000;stroke-width:1.1458;" x1="1141.5716" x2="1141.5716" y1="1152.4637" y2="1169.6512"/><polygon fill="#000000" points="1136.9883,1158.1929,1141.5716,1169.6512,1146.155,1158.1929,1141.5716,1162.7762" style="stroke:#000000;stroke-width:1.1458;"/><line style="stroke:#000000;stroke-width:1.1458;" x1="1141.5716" x2="1141.5716" y1="1295.5819" y2="1304.1655"/><line style="stroke:#000000;stroke-width:1.1458;" x1="1141.5716" x2="383.0495" y1="1304.1655" y2="1304.1655"/><line style="stroke:#000000;stroke-width:1.1458;" x1="383.0495" x2="383.0495" y1="1304.1655" y2="1321.353"/><polygon fill="#000000" points="378.4661,1309.8947,383.0495,1321.353,387.6328,1309.8947,383.0495,1314.478" style="stroke:#000000;stroke-width:1.1458;"/><line style="stroke:#000000;stroke-width:1.1458;" x1="383.0495" x2="383.0495" y1="1522.5718" y2="1542.6239"/><line style="stroke:#000000;stroke-width:1.1458;" x1="383.0495" x2="1141.5716" y1="1542.6239" y2="1542.6239"/><line style="stroke:#000000;stroke-width:1.1458;" x1="1141.5716" x2="1141.5716" y1="1542.6239" y2="1562.676"/><polygon fill="#000000" points="1136.9883,1551.2176,1141.5716,1562.676,1146.155,1551.2176,1141.5716,1555.801" style="stroke:#000000;stroke-width:1.1458;"/><line style="stroke:#000000;stroke-width:1.1458;" x1="1141.5716" x2="1141.5716" y1="1702.9398" y2="1711.5233"/><line style="stroke:#000000;stroke-width:1.1458;" x1="1141.5716" x2="383.0495" y1="1711.5233" y2="1711.5233"/><line style="stroke:#000000;stroke-width:1.1458;" x1="383.0495" x2="383.0495" y1="1711.5233" y2="1728.7108"/><polygon fill="#000000" points="378.4661,1717.2525,383.0495,1728.7108,387.6328,1717.2525,383.0495,1721.8358" style="stroke:#000000;stroke-width:1.1458;"/><line style="stroke:#000000;stroke-width:1.1458;" x1="1393.65" x2="1393.65" y1="1039.3835" y2="1385.7455"/><line style="stroke:#000000;stroke-width:1.1458;" x1="1393.65" x2="396.7995" y1="1039.3835" y2="1039.3835"/><polygon fill="#000000" points="408.2578,1034.8001,396.7995,1039.3835,408.2578,1043.9668,403.6745,1039.3835" style="stroke:#000000;stroke-width:1.1458;"/><line style="stroke:#000000;stroke-width:1.1458;" x1="383.0495" x2="383.0495" y1="1756.2108" y2="1766.5233"/><line style="stroke:#000000;stroke-width:1.1458;" x1="383.0495" x2="1141.5716" y1="1766.5233" y2="1766.5233"/><line style="stroke:#000000;stroke-width:1.1458;" x1="1141.5716" x2="1141.5716" y1="1766.5233" y2="1794.0233"/><polygon fill="#000000" points="1136.9883,1782.565,1141.5716,1794.0233,1146.155,1782.565,1141.5716,1787.1483" style="stroke:#000000;stroke-width:1.1458;"/><line style="stroke:#000000;stroke-width:1.1458;" x1="2251.5738" x2="2251.5738" y1="944.6162" y2="949.1995"/><line style="stroke:#000000;stroke-width:1.1458;" x1="2251.5738" x2="383.0495" y1="949.1995" y2="949.1995"/><line style="stroke:#000000;stroke-width:1.1458;" x1="383.0495" x2="383.0495" y1="949.1995" y2="1025.6335"/><polygon fill="#000000" points="378.4661,1014.1751,383.0495,1025.6335,387.6328,1014.1751,383.0495,1018.7585" style="stroke:#000000;stroke-width:1.1458;"/><line style="stroke:#000000;stroke-width:1.1458;" x1="1654.2585" x2="1654.2585" y1="1883.6414" y2="1915.0338"/><line style="stroke:#000000;stroke-width:1.1458;" x1="1654.2585" x2="663.4013" y1="1915.0338" y2="1915.0338"/><line style="stroke:#000000;stroke-width:1.1458;" x1="663.4013" x2="663.4013" y1="1915.0338" y2="1931.0755"/><polygon fill="#000000" points="658.818,1919.6171,663.4013,1931.0755,667.9846,1919.6171,663.4013,1924.2005" style="stroke:#000000;stroke-width:1.1458;"/><text fill="#000000" font-family="'Helvetica, Arial, sans-serif'" font-size="14.8958" lengthAdjust="spacing" textLength="18.2176" x="1662.2794" y="1906.4401">no</text><line style="stroke:#000000;stroke-width:1.1458;" x1="911.2493" x2="911.2493" y1="1937.9505" y2="1943.6796"/><line style="stroke:#000000;stroke-width:1.1458;" x1="911.2493" x2="152.7271" y1="1943.6796" y2="1943.6796"/><line style="stroke:#000000;stroke-width:1.1458;" x1="152.7271" x2="152.7271" y1="1943.6796" y2="1960.8671"/><polygon fill="#000000" points="148.1438,1949.4088,152.7271,1960.8671,157.3104,1949.4088,152.7271,1953.9921" style="stroke:#000000;stroke-width:1.1458;"/><line style="stroke:#000000;stroke-width:1.1458;" x1="152.7271" x2="152.7271" y1="2010.947" y2="2016.6761"/><line style="stroke:#000000;stroke-width:1.1458;" x1="152.7271" x2="2118.0532" y1="2016.6761" y2="2016.6761"/><line style="stroke:#000000;stroke-width:1.1458;" x1="2118.0532" x2="2118.0532" y1="2016.6761" y2="2033.8636"/><polygon fill="#000000" points="2113.4699,2022.4053,2118.0532,2033.8636,2122.6365,2022.4053,2118.0532,2026.9886" style="stroke:#000000;stroke-width:1.1458;"/><line style="stroke:#000000;stroke-width:1.1458;" x1="2118.0532" x2="2118.0532" y1="2083.9434" y2="2089.6726"/><line style="stroke:#000000;stroke-width:1.1458;" x1="2118.0532" x2="911.2493" y1="2089.6726" y2="2089.6726"/><line style="stroke:#000000;stroke-width:1.1458;" x1="911.2493" x2="911.2493" y1="2089.6726" y2="2106.8601"/><polygon fill="#000000" points="906.6659,2095.4018,911.2493,2106.8601,915.8326,2095.4018,911.2493,2099.9851" style="stroke:#000000;stroke-width:1.1458;"/><line style="stroke:#000000;stroke-width:1.1458;" x1="152.7271" x2="152.7271" y1="2365.8025" y2="2371.5316"/><line style="stroke:#000000;stroke-width:1.1458;" x1="152.7271" x2="911.2493" y1="2371.5316" y2="2371.5316"/><line style="stroke:#000000;stroke-width:1.1458;" x1="911.2493" x2="911.2493" y1="2371.5316" y2="2388.7191"/><polygon fill="#000000" points="906.6659,2377.2608,911.2493,2388.7191,915.8326,2377.2608,911.2493,2381.8441" style="stroke:#000000;stroke-width:1.1458;"/><line style="stroke:#000000;stroke-width:1.1458;" x1="911.2493" x2="911.2493" y1="2511.7954" y2="2517.5246"/><line style="stroke:#000000;stroke-width:1.1458;" x1="911.2493" x2="152.7271" y1="2517.5246" y2="2517.5246"/><line style="stroke:#000000;stroke-width:1.1458;" x1="152.7271" x2="152.7271" y1="2517.5246" y2="2534.7121"/><polygon fill="#000000" points="148.1438,2523.2538,152.7271,2534.7121,157.3104,2523.2538,152.7271,2527.8371" style="stroke:#000000;stroke-width:1.1458;"/><line style="stroke:#000000;stroke-width:1.1458;" x1="911.2493" x2="911.2493" y1="2229.9364" y2="2235.6656"/><line style="stroke:#000000;stroke-width:1.1458;" x1="911.2493" x2="152.7271" y1="2235.6656" y2="2235.6656"/><line style="stroke:#000000;stroke-width:1.1458;" x1="152.7271" x2="152.7271" y1="2235.6656" y2="2254.0161"/><polygon fill="#000000" points="148.1438,2242.5578,152.7271,2254.0161,157.3104,2242.5578,152.7271,2247.1411" style="stroke:#000000;stroke-width:1.1458;"/><text fill="#000000" font-family="'Helvetica, Arial, sans-serif'" font-size="14.8958" lengthAdjust="spacing" textLength="100.7704" x="213.2833" y="91.5075">User / Student</text><text fill="#000000" font-family="'Helvetica, Arial, sans-serif'" font-size="14.8958" lengthAdjust="spacing" textLength="104.4199" x="958.4716" y="91.5075">Cloud Backend</text><text fill="#000000" font-family="'Helvetica, Arial, sans-serif'" font-size="14.8958" lengthAdjust="spacing" textLength="72.4534" x="1848.6046" y="91.5075">IoT Device</text><?plantuml-src dLN1Rjiu4BthAsPl2P14sROd2TqYjLjiW0PDOtTxPiIHDJ15QicH3I_yyHrIijiuZWFiJI3VF0xVUno59TbEUTN27OQW5dXZQ66XGileCoOs23SLqufu0rDI2u4MCEDUR_v6qw67AR8YWnf-EB-iZLl3sHHNLE7bHrKjqMgu5IwfOtBsFFk3R6LwZT0mTw78Sw_MLmlYfd_i0_hA2TZoLUNQlFQeNJ1gzURw-br-HvPQPUODjdZ__UvBxh4EUODAXxnLPFDs05noH5nrVMkoRFjTE25F3GljDWkiF6T5w1zRueaS8AkaJ2YpxSIuNiFOz3Ohf9MQV7lJ2w60gdI1yWWdrRihWzHOh1ZrXtE8PN1ctNa6K2Gz1z2jBcNby3Z1Z0SEgCcEgSpG18Ip3ORpJA1K7scXwBpOzx5dTdRkPl6ICrb83MzltHm6KW7ElR91xWv92GW32Zp-ssFW8pBSMeeAqNy8AWO1TpNbNgBng9GJZ0ezEN7SXLRvfSHa9945dH22hoKvKPBVoq1Qwb2nV8WqhPCkd1zE60b58KtHar0ca7MCu6dH33K0zyuOQTO6vqC1ZAt4LN7lyM84D7rBGh6vWCdNDnTWOYqON8dW2H736rc77lRACHf96FiDQCLgEFovdL8navOHfWAwTsHvG8gWAxT4kFi27NLeo2A8Uvgg8Ly9Cr6cwetY_HRgzEQ-zU84RqRK0yfjx2d8WQIffiAe_ucYcEUZs_3-FVov2tRAuw1Z8I9HlPbuYi_4f993TuOG3wyXAIivJhK_b4ZwzbgCaZJfX7uK5TVAwsA-LzeurvNxKC2waP43PxjeKHXZ9SzEldUzNVvbNPdI1MeX8o9cxF3bFCtP-0oUtk3h2lsAS7t2wS_8LGDLxxsG2gFIP1VIb0JecRUII7toWESjIjK_iYzv2ysZ4sL-6NNltOfadDQ8EkhsuPW_mxXBXuwIFSWqiujo11oxqpw__Wbqz-O7WfIcZazPl3TpkciUA0v3jTVaVtWQNsQQ6g-Dma-YzIk3C7AzFWPdo30oNL4GMXbbx81zZyy6OTfzwKynIrv0JLQPKTj3pqxwTUJ7CVZqEsEPlUZKBvTU-fa4TjrF?></g></svg>