<?plantuml 1.2026.1?><svg xmlns="http://www.w3.org/2000/svg" xmlns:xlink="http://www.w3.org/1999/xlink" contentStyleType="text/css" data-diagram-type="ACTIVITY" height="527px" preserveAspectRatio="none" style="width:1575px;height:527px;background:#FFFFFF;" version="1.1" viewBox="0 0 1575 527" width="1575px" zoomAndPan="magnify"><title>Activity Diagram: StudyHelper</title><defs/><g><g class="title" data-source-line="3"><text fill="#000000" font-family="sans-serif" font-size="14" font-weight="bold" lengthAdjust="spacing" textLength="211.0352" x="680.6207" y="34.9659">Activity Diagram: StudyHelper</text></g><ellipse cx="795.1383" cy="60.0679" fill="#222222" rx="10" ry="10" style="stroke:#222222;stroke-width:1;"/><line style="stroke:#181818;stroke-width:1.5;" x1="81.9584" x2="1482.1788" y1="90.0679" y2="90.0679"/><rect fill="none" height="225.075" style="stroke:#000000;stroke-width:1.5;" width="141.9167" x="11" y="186.8329"/><path d="M131.7675,186.8329 L131.7675,198.9008 L121.7675,208.9008 L11,208.9008" fill="none" style="stroke:#000000;stroke-width:1.5;"/><text fill="#000000" font-family="sans-serif" font-size="14" lengthAdjust="spacing" textLength="110.7675" x="14" y="202.7988">CheckNoiseLevel</text><rect fill="#F1F1F1" height="36.3441" rx="12.5" ry="12.5" style="stroke:#181818;stroke-width:0.5;" width="121.9167" x="21" y="260.9008"/><text fill="#000000" font-family="sans-serif" font-size="12" lengthAdjust="spacing" textLength="101.9167" x="31" y="283.7289">requestNoiseData</text><rect fill="#F1F1F1" height="36.3441" rx="12.5" ry="12.5" style="stroke:#181818;stroke-width:0.5;" width="108.3206" x="27.798" y="332.2449"/><text fill="#000000" font-family="sans-serif" font-size="12" lengthAdjust="spacing" textLength="88.3206" x="37.798" y="355.073">sendNoiseLevel</text><rect fill="none" height="225.075" style="stroke:#000000;stroke-width:1.5;" width="138.4367" x="162.9167" y="186.8329"/><path d="M279.6243,186.8329 L279.6243,198.9008 L269.6243,208.9008 L162.9167,208.9008" fill="none" style="stroke:#000000;stroke-width:1.5;"/><text fill="#000000" font-family="sans-serif" font-size="14" lengthAdjust="spacing" textLength="106.7076" x="165.9167" y="202.7988">CheckLightLevel</text><rect fill="#F1F1F1" height="36.3441" rx="12.5" ry="12.5" style="stroke:#181818;stroke-width:0.5;" width="118.4367" x="172.9167" y="260.9008"/><text fill="#000000" font-family="sans-serif" font-size="12" lengthAdjust="spacing" textLength="98.4367" x="182.9167" y="283.7289">requestLightData</text><rect fill="#F1F1F1" height="36.3441" rx="12.5" ry="12.5" style="stroke:#181818;stroke-width:0.5;" width="104.8406" x="179.7148" y="332.2449"/><text fill="#000000" font-family="sans-serif" font-size="12" lengthAdjust="spacing" textLength="84.8406" x="189.7148" y="355.073">sendLightLevel</text><rect fill="none" height="225.075" style="stroke:#000000;stroke-width:1.5;" width="133.7447" x="311.3534" y="186.8329"/><path d="M422.587,186.8329 L422.587,198.9008 L412.587,208.9008 L311.3534,208.9008" fill="none" style="stroke:#000000;stroke-width:1.5;"/><text fill="#000000" font-family="sans-serif" font-size="14" lengthAdjust="spacing" textLength="101.2336" x="314.3534" y="202.7988">CheckCO2Level</text><rect fill="#F1F1F1" height="36.3441" rx="12.5" ry="12.5" style="stroke:#181818;stroke-width:0.5;" width="113.7447" x="321.3534" y="260.9008"/><text fill="#000000" font-family="sans-serif" font-size="12" lengthAdjust="spacing" textLength="93.7447" x="331.3534" y="283.7289">requestCO2Data</text><rect fill="#F1F1F1" height="36.3441" rx="12.5" ry="12.5" style="stroke:#181818;stroke-width:0.5;" width="100.1486" x="328.1515" y="332.2449"/><text fill="#000000" font-family="sans-serif" font-size="12" lengthAdjust="spacing" textLength="80.1486" x="338.1515" y="355.073">sendCO2Level</text><rect fill="none" height="225.075" style="stroke:#000000;stroke-width:1.5;" width="183.893" x="455.0981" y="186.8329"/><path d="M590.9856,186.8329 L590.9856,198.9008 L580.9856,208.9008 L455.0981,208.9008" fill="none" style="stroke:#000000;stroke-width:1.5;"/><text fill="#000000" font-family="sans-serif" font-size="14" lengthAdjust="spacing" textLength="125.8875" x="458.0981" y="202.7988">CheckTemperature</text><rect fill="#F1F1F1" height="36.3441" rx="12.5" ry="12.5" style="stroke:#181818;stroke-width:0.5;" width="163.893" x="465.0981" y="260.9008"/><text fill="#000000" font-family="sans-serif" font-size="12" lengthAdjust="spacing" textLength="143.893" x="475.0981" y="283.7289">requestTemperatureData</text><rect fill="#F1F1F1" height="36.3441" rx="12.5" ry="12.5" style="stroke:#181818;stroke-width:0.5;" width="121.2807" x="486.4042" y="332.2449"/><text fill="#000000" font-family="sans-serif" font-size="12" lengthAdjust="spacing" textLength="101.2807" x="496.4042" y="355.073">sendTemperature</text><rect fill="none" height="225.075" style="stroke:#000000;stroke-width:1.5;" width="161.4768" x="648.9911" y="186.8329"/><path d="M758.7267,186.8329 L758.7267,198.9008 L748.7267,208.9008 L648.9911,208.9008" fill="none" style="stroke:#000000;stroke-width:1.5;"/><text fill="#000000" font-family="sans-serif" font-size="14" lengthAdjust="spacing" textLength="99.7356" x="651.9911" y="202.7988">CheckHumidity</text><rect fill="#F1F1F1" height="36.3441" rx="12.5" ry="12.5" style="stroke:#181818;stroke-width:0.5;" width="141.4768" x="658.9911" y="260.9008"/><text fill="#000000" font-family="sans-serif" font-size="12" lengthAdjust="spacing" textLength="121.4768" x="668.9911" y="283.7289">requestHumidityData</text><rect fill="#F1F1F1" height="36.3441" rx="12.5" ry="12.5" style="stroke:#181818;stroke-width:0.5;" width="98.8645" x="680.2972" y="332.2449"/><text fill="#000000" font-family="sans-serif" font-size="12" lengthAdjust="spacing" textLength="78.8645" x="690.2972" y="355.073">sendHumidity</text><rect fill="none" height="225.075" style="stroke:#000000;stroke-width:1.5;" width="182.2714" x="820.4679" y="186.8329"/><path d="M997.7393,186.8329 L997.7393,198.9008 L987.7393,208.9008 L820.4679,208.9008" fill="none" style="stroke:#000000;stroke-width:1.5;"/><text fill="#000000" font-family="sans-serif" font-size="14" lengthAdjust="spacing" textLength="167.2714" x="823.4679" y="202.7988">SetDataCollectionInterval</text><rect fill="#F1F1F1" height="36.3441" rx="12.5" ry="12.5" style="stroke:#181818;stroke-width:0.5;" width="117.6447" x="855.2813" y="260.9008"/><text fill="#000000" font-family="sans-serif" font-size="12" lengthAdjust="spacing" textLength="97.6447" x="865.2813" y="283.7289">configureInterval</text><rect fill="#F1F1F1" height="36.3441" rx="12.5" ry="12.5" style="stroke:#181818;stroke-width:0.5;" width="93.7165" x="867.2453" y="332.2449"/><text fill="#000000" font-family="sans-serif" font-size="12" lengthAdjust="spacing" textLength="73.7165" x="877.2453" y="355.073">notifyUpdate</text><rect fill="none" height="225.075" style="stroke:#000000;stroke-width:1.5;" width="136.1807" x="1012.7393" y="186.8329"/><path d="M1126.8148,186.8329 L1126.8148,198.9008 L1116.8148,208.9008 L1012.7393,208.9008" fill="none" style="stroke:#000000;stroke-width:1.5;"/><text fill="#000000" font-family="sans-serif" font-size="14" lengthAdjust="spacing" textLength="104.0756" x="1015.7393" y="202.7988">CheckDustLevel</text><rect fill="#F1F1F1" height="36.3441" rx="12.5" ry="12.5" style="stroke:#181818;stroke-width:0.5;" width="116.1807" x="1022.7393" y="260.9008"/><text fill="#000000" font-family="sans-serif" font-size="12" lengthAdjust="spacing" textLength="96.1807" x="1032.7393" y="283.7289">requestDustData</text><rect fill="#F1F1F1" height="36.3441" rx="12.5" ry="12.5" style="stroke:#181818;stroke-width:0.5;" width="102.5846" x="1029.5373" y="332.2449"/><text fill="#000000" font-family="sans-serif" font-size="12" lengthAdjust="spacing" textLength="82.5846" x="1039.5373" y="355.073">sendDustLevel</text><rect fill="none" height="352.401" style="stroke:#000000;stroke-width:1.5;" width="226.1611" x="1158.9199" y="101.6699"/><path d="M1380.0811,101.6699 L1380.0811,113.7378 L1370.0811,123.7378 L1158.9199,123.7378" fill="none" style="stroke:#000000;stroke-width:1.5;"/><text fill="#000000" font-family="sans-serif" font-size="14" lengthAdjust="spacing" textLength="211.1611" x="1161.9199" y="117.6358">ReceiveEnvironmentNotification</text><rect fill="#F1F1F1" height="36.3441" rx="12.5" ry="12.5" style="stroke:#181818;stroke-width:0.5;" width="138.1888" x="1194.9061" y="140.7378"/><text fill="#000000" font-family="sans-serif" font-size="12" lengthAdjust="spacing" textLength="118.1888" x="1204.9061" y="163.5659">monitorEnvironment</text><rect fill="#F1F1F1" height="36.3441" rx="12.5" ry="12.5" style="stroke:#181818;stroke-width:0.5;" width="42.6322" x="1242.6844" y="296.5729"/><text fill="#000000" font-family="sans-serif" font-size="12" lengthAdjust="spacing" textLength="22.6322" x="1252.6844" y="319.401">skip</text><polygon fill="#F1F1F1" points="1202.6594,247.0819,1325.3416,247.0819,1337.3416,259.0819,1325.3416,271.0819,1202.6594,271.0819,1190.6594,259.0819,1202.6594,247.0819" style="stroke:#181818;stroke-width:0.5;"/><text fill="#000000" font-family="sans-serif" font-size="11" lengthAdjust="spacing" textLength="17.0829" x="1268.0005" y="282.8408">yes</text><text fill="#000000" font-family="sans-serif" font-size="11" lengthAdjust="spacing" textLength="122.6822" x="1202.6594" y="263.3499">Parameters not optimal</text><text fill="#000000" font-family="sans-serif" font-size="11" lengthAdjust="spacing" textLength="13.4529" x="1337.3416" y="255.859">no</text><polygon fill="#F1F1F1" points="1264.0005,358.4079,1276.0005,370.4079,1264.0005,382.4079,1252.0005,370.4079,1264.0005,358.4079" style="stroke:#181818;stroke-width:0.5;"/><rect fill="#F1F1F1" height="36.3441" rx="12.5" ry="12.5" style="stroke:#181818;stroke-width:0.5;" width="112.9407" x="1207.5302" y="405.7268"/><text fill="#000000" font-family="sans-serif" font-size="12" lengthAdjust="spacing" textLength="92.9407" x="1217.5302" y="428.5549">sendNotification</text><rect fill="none" height="190.075" style="stroke:#000000;stroke-width:1.5;" width="169.1954" x="1395.0811" y="204.3329"/><path d="M1559.2765,204.3329 L1559.2765,216.4008 L1549.2765,226.4008 L1395.0811,226.4008" fill="none" style="stroke:#000000;stroke-width:1.5;"/><text fill="#000000" font-family="sans-serif" font-size="14" lengthAdjust="spacing" textLength="154.1954" x="1398.0811" y="220.2988">RateStudySessionFocus</text><rect fill="#F1F1F1" height="36.3441" rx="12.5" ry="12.5" style="stroke:#181818;stroke-width:0.5;" width="128.0247" x="1418.1664" y="243.4008"/><text fill="#000000" font-family="sans-serif" font-size="12" lengthAdjust="spacing" textLength="108.0247" x="1428.1664" y="266.2289">submitFocusRating</text><rect fill="#F1F1F1" height="36.3441" rx="12.5" ry="12.5" style="stroke:#181818;stroke-width:0.5;" width="100.2566" x="1432.0505" y="314.7449"/><text fill="#000000" font-family="sans-serif" font-size="12" lengthAdjust="spacing" textLength="80.2566" x="1442.0505" y="337.573">confirmRating</text><line style="stroke:#181818;stroke-width:1.5;" x1="81.9584" x2="1482.1788" y1="474.0709" y2="474.0709"/><ellipse cx="795.1383" cy="505.0709" fill="none" rx="11" ry="11" style="stroke:#222222;stroke-width:1;"/><ellipse cx="795.1383" cy="505.0709" fill="#222222" rx="6" ry="6" style="stroke:#222222;stroke-width:1;"/><line style="stroke:#181818;stroke-width:1;" x1="81.9584" x2="81.9584" y1="91.5679" y2="260.9008"/><polygon fill="#181818" points="77.9584,250.9008,81.9584,260.9008,85.9584,250.9008,81.9584,254.9008" style="stroke:#181818;stroke-width:1;"/><line style="stroke:#181818;stroke-width:1;" x1="81.9584" x2="81.9584" y1="297.2449" y2="332.2449"/><polygon fill="#181818" points="77.9584,322.2449,81.9584,332.2449,85.9584,322.2449,81.9584,326.2449" style="stroke:#181818;stroke-width:1;"/><line style="stroke:#181818;stroke-width:1;" x1="81.9584" x2="81.9584" y1="368.589" y2="474.0709"/><polygon fill="#181818" points="77.9584,464.0709,81.9584,474.0709,85.9584,464.0709,81.9584,468.0709" style="stroke:#181818;stroke-width:1;"/><line style="stroke:#181818;stroke-width:1;" x1="232.1351" x2="232.1351" y1="91.5679" y2="260.9008"/><polygon fill="#181818" points="228.1351,250.9008,232.1351,260.9008,236.1351,250.9008,232.1351,254.9008" style="stroke:#181818;stroke-width:1;"/><line style="stroke:#181818;stroke-width:1;" x1="232.1351" x2="232.1351" y1="297.2449" y2="332.2449"/><polygon fill="#181818" points="228.1351,322.2449,232.1351,332.2449,236.1351,322.2449,232.1351,326.2449" style="stroke:#181818;stroke-width:1;"/><line style="stroke:#181818;stroke-width:1;" x1="232.1351" x2="232.1351" y1="368.589" y2="474.0709"/><polygon fill="#181818" points="228.1351,464.0709,232.1351,474.0709,236.1351,464.0709,232.1351,468.0709" style="stroke:#181818;stroke-width:1;"/><line style="stroke:#181818;stroke-width:1;" x1="378.2257" x2="378.2257" y1="91.5679" y2="260.9008"/><polygon fill="#181818" points="374.2257,250.9008,378.2257,260.9008,382.2257,250.9008,378.2257,254.9008" style="stroke:#181818;stroke-width:1;"/><line style="stroke:#181818;stroke-width:1;" x1="378.2257" x2="378.2257" y1="297.2449" y2="332.2449"/><polygon fill="#181818" points="374.2257,322.2449,378.2257,332.2449,382.2257,322.2449,378.2257,326.2449" style="stroke:#181818;stroke-width:1;"/><line style="stroke:#181818;stroke-width:1;" x1="378.2257" x2="378.2257" y1="368.589" y2="474.0709"/><polygon fill="#181818" points="374.2257,464.0709,378.2257,474.0709,382.2257,464.0709,378.2257,468.0709" style="stroke:#181818;stroke-width:1;"/><line style="stroke:#181818;stroke-width:1;" x1="547.0446" x2="547.0446" y1="91.5679" y2="260.9008"/><polygon fill="#181818" points="543.0446,250.9008,547.0446,260.9008,551.0446,250.9008,547.0446,254.9008" style="stroke:#181818;stroke-width:1;"/><line style="stroke:#181818;stroke-width:1;" x1="547.0446" x2="547.0446" y1="297.2449" y2="332.2449"/><polygon fill="#181818" points="543.0446,322.2449,547.0446,332.2449,551.0446,322.2449,547.0446,326.2449" style="stroke:#181818;stroke-width:1;"/><line style="stroke:#181818;stroke-width:1;" x1="547.0446" x2="547.0446" y1="368.589" y2="474.0709"/><polygon fill="#181818" points="543.0446,464.0709,547.0446,474.0709,551.0446,464.0709,547.0446,468.0709" style="stroke:#181818;stroke-width:1;"/><line style="stroke:#181818;stroke-width:1;" x1="729.7295" x2="729.7295" y1="91.5679" y2="260.9008"/><polygon fill="#181818" points="725.7295,250.9008,729.7295,260.9008,733.7295,250.9008,729.7295,254.9008" style="stroke:#181818;stroke-width:1;"/><line style="stroke:#181818;stroke-width:1;" x1="729.7295" x2="729.7295" y1="297.2449" y2="332.2449"/><polygon fill="#181818" points="725.7295,322.2449,729.7295,332.2449,733.7295,322.2449,729.7295,326.2449" style="stroke:#181818;stroke-width:1;"/><line style="stroke:#181818;stroke-width:1;" x1="729.7295" x2="729.7295" y1="368.589" y2="474.0709"/><polygon fill="#181818" points="725.7295,464.0709,729.7295,474.0709,733.7295,464.0709,729.7295,468.0709" style="stroke:#181818;stroke-width:1;"/><line style="stroke:#181818;stroke-width:1;" x1="914.1036" x2="914.1036" y1="91.5679" y2="260.9008"/><polygon fill="#181818" points="910.1036,250.9008,914.1036,260.9008,918.1036,250.9008,914.1036,254.9008" style="stroke:#181818;stroke-width:1;"/><line style="stroke:#181818;stroke-width:1;" x1="914.1036" x2="914.1036" y1="297.2449" y2="332.2449"/><polygon fill="#181818" points="910.1036,322.2449,914.1036,332.2449,918.1036,322.2449,914.1036,326.2449" style="stroke:#181818;stroke-width:1;"/><line style="stroke:#181818;stroke-width:1;" x1="914.1036" x2="914.1036" y1="368.589" y2="474.0709"/><polygon fill="#181818" points="910.1036,464.0709,914.1036,474.0709,918.1036,464.0709,914.1036,468.0709" style="stroke:#181818;stroke-width:1;"/><line style="stroke:#181818;stroke-width:1;" x1="1080.8296" x2="1080.8296" y1="91.5679" y2="260.9008"/><polygon fill="#181818" points="1076.8296,250.9008,1080.8296,260.9008,1084.8296,250.9008,1080.8296,254.9008" style="stroke:#181818;stroke-width:1;"/><line style="stroke:#181818;stroke-width:1;" x1="1080.8296" x2="1080.8296" y1="297.2449" y2="332.2449"/><polygon fill="#181818" points="1076.8296,322.2449,1080.8296,332.2449,1084.8296,322.2449,1080.8296,326.2449" style="stroke:#181818;stroke-width:1;"/><line style="stroke:#181818;stroke-width:1;" x1="1080.8296" x2="1080.8296" y1="368.589" y2="474.0709"/><polygon fill="#181818" points="1076.8296,464.0709,1080.8296,474.0709,1084.8296,464.0709,1080.8296,468.0709" style="stroke:#181818;stroke-width:1;"/><line style="stroke:#181818;stroke-width:1;" x1="1264.0005" x2="1264.0005" y1="177.0819" y2="247.0819"/><polygon fill="#181818" points="1260.0005,237.0819,1264.0005,247.0819,1268.0005,237.0819,1264.0005,241.0819" style="stroke:#181818;stroke-width:1;"/><line style="stroke:#181818;stroke-width:1;" x1="1264.0005" x2="1264.0005" y1="271.0819" y2="296.5729"/><polygon fill="#181818" points="1260.0005,286.5729,1264.0005,296.5729,1268.0005,286.5729,1264.0005,290.5729" style="stroke:#181818;stroke-width:1;"/><line style="stroke:#181818;stroke-width:1;" x1="1337.3416" x2="1349.3416" y1="259.0819" y2="259.0819"/><polygon fill="#181818" points="1345.3416,304.7449,1349.3416,314.7449,1353.3416,304.7449,1349.3416,308.7449" style="stroke:#181818;stroke-width:1;"/><line style="stroke:#181818;stroke-width:1;" x1="1349.3416" x2="1349.3416" y1="259.0819" y2="370.4079"/><line style="stroke:#181818;stroke-width:1;" x1="1349.3416" x2="1276.0005" y1="370.4079" y2="370.4079"/><polygon fill="#181818" points="1286.0005,366.4079,1276.0005,370.4079,1286.0005,374.4079,1282.0005,370.4079" style="stroke:#181818;stroke-width:1;"/><line style="stroke:#181818;stroke-width:1;" x1="1264.0005" x2="1264.0005" y1="332.917" y2="358.4079"/><polygon fill="#181818" points="1260.0005,348.4079,1264.0005,358.4079,1268.0005,348.4079,1264.0005,352.4079" style="stroke:#181818;stroke-width:1;"/><line style="stroke:#181818;stroke-width:1;" x1="1264.0005" x2="1264.0005" y1="382.4079" y2="405.7268"/><polygon fill="#181818" points="1260.0005,395.7268,1264.0005,405.7268,1268.0005,395.7268,1264.0005,399.7268" style="stroke:#181818;stroke-width:1;"/><line style="stroke:#181818;stroke-width:1;" x1="1264.0005" x2="1264.0005" y1="442.0709" y2="474.0709"/><polygon fill="#181818" points="1260.0005,464.0709,1264.0005,474.0709,1268.0005,464.0709,1264.0005,468.0709" style="stroke:#181818;stroke-width:1;"/><line style="stroke:#181818;stroke-width:1;" x1="1482.1788" x2="1482.1788" y1="279.7449" y2="314.7449"/><polygon fill="#181818" points="1478.1788,304.7449,1482.1788,314.7449,1486.1788,304.7449,1482.1788,308.7449" style="stroke:#181818;stroke-width:1;"/><line style="stroke:#181818;stroke-width:1;" x1="1482.1788" x2="1482.1788" y1="351.089" y2="474.0709"/><polygon fill="#181818" points="1478.1788,464.0709,1482.1788,474.0709,1486.1788,464.0709,1482.1788,468.0709" style="stroke:#181818;stroke-width:1;"/><line style="stroke:#181818;stroke-width:1;" x1="1264.0005" x2="1264.0005" y1="91.5679" y2="140.7378"/><polygon fill="#181818" points="1260.0005,130.7378,1264.0005,140.7378,1268.0005,130.7378,1264.0005,134.7378" style="stroke:#181818;stroke-width:1;"/><line style="stroke:#181818;stroke-width:1;" x1="1482.1788" x2="1482.1788" y1="91.5679" y2="243.4008"/><polygon fill="#181818" points="1478.1788,233.4008,1482.1788,243.4008,1486.1788,233.4008,1482.1788,237.4008" style="stroke:#181818;stroke-width:1;"/><line style="stroke:#181818;stroke-width:1;" x1="795.1383" x2="795.1383" y1="70.0679" y2="90.0679"/><polygon fill="#181818" points="791.1383,80.0679,795.1383,90.0679,799.1383,80.0679,795.1383,84.0679" style="stroke:#181818;stroke-width:1;"/><line style="stroke:#181818;stroke-width:1;" x1="795.1383" x2="795.1383" y1="475.5709" y2="494.0709"/><polygon fill="#181818" points="791.1383,484.0709,795.1383,494.0709,799.1383,484.0709,795.1383,488.0709" style="stroke:#181818;stroke-width:1;"/><?plantuml-src bPH1RwCm48Nl_8fHBvjUznXELRAhhfIqLTEUAmScP1HZi_Q0XAhzxpk6a20MI3U77EOzFtyUxFa6BrePVjzk84E3JZ6ciAzX-xn-Y_o9JA6Soc6BtgiC7pHb1X8qZ2vYOetma31Ln3MiIMLYNSAEoxH-H5s8nxDo7Fb24qUI94l86hXR7J4vFLdokC4AzHryHY0_hVQeOI1-j1b1NphyNQBdHbmhLd5RzcZIwu9u9akCqP-M1rIcoFn3jQ7io5DKLt64gX47LDS5yKpMRQhLy_SffauQ8H9fmDEPuycKsonlc1VXefGEHt1wwWXHJnsGzPHuBlCstsEPKoetSWIkaqR8Ecc0rPNZoQXPe1qsDs9bjSOab7w5frEfmOUSjFL14siEb4aFEl6CQIpJeNulKdcxyPT2R_TmNVh9Ht3HHheOj447B_PuEcWMw1KJf0f_c8gSDRaCdwTmOafKq3l0PMuDiNKzMt_3-P2Fnaa7MBo4SOVI9m_ILx05KwxqFV0H3IngzFUDDPpjH4Mx0sgFi32sbUGiTEZFfUis_m4qtn7vqisKtSbObifFcvJ-qWXVxdFYfYP6CbdSkpykxzVEA6DnPmBvRwUtPrly1G00?></g></svg>