<?plantuml 1.2026.1?><svg xmlns="http://www.w3.org/2000/svg" xmlns:xlink="http://www.w3.org/1999/xlink" contentStyleType="text/css" data-diagram-type="CLASS" height="305px" preserveAspectRatio="none" style="width:216px;height:305px;background:#FFFFFF;" version="1.1" viewBox="0 0 216 305" width="216px" zoomAndPan="magnify"><title>Design Model: StudyHelper</title><defs/><g><g class="title" data-source-line="2"><text fill="#000000" font-family="sans-serif" font-size="14" font-weight="bold" lengthAdjust="spacing" textLength="188.7473" x="10" y="24.9659">Design Model: StudyHelper</text></g><!--class Student--><g class="entity" data-qualified-name="Student" data-source-line="3" id="ent0002"><rect fill="#F1F1F1" height="124.2717" rx="2.5" ry="2.5" style="stroke:#181818;stroke-width:0.5;" width="123.3556" x="49.6949" y="47.0679"/><ellipse cx="82.5832" cy="63.0679" fill="#ADD1B2" rx="11" ry="11" style="stroke:#181818;stroke-width:1;"/><path d="M82.0519,69.9898 Q80.3019,69.9898 79.1613,69.2554 Q78.0363,68.5054 77.4738,67.1617 Q76.9269,65.8023 76.9269,64.0054 Q76.9269,61.9742 77.5832,60.521 Q78.2394,59.0679 79.5207,58.2867 Q80.8019,57.5054 82.6769,57.5054 Q83.5675,57.5054 84.2394,57.6929 Q84.9113,57.8648 85.5988,58.2085 L84.7863,60.2242 Q84.1613,59.9117 83.6144,59.7867 Q83.0832,59.6617 82.5988,59.6617 Q81.4269,59.6617 80.7238,60.1929 Q80.0207,60.7242 79.7238,61.6773 Q79.4269,62.6304 79.4269,63.896 Q79.4269,65.9117 80.1457,66.8804 Q80.8644,67.8335 82.4582,67.8335 Q83.0519,67.8335 83.6769,67.6773 Q84.3019,67.521 85.13,67.146 L85.13,69.3648 Q84.3957,69.6773 83.5988,69.8335 Q82.8175,69.9898 82.0519,69.9898 Z " fill="#000000"/><text fill="#000000" font-family="sans-serif" font-size="14" lengthAdjust="spacing" textLength="51.6038" x="100.5583" y="68.4999">Student</text><line style="stroke:#181818;stroke-width:0.5;" x1="50.6949" x2="172.0504" y1="79.0679" y2="79.0679"/><text fill="#000000" font-family="sans-serif" font-size="14" lengthAdjust="spacing" textLength="97.2296" x="55.6949" y="98.0339">studying : bool</text><text fill="#000000" font-family="sans-serif" font-size="14" lengthAdjust="spacing" textLength="111.3556" x="55.6949" y="117.1018">authorized : bool</text><line style="stroke:#181818;stroke-width:0.5;" x1="50.6949" x2="172.0504" y1="125.2038" y2="125.2038"/><text fill="#000000" font-family="sans-serif" font-size="14" lengthAdjust="spacing" textLength="96.8656" x="55.6949" y="144.1697">startStudying()</text><text fill="#000000" font-family="sans-serif" font-size="14" lengthAdjust="spacing" textLength="95.2556" x="55.6949" y="163.2376">stopStudying()</text></g><!--class StudyEnvironment--><g class="entity" data-qualified-name="StudyEnvironment" data-source-line="9" id="ent0003"><rect fill="#F1F1F1" height="48" rx="2.5" ry="2.5" style="stroke:#181818;stroke-width:0.5;" width="153.8975" x="34.4249" y="250.3379"/><ellipse cx="49.4249" cy="266.3379" fill="#ADD1B2" rx="11" ry="11" style="stroke:#181818;stroke-width:1;"/><path d="M48.8936,273.2598 Q47.1436,273.2598 46.003,272.5254 Q44.878,271.7754 44.3155,270.4317 Q43.7686,269.0723 43.7686,267.2754 Q43.7686,265.2442 44.4249,263.791 Q45.0811,262.3379 46.3624,261.5567 Q47.6436,260.7754 49.5186,260.7754 Q50.4092,260.7754 51.0811,260.9629 Q51.753,261.1348 52.4405,261.4785 L51.628,263.4942 Q51.003,263.1817 50.4561,263.0567 Q49.9249,262.9317 49.4405,262.9317 Q48.2686,262.9317 47.5655,263.4629 Q46.8624,263.9942 46.5655,264.9473 Q46.2686,265.9004 46.2686,267.166 Q46.2686,269.1817 46.9874,270.1504 Q47.7061,271.1035 49.2999,271.1035 Q49.8936,271.1035 50.5186,270.9473 Q51.1436,270.791 51.9717,270.416 L51.9717,272.6348 Q51.2374,272.9473 50.4405,273.1035 Q49.6592,273.2598 48.8936,273.2598 Z " fill="#000000"/><text fill="#000000" font-family="sans-serif" font-size="14" lengthAdjust="spacing" textLength="121.8975" x="63.4249" y="271.7699">StudyEnvironment</text><line style="stroke:#181818;stroke-width:0.5;" x1="35.4249" x2="187.3224" y1="282.3379" y2="282.3379"/><line style="stroke:#181818;stroke-width:0.5;" x1="35.4249" x2="187.3224" y1="290.3379" y2="290.3379"/></g><!--link Student to StudyEnvironment--><g class="link" data-entity-1="ent0002" data-entity-2="ent0003" data-link-type="association" data-source-line="11" id="lnk4"><path codeLine="11" d="M111.3749,171.4079 C111.3749,198.8979 111.3749,229.6779 111.3749,250.1479" fill="none" id="Student-StudyEnvironment" style="stroke:#181818;stroke-width:1;"/><text fill="#000000" font-family="sans-serif" font-size="13" lengthAdjust="spacing" textLength="55.5621" x="112.3749" y="216.2349">monitors</text><text fill="#000000" font-family="sans-serif" font-size="13" lengthAdjust="spacing" textLength="7.436" x="104.0161" y="193.0768">1</text><text fill="#000000" font-family="sans-serif" font-size="13" lengthAdjust="spacing" textLength="7.163" x="103.4565" y="238.3544">*</text></g><?plantuml-src PStB2i8m50JGVRvYoCO7TE6swmekB0hL3qZjfGRIt9BS2bNwxzRweE3sp32pmD4PB-TyZvey1IDKeUoH7xAJ4YkEa56qjKVE5RaKXNHLloFNKb0NPsASXBpWeO3uIgslaQ9aTgEOJguSx7sS_LaK4wJuL9UhIRYTmJ2RxhV-PWFxvlqngE-VtcWa2VHQ__TIDEojS8XF?></g></svg>