<?plantuml 1.2026.1?><svg xmlns="http://www.w3.org/2000/svg" xmlns:xlink="http://www.w3.org/1999/xlink" contentStyleType="text/css" data-diagram-type="CLASS" height="419px" preserveAspectRatio="none" style="width:223px;height:419px;background:#FFFFFF;" version="1.1" viewBox="0 0 223 419" width="223px" zoomAndPan="magnify"><title>Domain Model: StudyHelper</title><defs/><g><g class="title" data-source-line="2"><text fill="#000000" font-family="sans-serif" font-size="14" font-weight="bold" lengthAdjust="spacing" textLength="195.2993" x="10" y="24.9659">Domain Model: StudyHelper</text></g><!--class Student--><g class="entity" data-qualified-name="Student" data-source-line="3" id="ent0002"><rect fill="#F1F1F1" height="124.2717" rx="2.5" ry="2.5" style="stroke:#181818;stroke-width:0.5;" width="123.3556" x="52.9709" y="47.0679"/><ellipse cx="85.8592" cy="63.0679" fill="#ADD1B2" rx="11" ry="11" style="stroke:#181818;stroke-width:1;"/><path d="M85.3279,69.9898 Q83.5779,69.9898 82.4373,69.2554 Q81.3123,68.5054 80.7498,67.1617 Q80.2029,65.8023 80.2029,64.0054 Q80.2029,61.9742 80.8592,60.521 Q81.5154,59.0679 82.7967,58.2867 Q84.0779,57.5054 85.9529,57.5054 Q86.8435,57.5054 87.5154,57.6929 Q88.1873,57.8648 88.8748,58.2085 L88.0623,60.2242 Q87.4373,59.9117 86.8904,59.7867 Q86.3592,59.6617 85.8748,59.6617 Q84.7029,59.6617 83.9998,60.1929 Q83.2967,60.7242 82.9998,61.6773 Q82.7029,62.6304 82.7029,63.896 Q82.7029,65.9117 83.4217,66.8804 Q84.1404,67.8335 85.7342,67.8335 Q86.3279,67.8335 86.9529,67.6773 Q87.5779,67.521 88.406,67.146 L88.406,69.3648 Q87.6717,69.6773 86.8748,69.8335 Q86.0935,69.9898 85.3279,69.9898 Z " fill="#000000"/><text fill="#000000" font-family="sans-serif" font-size="14" lengthAdjust="spacing" textLength="51.6038" x="103.8343" y="68.4999">Student</text><line style="stroke:#181818;stroke-width:0.5;" x1="53.9709" x2="175.3264" y1="79.0679" y2="79.0679"/><text fill="#000000" font-family="sans-serif" font-size="14" lengthAdjust="spacing" textLength="97.2296" x="58.9709" y="98.0339">studying : bool</text><text fill="#000000" font-family="sans-serif" font-size="14" lengthAdjust="spacing" textLength="111.3556" x="58.9709" y="117.1018">authorized : bool</text><line style="stroke:#181818;stroke-width:0.5;" x1="53.9709" x2="175.3264" y1="125.2038" y2="125.2038"/><text fill="#000000" font-family="sans-serif" font-size="14" lengthAdjust="spacing" textLength="96.8656" x="58.9709" y="144.1697">startStudying()</text><text fill="#000000" font-family="sans-serif" font-size="14" lengthAdjust="spacing" textLength="95.2556" x="58.9709" y="163.2376">stopStudying()</text></g><!--class StudyEnvironment--><g class="entity" data-qualified-name="StudyEnvironment" data-source-line="9" id="ent0003"><rect fill="#F1F1F1" height="162.4075" rx="2.5" ry="2.5" style="stroke:#181818;stroke-width:0.5;" width="153.8975" x="37.7009" y="250.3379"/><ellipse cx="52.7009" cy="266.3379" fill="#ADD1B2" rx="11" ry="11" style="stroke:#181818;stroke-width:1;"/><path d="M52.1696,273.2598 Q50.4196,273.2598 49.279,272.5254 Q48.154,271.7754 47.5915,270.4317 Q47.0446,269.0723 47.0446,267.2754 Q47.0446,265.2442 47.7009,263.791 Q48.3571,262.3379 49.6384,261.5567 Q50.9196,260.7754 52.7946,260.7754 Q53.6852,260.7754 54.3571,260.9629 Q55.029,261.1348 55.7165,261.4785 L54.904,263.4942 Q54.279,263.1817 53.7321,263.0567 Q53.2009,262.9317 52.7165,262.9317 Q51.5446,262.9317 50.8415,263.4629 Q50.1384,263.9942 49.8415,264.9473 Q49.5446,265.9004 49.5446,267.166 Q49.5446,269.1817 50.2634,270.1504 Q50.9821,271.1035 52.5759,271.1035 Q53.1696,271.1035 53.7946,270.9473 Q54.4196,270.791 55.2477,270.416 L55.2477,272.6348 Q54.5134,272.9473 53.7165,273.1035 Q52.9352,273.2598 52.1696,273.2598 Z " fill="#000000"/><text fill="#000000" font-family="sans-serif" font-size="14" lengthAdjust="spacing" textLength="121.8975" x="66.7009" y="271.7699">StudyEnvironment</text><line style="stroke:#181818;stroke-width:0.5;" x1="38.7009" x2="190.5984" y1="282.3379" y2="282.3379"/><text fill="#000000" font-family="sans-serif" font-size="14" lengthAdjust="spacing" textLength="123.9415" x="43.7009" y="301.3039">temperature : long</text><text fill="#000000" font-family="sans-serif" font-size="14" lengthAdjust="spacing" textLength="98.7976" x="43.7009" y="320.3718">humidity : long</text><text fill="#000000" font-family="sans-serif" font-size="14" lengthAdjust="spacing" textLength="97.4256" x="43.7009" y="339.4397">co2Level : long</text><text fill="#000000" font-family="sans-serif" font-size="14" lengthAdjust="spacing" textLength="103.7676" x="43.7009" y="358.5076">lightLevel : long</text><text fill="#000000" font-family="sans-serif" font-size="14" lengthAdjust="spacing" textLength="109.5636" x="43.7009" y="377.5755">noiseLevel : long</text><text fill="#000000" font-family="sans-serif" font-size="14" lengthAdjust="spacing" textLength="103.2496" x="43.7009" y="396.6434">dustLevel : long</text><line style="stroke:#181818;stroke-width:0.5;" x1="38.7009" x2="190.5984" y1="404.7454" y2="404.7454"/></g><!--link Student to StudyEnvironment--><g class="link" data-entity-1="ent0002" data-entity-2="ent0003" data-link-type="association" data-source-line="17" id="lnk4"><path codeLine="17" d="M114.6509,171.5779 C114.6509,195.8979 114.6509,224.1979 114.6509,250.1179" fill="none" id="Student-StudyEnvironment" style="stroke:#181818;stroke-width:1;"/><text fill="#000000" font-family="sans-serif" font-size="13" lengthAdjust="spacing" textLength="55.5621" x="115.6509" y="216.2349">monitors</text><text fill="#000000" font-family="sans-serif" font-size="13" lengthAdjust="spacing" textLength="7.436" x="107.2921" y="193.2654">1</text><text fill="#000000" font-family="sans-serif" font-size="13" lengthAdjust="spacing" textLength="7.163" x="107.3252" y="238.4777">*</text></g><?plantuml-src PS_FYi9030RmUvyYzBAwu46FFIlimQBW-W2Z4zf09Yap6Q6x-EvMyR_NNpw-95-mPYUshPVGe61qXXvsFTIh-MzXP8mmr-18e5QFNC76ikz_a3kCnPvTIXT1CVWl0D9vIj901JjL7iHbQpNItr1xjsGkskOQ7OqlejqJ79-g-uKSAAg4smx3q9qFpH67IbPf1cnp84_MFsIlioKUa1_2rBJsPgAKyCryJg-nOt7xiPoMC9b0-Lr-tbP1K27Jc4u0?></g></svg>