<?plantuml 1.2026.1?><svg xmlns="http://www.w3.org/2000/svg" xmlns:xlink="http://www.w3.org/1999/xlink" contentStyleType="text/css" data-diagram-type="ACTIVITY" height="510px" preserveAspectRatio="none" style="width:2404px;height:510px;background:#FFFFFF;" version="1.1" viewBox="0 0 2404 510" width="2404px" zoomAndPan="magnify"><title>Activity: StudyHelper</title><defs/><g><g class="title" data-source-line="3"><text fill="#000000" font-family="sans-serif" font-size="14" font-weight="bold" lengthAdjust="spacing" textLength="147.4334" x="1126.9234" y="34.9659">Activity: StudyHelper</text></g><ellipse cx="1207.1401" cy="60.0679" fill="#222222" rx="10" ry="10" style="stroke:#222222;stroke-width:1;"/><line style="stroke:#181818;stroke-width:1.5;" x1="136.2948" x2="2311.1825" y1="90.0679" y2="90.0679"/><rect fill="none" height="274.4625" style="stroke:#000000;stroke-width:1.5;" width="250.5895" x="11" y="151.1608"/><path d="M131.7675,151.1608 L131.7675,163.2288 L121.7675,173.2288 L11,173.2288" fill="none" style="stroke:#000000;stroke-width:1.5;"/><text fill="#000000" font-family="sans-serif" font-size="14" lengthAdjust="spacing" textLength="110.7675" x="14" y="167.1268">CheckNoiseLevel</text><rect fill="#F1F1F1" height="36.3441" rx="12.5" ry="12.5" style="stroke:#181818;stroke-width:0.5;" width="223.5455" x="24.522" y="197.0819"/><text fill="#000000" font-family="sans-serif" font-size="12" lengthAdjust="spacing" textLength="203.5455" x="34.522" y="219.91">Student requests current noise level</text><rect fill="#F1F1F1" height="36.3441" rx="12.5" ry="12.5" style="stroke:#181818;stroke-width:0.5;" width="121.9167" x="75.3364" y="268.426"/><text fill="#000000" font-family="sans-serif" font-size="12" lengthAdjust="spacing" textLength="101.9167" x="85.3364" y="291.2541">requestNoiseData</text><rect fill="#F1F1F1" height="36.3441" rx="12.5" ry="12.5" style="stroke:#181818;stroke-width:0.5;" width="230.5895" x="21" y="334.2792"/><text fill="#000000" font-family="sans-serif" font-size="12" lengthAdjust="spacing" textLength="210.5895" x="31" y="357.1073">System returns noise level in decibels</text><rect fill="none" height="274.4625" style="stroke:#000000;stroke-width:1.5;" width="238.9854" x="271.5895" y="151.1608"/><path d="M388.2971,151.1608 L388.2971,163.2288 L378.2971,173.2288 L271.5895,173.2288" fill="none" style="stroke:#000000;stroke-width:1.5;"/><text fill="#000000" font-family="sans-serif" font-size="14" lengthAdjust="spacing" textLength="106.7076" x="274.5895" y="167.1268">CheckLightLevel</text><rect fill="#F1F1F1" height="36.3441" rx="12.5" ry="12.5" style="stroke:#181818;stroke-width:0.5;" width="218.5774" x="281.7935" y="197.0819"/><text fill="#000000" font-family="sans-serif" font-size="12" lengthAdjust="spacing" textLength="198.5774" x="291.7935" y="219.91">Student requests current light level</text><rect fill="#F1F1F1" height="36.3441" rx="12.5" ry="12.5" style="stroke:#181818;stroke-width:0.5;" width="118.4367" x="331.8639" y="268.426"/><text fill="#000000" font-family="sans-serif" font-size="12" lengthAdjust="spacing" textLength="98.4367" x="341.8639" y="291.2541">requestLightData</text><rect fill="#F1F1F1" height="36.3441" rx="12.5" ry="12.5" style="stroke:#181818;stroke-width:0.5;" width="218.9854" x="281.5895" y="334.2792"/><text fill="#000000" font-family="sans-serif" font-size="12" lengthAdjust="spacing" textLength="198.9854" x="291.5895" y="357.1073">System returns light intensity in lux</text><rect fill="none" height="274.4625" style="stroke:#000000;stroke-width:1.5;" width="276.7857" x="520.575" y="151.1608"/><path d="M631.8085,151.1608 L631.8085,163.2288 L621.8085,173.2288 L520.575,173.2288" fill="none" style="stroke:#000000;stroke-width:1.5;"/><text fill="#000000" font-family="sans-serif" font-size="14" lengthAdjust="spacing" textLength="101.2336" x="523.575" y="167.1268">CheckCO2Level</text><rect fill="#F1F1F1" height="36.3441" rx="12.5" ry="12.5" style="stroke:#181818;stroke-width:0.5;" width="217.0774" x="550.4291" y="197.0819"/><text fill="#000000" font-family="sans-serif" font-size="12" lengthAdjust="spacing" textLength="197.0774" x="560.4291" y="219.91">Student requests current CO2 level</text><rect fill="#F1F1F1" height="36.3441" rx="12.5" ry="12.5" style="stroke:#181818;stroke-width:0.5;" width="113.7447" x="602.0955" y="268.426"/><text fill="#000000" font-family="sans-serif" font-size="12" lengthAdjust="spacing" textLength="93.7447" x="612.0955" y="291.2541">requestCO2Data</text><rect fill="#F1F1F1" height="36.3441" rx="12.5" ry="12.5" style="stroke:#181818;stroke-width:0.5;" width="256.7857" x="530.575" y="334.2792"/><text fill="#000000" font-family="sans-serif" font-size="12" lengthAdjust="spacing" textLength="236.7857" x="540.575" y="357.1073">System returns CO2 concentration in ppm</text><rect fill="none" height="274.4625" style="stroke:#000000;stroke-width:1.5;" width="256.4456" x="807.3606" y="151.1608"/><path d="M943.2481,151.1608 L943.2481,163.2288 L933.2481,173.2288 L807.3606,173.2288" fill="none" style="stroke:#000000;stroke-width:1.5;"/><text fill="#000000" font-family="sans-serif" font-size="14" lengthAdjust="spacing" textLength="125.8875" x="810.3606" y="167.1268">CheckTemperature</text><rect fill="#F1F1F1" height="36.3441" rx="12.5" ry="12.5" style="stroke:#181818;stroke-width:0.5;" width="235.9415" x="817.6127" y="197.0819"/><text fill="#000000" font-family="sans-serif" font-size="12" lengthAdjust="spacing" textLength="215.9415" x="827.6127" y="219.91">Student requests current temperature</text><rect fill="#F1F1F1" height="36.3441" rx="12.5" ry="12.5" style="stroke:#181818;stroke-width:0.5;" width="163.893" x="853.6369" y="268.426"/><text fill="#000000" font-family="sans-serif" font-size="12" lengthAdjust="spacing" textLength="143.893" x="863.6369" y="291.2541">requestTemperatureData</text><rect fill="#F1F1F1" height="36.3441" rx="12.5" ry="12.5" style="stroke:#181818;stroke-width:0.5;" width="236.4456" x="817.3606" y="334.2792"/><text fill="#000000" font-family="sans-serif" font-size="12" lengthAdjust="spacing" textLength="216.4456" x="827.3606" y="357.1073">System returns temperature in Celsius</text><rect fill="none" height="274.4625" style="stroke:#000000;stroke-width:1.5;" width="291.0298" x="1073.8062" y="151.1608"/><path d="M1183.5418,151.1608 L1183.5418,163.2288 L1173.5418,173.2288 L1073.8062,173.2288" fill="none" style="stroke:#000000;stroke-width:1.5;"/><text fill="#000000" font-family="sans-serif" font-size="14" lengthAdjust="spacing" textLength="99.7356" x="1076.8062" y="167.1268">CheckHumidity</text><rect fill="#F1F1F1" height="36.3441" rx="12.5" ry="12.5" style="stroke:#181818;stroke-width:0.5;" width="243.3336" x="1097.6543" y="197.0819"/><text fill="#000000" font-family="sans-serif" font-size="12" lengthAdjust="spacing" textLength="223.3336" x="1107.6543" y="219.91">Student requests current humidity level</text><rect fill="#F1F1F1" height="36.3441" rx="12.5" ry="12.5" style="stroke:#181818;stroke-width:0.5;" width="141.4768" x="1148.5827" y="268.426"/><text fill="#000000" font-family="sans-serif" font-size="12" lengthAdjust="spacing" textLength="121.4768" x="1158.5827" y="291.2541">requestHumidityData</text><rect fill="#F1F1F1" height="36.3441" rx="12.5" ry="12.5" style="stroke:#181818;stroke-width:0.5;" width="271.0298" x="1083.8062" y="334.2792"/><text fill="#000000" font-family="sans-serif" font-size="12" lengthAdjust="spacing" textLength="251.0298" x="1093.8062" y="357.1073">System returns relative humidity percentage</text><rect fill="none" height="274.4625" style="stroke:#000000;stroke-width:1.5;" width="280.7937" x="1374.836" y="151.1608"/><path d="M1552.1074,151.1608 L1552.1074,163.2288 L1542.1074,173.2288 L1374.836,173.2288" fill="none" style="stroke:#000000;stroke-width:1.5;"/><text fill="#000000" font-family="sans-serif" font-size="14" lengthAdjust="spacing" textLength="167.2714" x="1377.836" y="167.1268">SetDataCollectionInterval</text><rect fill="#F1F1F1" height="36.3441" rx="12.5" ry="12.5" style="stroke:#181818;stroke-width:0.5;" width="260.7937" x="1384.836" y="197.0819"/><text fill="#000000" font-family="sans-serif" font-size="12" lengthAdjust="spacing" textLength="240.7937" x="1394.836" y="219.91">Student specifies a new interval in minutes</text><rect fill="#F1F1F1" height="36.3441" rx="12.5" ry="12.5" style="stroke:#181818;stroke-width:0.5;" width="117.6447" x="1456.4105" y="268.426"/><text fill="#000000" font-family="sans-serif" font-size="12" lengthAdjust="spacing" textLength="97.6447" x="1466.4105" y="291.2541">configureInterval</text><rect fill="#F1F1F1" height="36.3441" rx="12.5" ry="12.5" style="stroke:#181818;stroke-width:0.5;" width="232.9655" x="1398.7501" y="334.2792"/><text fill="#000000" font-family="sans-serif" font-size="12" lengthAdjust="spacing" textLength="212.9655" x="1408.7501" y="357.1073">System updates the polling frequency</text><rect fill="none" height="274.4625" style="stroke:#000000;stroke-width:1.5;" width="312.2939" x="1665.6297" y="151.1608"/><path d="M1779.7053,151.1608 L1779.7053,163.2288 L1769.7053,173.2288 L1665.6297,173.2288" fill="none" style="stroke:#000000;stroke-width:1.5;"/><text fill="#000000" font-family="sans-serif" font-size="14" lengthAdjust="spacing" textLength="104.0756" x="1668.6297" y="167.1268">CheckDustLevel</text><rect fill="#F1F1F1" height="36.3441" rx="12.5" ry="12.5" style="stroke:#181818;stroke-width:0.5;" width="218.1334" x="1712.71" y="197.0819"/><text fill="#000000" font-family="sans-serif" font-size="12" lengthAdjust="spacing" textLength="198.1334" x="1722.71" y="219.91">Student requests current dust level</text><rect fill="#F1F1F1" height="36.3441" rx="12.5" ry="12.5" style="stroke:#181818;stroke-width:0.5;" width="116.1807" x="1763.6863" y="268.426"/><text fill="#000000" font-family="sans-serif" font-size="12" lengthAdjust="spacing" textLength="96.1807" x="1773.6863" y="291.2541">requestDustData</text><rect fill="#F1F1F1" height="36.3441" rx="12.5" ry="12.5" style="stroke:#181818;stroke-width:0.5;" width="292.2939" x="1675.6297" y="334.2792"/><text fill="#000000" font-family="sans-serif" font-size="12" lengthAdjust="spacing" textLength="272.2939" x="1685.6297" y="357.1073">System returns particulate matter concentration</text><rect fill="none" height="335.9534" style="stroke:#000000;stroke-width:1.5;" width="226.1611" x="1987.9236" y="101.6699"/><path d="M2209.0848,101.6699 L2209.0848,113.7378 L2199.0848,123.7378 L1987.9236,123.7378" fill="none" style="stroke:#000000;stroke-width:1.5;"/><text fill="#000000" font-family="sans-serif" font-size="14" lengthAdjust="spacing" textLength="211.1611" x="1990.9236" y="117.6358">ReceiveEnvironmentNotification</text><rect fill="#F1F1F1" height="36.3441" rx="12.5" ry="12.5" style="stroke:#181818;stroke-width:0.5;" width="138.1888" x="2023.9098" y="140.7378"/><text fill="#000000" font-family="sans-serif" font-size="12" lengthAdjust="spacing" textLength="118.1888" x="2033.9098" y="163.5659">monitorEnvironment</text><rect fill="#F1F1F1" height="36.3441" rx="12.5" ry="12.5" style="stroke:#181818;stroke-width:0.5;" width="23.12" x="2081.4442" y="268.426"/><text fill="#000000" font-family="sans-serif" font-size="12" lengthAdjust="spacing" textLength="3.12" x="2091.4442" y="291.2541">&#160;</text><polygon fill="#F1F1F1" points="2031.6631,218.9351,2154.3453,218.9351,2166.3453,230.9351,2154.3453,242.9351,2031.6631,242.9351,2019.6631,230.9351,2031.6631,218.9351" style="stroke:#181818;stroke-width:0.5;"/><text fill="#000000" font-family="sans-serif" font-size="11" lengthAdjust="spacing" textLength="17.0829" x="2097.0042" y="254.694">yes</text><text fill="#000000" font-family="sans-serif" font-size="11" lengthAdjust="spacing" textLength="122.6822" x="2031.6631" y="235.2031">Parameters not optimal</text><text fill="#000000" font-family="sans-serif" font-size="11" lengthAdjust="spacing" textLength="13.4529" x="2166.3453" y="227.7121">no</text><polygon fill="#F1F1F1" points="2093.0042,324.7702,2105.0042,336.7702,2093.0042,348.7702,2081.0042,336.7702,2093.0042,324.7702" style="stroke:#181818;stroke-width:0.5;"/><rect fill="#F1F1F1" height="36.3441" rx="12.5" ry="12.5" style="stroke:#181818;stroke-width:0.5;" width="112.9407" x="2036.5339" y="383.7702"/><text fill="#000000" font-family="sans-serif" font-size="12" lengthAdjust="spacing" textLength="92.9407" x="2046.5339" y="406.5982">sendNotification</text><rect fill="none" height="124.9211" style="stroke:#000000;stroke-width:1.5;" width="169.1954" x="2224.0848" y="211.8581"/><path d="M2388.2802,211.8581 L2388.2802,223.926 L2378.2802,233.926 L2224.0848,233.926" fill="none" style="stroke:#000000;stroke-width:1.5;"/><text fill="#000000" font-family="sans-serif" font-size="14" lengthAdjust="spacing" textLength="154.1954" x="2227.0848" y="227.8241">RateStudySessionFocus</text><rect fill="#F1F1F1" height="36.3441" rx="12.5" ry="12.5" style="stroke:#181818;stroke-width:0.5;" width="128.0247" x="2247.1701" y="250.926"/><text fill="#000000" font-family="sans-serif" font-size="12" lengthAdjust="spacing" textLength="108.0247" x="2257.1701" y="273.7541">submitFocusRating</text><line style="stroke:#181818;stroke-width:1.5;" x1="136.2948" x2="2311.1825" y1="457.6233" y2="457.6233"/><ellipse cx="1207.1401" cy="488.6233" fill="none" rx="11" ry="11" style="stroke:#222222;stroke-width:1;"/><ellipse cx="1207.1401" cy="488.6233" fill="#222222" rx="6" ry="6" style="stroke:#222222;stroke-width:1;"/><line style="stroke:#181818;stroke-width:1;" x1="136.2948" x2="136.2948" y1="91.5679" y2="197.0819"/><polygon fill="#181818" points="132.2948,187.0819,136.2948,197.0819,140.2948,187.0819,136.2948,191.0819" style="stroke:#181818;stroke-width:1;"/><line style="stroke:#181818;stroke-width:1;" x1="136.2948" x2="136.2948" y1="233.426" y2="268.426"/><polygon fill="#181818" points="132.2948,258.426,136.2948,268.426,140.2948,258.426,136.2948,262.426" style="stroke:#181818;stroke-width:1;"/><line style="stroke:#181818;stroke-width:1;" x1="136.2948" x2="136.2948" y1="304.7702" y2="334.2792"/><polygon fill="#181818" points="132.2948,324.2792,136.2948,334.2792,140.2948,324.2792,136.2948,328.2792" style="stroke:#181818;stroke-width:1;"/><line style="stroke:#181818;stroke-width:1;" x1="136.2948" x2="136.2948" y1="370.6233" y2="457.6233"/><polygon fill="#181818" points="132.2948,447.6233,136.2948,457.6233,140.2948,447.6233,136.2948,451.6233" style="stroke:#181818;stroke-width:1;"/><line style="stroke:#181818;stroke-width:1;" x1="391.0822" x2="391.0822" y1="91.5679" y2="197.0819"/><polygon fill="#181818" points="387.0822,187.0819,391.0822,197.0819,395.0822,187.0819,391.0822,191.0819" style="stroke:#181818;stroke-width:1;"/><line style="stroke:#181818;stroke-width:1;" x1="391.0822" x2="391.0822" y1="233.426" y2="268.426"/><polygon fill="#181818" points="387.0822,258.426,391.0822,268.426,395.0822,258.426,391.0822,262.426" style="stroke:#181818;stroke-width:1;"/><line style="stroke:#181818;stroke-width:1;" x1="391.0822" x2="391.0822" y1="304.7702" y2="334.2792"/><polygon fill="#181818" points="387.0822,324.2792,391.0822,334.2792,395.0822,324.2792,391.0822,328.2792" style="stroke:#181818;stroke-width:1;"/><line style="stroke:#181818;stroke-width:1;" x1="391.0822" x2="391.0822" y1="370.6233" y2="457.6233"/><polygon fill="#181818" points="387.0822,447.6233,391.0822,457.6233,395.0822,447.6233,391.0822,451.6233" style="stroke:#181818;stroke-width:1;"/><line style="stroke:#181818;stroke-width:1;" x1="658.9678" x2="658.9678" y1="91.5679" y2="197.0819"/><polygon fill="#181818" points="654.9678,187.0819,658.9678,197.0819,662.9678,187.0819,658.9678,191.0819" style="stroke:#181818;stroke-width:1;"/><line style="stroke:#181818;stroke-width:1;" x1="658.9678" x2="658.9678" y1="233.426" y2="268.426"/><polygon fill="#181818" points="654.9678,258.426,658.9678,268.426,662.9678,258.426,658.9678,262.426" style="stroke:#181818;stroke-width:1;"/><line style="stroke:#181818;stroke-width:1;" x1="658.9678" x2="658.9678" y1="304.7702" y2="334.2792"/><polygon fill="#181818" points="654.9678,324.2792,658.9678,334.2792,662.9678,324.2792,658.9678,328.2792" style="stroke:#181818;stroke-width:1;"/><line style="stroke:#181818;stroke-width:1;" x1="658.9678" x2="658.9678" y1="370.6233" y2="457.6233"/><polygon fill="#181818" points="654.9678,447.6233,658.9678,457.6233,662.9678,447.6233,658.9678,451.6233" style="stroke:#181818;stroke-width:1;"/><line style="stroke:#181818;stroke-width:1;" x1="935.5834" x2="935.5834" y1="91.5679" y2="197.0819"/><polygon fill="#181818" points="931.5834,187.0819,935.5834,197.0819,939.5834,187.0819,935.5834,191.0819" style="stroke:#181818;stroke-width:1;"/><line style="stroke:#181818;stroke-width:1;" x1="935.5834" x2="935.5834" y1="233.426" y2="268.426"/><polygon fill="#181818" points="931.5834,258.426,935.5834,268.426,939.5834,258.426,935.5834,262.426" style="stroke:#181818;stroke-width:1;"/><line style="stroke:#181818;stroke-width:1;" x1="935.5834" x2="935.5834" y1="304.7702" y2="334.2792"/><polygon fill="#181818" points="931.5834,324.2792,935.5834,334.2792,939.5834,324.2792,935.5834,328.2792" style="stroke:#181818;stroke-width:1;"/><line style="stroke:#181818;stroke-width:1;" x1="935.5834" x2="935.5834" y1="370.6233" y2="457.6233"/><polygon fill="#181818" points="931.5834,447.6233,935.5834,457.6233,939.5834,447.6233,935.5834,451.6233" style="stroke:#181818;stroke-width:1;"/><line style="stroke:#181818;stroke-width:1;" x1="1219.3211" x2="1219.3211" y1="91.5679" y2="197.0819"/><polygon fill="#181818" points="1215.3211,187.0819,1219.3211,197.0819,1223.3211,187.0819,1219.3211,191.0819" style="stroke:#181818;stroke-width:1;"/><line style="stroke:#181818;stroke-width:1;" x1="1219.3211" x2="1219.3211" y1="233.426" y2="268.426"/><polygon fill="#181818" points="1215.3211,258.426,1219.3211,268.426,1223.3211,258.426,1219.3211,262.426" style="stroke:#181818;stroke-width:1;"/><line style="stroke:#181818;stroke-width:1;" x1="1219.3211" x2="1219.3211" y1="304.7702" y2="334.2792"/><polygon fill="#181818" points="1215.3211,324.2792,1219.3211,334.2792,1223.3211,324.2792,1219.3211,328.2792" style="stroke:#181818;stroke-width:1;"/><line style="stroke:#181818;stroke-width:1;" x1="1219.3211" x2="1219.3211" y1="370.6233" y2="457.6233"/><polygon fill="#181818" points="1215.3211,447.6233,1219.3211,457.6233,1223.3211,447.6233,1219.3211,451.6233" style="stroke:#181818;stroke-width:1;"/><line style="stroke:#181818;stroke-width:1;" x1="1515.2329" x2="1515.2329" y1="91.5679" y2="197.0819"/><polygon fill="#181818" points="1511.2329,187.0819,1515.2329,197.0819,1519.2329,187.0819,1515.2329,191.0819" style="stroke:#181818;stroke-width:1;"/><line style="stroke:#181818;stroke-width:1;" x1="1515.2329" x2="1515.2329" y1="233.426" y2="268.426"/><polygon fill="#181818" points="1511.2329,258.426,1515.2329,268.426,1519.2329,258.426,1515.2329,262.426" style="stroke:#181818;stroke-width:1;"/><line style="stroke:#181818;stroke-width:1;" x1="1515.2329" x2="1515.2329" y1="304.7702" y2="334.2792"/><polygon fill="#181818" points="1511.2329,324.2792,1515.2329,334.2792,1519.2329,324.2792,1515.2329,328.2792" style="stroke:#181818;stroke-width:1;"/><line style="stroke:#181818;stroke-width:1;" x1="1515.2329" x2="1515.2329" y1="370.6233" y2="457.6233"/><polygon fill="#181818" points="1511.2329,447.6233,1515.2329,457.6233,1519.2329,447.6233,1515.2329,451.6233" style="stroke:#181818;stroke-width:1;"/><line style="stroke:#181818;stroke-width:1;" x1="1821.7767" x2="1821.7767" y1="91.5679" y2="197.0819"/><polygon fill="#181818" points="1817.7767,187.0819,1821.7767,197.0819,1825.7767,187.0819,1821.7767,191.0819" style="stroke:#181818;stroke-width:1;"/><line style="stroke:#181818;stroke-width:1;" x1="1821.7767" x2="1821.7767" y1="233.426" y2="268.426"/><polygon fill="#181818" points="1817.7767,258.426,1821.7767,268.426,1825.7767,258.426,1821.7767,262.426" style="stroke:#181818;stroke-width:1;"/><line style="stroke:#181818;stroke-width:1;" x1="1821.7767" x2="1821.7767" y1="304.7702" y2="334.2792"/><polygon fill="#181818" points="1817.7767,324.2792,1821.7767,334.2792,1825.7767,324.2792,1821.7767,328.2792" style="stroke:#181818;stroke-width:1;"/><line style="stroke:#181818;stroke-width:1;" x1="1821.7767" x2="1821.7767" y1="370.6233" y2="457.6233"/><polygon fill="#181818" points="1817.7767,447.6233,1821.7767,457.6233,1825.7767,447.6233,1821.7767,451.6233" style="stroke:#181818;stroke-width:1;"/><line style="stroke:#181818;stroke-width:1;" x1="2093.0042" x2="2093.0042" y1="177.0819" y2="218.9351"/><polygon fill="#181818" points="2089.0042,208.9351,2093.0042,218.9351,2097.0042,208.9351,2093.0042,212.9351" style="stroke:#181818;stroke-width:1;"/><line style="stroke:#181818;stroke-width:1;" x1="2093.0042" x2="2093.0042" y1="242.9351" y2="268.426"/><polygon fill="#181818" points="2089.0042,258.426,2093.0042,268.426,2097.0042,258.426,2093.0042,262.426" style="stroke:#181818;stroke-width:1;"/><line style="stroke:#181818;stroke-width:1;" x1="2166.3453" x2="2178.3453" y1="230.9351" y2="230.9351"/><polygon fill="#181818" points="2174.3453,276.5981,2178.3453,286.5981,2182.3453,276.5981,2178.3453,280.5981" style="stroke:#181818;stroke-width:1;"/><line style="stroke:#181818;stroke-width:1;" x1="2178.3453" x2="2178.3453" y1="230.9351" y2="336.7702"/><line style="stroke:#181818;stroke-width:1;" x1="2178.3453" x2="2105.0042" y1="336.7702" y2="336.7702"/><polygon fill="#181818" points="2115.0042,332.7702,2105.0042,336.7702,2115.0042,340.7702,2111.0042,336.7702" style="stroke:#181818;stroke-width:1;"/><line style="stroke:#181818;stroke-width:1;" x1="2093.0042" x2="2093.0042" y1="304.7702" y2="324.7702"/><polygon fill="#181818" points="2089.0042,314.7702,2093.0042,324.7702,2097.0042,314.7702,2093.0042,318.7702" style="stroke:#181818;stroke-width:1;"/><line style="stroke:#181818;stroke-width:1;" x1="2093.0042" x2="2093.0042" y1="348.7702" y2="383.7702"/><polygon fill="#181818" points="2089.0042,373.7702,2093.0042,383.7702,2097.0042,373.7702,2093.0042,377.7702" style="stroke:#181818;stroke-width:1;"/><line style="stroke:#181818;stroke-width:1;" x1="2093.0042" x2="2093.0042" y1="420.1143" y2="457.6233"/><polygon fill="#181818" points="2089.0042,447.6233,2093.0042,457.6233,2097.0042,447.6233,2093.0042,451.6233" style="stroke:#181818;stroke-width:1;"/><line style="stroke:#181818;stroke-width:1;" x1="2311.1825" x2="2311.1825" y1="287.2702" y2="457.6233"/><polygon fill="#181818" points="2307.1825,447.6233,2311.1825,457.6233,2315.1825,447.6233,2311.1825,451.6233" style="stroke:#181818;stroke-width:1;"/><line style="stroke:#181818;stroke-width:1;" x1="2093.0042" x2="2093.0042" y1="91.5679" y2="140.7378"/><polygon fill="#181818" points="2089.0042,130.7378,2093.0042,140.7378,2097.0042,130.7378,2093.0042,134.7378" style="stroke:#181818;stroke-width:1;"/><line style="stroke:#181818;stroke-width:1;" x1="2311.1825" x2="2311.1825" y1="91.5679" y2="250.926"/><polygon fill="#181818" points="2307.1825,240.926,2311.1825,250.926,2315.1825,240.926,2311.1825,244.926" style="stroke:#181818;stroke-width:1;"/><line style="stroke:#181818;stroke-width:1;" x1="1207.1401" x2="1207.1401" y1="70.0679" y2="90.0679"/><polygon fill="#181818" points="1203.1401,80.0679,1207.1401,90.0679,1211.1401,80.0679,1207.1401,84.0679" style="stroke:#181818;stroke-width:1;"/><line style="stroke:#181818;stroke-width:1;" x1="1207.1401" x2="1207.1401" y1="459.1233" y2="477.6233"/><polygon fill="#181818" points="1203.1401,467.6233,1207.1401,477.6233,1211.1401,467.6233,1207.1401,471.6233" style="stroke:#181818;stroke-width:1;"/><?plantuml-src bPN1Rjim38RlVWgYbwNN7UDJaMpeWAGjbkvSA3BZ49LbJwAo6SFUVPITD4vhEruEHY3-elZffwHFy6IKvH_h5UHeqId63BOrh1-Npub_9LiffmfOe_Sgnpj3kGMDbj4bJ6mGxZJJWRYUmuP3Lj-ZgIJcMJbEV6M84yaWKYejt2psg5yVIlAumWEQ6_YJWFoCsgA1Ty6NDaUCpsDgMHGS_WpesOCEpiK16-LWeZvjfKT9asUfM1s7DxLdB2G11sTzTnwGXGmrIGa-7Ia7RPRyRP50vOhi1x0LvNiU0Zi79u6PAEy3Q_8CWxNpI0ooNbo9S2RyJaUgkSwrUFmyH7KAJM8ISH-H30_pn3cwjB7bf3TZJK9KLKKwMCbrdcSigjZfmM4FKYSwYOhF-akkJg9XlixiIBQG9gJmiG-xHLq7l0y5PU9-3zqfD0bjVnJtkNPAD8pcq8XZ1pod4OHef5mawM1TetGRR5f_KHg3EWvzYpVHGRrhpK5P7xMlvF3l23qeiFYhEJjH6-qeo0R6enrpwSCTvMB1ATqbTwWokJt5qZr29KkJpM7Nx9RLTJgflElMBeCVl6BUOfFCpKJTPspCCcngKuyEuYn2eLZglZoUwN1Het3VKQFqoXTx85VQGl8zb2osw2Rh2NPUb9QuT1rPTy7n92-DadOmUufl6ahjyI5WA2kcGfdRw9o5MOt-jf7AUcrsEPG8Crksmy91kxOSB_-xI_n7CUEx8TlRFASRUNTbv6kfWt_R11-s1N4p9a9fiujb-wOULvDl-oHxBgj_?></g></svg>