<?plantuml 1.2026.2?><svg xmlns="http://www.w3.org/2000/svg" xmlns:xlink="http://www.w3.org/1999/xlink" contentStyleType="text/css" data-diagram-type="ACTIVITY" height="638.2292px" preserveAspectRatio="none" style="width:1919px;height:638px;background:#FFFFFF;" version="1.1" viewBox="0 0 1919 638" width="1919.2708px" zoomAndPan="magnify"><title>Activity Diagram: StudyHelper</title><defs/><g><g class="title" data-source-line="3"><text fill="#000000" font-family="'Helvetica, Arial, sans-serif'" font-size="25.2083" font-weight="bold" lengthAdjust="spacing" textLength="379.9917" x="768.2516" y="47.5728">Activity Diagram: StudyHelper</text></g><ellipse cx="970.3365" cy="82.4589" fill="#FFFFFF" rx="11.4583" ry="11.4583" style="stroke:#000000;stroke-width:1.1458;"/><line style="stroke:#000000;stroke-width:1.7188;" x1="146.5791" x2="1761.3099" y1="116.8339" y2="116.8339"/><rect fill="#FFFFFF" height="260.8296" style="stroke:#000000;stroke-width:1.1458;" width="279.4082" x="6.875" y="238.5283"/><path d="M80.1144,238.5283 L80.1144,257.6706 L68.6561,269.1289 L6.875,269.1289" fill="none" style="stroke:#000000;stroke-width:1.1458;"/><text fill="#000000" font-family="'Helvetica, Arial, sans-serif'" font-size="14.8958" lengthAdjust="spacing" textLength="54.9061" x="13.75" y="259.0353">Student</text><rect fill="#FFFFFF" height="50.0798" style="stroke:#000000;stroke-width:1.1458;" width="256.4916" x="18.3333" y="313.2607"/><text fill="#000000" font-family="'Helvetica, Arial, sans-serif'" font-size="14.8958" lengthAdjust="spacing" textLength="226.6999" x="33.2292" y="344.0802">requestStudyConditionOverview</text><rect fill="#FFFFFF" height="50.0798" style="stroke:#000000;stroke-width:1.1458;" width="236.5609" x="28.2987" y="403.4447"/><text fill="#000000" font-family="'Helvetica, Arial, sans-serif'" font-size="14.8958" lengthAdjust="spacing" textLength="206.7693" x="43.1945" y="434.2642">sendStudyConditionOverview</text><rect fill="#FFFFFF" height="260.8296" style="stroke:#000000;stroke-width:1.1458;" width="374.7863" x="297.7416" y="238.5283"/><path d="M370.981,238.5283 L370.981,257.6706 L359.5227,269.1289 L297.7416,269.1289" fill="none" style="stroke:#000000;stroke-width:1.1458;"/><text fill="#000000" font-family="'Helvetica, Arial, sans-serif'" font-size="14.8958" lengthAdjust="spacing" textLength="54.9061" x="304.6166" y="259.0353">Student</text><rect fill="#FFFFFF" height="50.0798" style="stroke:#000000;stroke-width:1.1458;" width="267.7975" x="351.236" y="313.2607"/><text fill="#000000" font-family="'Helvetica, Arial, sans-serif'" font-size="14.8958" lengthAdjust="spacing" textLength="238.0059" x="366.1318" y="344.0802">configureStudySessionMonitoring</text><rect fill="#FFFFFF" height="50.0798" style="stroke:#000000;stroke-width:1.1458;" width="351.8697" x="309.1999" y="403.4447"/><text fill="#000000" font-family="'Helvetica, Arial, sans-serif'" font-size="14.8958" lengthAdjust="spacing" textLength="322.078" x="324.0957" y="434.2642">confirmStudySessionMonitoringConfiguration</text><rect fill="#FFFFFF" height="432.0308" style="stroke:#000000;stroke-width:1.1458;" width="337.2557" x="683.9862" y="128.2922"/><path d="M757.2257,128.2922 L757.2257,147.4345 L745.7673,158.8928 L683.9862,158.8928" fill="none" style="stroke:#000000;stroke-width:1.1458;"/><text fill="#000000" font-family="'Helvetica, Arial, sans-serif'" font-size="14.8958" lengthAdjust="spacing" textLength="54.9061" x="690.8612" y="148.7992">Student</text><rect fill="#FFFFFF" height="50.0798" style="stroke:#000000;stroke-width:1.1458;" width="295.8166" x="695.4446" y="178.372"/><text fill="#000000" font-family="'Helvetica, Arial, sans-serif'" font-size="14.8958" lengthAdjust="spacing" textLength="266.025" x="710.3404" y="209.1915">monitorActiveStudySessionConditions</text><rect fill="#FFFFFF" height="50.0798" style="stroke:#000000;stroke-width:1.1458;" width="57.8852" x="814.4102" y="354.9152"/><text fill="#000000" font-family="'Helvetica, Arial, sans-serif'" font-size="14.8958" lengthAdjust="spacing" textLength="28.0936" x="829.3061" y="385.7347">skip</text><polygon fill="#FFFFFF" points="714.6189,293.2086,972.0868,293.2086,985.8368,306.9586,972.0868,320.7086,714.6189,320.7086,700.8689,306.9586,714.6189,293.2086" style="stroke:#000000;stroke-width:1.1458;"/><text fill="#000000" font-family="'Helvetica, Arial, sans-serif'" font-size="14.8958" lengthAdjust="spacing" textLength="23.1332" x="851.3737" y="340.0698">yes</text><text fill="#000000" font-family="'Helvetica, Arial, sans-serif'" font-size="14.8958" lengthAdjust="spacing" textLength="250.5929" x="718.0564" y="312.7382">Conditions not suitable for studying</text><text fill="#000000" font-family="'Helvetica, Arial, sans-serif'" font-size="14.8958" lengthAdjust="spacing" textLength="18.2176" x="989.2743" y="299.1566">no</text><polygon fill="#FFFFFF" points="843.3529,446.0766,857.1029,459.8266,843.3529,473.5766,829.6029,459.8266,843.3529,446.0766" style="stroke:#000000;stroke-width:1.1458;"/><rect fill="#FFFFFF" height="50.0798" style="stroke:#000000;stroke-width:1.1458;" width="165.0609" x="760.8224" y="496.4932"/><text fill="#000000" font-family="'Helvetica, Arial, sans-serif'" font-size="14.8958" lengthAdjust="spacing" textLength="135.2692" x="775.7183" y="527.3127">sendConditionAlert</text><rect fill="#FFFFFF" height="260.8296" style="stroke:#000000;stroke-width:1.1458;" width="314.9497" x="1032.7003" y="238.5283"/><path d="M1105.9397,238.5283 L1105.9397,257.6706 L1094.4814,269.1289 L1032.7003,269.1289" fill="none" style="stroke:#000000;stroke-width:1.1458;"/><text fill="#000000" font-family="'Helvetica, Arial, sans-serif'" font-size="14.8958" lengthAdjust="spacing" textLength="54.9061" x="1039.5753" y="259.0353">Student</text><rect fill="#FFFFFF" height="50.0798" style="stroke:#000000;stroke-width:1.1458;" width="292.0331" x="1044.1586" y="313.2607"/><text fill="#000000" font-family="'Helvetica, Arial, sans-serif'" font-size="14.8958" lengthAdjust="spacing" textLength="262.2414" x="1059.0544" y="344.0802">requestEnvironmentConditionHistory</text><rect fill="#FFFFFF" height="50.0798" style="stroke:#000000;stroke-width:1.1458;" width="272.1024" x="1054.1239" y="403.4447"/><text fill="#000000" font-family="'Helvetica, Arial, sans-serif'" font-size="14.8958" lengthAdjust="spacing" textLength="242.3108" x="1069.0197" y="434.2642">sendEnvironmentConditionHistory</text><rect fill="#FFFFFF" height="260.8296" style="stroke:#000000;stroke-width:1.1458;" width="238.9958" x="1359.1083" y="238.5283"/><path d="M1432.3478,238.5283 L1432.3478,257.6706 L1420.8894,269.1289 L1359.1083,269.1289" fill="none" style="stroke:#000000;stroke-width:1.1458;"/><text fill="#000000" font-family="'Helvetica, Arial, sans-serif'" font-size="14.8958" lengthAdjust="spacing" textLength="54.9061" x="1365.9833" y="259.0353">Student</text><rect fill="#FFFFFF" height="50.0798" style="stroke:#000000;stroke-width:1.1458;" width="216.0792" x="1370.5667" y="313.2607"/><text fill="#000000" font-family="'Helvetica, Arial, sans-serif'" font-size="14.8958" lengthAdjust="spacing" textLength="186.2875" x="1385.4625" y="344.0802">submitStudySessionRating</text><rect fill="#FFFFFF" height="50.0798" style="stroke:#000000;stroke-width:1.1458;" width="181.0143" x="1388.0991" y="403.4447"/><text fill="#000000" font-family="'Helvetica, Arial, sans-serif'" font-size="14.8958" lengthAdjust="spacing" textLength="151.2227" x="1402.9949" y="434.2642">confirmRatingReceipt</text><rect fill="#FFFFFF" height="260.8296" style="stroke:#000000;stroke-width:1.1458;" width="303.4948" x="1609.5625" y="238.5283"/><path d="M1683.8446,238.5283 L1683.8446,257.6706 L1672.3863,269.1289 L1609.5625,269.1289" fill="none" style="stroke:#000000;stroke-width:1.1458;"/><text fill="#000000" font-family="'Helvetica, Arial, sans-serif'" font-size="14.8958" lengthAdjust="spacing" textLength="55.9488" x="1616.4375" y="259.0353">Teacher</text><rect fill="#FFFFFF" height="50.0798" style="stroke:#000000;stroke-width:1.1458;" width="280.5781" x="1621.0208" y="313.2607"/><text fill="#000000" font-family="'Helvetica, Arial, sans-serif'" font-size="14.8958" lengthAdjust="spacing" textLength="250.7865" x="1635.9167" y="344.0802">requestTeachingConditionOverview</text><rect fill="#FFFFFF" height="50.0798" style="stroke:#000000;stroke-width:1.1458;" width="260.6475" x="1630.9862" y="403.4447"/><text fill="#000000" font-family="'Helvetica, Arial, sans-serif'" font-size="14.8958" lengthAdjust="spacing" textLength="230.8558" x="1645.882" y="434.2642">sendTeachingConditionOverview</text><line style="stroke:#000000;stroke-width:1.7188;" x1="146.5791" x2="1761.3099" y1="583.2397" y2="583.2397"/><ellipse cx="970.3365" cy="618.7605" fill="none" rx="12.6042" ry="12.6042" style="stroke:#000000;stroke-width:1.1458;"/><ellipse cx="970.3365" cy="618.7605" fill="#FFFFFF" rx="6.875" ry="6.875" style="stroke:#000000;stroke-width:1.1458;"/><line style="stroke:#000000;stroke-width:1.1458;" x1="146.5791" x2="146.5791" y1="118.5526" y2="313.2607"/><polygon fill="#000000" points="141.9958,301.8024,146.5791,313.2607,151.1624,301.8024,146.5791,306.3857" style="stroke:#000000;stroke-width:1.1458;"/><line style="stroke:#000000;stroke-width:1.1458;" x1="146.5791" x2="146.5791" y1="363.3405" y2="403.4447"/><polygon fill="#000000" points="141.9958,391.9863,146.5791,403.4447,151.1624,391.9863,146.5791,396.5697" style="stroke:#000000;stroke-width:1.1458;"/><line style="stroke:#000000;stroke-width:1.1458;" x1="146.5791" x2="146.5791" y1="453.5245" y2="583.2397"/><polygon fill="#000000" points="141.9958,571.7814,146.5791,583.2397,151.1624,571.7814,146.5791,576.3647" style="stroke:#000000;stroke-width:1.1458;"/><line style="stroke:#000000;stroke-width:1.1458;" x1="485.1347" x2="485.1347" y1="118.5526" y2="313.2607"/><polygon fill="#000000" points="480.5514,301.8024,485.1347,313.2607,489.7181,301.8024,485.1347,306.3857" style="stroke:#000000;stroke-width:1.1458;"/><line style="stroke:#000000;stroke-width:1.1458;" x1="485.1347" x2="485.1347" y1="363.3405" y2="403.4447"/><polygon fill="#000000" points="480.5514,391.9863,485.1347,403.4447,489.7181,391.9863,485.1347,396.5697" style="stroke:#000000;stroke-width:1.1458;"/><line style="stroke:#000000;stroke-width:1.1458;" x1="485.1347" x2="485.1347" y1="453.5245" y2="583.2397"/><polygon fill="#000000" points="480.5514,571.7814,485.1347,583.2397,489.7181,571.7814,485.1347,576.3647" style="stroke:#000000;stroke-width:1.1458;"/><line style="stroke:#000000;stroke-width:1.1458;" x1="843.3529" x2="843.3529" y1="228.4518" y2="293.2086"/><polygon fill="#000000" points="838.7695,281.7503,843.3529,293.2086,847.9362,281.7503,843.3529,286.3336" style="stroke:#000000;stroke-width:1.1458;"/><line style="stroke:#000000;stroke-width:1.1458;" x1="843.3529" x2="843.3529" y1="320.7086" y2="354.9152"/><polygon fill="#000000" points="838.7695,343.4569,843.3529,354.9152,847.9362,343.4569,843.3529,348.0402" style="stroke:#000000;stroke-width:1.1458;"/><line style="stroke:#000000;stroke-width:1.1458;" x1="985.8368" x2="999.5868" y1="306.9586" y2="306.9586"/><polygon fill="#000000" points="995.0035,371.9343,999.5868,383.3926,1004.1701,371.9343,999.5868,376.5176" style="stroke:#000000;stroke-width:1.1458;"/><line style="stroke:#000000;stroke-width:1.1458;" x1="999.5868" x2="999.5868" y1="306.9586" y2="459.8266"/><line style="stroke:#000000;stroke-width:1.1458;" x1="999.5868" x2="857.1029" y1="459.8266" y2="459.8266"/><polygon fill="#000000" points="868.5612,455.2432,857.1029,459.8266,868.5612,464.4099,863.9779,459.8266" style="stroke:#000000;stroke-width:1.1458;"/><line style="stroke:#000000;stroke-width:1.1458;" x1="843.3529" x2="843.3529" y1="404.995" y2="446.0766"/><polygon fill="#000000" points="838.7695,434.6182,843.3529,446.0766,847.9362,434.6182,843.3529,439.2016" style="stroke:#000000;stroke-width:1.1458;"/><line style="stroke:#000000;stroke-width:1.1458;" x1="843.3529" x2="843.3529" y1="473.5766" y2="496.4932"/><polygon fill="#000000" points="838.7695,485.0349,843.3529,496.4932,847.9362,485.0349,843.3529,489.6182" style="stroke:#000000;stroke-width:1.1458;"/><line style="stroke:#000000;stroke-width:1.1458;" x1="843.3529" x2="843.3529" y1="546.573" y2="583.2397"/><polygon fill="#000000" points="838.7695,571.7814,843.3529,583.2397,847.9362,571.7814,843.3529,576.3647" style="stroke:#000000;stroke-width:1.1458;"/><line style="stroke:#000000;stroke-width:1.1458;" x1="1190.1751" x2="1190.1751" y1="118.5526" y2="313.2607"/><polygon fill="#000000" points="1185.5918,301.8024,1190.1751,313.2607,1194.7585,301.8024,1190.1751,306.3857" style="stroke:#000000;stroke-width:1.1458;"/><line style="stroke:#000000;stroke-width:1.1458;" x1="1190.1751" x2="1190.1751" y1="363.3405" y2="403.4447"/><polygon fill="#000000" points="1185.5918,391.9863,1190.1751,403.4447,1194.7585,391.9863,1190.1751,396.5697" style="stroke:#000000;stroke-width:1.1458;"/><line style="stroke:#000000;stroke-width:1.1458;" x1="1190.1751" x2="1190.1751" y1="453.5245" y2="583.2397"/><polygon fill="#000000" points="1185.5918,571.7814,1190.1751,583.2397,1194.7585,571.7814,1190.1751,576.3647" style="stroke:#000000;stroke-width:1.1458;"/><line style="stroke:#000000;stroke-width:1.1458;" x1="1478.6063" x2="1478.6063" y1="118.5526" y2="313.2607"/><polygon fill="#000000" points="1474.0229,301.8024,1478.6063,313.2607,1483.1896,301.8024,1478.6063,306.3857" style="stroke:#000000;stroke-width:1.1458;"/><line style="stroke:#000000;stroke-width:1.1458;" x1="1478.6063" x2="1478.6063" y1="363.3405" y2="403.4447"/><polygon fill="#000000" points="1474.0229,391.9863,1478.6063,403.4447,1483.1896,391.9863,1478.6063,396.5697" style="stroke:#000000;stroke-width:1.1458;"/><line style="stroke:#000000;stroke-width:1.1458;" x1="1478.6063" x2="1478.6063" y1="453.5245" y2="583.2397"/><polygon fill="#000000" points="1474.0229,571.7814,1478.6063,583.2397,1483.1896,571.7814,1478.6063,576.3647" style="stroke:#000000;stroke-width:1.1458;"/><line style="stroke:#000000;stroke-width:1.1458;" x1="1761.3099" x2="1761.3099" y1="118.5526" y2="313.2607"/><polygon fill="#000000" points="1756.7266,301.8024,1761.3099,313.2607,1765.8932,301.8024,1761.3099,306.3857" style="stroke:#000000;stroke-width:1.1458;"/><line style="stroke:#000000;stroke-width:1.1458;" x1="1761.3099" x2="1761.3099" y1="363.3405" y2="403.4447"/><polygon fill="#000000" points="1756.7266,391.9863,1761.3099,403.4447,1765.8932,391.9863,1761.3099,396.5697" style="stroke:#000000;stroke-width:1.1458;"/><line style="stroke:#000000;stroke-width:1.1458;" x1="1761.3099" x2="1761.3099" y1="453.5245" y2="583.2397"/><polygon fill="#000000" points="1756.7266,571.7814,1761.3099,583.2397,1765.8932,571.7814,1761.3099,576.3647" style="stroke:#000000;stroke-width:1.1458;"/><line style="stroke:#000000;stroke-width:1.1458;" x1="843.3529" x2="843.3529" y1="118.5526" y2="178.372"/><polygon fill="#000000" points="838.7695,166.9137,843.3529,178.372,847.9362,166.9137,843.3529,171.497" style="stroke:#000000;stroke-width:1.1458;"/><line style="stroke:#000000;stroke-width:1.1458;" x1="970.3365" x2="970.3365" y1="93.9172" y2="116.8339"/><polygon fill="#000000" points="965.7532,105.3755,970.3365,116.8339,974.9198,105.3755,970.3365,109.9589" style="stroke:#000000;stroke-width:1.1458;"/><line style="stroke:#000000;stroke-width:1.1458;" x1="970.3365" x2="970.3365" y1="584.9585" y2="606.1564"/><polygon fill="#000000" points="965.7532,594.698,970.3365,606.1564,974.9198,594.698,970.3365,599.2814" style="stroke:#000000;stroke-width:1.1458;"/><?plantuml-src bLHBRvj04BxpAwQvr3dKH5LFzibg6kKGAr7izXgjOS2Zx8Fk38wigl-z0oGnRYrSE21Wl_aUEyD-X0Thl7nVta697gCHp66pX-NzzJhXP_ALYSR14fbDYGjBfOSClM1CXCGYB3AX7SaUhicK2ft1IkfyVuksKim7yfcjSuIjICMpD8tcPLgIREjDpHYpe4nUfbbmQH4n3spDxlFLrPTqIPwSiUijEdnGTsd4WjCjcfnJPyYdhWDyaWOnhMfd4nOJ9U7AaYHgM_rHy73H-56H2_YLW5xMRD32WbaZjLQ_1f-tKBu9iVsoqYLzV-e8cw9Pn9yriXmNtEymxWXVvXs6qUT3W17AofJyxgA0AJNlsK3ALL1PH-ppB8Cd2P5ysS-I3KFdFLHqfp5lQgPnD1zXOqomcUlgsX4x8ZniN5_x4JDy1IhBDx-Z6BpJnuN5A4yjaWgO7Ah11m6kISn6Hxa84RXHKQENe8FbOR97lcmBc_u-KzNfeMM4YG_TacQYuZ02x_Ijx0Y3uvl-GsUhH_EkV4ki-xO_CS03wDuKdqNzd_puG8zw_lGRlMfxGqfm58RhZIFf0xNmdz7jlhMRNXttOK1bqFCQJRR5UEeeEVgNMznVVzrh0zwMXWwHCvZpibq8lNU7eNQZ-WC0?></g></svg>