<?plantuml 1.2026.2?><svg xmlns="http://www.w3.org/2000/svg" xmlns:xlink="http://www.w3.org/1999/xlink" contentStyleType="text/css" data-diagram-type="ACTIVITY" height="638.2292px" preserveAspectRatio="none" style="width:1919px;height:638px;background:#FFFFFF;" version="1.1" viewBox="0 0 1919 638" width="1919.2708px" zoomAndPan="magnify"><title>Activity Diagram: StudyHelper</title><defs/><g><g class="title" data-source-line="3"><text fill="#000000" font-family="'Helvetica, Arial, sans-serif'" font-size="25.2083" font-weight="bold" lengthAdjust="spacing" textLength="379.9917" x="768.2516" y="47.5728">Activity Diagram: StudyHelper</text></g><ellipse cx="949.7115" cy="82.4589" fill="#FFFFFF" rx="11.4583" ry="11.4583" style="stroke:#000000;stroke-width:1.1458;"/><line style="stroke:#000000;stroke-width:1.7188;" x1="146.5791" x2="1761.3099" y1="116.8339" y2="116.8339"/><rect fill="#FFFFFF" height="260.8296" style="stroke:#000000;stroke-width:1.1458;" width="279.4082" x="6.875" y="238.5283"/><path d="M80.1144,238.5283 L80.1144,257.6706 L68.6561,269.1289 L6.875,269.1289" fill="none" style="stroke:#000000;stroke-width:1.1458;"/><text fill="#000000" font-family="'Helvetica, Arial, sans-serif'" font-size="14.8958" lengthAdjust="spacing" textLength="54.9061" x="13.75" y="259.0353">Student</text><rect fill="#FFFFFF" height="50.0798" style="stroke:#000000;stroke-width:1.1458;" width="256.4916" x="18.3333" y="313.2607"/><text fill="#000000" font-family="'Helvetica, Arial, sans-serif'" font-size="14.8958" lengthAdjust="spacing" textLength="226.6999" x="33.2292" y="344.0802">requestStudyConditionOverview</text><rect fill="#FFFFFF" height="50.0798" style="stroke:#000000;stroke-width:1.1458;" width="236.5609" x="28.2987" y="403.4447"/><text fill="#000000" font-family="'Helvetica, Arial, sans-serif'" font-size="14.8958" lengthAdjust="spacing" textLength="206.7693" x="43.1945" y="434.2642">sendStudyConditionOverview</text><rect fill="#FFFFFF" height="260.8296" style="stroke:#000000;stroke-width:1.1458;" width="238.9958" x="297.7416" y="238.5283"/><path d="M370.981,238.5283 L370.981,257.6706 L359.5227,269.1289 L297.7416,269.1289" fill="none" style="stroke:#000000;stroke-width:1.1458;"/><text fill="#000000" font-family="'Helvetica, Arial, sans-serif'" font-size="14.8958" lengthAdjust="spacing" textLength="54.9061" x="304.6166" y="259.0353">Student</text><rect fill="#FFFFFF" height="50.0798" style="stroke:#000000;stroke-width:1.1458;" width="216.0792" x="309.1999" y="313.2607"/><text fill="#000000" font-family="'Helvetica, Arial, sans-serif'" font-size="14.8958" lengthAdjust="spacing" textLength="186.2875" x="324.0957" y="344.0802">submitStudySessionRating</text><rect fill="#FFFFFF" height="50.0798" style="stroke:#000000;stroke-width:1.1458;" width="181.0143" x="326.7323" y="403.4447"/><text fill="#000000" font-family="'Helvetica, Arial, sans-serif'" font-size="14.8958" lengthAdjust="spacing" textLength="151.2227" x="341.6282" y="434.2642">confirmRatingReceipt</text><rect fill="#FFFFFF" height="260.8296" style="stroke:#000000;stroke-width:1.1458;" width="314.9497" x="548.1957" y="238.5283"/><path d="M621.4352,238.5283 L621.4352,257.6706 L609.9768,269.1289 L548.1957,269.1289" fill="none" style="stroke:#000000;stroke-width:1.1458;"/><text fill="#000000" font-family="'Helvetica, Arial, sans-serif'" font-size="14.8958" lengthAdjust="spacing" textLength="54.9061" x="555.0707" y="259.0353">Student</text><rect fill="#FFFFFF" height="50.0798" style="stroke:#000000;stroke-width:1.1458;" width="292.0331" x="559.6541" y="313.2607"/><text fill="#000000" font-family="'Helvetica, Arial, sans-serif'" font-size="14.8958" lengthAdjust="spacing" textLength="262.2414" x="574.5499" y="344.0802">requestEnvironmentConditionHistory</text><rect fill="#FFFFFF" height="50.0798" style="stroke:#000000;stroke-width:1.1458;" width="272.1024" x="569.6194" y="403.4447"/><text fill="#000000" font-family="'Helvetica, Arial, sans-serif'" font-size="14.8958" lengthAdjust="spacing" textLength="242.3108" x="584.5152" y="434.2642">sendEnvironmentConditionHistory</text><rect fill="#FFFFFF" height="260.8296" style="stroke:#000000;stroke-width:1.1458;" width="374.7863" x="874.6038" y="238.5283"/><path d="M947.8433,238.5283 L947.8433,257.6706 L936.3849,269.1289 L874.6038,269.1289" fill="none" style="stroke:#000000;stroke-width:1.1458;"/><text fill="#000000" font-family="'Helvetica, Arial, sans-serif'" font-size="14.8958" lengthAdjust="spacing" textLength="54.9061" x="881.4788" y="259.0353">Student</text><rect fill="#FFFFFF" height="50.0798" style="stroke:#000000;stroke-width:1.1458;" width="267.7975" x="928.0982" y="313.2607"/><text fill="#000000" font-family="'Helvetica, Arial, sans-serif'" font-size="14.8958" lengthAdjust="spacing" textLength="238.0059" x="942.994" y="344.0802">configureStudySessionMonitoring</text><rect fill="#FFFFFF" height="50.0798" style="stroke:#000000;stroke-width:1.1458;" width="351.8697" x="886.0622" y="403.4447"/><text fill="#000000" font-family="'Helvetica, Arial, sans-serif'" font-size="14.8958" lengthAdjust="spacing" textLength="322.078" x="900.958" y="434.2642">confirmStudySessionMonitoringConfiguration</text><rect fill="#FFFFFF" height="432.0308" style="stroke:#000000;stroke-width:1.1458;" width="337.2557" x="1260.8485" y="128.2922"/><path d="M1334.0879,128.2922 L1334.0879,147.4345 L1322.6296,158.8928 L1260.8485,158.8928" fill="none" style="stroke:#000000;stroke-width:1.1458;"/><text fill="#000000" font-family="'Helvetica, Arial, sans-serif'" font-size="14.8958" lengthAdjust="spacing" textLength="54.9061" x="1267.7235" y="148.7992">Student</text><rect fill="#FFFFFF" height="50.0798" style="stroke:#000000;stroke-width:1.1458;" width="295.8166" x="1272.3068" y="178.372"/><text fill="#000000" font-family="'Helvetica, Arial, sans-serif'" font-size="14.8958" lengthAdjust="spacing" textLength="266.025" x="1287.2026" y="209.1915">monitorActiveStudySessionConditions</text><rect fill="#FFFFFF" height="50.0798" style="stroke:#000000;stroke-width:1.1458;" width="57.8852" x="1391.2725" y="354.9152"/><text fill="#000000" font-family="'Helvetica, Arial, sans-serif'" font-size="14.8958" lengthAdjust="spacing" textLength="28.0936" x="1406.1683" y="385.7347">skip</text><polygon fill="#FFFFFF" points="1291.4812,293.2086,1548.9491,293.2086,1562.6991,306.9586,1548.9491,320.7086,1291.4812,320.7086,1277.7312,306.9586,1291.4812,293.2086" style="stroke:#000000;stroke-width:1.1458;"/><text fill="#000000" font-family="'Helvetica, Arial, sans-serif'" font-size="14.8958" lengthAdjust="spacing" textLength="23.1332" x="1428.2359" y="340.0698">yes</text><text fill="#000000" font-family="'Helvetica, Arial, sans-serif'" font-size="14.8958" lengthAdjust="spacing" textLength="250.5929" x="1294.9187" y="312.7382">Conditions not suitable for studying</text><text fill="#000000" font-family="'Helvetica, Arial, sans-serif'" font-size="14.8958" lengthAdjust="spacing" textLength="18.2176" x="1566.1366" y="299.1566">no</text><polygon fill="#FFFFFF" points="1420.2151,446.0766,1433.9651,459.8266,1420.2151,473.5766,1406.4651,459.8266,1420.2151,446.0766" style="stroke:#000000;stroke-width:1.1458;"/><rect fill="#FFFFFF" height="50.0798" style="stroke:#000000;stroke-width:1.1458;" width="165.0609" x="1337.6847" y="496.4932"/><text fill="#000000" font-family="'Helvetica, Arial, sans-serif'" font-size="14.8958" lengthAdjust="spacing" textLength="135.2692" x="1352.5805" y="527.3127">sendConditionAlert</text><rect fill="#FFFFFF" height="260.8296" style="stroke:#000000;stroke-width:1.1458;" width="303.4948" x="1609.5625" y="238.5283"/><path d="M1683.8446,238.5283 L1683.8446,257.6706 L1672.3863,269.1289 L1609.5625,269.1289" fill="none" style="stroke:#000000;stroke-width:1.1458;"/><text fill="#000000" font-family="'Helvetica, Arial, sans-serif'" font-size="14.8958" lengthAdjust="spacing" textLength="55.9488" x="1616.4375" y="259.0353">Teacher</text><rect fill="#FFFFFF" height="50.0798" style="stroke:#000000;stroke-width:1.1458;" width="280.5781" x="1621.0208" y="313.2607"/><text fill="#000000" font-family="'Helvetica, Arial, sans-serif'" font-size="14.8958" lengthAdjust="spacing" textLength="250.7865" x="1635.9167" y="344.0802">requestTeachingConditionOverview</text><rect fill="#FFFFFF" height="50.0798" style="stroke:#000000;stroke-width:1.1458;" width="260.6475" x="1630.9862" y="403.4447"/><text fill="#000000" font-family="'Helvetica, Arial, sans-serif'" font-size="14.8958" lengthAdjust="spacing" textLength="230.8558" x="1645.882" y="434.2642">sendTeachingConditionOverview</text><line style="stroke:#000000;stroke-width:1.7188;" x1="146.5791" x2="1761.3099" y1="583.2397" y2="583.2397"/><ellipse cx="949.7115" cy="618.7605" fill="none" rx="12.6042" ry="12.6042" style="stroke:#000000;stroke-width:1.1458;"/><ellipse cx="949.7115" cy="618.7605" fill="#FFFFFF" rx="6.875" ry="6.875" style="stroke:#000000;stroke-width:1.1458;"/><line style="stroke:#000000;stroke-width:1.1458;" x1="146.5791" x2="146.5791" y1="118.5526" y2="313.2607"/><polygon fill="#000000" points="141.9958,301.8024,146.5791,313.2607,151.1624,301.8024,146.5791,306.3857" style="stroke:#000000;stroke-width:1.1458;"/><line style="stroke:#000000;stroke-width:1.1458;" x1="146.5791" x2="146.5791" y1="363.3405" y2="403.4447"/><polygon fill="#000000" points="141.9958,391.9863,146.5791,403.4447,151.1624,391.9863,146.5791,396.5697" style="stroke:#000000;stroke-width:1.1458;"/><line style="stroke:#000000;stroke-width:1.1458;" x1="146.5791" x2="146.5791" y1="453.5245" y2="583.2397"/><polygon fill="#000000" points="141.9958,571.7814,146.5791,583.2397,151.1624,571.7814,146.5791,576.3647" style="stroke:#000000;stroke-width:1.1458;"/><line style="stroke:#000000;stroke-width:1.1458;" x1="417.2395" x2="417.2395" y1="118.5526" y2="313.2607"/><polygon fill="#000000" points="412.6561,301.8024,417.2395,313.2607,421.8228,301.8024,417.2395,306.3857" style="stroke:#000000;stroke-width:1.1458;"/><line style="stroke:#000000;stroke-width:1.1458;" x1="417.2395" x2="417.2395" y1="363.3405" y2="403.4447"/><polygon fill="#000000" points="412.6561,391.9863,417.2395,403.4447,421.8228,391.9863,417.2395,396.5697" style="stroke:#000000;stroke-width:1.1458;"/><line style="stroke:#000000;stroke-width:1.1458;" x1="417.2395" x2="417.2395" y1="453.5245" y2="583.2397"/><polygon fill="#000000" points="412.6561,571.7814,417.2395,583.2397,421.8228,571.7814,417.2395,576.3647" style="stroke:#000000;stroke-width:1.1458;"/><line style="stroke:#000000;stroke-width:1.1458;" x1="705.6706" x2="705.6706" y1="118.5526" y2="313.2607"/><polygon fill="#000000" points="701.0873,301.8024,705.6706,313.2607,710.2539,301.8024,705.6706,306.3857" style="stroke:#000000;stroke-width:1.1458;"/><line style="stroke:#000000;stroke-width:1.1458;" x1="705.6706" x2="705.6706" y1="363.3405" y2="403.4447"/><polygon fill="#000000" points="701.0873,391.9863,705.6706,403.4447,710.2539,391.9863,705.6706,396.5697" style="stroke:#000000;stroke-width:1.1458;"/><line style="stroke:#000000;stroke-width:1.1458;" x1="705.6706" x2="705.6706" y1="453.5245" y2="583.2397"/><polygon fill="#000000" points="701.0873,571.7814,705.6706,583.2397,710.2539,571.7814,705.6706,576.3647" style="stroke:#000000;stroke-width:1.1458;"/><line style="stroke:#000000;stroke-width:1.1458;" x1="1061.997" x2="1061.997" y1="118.5526" y2="313.2607"/><polygon fill="#000000" points="1057.4136,301.8024,1061.997,313.2607,1066.5803,301.8024,1061.997,306.3857" style="stroke:#000000;stroke-width:1.1458;"/><line style="stroke:#000000;stroke-width:1.1458;" x1="1061.997" x2="1061.997" y1="363.3405" y2="403.4447"/><polygon fill="#000000" points="1057.4136,391.9863,1061.997,403.4447,1066.5803,391.9863,1061.997,396.5697" style="stroke:#000000;stroke-width:1.1458;"/><line style="stroke:#000000;stroke-width:1.1458;" x1="1061.997" x2="1061.997" y1="453.5245" y2="583.2397"/><polygon fill="#000000" points="1057.4136,571.7814,1061.997,583.2397,1066.5803,571.7814,1061.997,576.3647" style="stroke:#000000;stroke-width:1.1458;"/><line style="stroke:#000000;stroke-width:1.1458;" x1="1420.2151" x2="1420.2151" y1="228.4518" y2="293.2086"/><polygon fill="#000000" points="1415.6318,281.7503,1420.2151,293.2086,1424.7984,281.7503,1420.2151,286.3336" style="stroke:#000000;stroke-width:1.1458;"/><line style="stroke:#000000;stroke-width:1.1458;" x1="1420.2151" x2="1420.2151" y1="320.7086" y2="354.9152"/><polygon fill="#000000" points="1415.6318,343.4569,1420.2151,354.9152,1424.7984,343.4569,1420.2151,348.0402" style="stroke:#000000;stroke-width:1.1458;"/><line style="stroke:#000000;stroke-width:1.1458;" x1="1562.6991" x2="1576.4491" y1="306.9586" y2="306.9586"/><polygon fill="#000000" points="1571.8657,371.9343,1576.4491,383.3926,1581.0324,371.9343,1576.4491,376.5176" style="stroke:#000000;stroke-width:1.1458;"/><line style="stroke:#000000;stroke-width:1.1458;" x1="1576.4491" x2="1576.4491" y1="306.9586" y2="459.8266"/><line style="stroke:#000000;stroke-width:1.1458;" x1="1576.4491" x2="1433.9651" y1="459.8266" y2="459.8266"/><polygon fill="#000000" points="1445.4234,455.2432,1433.9651,459.8266,1445.4234,464.4099,1440.8401,459.8266" style="stroke:#000000;stroke-width:1.1458;"/><line style="stroke:#000000;stroke-width:1.1458;" x1="1420.2151" x2="1420.2151" y1="404.995" y2="446.0766"/><polygon fill="#000000" points="1415.6318,434.6182,1420.2151,446.0766,1424.7984,434.6182,1420.2151,439.2016" style="stroke:#000000;stroke-width:1.1458;"/><line style="stroke:#000000;stroke-width:1.1458;" x1="1420.2151" x2="1420.2151" y1="473.5766" y2="496.4932"/><polygon fill="#000000" points="1415.6318,485.0349,1420.2151,496.4932,1424.7984,485.0349,1420.2151,489.6182" style="stroke:#000000;stroke-width:1.1458;"/><line style="stroke:#000000;stroke-width:1.1458;" x1="1420.2151" x2="1420.2151" y1="546.573" y2="583.2397"/><polygon fill="#000000" points="1415.6318,571.7814,1420.2151,583.2397,1424.7984,571.7814,1420.2151,576.3647" style="stroke:#000000;stroke-width:1.1458;"/><line style="stroke:#000000;stroke-width:1.1458;" x1="1761.3099" x2="1761.3099" y1="118.5526" y2="313.2607"/><polygon fill="#000000" points="1756.7266,301.8024,1761.3099,313.2607,1765.8932,301.8024,1761.3099,306.3857" style="stroke:#000000;stroke-width:1.1458;"/><line style="stroke:#000000;stroke-width:1.1458;" x1="1761.3099" x2="1761.3099" y1="363.3405" y2="403.4447"/><polygon fill="#000000" points="1756.7266,391.9863,1761.3099,403.4447,1765.8932,391.9863,1761.3099,396.5697" style="stroke:#000000;stroke-width:1.1458;"/><line style="stroke:#000000;stroke-width:1.1458;" x1="1761.3099" x2="1761.3099" y1="453.5245" y2="583.2397"/><polygon fill="#000000" points="1756.7266,571.7814,1761.3099,583.2397,1765.8932,571.7814,1761.3099,576.3647" style="stroke:#000000;stroke-width:1.1458;"/><line style="stroke:#000000;stroke-width:1.1458;" x1="1420.2151" x2="1420.2151" y1="118.5526" y2="178.372"/><polygon fill="#000000" points="1415.6318,166.9137,1420.2151,178.372,1424.7984,166.9137,1420.2151,171.497" style="stroke:#000000;stroke-width:1.1458;"/><line style="stroke:#000000;stroke-width:1.1458;" x1="949.7115" x2="949.7115" y1="93.9172" y2="116.8339"/><polygon fill="#000000" points="945.1282,105.3755,949.7115,116.8339,954.2948,105.3755,949.7115,109.9589" style="stroke:#000000;stroke-width:1.1458;"/><line style="stroke:#000000;stroke-width:1.1458;" x1="949.7115" x2="949.7115" y1="584.9585" y2="606.1564"/><polygon fill="#000000" points="945.1282,594.698,949.7115,606.1564,954.2948,594.698,949.7115,599.2814" style="stroke:#000000;stroke-width:1.1458;"/><?plantuml-src bLGzRzj03DtrAzWiTOPQGT79deoaHOOQ2MAtQt2IA9d8VQXtb0EXw7ylfKjYAJ3iI8C0wHuVtoDv_0ptMbd-jVu95LhqYh60h8NrtSqs2KzaQ-MLWJM6e2fSQQeiv6WPVSB46c6LC-s9MxWXLGbq0HjkYlOMTIsOJsHptHG8E-OwBDBKg-TvHRnhiYQWpvqmMPxdpgIbny85hVPVhww-fMkoP9JUxj3WlQXBFPOXtQ4gGceKsTH4m1Vk4FEwCJe9h3mdeTR4YSWMVUGiN7Hw9Ca5_4r07gqorB0AGIprKg-TBNfe-E5y_sSZH_Bz60cxe8N7Fmq67WVSxT7l2P-N4HFG5gS04p8BK_8lMW5LYT-pXXwaSqEAJKEiCXA2TkWZD9aX7W8ba6prOa4QKf8tyTy3vaWrBp-OPRhctrAQxtPFtbaZXs_bkAN0phT7wdy2FMZ2MTJ7qaytTDsLhshyg4PhPqdufA13G_bfwBWVnp6lsLIdQ3b1nXHZ2nFZ-di-8ZnCxsX2kg69G64Pb7UbqVDZZwGIPeTei8uXz8Ca-wHq7aANHOHUWjnk2xCMmsKVsFNtYUgO3tL0c5aNZyGJbOSHUAFlqquGUB8sMrJv3lsnLJAwoptkNSDV9lZrwDGIEOCvdpQQa7TSXZBEzNy0?></g></svg>