<svg xmlns="http://www.w3.org/2000/svg" width="1200" height="720" viewBox="0 0 1200 720" role="img" aria-labelledby="title desc">
  <title id="title">Dashboard Wireframe</title>
  <desc id="desc">Low-fidelity StudyHelper dashboard wireframe showing navigation, sensor cards, chart area, recommendations, and session rating flow.</desc>
  <rect width="1200" height="720" fill="#f7f7f7"/>
  <rect x="48" y="44" width="1104" height="72" fill="#ffffff" stroke="#222" stroke-width="3"/>
  <rect x="72" y="66" width="170" height="28" fill="#dddddd" stroke="#555" stroke-width="2"/>
  <rect x="780" y="66" width="90" height="28" fill="#dddddd" stroke="#555" stroke-width="2"/>
  <rect x="890" y="66" width="90" height="28" fill="#dddddd" stroke="#555" stroke-width="2"/>
  <rect x="1000" y="66" width="90" height="28" fill="#dddddd" stroke="#555" stroke-width="2"/>

  <rect x="48" y="146" width="1104" height="94" fill="#ffffff" stroke="#222" stroke-width="3"/>
  <rect x="76" y="174" width="320" height="30" fill="#dddddd" stroke="#555" stroke-width="2"/>
  <rect x="870" y="168" width="120" height="44" fill="#dddddd" stroke="#555" stroke-width="2"/>
  <rect x="1010" y="168" width="110" height="44" fill="#dddddd" stroke="#555" stroke-width="2"/>

  <g fill="#ffffff" stroke="#222" stroke-width="3">
    <rect x="48" y="270" width="258" height="112"/>
    <rect x="330" y="270" width="258" height="112"/>
    <rect x="612" y="270" width="258" height="112"/>
    <rect x="894" y="270" width="258" height="112"/>
  </g>
  <g fill="#dddddd" stroke="#555" stroke-width="2">
    <rect x="76" y="298" width="150" height="24"/>
    <rect x="76" y="342" width="90" height="24"/>
    <rect x="358" y="298" width="150" height="24"/>
    <rect x="358" y="342" width="90" height="24"/>
    <rect x="640" y="298" width="150" height="24"/>
    <rect x="640" y="342" width="90" height="24"/>
    <rect x="922" y="298" width="150" height="24"/>
    <rect x="922" y="342" width="90" height="24"/>
  </g>

  <rect x="48" y="412" width="704" height="230" fill="#ffffff" stroke="#222" stroke-width="3"/>
  <polyline points="92,590 180,560 268,574 356,500 444,520 532,460 620,488 708,438" fill="none" stroke="#555" stroke-width="5"/>
  <line x1="92" y1="604" x2="708" y2="604" stroke="#777" stroke-width="2"/>
  <line x1="92" y1="442" x2="92" y2="604" stroke="#777" stroke-width="2"/>

  <rect x="782" y="412" width="370" height="230" fill="#ffffff" stroke="#222" stroke-width="3"/>
  <rect x="812" y="444" width="240" height="28" fill="#dddddd" stroke="#555" stroke-width="2"/>
  <rect x="812" y="500" width="300" height="28" fill="#dddddd" stroke="#555" stroke-width="2"/>
  <rect x="812" y="556" width="220" height="28" fill="#dddddd" stroke="#555" stroke-width="2"/>

  <rect x="424" y="250" width="352" height="180" fill="#ffffff" stroke="#222" stroke-width="3" stroke-dasharray="10 8"/>
  <rect x="470" y="286" width="260" height="26" fill="#dddddd" stroke="#555" stroke-width="2"/>
  <circle cx="500" cy="358" r="18" fill="#dddddd" stroke="#555" stroke-width="2"/>
  <circle cx="550" cy="358" r="18" fill="#dddddd" stroke="#555" stroke-width="2"/>
  <circle cx="600" cy="358" r="18" fill="#dddddd" stroke="#555" stroke-width="2"/>
  <circle cx="650" cy="358" r="18" fill="#dddddd" stroke="#555" stroke-width="2"/>
  <circle cx="700" cy="358" r="18" fill="#dddddd" stroke="#555" stroke-width="2"/>
</svg>
