<?plantuml 1.2026.1?><svg xmlns="http://www.w3.org/2000/svg" xmlns:xlink="http://www.w3.org/1999/xlink" contentStyleType="text/css" data-diagram-type="STATE" height="232px" preserveAspectRatio="none" style="width:1129px;height:232px;background:#FFFFFF;" version="1.1" viewBox="0 0 1129 232" width="1129px" zoomAndPan="magnify"><title>State Machine: Student</title><defs/><g><g class="title" data-source-line="1"><text fill="#000000" font-family="sans-serif" font-size="14" font-weight="bold" lengthAdjust="spacing" textLength="162.6514" x="476.5451" y="24.9659">State Machine: Student</text></g><g><rect fill="#F1F1F1" height="50" rx="12.5" ry="12.5" style="stroke:#181818;stroke-width:0.5;" width="123.9496" x="7" y="176.0679"/><line style="stroke:#181818;stroke-width:0.5;" x1="7" x2="130.9496" y1="205.1358" y2="205.1358"/><text fill="#000000" font-family="sans-serif" font-size="14" lengthAdjust="spacing" textLength="103.9496" x="17" y="196.0339">knowsCO2Level</text></g><g><rect fill="#F1F1F1" height="50" rx="12.5" ry="12.5" style="stroke:#181818;stroke-width:0.5;" width="126.7916" x="165.58" y="176.0679"/><line style="stroke:#181818;stroke-width:0.5;" x1="165.58" x2="292.3716" y1="205.1358" y2="205.1358"/><text fill="#000000" font-family="sans-serif" font-size="14" lengthAdjust="spacing" textLength="106.7916" x="175.58" y="196.0339">knowsDustLevel</text></g><g><rect fill="#F1F1F1" height="50" rx="12.5" ry="12.5" style="stroke:#181818;stroke-width:0.5;" width="122.4516" x="327.75" y="176.0679"/><line style="stroke:#181818;stroke-width:0.5;" x1="327.75" x2="450.2016" y1="205.1358" y2="205.1358"/><text fill="#000000" font-family="sans-serif" font-size="14" lengthAdjust="spacing" textLength="102.4516" x="337.75" y="196.0339">knowsHumidity</text></g><g><rect fill="#F1F1F1" height="50" rx="12.5" ry="12.5" style="stroke:#181818;stroke-width:0.5;" width="129.4236" x="485.26" y="176.0679"/><line style="stroke:#181818;stroke-width:0.5;" x1="485.26" x2="614.6836" y1="205.1358" y2="205.1358"/><text fill="#000000" font-family="sans-serif" font-size="14" lengthAdjust="spacing" textLength="109.4236" x="495.26" y="196.0339">knowsLightLevel</text></g><g><rect fill="#F1F1F1" height="50" rx="12.5" ry="12.5" style="stroke:#181818;stroke-width:0.5;" width="133.4835" x="649.23" y="176.0679"/><line style="stroke:#181818;stroke-width:0.5;" x1="649.23" x2="782.7135" y1="205.1358" y2="205.1358"/><text fill="#000000" font-family="sans-serif" font-size="14" lengthAdjust="spacing" textLength="113.4835" x="659.23" y="196.0339">knowsNoiseLevel</text></g><g><rect fill="#F1F1F1" height="50" rx="12.5" ry="12.5" style="stroke:#181818;stroke-width:0.5;" width="148.6035" x="817.67" y="176.0679"/><line style="stroke:#181818;stroke-width:0.5;" x1="817.67" x2="966.2735" y1="205.1358" y2="205.1358"/><text fill="#000000" font-family="sans-serif" font-size="14" lengthAdjust="spacing" textLength="128.6035" x="827.67" y="196.0339">knowsTemperature</text></g><g><rect fill="#F1F1F1" height="50" rx="12.5" ry="12.5" style="stroke:#181818;stroke-width:0.5;" width="77.0358" x="431.46" y="47.0679"/><line style="stroke:#181818;stroke-width:0.5;" x1="431.46" x2="508.4958" y1="76.1358" y2="76.1358"/><text fill="#000000" font-family="sans-serif" font-size="14" lengthAdjust="spacing" textLength="57.0358" x="441.46" y="67.0339">studying</text></g><ellipse cx="1061.97" cy="72.0679" fill="#222222" rx="10" ry="10" style="stroke:#222222;stroke-width:1;"/><g><rect fill="#F1F1F1" height="50" rx="12.5" ry="12.5" style="stroke:#181818;stroke-width:0.5;" width="121.5416" x="1001.2" y="176.0679"/><line style="stroke:#181818;stroke-width:0.5;" x1="1001.2" x2="1122.7416" y1="205.1358" y2="205.1358"/><text fill="#000000" font-family="sans-serif" font-size="14" lengthAdjust="spacing" textLength="101.5416" x="1011.2" y="196.0339">Not_authorized</text></g><!--link *start* to Not_authorized--><g class="link" data-entity-1="ent0002" data-entity-2="ent0003" data-link-type="dependency" data-source-line="10" id="lnk4"><path d="M1061.97,82.1979 C1061.97,101.5379 1061.97,141.1679 1061.97,169.6479" fill="none" id="*start*-to-Not_authorized" style="stroke:#181818;stroke-width:1;"/><polygon fill="#181818" points="1061.97,175.6479,1065.97,166.6479,1061.97,170.6479,1057.97,166.6479,1061.97,175.6479" style="stroke:#181818;stroke-width:1;"/></g><!--link studying to knowsNoiseLevel--><g class="link" data-entity-1="ent0008" data-entity-2="ent0006" data-link-type="dependency" data-source-line="11" id="lnk5"><path d="M508.82,82.7979 C540.9,91.7279 587.01,106.6779 623.97,127.0679 C648.26,140.4579 668.2085,156.2497 685.7985,171.8297" fill="none" id="studying-to-knowsNoiseLevel" style="stroke:#181818;stroke-width:1;"/><polygon fill="#181818" points="690.29,175.8079,686.2049,166.8462,686.5471,172.4927,680.9006,172.8349,690.29,175.8079" style="stroke:#181818;stroke-width:1;"/><text fill="#000000" font-family="sans-serif" font-size="13" lengthAdjust="spacing" textLength="102.8561" x="652.09" y="141.9649">CheckNoiseLevel</text></g><!--link studying to knowsLightLevel--><g class="link" data-entity-1="ent0008" data-entity-2="ent0005" data-link-type="dependency" data-source-line="12" id="lnk6"><path d="M485.4,97.5579 C499.57,120.0479 517.2528,148.1107 531.4028,170.5807" fill="none" id="studying-to-knowsLightLevel" style="stroke:#181818;stroke-width:1;"/><polygon fill="#181818" points="534.6,175.6579,533.1889,165.9107,531.9356,171.4269,526.4194,170.1737,534.6,175.6579" style="stroke:#181818;stroke-width:1;"/><text fill="#000000" font-family="sans-serif" font-size="13" lengthAdjust="spacing" textLength="99.0861" x="515.76" y="141.9649">CheckLightLevel</text></g><!--link studying to knowsCO2Level--><g class="link" data-entity-1="ent0008" data-entity-2="ent0002" data-link-type="dependency" data-source-line="13" id="lnk7"><path d="M431.07,74.0479 C371.22,76.8379 254.07,87.3779 163.97,127.0679 C137.33,138.8079 115.8487,155.5009 97.8387,171.8809" fill="none" id="studying-to-knowsCO2Level" style="stroke:#181818;stroke-width:1;"/><polygon fill="#181818" points="93.4,175.9179,102.7495,172.8216,97.099,172.5537,97.3668,166.9032,93.4,175.9179" style="stroke:#181818;stroke-width:1;"/><text fill="#000000" font-family="sans-serif" font-size="13" lengthAdjust="spacing" textLength="94.0031" x="164.97" y="141.9649">CheckCO2Level</text></g><!--link studying to knowsTemperature--><g class="link" data-entity-1="ent0008" data-entity-2="ent0007" data-link-type="dependency" data-source-line="14" id="lnk8"><path d="M508.98,76.1079 C566.16,81.4879 675.47,95.2679 762.97,127.0679 C796.35,139.1979 826.182,156.2248 851.242,172.3248" fill="none" id="studying-to-knowsTemperature" style="stroke:#181818;stroke-width:1;"/><polygon fill="#181818" points="856.29,175.5679,850.8801,167.3379,852.0833,172.8653,846.5559,174.0686,856.29,175.5679" style="stroke:#181818;stroke-width:1;"/><text fill="#000000" font-family="sans-serif" font-size="13" lengthAdjust="spacing" textLength="116.8961" x="804.82" y="141.9649">CheckTemperature</text></g><!--link studying to knowsHumidity--><g class="link" data-entity-1="ent0008" data-entity-2="ent0004" data-link-type="dependency" data-source-line="15" id="lnk9"><path d="M431.08,96.9279 C420.47,105.2179 409.98,115.4179 402.97,127.0679 C394.14,141.7779 391.2026,154.929 389.9426,169.919" fill="none" id="studying-to-knowsHumidity" style="stroke:#181818;stroke-width:1;"/><polygon fill="#181818" points="389.44,175.8979,394.1798,167.2646,389.8588,170.9155,386.2079,166.5945,389.44,175.8979" style="stroke:#181818;stroke-width:1;"/><text fill="#000000" font-family="sans-serif" font-size="13" lengthAdjust="spacing" textLength="92.6121" x="403.97" y="141.9649">CheckHumidity</text></g><!--link studying to knowsDustLevel--><g class="link" data-entity-1="ent0008" data-entity-2="ent0003" data-link-type="dependency" data-source-line="16" id="lnk10"><path d="M431.14,77.9079 C392.45,84.1979 332.68,98.0379 288.97,127.0679 C270.12,139.5979 257.499,154.8428 246.789,170.8328" fill="none" id="studying-to-knowsDustLevel" style="stroke:#181818;stroke-width:1;"/><polygon fill="#181818" points="243.45,175.8179,251.7819,170.5663,246.2325,171.6637,245.1351,166.1143,243.45,175.8179" style="stroke:#181818;stroke-width:1;"/><text fill="#000000" font-family="sans-serif" font-size="13" lengthAdjust="spacing" textLength="96.6421" x="289.97" y="141.9649">CheckDustLevel</text></g><?plantuml-src PP2n3e8m48RtFaLd4nP71XSS7107tOmn3Lpe1MW9lMhmwIN4mrB6Vlsk_Uydf1RabHI1FAjIeu5qEleA30atuyROjyik-nnUq8Riw1rjuCbtM26D8SknrbkpiEXWGs_GzJ0eyWFyi9lIZ6Xg8UwxXqoIWomiFPKdRGVyG2LOcE-YfsKgCmrbi_eirl_vM5ybZdNkWkMWcrWDjc5xlM0ymFMn7TGPgqlzx2xW2m00?></g></svg>