<?plantuml 1.2026.1?><svg xmlns="http://www.w3.org/2000/svg" xmlns:xlink="http://www.w3.org/1999/xlink" contentStyleType="text/css" data-diagram-type="STATE" height="361px" preserveAspectRatio="none" style="width:973px;height:361px;background:#FFFFFF;" version="1.1" viewBox="0 0 973 361" width="973px" zoomAndPan="magnify"><title>State Machine: Student</title><defs/><g><g class="title" data-source-line="1"><text fill="#000000" font-family="sans-serif" font-size="14" font-weight="bold" lengthAdjust="spacing" textLength="162.6514" x="398.3111" y="24.9659">State Machine: Student</text></g><g><rect fill="#F1F1F1" height="50" rx="12.5" ry="12.5" style="stroke:#181818;stroke-width:0.5;" width="107.4157" x="422.27" y="47.0679"/><line style="stroke:#181818;stroke-width:0.5;" x1="422.27" x2="529.6857" y1="76.1358" y2="76.1358"/><text fill="#000000" font-family="sans-serif" font-size="14" lengthAdjust="spacing" textLength="87.4157" x="432.27" y="67.0339">Not_studying</text></g><g><rect fill="#F1F1F1" height="50" rx="12.5" ry="12.5" style="stroke:#181818;stroke-width:0.5;" width="123.9496" x="7" y="305.0679"/><line style="stroke:#181818;stroke-width:0.5;" x1="7" x2="130.9496" y1="334.1358" y2="334.1358"/><text fill="#000000" font-family="sans-serif" font-size="14" lengthAdjust="spacing" textLength="103.9496" x="17" y="325.0339">knowsCO2Level</text></g><g><rect fill="#F1F1F1" height="50" rx="12.5" ry="12.5" style="stroke:#181818;stroke-width:0.5;" width="126.7916" x="165.58" y="305.0679"/><line style="stroke:#181818;stroke-width:0.5;" x1="165.58" x2="292.3716" y1="334.1358" y2="334.1358"/><text fill="#000000" font-family="sans-serif" font-size="14" lengthAdjust="spacing" textLength="106.7916" x="175.58" y="325.0339">knowsDustLevel</text></g><g><rect fill="#F1F1F1" height="50" rx="12.5" ry="12.5" style="stroke:#181818;stroke-width:0.5;" width="122.4516" x="327.75" y="305.0679"/><line style="stroke:#181818;stroke-width:0.5;" x1="327.75" x2="450.2016" y1="334.1358" y2="334.1358"/><text fill="#000000" font-family="sans-serif" font-size="14" lengthAdjust="spacing" textLength="102.4516" x="337.75" y="325.0339">knowsHumidity</text></g><g><rect fill="#F1F1F1" height="50" rx="12.5" ry="12.5" style="stroke:#181818;stroke-width:0.5;" width="129.4236" x="485.26" y="305.0679"/><line style="stroke:#181818;stroke-width:0.5;" x1="485.26" x2="614.6836" y1="334.1358" y2="334.1358"/><text fill="#000000" font-family="sans-serif" font-size="14" lengthAdjust="spacing" textLength="109.4236" x="495.26" y="325.0339">knowsLightLevel</text></g><g><rect fill="#F1F1F1" height="50" rx="12.5" ry="12.5" style="stroke:#181818;stroke-width:0.5;" width="133.4835" x="649.23" y="305.0679"/><line style="stroke:#181818;stroke-width:0.5;" x1="649.23" x2="782.7135" y1="334.1358" y2="334.1358"/><text fill="#000000" font-family="sans-serif" font-size="14" lengthAdjust="spacing" textLength="113.4835" x="659.23" y="325.0339">knowsNoiseLevel</text></g><g><rect fill="#F1F1F1" height="50" rx="12.5" ry="12.5" style="stroke:#181818;stroke-width:0.5;" width="148.6035" x="817.67" y="305.0679"/><line style="stroke:#181818;stroke-width:0.5;" x1="817.67" x2="966.2735" y1="334.1358" y2="334.1358"/><text fill="#000000" font-family="sans-serif" font-size="14" lengthAdjust="spacing" textLength="128.6035" x="827.67" y="325.0339">knowsTemperature</text></g><g><rect fill="#F1F1F1" height="50" rx="12.5" ry="12.5" style="stroke:#181818;stroke-width:0.5;" width="77.0358" x="430.46" y="176.0679"/><line style="stroke:#181818;stroke-width:0.5;" x1="430.46" x2="507.4958" y1="205.1358" y2="205.1358"/><text fill="#000000" font-family="sans-serif" font-size="14" lengthAdjust="spacing" textLength="57.0358" x="440.46" y="196.0339">studying</text></g><ellipse cx="656.97" cy="72.0679" fill="#222222" rx="10" ry="10" style="stroke:#222222;stroke-width:1;"/><g><rect fill="#F1F1F1" height="50" rx="12.5" ry="12.5" style="stroke:#181818;stroke-width:0.5;" width="121.5416" x="596.2" y="176.0679"/><line style="stroke:#181818;stroke-width:0.5;" x1="596.2" x2="717.7416" y1="205.1358" y2="205.1358"/><text fill="#000000" font-family="sans-serif" font-size="14" lengthAdjust="spacing" textLength="101.5416" x="606.2" y="196.0339">Not_authorized</text></g><!--link *start* to Not_authorized--><g class="link" data-entity-1="ent0002" data-entity-2="ent0003" data-link-type="dependency" data-source-line="11" id="lnk4"><path d="M656.97,82.1979 C656.97,101.5379 656.97,141.1679 656.97,169.6479" fill="none" id="*start*-to-Not_authorized" style="stroke:#181818;stroke-width:1;"/><polygon fill="#181818" points="656.97,175.6479,660.97,166.6479,656.97,170.6479,652.97,166.6479,656.97,175.6479" style="stroke:#181818;stroke-width:1;"/></g><!--link studying to knowsNoiseLevel--><g class="link" data-entity-1="ent0009" data-entity-2="ent0007" data-link-type="dependency" data-source-line="12" id="lnk5"><path d="M507.72,210.4779 C541.68,218.8779 591.64,233.7779 630.97,256.0679 C653.99,269.1179 672.2456,284.7077 688.3256,300.3977" fill="none" id="studying-to-knowsNoiseLevel" style="stroke:#181818;stroke-width:1;"/><polygon fill="#181818" points="692.62,304.5879,688.9719,295.4396,689.0413,301.096,683.3849,301.1655,692.62,304.5879" style="stroke:#181818;stroke-width:1;"/><text fill="#000000" font-family="sans-serif" font-size="13" lengthAdjust="spacing" textLength="102.8561" x="659.9" y="270.9649">CheckNoiseLevel</text></g><!--link studying to knowsLightLevel--><g class="link" data-entity-1="ent0009" data-entity-2="ent0006" data-link-type="dependency" data-source-line="13" id="lnk6"><path d="M489.34,226.4179 C496.53,235.4779 504.44,246.0079 510.97,256.0679 C521.15,271.7379 528.3464,284.9565 535.6264,299.4465" fill="none" id="studying-to-knowsLightLevel" style="stroke:#181818;stroke-width:1;"/><polygon fill="#181818" points="538.32,304.8079,537.8538,294.9701,536.0753,300.3401,530.7053,298.5616,538.32,304.8079" style="stroke:#181818;stroke-width:1;"/><text fill="#000000" font-family="sans-serif" font-size="13" lengthAdjust="spacing" textLength="99.0861" x="522.58" y="270.9649">CheckLightLevel</text></g><!--link studying to knowsCO2Level--><g class="link" data-entity-1="ent0009" data-entity-2="ent0003" data-link-type="dependency" data-source-line="14" id="lnk7"><path d="M430.13,203.5979 C371.55,207.1079 258.07,218.5879 169.97,256.0679 C142.3,267.8379 119.4811,284.4732 100.2211,300.7632" fill="none" id="studying-to-knowsCO2Level" style="stroke:#181818;stroke-width:1;"/><polygon fill="#181818" points="95.64,304.6379,105.0948,301.88,99.4576,301.409,99.9286,295.7718,95.64,304.6379" style="stroke:#181818;stroke-width:1;"/><text fill="#000000" font-family="sans-serif" font-size="13" lengthAdjust="spacing" textLength="94.0031" x="170.97" y="270.9649">CheckCO2Level</text></g><!--link studying to knowsTemperature--><g class="link" data-entity-1="ent0009" data-entity-2="ent0008" data-link-type="dependency" data-source-line="15" id="lnk8"><path d="M507.8,211.1379 C528.81,215.8879 555.25,221.6279 578.97,226.0679 C663.87,241.9479 689.81,226.5379 770.97,256.0679 C803.14,267.7679 831.261,284.9624 854.671,301.3124" fill="none" id="studying-to-knowsTemperature" style="stroke:#181818;stroke-width:1;"/><polygon fill="#181818" points="859.59,304.7479,854.5018,296.3152,855.4908,301.885,849.9211,302.8739,859.59,304.7479" style="stroke:#181818;stroke-width:1;"/><text fill="#000000" font-family="sans-serif" font-size="13" lengthAdjust="spacing" textLength="116.8961" x="810.67" y="270.9649">CheckTemperature</text></g><!--link studying to knowsHumidity--><g class="link" data-entity-1="ent0009" data-entity-2="ent0005" data-link-type="dependency" data-source-line="16" id="lnk9"><path d="M438.48,226.3879 C429.27,234.9679 419.8,245.1979 412.97,256.0679 C403.61,270.9779 398.9706,284.1059 395.2706,298.9559" fill="none" id="studying-to-knowsHumidity" style="stroke:#181818;stroke-width:1;"/><polygon fill="#181818" points="393.82,304.7779,399.8772,297.012,395.0288,299.9262,392.1146,295.0778,393.82,304.7779" style="stroke:#181818;stroke-width:1;"/><text fill="#000000" font-family="sans-serif" font-size="13" lengthAdjust="spacing" textLength="92.6121" x="413.97" y="270.9649">CheckHumidity</text></g><!--link studying to knowsDustLevel--><g class="link" data-entity-1="ent0009" data-entity-2="ent0004" data-link-type="dependency" data-source-line="17" id="lnk10"><path d="M430.27,208.4779 C393.98,215.7779 339.26,230.1979 297.97,256.0679 C277.73,268.7579 263.1335,284.079 250.4635,299.949" fill="none" id="studying-to-knowsDustLevel" style="stroke:#181818;stroke-width:1;"/><polygon fill="#181818" points="246.72,304.6379,255.4612,300.1001,249.8396,300.7305,249.2093,295.1088,246.72,304.6379" style="stroke:#181818;stroke-width:1;"/><text fill="#000000" font-family="sans-serif" font-size="13" lengthAdjust="spacing" textLength="96.6421" x="298.97" y="270.9649">CheckDustLevel</text></g><!--link Not_studying to studying--><g class="link" data-entity-1="ent0002" data-entity-2="ent0009" data-link-type="dependency" data-source-line="18" id="lnk11"><path d="M435.48,97.4879 C425.64,105.5779 416.4,115.5179 410.97,127.0679 C402.59,144.9479 410.7901,158.47 426.4701,171.81" fill="none" id="Not_studying-to-studying" style="stroke:#181818;stroke-width:1;"/><polygon fill="#181818" points="431.04,175.6979,426.7771,166.8194,427.2317,172.458,421.5932,172.9126,431.04,175.6979" style="stroke:#181818;stroke-width:1;"/><text fill="#000000" font-family="sans-serif" font-size="13" lengthAdjust="spacing" textLength="82.1471" x="411.97" y="141.9649">startStudying</text></g><!--link studying to Not_studying--><g class="link" data-entity-1="ent0009" data-entity-2="ent0002" data-link-type="dependency" data-source-line="19" id="lnk12"><path d="M485.98,175.6479 C491.22,166.7479 496.31,156.3479 498.97,146.0679 C503.21,129.7279 500.1723,117.049 493.4223,102.959" fill="none" id="studying-to-Not_studying" style="stroke:#181818;stroke-width:1;"/><polygon fill="#181818" points="490.83,97.5479,491.111,107.3928,492.9902,102.0572,498.3258,103.9364,490.83,97.5479" style="stroke:#181818;stroke-width:1;"/><text fill="#000000" font-family="sans-serif" font-size="13" lengthAdjust="spacing" textLength="80.6521" x="501.44" y="141.9649">stopStudying</text></g><?plantuml-src PP4n3u8m48LtVaLd4nP71XSS7107t8mn3LoW0LhINZNuwyM6WrAstkjtxRjtAB03LY17O5TUDa92CfMs0ecHSNAky6KcPHIodgLMgez9RySCtj3vsjaQt8aNsujAuEXhcQYRFPahOM2dtg4VG7Eq6cPviHCz3ayMnoTdabjib1PVg282t5tmD4jOsa3PRZuByTKVuHl78KvP4Enb4wBUD4Hl1mmRA3wYlJX3T8cVs7KV_XPTmr8aqv5hBDOLUzIcxK-gWS0V?></g></svg>