<?plantuml 1.2026.1?><svg xmlns="http://www.w3.org/2000/svg" xmlns:xlink="http://www.w3.org/1999/xlink" contentStyleType="text/css" data-diagram-type="STATE" height="192px" preserveAspectRatio="none" style="width:1116px;height:192px;background:#FFFFFF;" version="1.1" viewBox="0 0 1116 192" width="1116px" zoomAndPan="magnify"><defs/><g><ellipse cx="60.71" cy="32" fill="#222222" rx="10" ry="10" style="stroke:#222222;stroke-width:1;"/><g><rect fill="#F1F1F1" height="50" rx="12.5" ry="12.5" style="stroke:#181818;stroke-width:0.5;" width="107.4157" x="7" y="136"/><line style="stroke:#181818;stroke-width:0.5;" x1="7" x2="114.4157" y1="165.0679" y2="165.0679"/><text fill="#000000" font-family="sans-serif" font-size="14" lengthAdjust="spacing" textLength="87.4157" x="17" y="155.9659">Not_studying</text></g><g><rect fill="#F1F1F1" height="50" rx="12.5" ry="12.5" style="stroke:#181818;stroke-width:0.5;" width="77.0358" x="590.19" y="7"/><line style="stroke:#181818;stroke-width:0.5;" x1="590.19" x2="667.2258" y1="36.0679" y2="36.0679"/><text fill="#000000" font-family="sans-serif" font-size="14" lengthAdjust="spacing" textLength="57.0358" x="600.19" y="26.9659">studying</text></g><g><rect fill="#F1F1F1" height="50" rx="12.5" ry="12.5" style="stroke:#181818;stroke-width:0.5;" width="133.4835" x="148.97" y="136"/><line style="stroke:#181818;stroke-width:0.5;" x1="148.97" x2="282.4535" y1="165.0679" y2="165.0679"/><text fill="#000000" font-family="sans-serif" font-size="14" lengthAdjust="spacing" textLength="113.4835" x="158.97" y="155.9659">knowsNoiseLevel</text></g><g><rect fill="#F1F1F1" height="50" rx="12.5" ry="12.5" style="stroke:#181818;stroke-width:0.5;" width="129.4236" x="317" y="136"/><line style="stroke:#181818;stroke-width:0.5;" x1="317" x2="446.4236" y1="165.0679" y2="165.0679"/><text fill="#000000" font-family="sans-serif" font-size="14" lengthAdjust="spacing" textLength="109.4236" x="327" y="155.9659">knowsLightLevel</text></g><g><rect fill="#F1F1F1" height="50" rx="12.5" ry="12.5" style="stroke:#181818;stroke-width:0.5;" width="123.9496" x="481.73" y="136"/><line style="stroke:#181818;stroke-width:0.5;" x1="481.73" x2="605.6796" y1="165.0679" y2="165.0679"/><text fill="#000000" font-family="sans-serif" font-size="14" lengthAdjust="spacing" textLength="103.9496" x="491.73" y="155.9659">knowsCO2Level</text></g><g><rect fill="#F1F1F1" height="50" rx="12.5" ry="12.5" style="stroke:#181818;stroke-width:0.5;" width="148.6035" x="640.41" y="136"/><line style="stroke:#181818;stroke-width:0.5;" x1="640.41" x2="789.0135" y1="165.0679" y2="165.0679"/><text fill="#000000" font-family="sans-serif" font-size="14" lengthAdjust="spacing" textLength="128.6035" x="650.41" y="155.9659">knowsTemperature</text></g><g><rect fill="#F1F1F1" height="50" rx="12.5" ry="12.5" style="stroke:#181818;stroke-width:0.5;" width="122.4516" x="824.48" y="136"/><line style="stroke:#181818;stroke-width:0.5;" x1="824.48" x2="946.9316" y1="165.0679" y2="165.0679"/><text fill="#000000" font-family="sans-serif" font-size="14" lengthAdjust="spacing" textLength="102.4516" x="834.48" y="155.9659">knowsHumidity</text></g><g><rect fill="#F1F1F1" height="50" rx="12.5" ry="12.5" style="stroke:#181818;stroke-width:0.5;" width="126.7916" x="982.31" y="136"/><line style="stroke:#181818;stroke-width:0.5;" x1="982.31" x2="1109.1016" y1="165.0679" y2="165.0679"/><text fill="#000000" font-family="sans-serif" font-size="14" lengthAdjust="spacing" textLength="106.7916" x="992.31" y="155.9659">knowsDustLevel</text></g><!--link *start* to Not_studying--><g class="link" data-entity-1="ent0002" data-entity-2="ent0003" data-link-type="dependency" data-source-line="2" id="lnk4"><path d="M60.71,42.13 C60.71,61.47 60.71,101.1 60.71,129.58" fill="none" id="*start*-to-Not_studying" style="stroke:#181818;stroke-width:1;"/><polygon fill="#181818" points="60.71,135.58,64.71,126.58,60.71,130.58,56.71,126.58,60.71,135.58" style="stroke:#181818;stroke-width:1;"/></g><!--link studying to knowsNoiseLevel--><g class="link" data-entity-1="ent0005" data-entity-2="ent0006" data-link-type="dependency" data-source-line="3" id="lnk7"><path d="M589.98,34.3 C529.75,37.49 411,48.57 318.71,87 C290.58,98.71 267.2487,115.3902 247.5787,131.7002" fill="none" id="studying-to-knowsNoiseLevel" style="stroke:#181818;stroke-width:1;"/><polygon fill="#181818" points="242.96,135.53,252.4413,132.8645,246.809,132.3385,247.3349,126.7062,242.96,135.53" style="stroke:#181818;stroke-width:1;"/><text fill="#000000" font-family="sans-serif" font-size="13" lengthAdjust="spacing" textLength="102.8561" x="319.71" y="101.897">CheckNoiseLevel</text></g><!--link studying to knowsLightLevel--><g class="link" data-entity-1="ent0005" data-entity-2="ent0008" data-link-type="dependency" data-source-line="4" id="lnk9"><path d="M589.75,39.65 C553.18,47.12 497.93,61.66 455.71,87 C434.51,99.72 418.7401,115.2063 405.0001,131.0563" fill="none" id="studying-to-knowsLightLevel" style="stroke:#181818;stroke-width:1;"/><polygon fill="#181818" points="401.07,135.59,409.9876,131.4096,404.3451,131.8119,403.9427,126.1694,401.07,135.59" style="stroke:#181818;stroke-width:1;"/><text fill="#000000" font-family="sans-serif" font-size="13" lengthAdjust="spacing" textLength="99.0861" x="456.71" y="101.897">CheckLightLevel</text></g><!--link studying to knowsCO2Level--><g class="link" data-entity-1="ent0005" data-entity-2="ent0010" data-link-type="dependency" data-source-line="5" id="lnk11"><path d="M601.03,57.4 C592.18,66.14 582.85,76.44 575.71,87 C565.55,102.02 559.5176,115.1623 553.9876,129.9023" fill="none" id="studying-to-knowsCO2Level" style="stroke:#181818;stroke-width:1;"/><polygon fill="#181818" points="551.88,135.52,558.7865,128.4986,553.6363,130.8386,551.2963,125.6885,551.88,135.52" style="stroke:#181818;stroke-width:1;"/><text fill="#000000" font-family="sans-serif" font-size="13" lengthAdjust="spacing" textLength="94.0031" x="576.71" y="101.897">CheckCO2Level</text></g><!--link studying to knowsTemperature--><g class="link" data-entity-1="ent0005" data-entity-2="ent0012" data-link-type="dependency" data-source-line="6" id="lnk13"><path d="M651.94,57.32 C659.94,66.29 668.65,76.77 675.71,87 C686.31,102.38 693.5493,115.5873 700.7193,130.1473" fill="none" id="studying-to-knowsTemperature" style="stroke:#181818;stroke-width:1;"/><polygon fill="#181818" points="703.37,135.53,702.9824,125.6888,701.1611,131.0444,695.8055,129.223,703.37,135.53" style="stroke:#181818;stroke-width:1;"/><text fill="#000000" font-family="sans-serif" font-size="13" lengthAdjust="spacing" textLength="116.8961" x="687.62" y="101.897">CheckTemperature</text></g><!--link studying to knowsHumidity--><g class="link" data-entity-1="ent0005" data-entity-2="ent0014" data-link-type="dependency" data-source-line="7" id="lnk15"><path d="M667.6,38.62 C706.47,45.52 766.9,59.82 812.71,87 C833.98,99.62 849.6534,115.2704 863.1634,131.2304" fill="none" id="studying-to-knowsHumidity" style="stroke:#181818;stroke-width:1;"/><polygon fill="#181818" points="867.04,135.81,864.2782,126.3563,863.8095,131.9937,858.1721,131.525,867.04,135.81" style="stroke:#181818;stroke-width:1;"/><text fill="#000000" font-family="sans-serif" font-size="13" lengthAdjust="spacing" textLength="92.6121" x="838.6" y="101.897">CheckHumidity</text></g><!--link studying to knowsDustLevel--><g class="link" data-entity-1="ent0005" data-entity-2="ent0016" data-link-type="dependency" data-source-line="8" id="lnk17"><path d="M667.5,34.42 C727.83,37.79 846.86,49.1 939.71,87 C968.46,98.74 992.5615,115.4934 1012.8615,131.7934" fill="none" id="studying-to-knowsDustLevel" style="stroke:#181818;stroke-width:1;"/><polygon fill="#181818" points="1017.54,135.55,1013.0267,126.7961,1013.6413,132.4195,1008.0179,133.0341,1017.54,135.55" style="stroke:#181818;stroke-width:1;"/><text fill="#000000" font-family="sans-serif" font-size="13" lengthAdjust="spacing" textLength="96.6421" x="975.11" y="101.897">CheckDustLevel</text></g><?plantuml-src KrS8BaaiILNmJKpEoCnBLKZBBmAAbAQavfLmHMl5AkZgsYduvPV45mF5AZFpqhbW3B1CTbv-UR5VVcPngazgMMgEWfM2SqPgSZP218jodypqZ18KvGWHBCgT_OrG5CFuM9I6fEOMf1ObbfGMfS9K8mbXqU1HcfkPabbI2LCDusDHwb9QZEfek000?></g></svg>