<?plantuml 1.2026.1?><svg xmlns="http://www.w3.org/2000/svg" xmlns:xlink="http://www.w3.org/1999/xlink" contentStyleType="text/css" data-diagram-type="STATE" height="312px" preserveAspectRatio="none" style="width:195px;height:312px;background:#FFFFFF;" version="1.1" viewBox="0 0 195 312" width="195px" zoomAndPan="magnify"><title>State Machine: Student</title><defs/><g><g class="title" data-source-line="1"><text fill="#000000" font-family="sans-serif" font-size="14" font-weight="bold" lengthAdjust="spacing" textLength="162.6514" x="10" y="24.9659">State Machine: Student</text></g><g><rect fill="#F1F1F1" height="50" rx="12.5" ry="12.5" style="stroke:#181818;stroke-width:0.5;" width="107.4157" x="27.9346" y="127.0679"/><line style="stroke:#181818;stroke-width:0.5;" x1="27.9346" x2="135.3503" y1="156.1358" y2="156.1358"/><text fill="#000000" font-family="sans-serif" font-size="14" lengthAdjust="spacing" textLength="87.4157" x="37.9346" y="147.0339">Not_studying</text></g><g><rect fill="#F1F1F1" height="50" rx="12.5" ry="12.5" style="stroke:#181818;stroke-width:0.5;" width="77.0358" x="43.1246" y="256.0679"/><line style="stroke:#181818;stroke-width:0.5;" x1="43.1246" x2="120.1604" y1="285.1358" y2="285.1358"/><text fill="#000000" font-family="sans-serif" font-size="14" lengthAdjust="spacing" textLength="57.0358" x="53.1246" y="276.0339">studying</text></g><ellipse cx="81.6446" cy="56.0679" fill="#222222" rx="10" ry="10" style="stroke:#222222;stroke-width:1;"/><!--link *start* to Not_studying--><g class="link" data-entity-1="ent0002" data-entity-2="ent0002" data-link-type="dependency" data-source-line="5" id="lnk3"><path d="M81.6446,66.4279 C81.6446,80.3579 81.6446,101.0179 81.6446,120.7179" fill="none" id="*start*-to-Not_studying" style="stroke:#181818;stroke-width:1;"/><polygon fill="#181818" points="81.6446,126.7179,85.6446,117.7179,81.6446,121.7179,77.6446,117.7179,81.6446,126.7179" style="stroke:#181818;stroke-width:1;"/></g><!--link Not_studying to studying--><g class="link" data-entity-1="ent0002" data-entity-2="ent0003" data-link-type="dependency" data-source-line="6" id="lnk4"><path d="M41.1546,177.4879 C31.3146,185.5779 22.0746,195.5179 16.6446,207.0679 C7.3446,226.8879 19.0391,241.7849 37.7791,255.1449" fill="none" id="Not_studying-to-studying" style="stroke:#181818;stroke-width:1;"/><polygon fill="#181818" points="42.6646,258.6279,37.6583,250.1464,38.5933,255.7254,33.0143,256.6605,42.6646,258.6279" style="stroke:#181818;stroke-width:1;"/><text fill="#000000" font-family="sans-serif" font-size="13" lengthAdjust="spacing" textLength="82.1471" x="17.6446" y="221.9649">startStudying</text></g><!--link studying to Not_studying--><g class="link" data-entity-1="ent0003" data-entity-2="ent0002" data-link-type="dependency" data-source-line="7" id="lnk5"><path d="M94.4646,255.7379 C98.5746,246.6879 102.5846,236.1479 104.6446,226.0679 C108.0246,209.5379 104.9149,196.8783 98.3849,182.8383" fill="none" id="studying-to-Not_studying" style="stroke:#181818;stroke-width:1;"/><polygon fill="#181818" points="95.8546,177.3979,96.0232,187.2453,97.9632,181.9316,103.277,183.8716,95.8546,177.3979" style="stroke:#181818;stroke-width:1;"/><text fill="#000000" font-family="sans-serif" font-size="13" lengthAdjust="spacing" textLength="80.6521" x="106.6546" y="221.9649">stopStudying</text></g><?plantuml-src AyaioKbL22v9B4bLy4rCpiZCIxK2SajJKlDAk8h1mdxv9V75G97ApBnqg12SonMj5QkWgsk7gWYP0vQ5Swo0pCIYac24SKYgKBI1LEONm1G20000?></g></svg>