<?plantuml 1.2026.1?><svg xmlns="http://www.w3.org/2000/svg" xmlns:xlink="http://www.w3.org/1999/xlink" contentStyleType="text/css" data-diagram-type="SEQUENCE" height="324px" preserveAspectRatio="none" style="width:394px;height:324px;background:#FFFFFF;" version="1.1" viewBox="0 0 394 324" width="394px" zoomAndPan="magnify"><title>Sequence Diagram: ReceiveEnvironmentNotification</title><defs/><g><text fill="#000000" font-family="sans-serif" font-size="14" font-weight="bold" lengthAdjust="spacing" textLength="366.0286" x="10" y="29.9659">Sequence Diagram: ReceiveEnvironmentNotification</text><rect fill="none" height="51.412" style="stroke:#000000;stroke-width:1.5;" width="231.135" x="77.9468" y="172.8419"/><g class="participant-lifeline" data-entity-uid="part1" data-qualified-name="Actor" id="part1-lifeline"><g><title>Student</title><rect fill="#000000" fill-opacity="0.00000" height="117.118" width="8" x="112.7487" y="124.1358"/><line style="stroke:#181818;stroke-width:0.5;stroke-dasharray:5,5;" x1="115.9468" x2="115.9468" y1="124.1358" y2="241.2539"/></g></g><g class="participant-lifeline" data-entity-uid="part2" data-qualified-name="System" id="part2-lifeline"><g><title>system</title><rect fill="#000000" fill-opacity="0.00000" height="117.118" width="8" x="264.7858" y="124.1358"/><line style="stroke:#181818;stroke-width:0.5;stroke-dasharray:5,5;" x1="268.4899" x2="268.4899" y1="124.1358" y2="241.2539"/></g></g><g class="participant participant-head" data-entity-uid="part1" data-qualified-name="Actor" id="part1-head"><text fill="#000000" font-family="sans-serif" font-size="14" lengthAdjust="spacing" textLength="51.6038" x="87.9468" y="120.0339">Student</text><ellipse cx="116.7487" cy="53.5679" fill="#E2E2F0" rx="8" ry="8" style="stroke:#181818;stroke-width:0.5;"/><path d="M116.7487,61.5679 L116.7487,88.5679 M103.7487,69.5679 L129.7487,69.5679 M116.7487,88.5679 L103.7487,103.5679 M116.7487,88.5679 L129.7487,103.5679" fill="none" style="stroke:#181818;stroke-width:0.5;"/></g><g class="participant participant-tail" data-entity-uid="part1" data-qualified-name="Actor" id="part1-tail"><text fill="#000000" font-family="sans-serif" font-size="14" lengthAdjust="spacing" textLength="51.6038" x="87.9468" y="255.2198">Student</text><ellipse cx="116.7487" cy="267.8218" fill="#E2E2F0" rx="8" ry="8" style="stroke:#181818;stroke-width:0.5;"/><path d="M116.7487,275.8218 L116.7487,302.8218 M103.7487,283.8218 L129.7487,283.8218 M116.7487,302.8218 L103.7487,317.8218 M116.7487,302.8218 L129.7487,317.8218" fill="none" style="stroke:#181818;stroke-width:0.5;"/></g><g class="participant participant-head" data-entity-uid="part2" data-qualified-name="System" id="part2-head"><rect fill="#E2E2F0" height="33.0679" rx="2.5" ry="2.5" style="stroke:#181818;stroke-width:0.5;" width="60.5918" x="238.4899" y="90.0679"/><text fill="#000000" font-family="sans-serif" font-size="14" lengthAdjust="spacing" textLength="46.5918" x="245.4899" y="112.0339">system</text></g><g class="participant participant-tail" data-entity-uid="part2" data-qualified-name="System" id="part2-tail"><rect fill="#E2E2F0" height="33.0679" rx="2.5" ry="2.5" style="stroke:#181818;stroke-width:0.5;" width="60.5918" x="238.4899" y="240.2539"/><text fill="#000000" font-family="sans-serif" font-size="14" lengthAdjust="spacing" textLength="46.5918" x="245.4899" y="262.2198">system</text></g><g class="message" data-entity-1="part1" data-entity-2="part2" id="msg1"><polygon fill="#181818" points="256.7858,153.8419,266.7858,157.8419,256.7858,161.8419,260.7858,157.8419" style="stroke:#181818;stroke-width:1;"/><line style="stroke:#181818;stroke-width:1;" x1="116.7487" x2="262.7858" y1="157.8419" y2="157.8419"/><text fill="#000000" font-family="sans-serif" font-size="13" lengthAdjust="spacing" textLength="128.0371" x="123.7487" y="152.0328">monitorEnvironment</text></g><path d="M77.9468,172.8419 L140.2498,172.8419 L140.2498,182.5479 L130.2498,192.5479 L77.9468,192.5479 L77.9468,172.8419" fill="#EEEEEE" style="stroke:#000000;stroke-width:1.5;"/><rect fill="none" height="51.412" style="stroke:#000000;stroke-width:1.5;" width="231.135" x="77.9468" y="172.8419"/><text fill="#000000" font-family="sans-serif" font-size="13" font-weight="bold" lengthAdjust="spacing" textLength="17.303" x="92.9468" y="187.7389">alt</text><text fill="#000000" font-family="sans-serif" font-size="11" font-weight="bold" lengthAdjust="spacing" textLength="138.28" x="155.2498" y="186.6008">[Parameters not optimal]</text><g class="message" data-entity-1="part2" data-entity-2="part1" id="msg2"><polygon fill="#181818" points="127.7487,212.2539,117.7487,216.2539,127.7487,220.2539,123.7487,216.2539" style="stroke:#181818;stroke-width:1;"/><line style="stroke:#181818;stroke-width:1;" x1="121.7487" x2="267.7858" y1="216.2539" y2="216.2539"/><text fill="#000000" font-family="sans-serif" font-size="13" lengthAdjust="spacing" textLength="100.6851" x="133.7487" y="210.4449">sendNotification</text></g><?plantuml-src LOwn3i8m34JtVCMfEp_G0Ga9LeJe5rYfGPOQfoHN9FwUK3h0Ph-pxux6IJ7eOr6FYgF9lKZgSTMezjIJFwraJ-eyPzhDej2o1udC1Tt0PMnI1wauV52OfT2YpU94Lr-LcbPrMCSGrYlizXj0ZvJT6lj92Z8H5sazb5egF1DvfYMPmlRM3BvEFQhw-DUjxMy0?></g></svg>