<?plantuml 1.2026.1?><svg xmlns="http://www.w3.org/2000/svg" xmlns:xlink="http://www.w3.org/1999/xlink" contentStyleType="text/css" data-diagram-type="SEQUENCE" height="324px" preserveAspectRatio="none" style="width:448px;height:324px;background:#FFFFFF;" version="1.1" viewBox="0 0 448 324" width="448px" zoomAndPan="magnify"><title>System Sequence Diagram: ReceiveEnvironmentNotification</title><defs/><g><text fill="#000000" font-family="sans-serif" font-size="14" font-weight="bold" lengthAdjust="spacing" textLength="420.4883" x="10" y="29.9659">System Sequence Diagram: ReceiveEnvironmentNotification</text><rect fill="none" height="51.412" style="stroke:#000000;stroke-width:1.5;" width="231.135" x="105.1767" y="172.8419"/><g class="participant-lifeline" data-entity-uid="part1" data-qualified-name="Actor" id="part1-lifeline"><g><title>Student</title><rect fill="#000000" fill-opacity="0.00000" height="117.118" width="8" x="139.9786" y="124.1358"/><line style="stroke:#181818;stroke-width:0.5;stroke-dasharray:5,5;" x1="143.1767" x2="143.1767" y1="124.1358" y2="241.2539"/></g></g><g class="participant-lifeline" data-entity-uid="part2" data-qualified-name="System" id="part2-lifeline"><g><title>system</title><rect fill="#000000" fill-opacity="0.00000" height="117.118" width="8" x="292.0157" y="124.1358"/><line style="stroke:#181818;stroke-width:0.5;stroke-dasharray:5,5;" x1="295.7198" x2="295.7198" y1="124.1358" y2="241.2539"/></g></g><g class="participant participant-head" data-entity-uid="part1" data-qualified-name="Actor" id="part1-head"><text fill="#000000" font-family="sans-serif" font-size="14" lengthAdjust="spacing" textLength="51.6038" x="115.1767" y="120.0339">Student</text><ellipse cx="143.9786" cy="53.5679" fill="#E2E2F0" rx="8" ry="8" style="stroke:#181818;stroke-width:0.5;"/><path d="M143.9786,61.5679 L143.9786,88.5679 M130.9786,69.5679 L156.9786,69.5679 M143.9786,88.5679 L130.9786,103.5679 M143.9786,88.5679 L156.9786,103.5679" fill="none" style="stroke:#181818;stroke-width:0.5;"/></g><g class="participant participant-tail" data-entity-uid="part1" data-qualified-name="Actor" id="part1-tail"><text fill="#000000" font-family="sans-serif" font-size="14" lengthAdjust="spacing" textLength="51.6038" x="115.1767" y="255.2198">Student</text><ellipse cx="143.9786" cy="267.8218" fill="#E2E2F0" rx="8" ry="8" style="stroke:#181818;stroke-width:0.5;"/><path d="M143.9786,275.8218 L143.9786,302.8218 M130.9786,283.8218 L156.9786,283.8218 M143.9786,302.8218 L130.9786,317.8218 M143.9786,302.8218 L156.9786,317.8218" fill="none" style="stroke:#181818;stroke-width:0.5;"/></g><g class="participant participant-head" data-entity-uid="part2" data-qualified-name="System" id="part2-head"><rect fill="#E2E2F0" height="33.0679" rx="2.5" ry="2.5" style="stroke:#181818;stroke-width:0.5;" width="60.5918" x="265.7198" y="90.0679"/><text fill="#000000" font-family="sans-serif" font-size="14" lengthAdjust="spacing" textLength="46.5918" x="272.7198" y="112.0339">system</text></g><g class="participant participant-tail" data-entity-uid="part2" data-qualified-name="System" id="part2-tail"><rect fill="#E2E2F0" height="33.0679" rx="2.5" ry="2.5" style="stroke:#181818;stroke-width:0.5;" width="60.5918" x="265.7198" y="240.2539"/><text fill="#000000" font-family="sans-serif" font-size="14" lengthAdjust="spacing" textLength="46.5918" x="272.7198" y="262.2198">system</text></g><g class="message" data-entity-1="part1" data-entity-2="part2" id="msg1"><polygon fill="#181818" points="284.0157,153.8419,294.0157,157.8419,284.0157,161.8419,288.0157,157.8419" style="stroke:#181818;stroke-width:1;"/><line style="stroke:#181818;stroke-width:1;" x1="143.9786" x2="290.0157" y1="157.8419" y2="157.8419"/><text fill="#000000" font-family="sans-serif" font-size="13" lengthAdjust="spacing" textLength="128.0371" x="150.9786" y="152.0328">monitorEnvironment</text></g><path d="M105.1767,172.8419 L167.4797,172.8419 L167.4797,182.5479 L157.4797,192.5479 L105.1767,192.5479 L105.1767,172.8419" fill="#EEEEEE" style="stroke:#000000;stroke-width:1.5;"/><rect fill="none" height="51.412" style="stroke:#000000;stroke-width:1.5;" width="231.135" x="105.1767" y="172.8419"/><text fill="#000000" font-family="sans-serif" font-size="13" font-weight="bold" lengthAdjust="spacing" textLength="17.303" x="120.1767" y="187.7389">alt</text><text fill="#000000" font-family="sans-serif" font-size="11" font-weight="bold" lengthAdjust="spacing" textLength="138.28" x="182.4797" y="186.6008">[Parameters not optimal]</text><g class="message" data-entity-1="part2" data-entity-2="part1" id="msg2"><polygon fill="#181818" points="154.9786,212.2539,144.9786,216.2539,154.9786,220.2539,150.9786,216.2539" style="stroke:#181818;stroke-width:1;"/><line style="stroke:#181818;stroke-width:1;" x1="148.9786" x2="295.0157" y1="216.2539" y2="216.2539"/><text fill="#000000" font-family="sans-serif" font-size="13" lengthAdjust="spacing" textLength="100.6851" x="160.9786" y="210.4449">sendNotification</text></g><?plantuml-src LOx12i9034Jl-nMXTt-W1q7GguZzWh2D4kWcTNTQyEzTjmfwpCpapK0n2GtF0aaqo6CHYq97vNlcrDDLekWg9rirkoKnd1rwqyXGjy0HdgaRi8pLweWB7TvIc3b3eyvieAuqUdEteX1QYdRxRtDFoKshzjCKU09TkEuGI2va3l8PcdWAdxSAs4Wz5R7nRrkzNm00?></g></svg>