<?plantuml 1.2026.2?><svg xmlns="http://www.w3.org/2000/svg" xmlns:xlink="http://www.w3.org/1999/xlink" contentStyleType="text/css" data-diagram-type="CLASS" height="623px" preserveAspectRatio="none" style="width:230px;height:623px;background:#FFFFFF;" version="1.1" viewBox="0 0 230 623" width="230px" zoomAndPan="magnify"><title>StudyHelper Database Model</title><defs/><g><g class="title" data-source-line="1"><text fill="#000000" font-family="Arial" font-size="14" font-weight="bold" lengthAdjust="spacing" textLength="202.7612" x="10" y="24.9659">StudyHelper Database Model</text></g><!--class devices--><g class="entity" data-qualified-name="devices" data-source-line="6" id="ent0002"><rect fill="#F1F1F1" height="67.0679" rx="2.5" ry="2.5" style="stroke:#181818;stroke-width:0.5;" width="184.3673" x="26.2" y="47.0679"/><ellipse cx="89.8577" cy="63.0679" fill="#ADD1B2" rx="11" ry="11" style="stroke:#181818;stroke-width:1;"/><path d="M89.3265,69.9898 Q87.5765,69.9898 86.4358,69.2554 Q85.3108,68.5054 84.7483,67.1617 Q84.2015,65.8023 84.2015,64.0054 Q84.2015,61.9742 84.8577,60.521 Q85.514,59.0679 86.7952,58.2867 Q88.0765,57.5054 89.9515,57.5054 Q90.8421,57.5054 91.514,57.6929 Q92.1858,57.8648 92.8733,58.2085 L92.0608,60.2242 Q91.4358,59.9117 90.889,59.7867 Q90.3577,59.6617 89.8733,59.6617 Q88.7015,59.6617 87.9983,60.1929 Q87.2952,60.7242 86.9983,61.6773 Q86.7015,62.6304 86.7015,63.896 Q86.7015,65.9117 87.4202,66.8804 Q88.139,67.8335 89.7327,67.8335 Q90.3265,67.8335 90.9515,67.6773 Q91.5765,67.521 92.4046,67.146 L92.4046,69.3648 Q91.6702,69.6773 90.8733,69.8335 Q90.0921,69.9898 89.3265,69.9898 Z " fill="#000000"/><text fill="#000000" font-family="Arial" font-size="14" lengthAdjust="spacing" textLength="48.5518" x="110.3577" y="68.4999">devices</text><line style="stroke:#181818;stroke-width:0.5;" x1="27.2" x2="209.5673" y1="79.0679" y2="79.0679"/><text fill="#000000" font-family="Arial" font-size="14" lengthAdjust="spacing" textLength="172.3673" x="32.2" y="98.0339">+public_key : varchar &#171;PK&#187;</text><line style="stroke:#181818;stroke-width:0.5;" x1="27.2" x2="209.5673" y1="106.1358" y2="106.1358"/></g><!--class sessions--><g class="entity" data-qualified-name="sessions" data-source-line="10" id="ent0003"><rect fill="#F1F1F1" height="162.4075" rx="2.5" ry="2.5" style="stroke:#181818;stroke-width:0.5;" width="197.6813" x="19.54" y="193.1379"/><ellipse cx="86.4037" cy="209.1379" fill="#ADD1B2" rx="11" ry="11" style="stroke:#181818;stroke-width:1;"/><path d="M85.8725,216.0598 Q84.1225,216.0598 82.9818,215.3254 Q81.8568,214.5754 81.2943,213.2317 Q80.7475,211.8723 80.7475,210.0754 Q80.7475,208.0442 81.4037,206.591 Q82.06,205.1379 83.3412,204.3567 Q84.6225,203.5754 86.4975,203.5754 Q87.3881,203.5754 88.06,203.7629 Q88.7318,203.9348 89.4193,204.2785 L88.6068,206.2942 Q87.9818,205.9817 87.435,205.8567 Q86.9037,205.7317 86.4193,205.7317 Q85.2475,205.7317 84.5443,206.2629 Q83.8412,206.7942 83.5443,207.7473 Q83.2475,208.7004 83.2475,209.966 Q83.2475,211.9817 83.9662,212.9504 Q84.685,213.9035 86.2787,213.9035 Q86.8725,213.9035 87.4975,213.7473 Q88.1225,213.591 88.9506,213.216 L88.9506,215.4348 Q88.2162,215.7473 87.4193,215.9035 Q86.6381,216.0598 85.8725,216.0598 Z " fill="#000000"/><text fill="#000000" font-family="Arial" font-size="14" lengthAdjust="spacing" textLength="55.4538" x="106.9037" y="214.5699">sessions</text><line style="stroke:#181818;stroke-width:0.5;" x1="20.54" x2="216.2213" y1="225.1379" y2="225.1379"/><text fill="#000000" font-family="Arial" font-size="14" lengthAdjust="spacing" textLength="104.4396" x="25.54" y="244.1039">+id : bigint &#171;PK&#187;</text><text fill="#000000" font-family="Arial" font-size="14" lengthAdjust="spacing" textLength="162.9034" x="25.54" y="263.1718">+device_id : varchar &#171;FK&#187;</text><text fill="#000000" font-family="Arial" font-size="14" lengthAdjust="spacing" textLength="167.7194" x="25.54" y="282.2397">+started_at : timestamptz</text><text fill="#000000" font-family="Arial" font-size="14" lengthAdjust="spacing" textLength="162.4274" x="25.54" y="301.3076">+ended_at : timestamptz</text><text fill="#000000" font-family="Arial" font-size="14" lengthAdjust="spacing" textLength="185.6813" x="25.54" y="320.3755">+last_pulse_at : timestamptz</text><text fill="#000000" font-family="Arial" font-size="14" lengthAdjust="spacing" textLength="123.2695" x="25.54" y="339.4434">+study_quality : int</text><line style="stroke:#181818;stroke-width:0.5;" x1="20.54" x2="216.2213" y1="347.5454" y2="347.5454"/></g><!--class data--><g class="entity" data-qualified-name="data" data-source-line="19" id="ent0004"><rect fill="#F1F1F1" height="181.4754" rx="2.5" ry="2.5" style="stroke:#181818;stroke-width:0.5;" width="170.1994" x="33.28" y="434.5379"/><ellipse cx="99.4437" cy="450.5379" fill="#ADD1B2" rx="11" ry="11" style="stroke:#181818;stroke-width:1;"/><path d="M98.9125,457.4598 Q97.1625,457.4598 96.0218,456.7254 Q94.8968,455.9754 94.3343,454.6317 Q93.7875,453.2723 93.7875,451.4754 Q93.7875,449.4442 94.4437,447.991 Q95.1,446.5379 96.3812,445.7567 Q97.6625,444.9754 99.5375,444.9754 Q100.4281,444.9754 101.1,445.1629 Q101.7718,445.3348 102.4593,445.6785 L101.6468,447.6942 Q101.0218,447.3817 100.475,447.2567 Q99.9437,447.1317 99.4593,447.1317 Q98.2875,447.1317 97.5843,447.6629 Q96.8812,448.1942 96.5843,449.1473 Q96.2875,450.1004 96.2875,451.366 Q96.2875,453.3817 97.0062,454.3504 Q97.725,455.3035 99.3187,455.3035 Q99.9125,455.3035 100.5375,455.1473 Q101.1625,454.991 101.9906,454.616 L101.9906,456.8348 Q101.2562,457.1473 100.4593,457.3035 Q99.6781,457.4598 98.9125,457.4598 Z " fill="#000000"/><text fill="#000000" font-family="Arial" font-size="14" lengthAdjust="spacing" textLength="29.3719" x="119.9437" y="455.9699">data</text><line style="stroke:#181818;stroke-width:0.5;" x1="34.28" x2="202.4794" y1="466.5379" y2="466.5379"/><text fill="#000000" font-family="Arial" font-size="14" lengthAdjust="spacing" textLength="104.4396" x="39.28" y="485.5039">+id : bigint &#171;PK&#187;</text><text fill="#000000" font-family="Arial" font-size="14" lengthAdjust="spacing" textLength="158.1994" x="39.28" y="504.5718">+session_id : bigint &#171;FK&#187;</text><text fill="#000000" font-family="Arial" font-size="14" lengthAdjust="spacing" textLength="132.4115" x="39.28" y="523.6397">+temperature : float</text><text fill="#000000" font-family="Arial" font-size="14" lengthAdjust="spacing" textLength="107.2676" x="39.28" y="542.7076">+humidity : float</text><text fill="#000000" font-family="Arial" font-size="14" lengthAdjust="spacing" textLength="108.3876" x="39.28" y="561.7755">+co2_level : float</text><text fill="#000000" font-family="Arial" font-size="14" lengthAdjust="spacing" textLength="114.7295" x="39.28" y="580.8434">+light_level : float</text><text fill="#000000" font-family="Arial" font-size="14" lengthAdjust="spacing" textLength="149.0714" x="39.28" y="599.9114">+sent_at : timestamptz</text><line style="stroke:#181818;stroke-width:0.5;" x1="34.28" x2="202.4794" y1="608.0133" y2="608.0133"/></g><!--link devices to sessions--><g class="link" data-entity-1="ent0002" data-entity-2="ent0003" data-link-type="association" data-source-line="29" id="lnk5"><path codeLine="29" d="M118.38,114.5579 C118.38,136.1879 118.38,165.4679 118.38,192.9879" fill="none" id="devices-sessions" style="stroke:#181818;stroke-width:1;"/><text fill="#000000" font-family="Arial" font-size="13" lengthAdjust="spacing" textLength="32.344" x="119.38" y="159.0349">owns</text><text fill="#000000" font-family="Arial" font-size="13" lengthAdjust="spacing" textLength="7.436" x="110.7947" y="136.0803">1</text><text fill="#000000" font-family="Arial" font-size="13" lengthAdjust="spacing" textLength="21.567" x="96.4061" y="181.3544">0..*</text></g><!--link sessions to data--><g class="link" data-entity-1="ent0003" data-entity-2="ent0004" data-link-type="association" data-source-line="30" id="lnk6"><path codeLine="30" d="M118.38,355.8179 C118.38,380.8179 118.38,408.5379 118.38,434.1579" fill="none" id="sessions-data" style="stroke:#181818;stroke-width:1;"/><text fill="#000000" font-family="Arial" font-size="13" lengthAdjust="spacing" textLength="51.7401" x="119.38" y="400.4349">contains</text><text fill="#000000" font-family="Arial" font-size="13" lengthAdjust="spacing" textLength="7.436" x="111.0979" y="377.4776">1</text><text fill="#000000" font-family="Arial" font-size="13" lengthAdjust="spacing" textLength="21.567" x="96.5339" y="422.8346">0..*</text></g><?plantuml-src VPBRQW9138Rlzod2NhOejfSYWb2afRGKV80bxaGtE3kpdMGKBNttpghh0TjUpl_by2SPPRK4Curc-qoseG1Fg3X78NZpXcmcAtOD1gn1AZH-msu92xH25wIqA39H3JoFIY-bTpFU4GmkGWmjC5gTUgVlM1DC0gFDidrcWcikIU0h0xXlujnoMQne2qDOOoWh330QVRoEnzbtbo4amjuTKzYaq3alsMaNcTH3rM8FptMcHogAGSaKg0ahrvI4kj5ToyYPFqXghaKJq_Y_OcdtM7n6jAoj_MJexDcanVxdzpXJSKqxlqfrkWvg39JmmdhKLgvYpURGxAIL_h6mj2PxALfULdeh2pcz7ILvxcwIF-JGwq4-wFVlylFUX-0tJhBJ-pfiF-eGqaTGP2S_?></g></svg>