<?plantuml 1.2026.2?><svg xmlns="http://www.w3.org/2000/svg" xmlns:xlink="http://www.w3.org/1999/xlink" contentStyleType="text/css" data-diagram-type="DESCRIPTION" height="576px" preserveAspectRatio="none" style="width:551px;height:576px;background:#FFFFFF;" version="1.1" viewBox="0 0 551 576" width="551px" zoomAndPan="magnify"><title>StudyHelper Runtime Architecture</title><defs/><g><g class="title" data-source-line="1"><text fill="#000000" font-family="Arial" font-size="14" font-weight="bold" lengthAdjust="spacing" textLength="241.2751" x="147.8722" y="24.9659">StudyHelper Runtime Architecture</text></g><!--cluster Coolify deployment--><g class="cluster" data-qualified-name="Coolify deployment" data-source-line="10" id="ent0005"><rect fill="none" height="399.34" rx="2.5" ry="2.5" style="stroke:#181818;stroke-width:1;" width="333" x="7" y="171.6379"/><text fill="#000000" font-family="Arial" font-size="14" font-weight="bold" lengthAdjust="spacing" textLength="136.0515" x="105.4743" y="188.6039">Coolify deployment</text></g><!--entity Frontend--><g class="entity" data-qualified-name="Coolify deployment.Frontend" data-source-line="11" id="ent0006"><rect fill="#F1F1F1" height="58.1358" rx="2.5" ry="2.5" style="stroke:#181818;stroke-width:0.5;" width="96.4817" x="110.76" y="209.6379"/><text fill="#000000" font-family="Arial" font-size="14" lengthAdjust="spacing" textLength="60.3818" x="120.76" y="234.6039">Frontend</text><text fill="#000000" font-family="Arial" font-size="14" lengthAdjust="spacing" textLength="76.4817" x="120.76" y="253.6718">React + Vite</text></g><!--entity IotApi--><g class="entity" data-qualified-name="Coolify deployment.IotApi" data-source-line="12" id="ent0007"><rect fill="#F1F1F1" height="58.1358" rx="2.5" ry="2.5" style="stroke:#181818;stroke-width:0.5;" width="109.6976" x="214.15" y="369.7779"/><text fill="#000000" font-family="Arial" font-size="14" lengthAdjust="spacing" textLength="80.4577" x="224.15" y="394.7439">IoT backend</text><text fill="#000000" font-family="Arial" font-size="14" lengthAdjust="spacing" textLength="89.6976" x="224.15" y="413.8118">ASP.NET Core</text></g><!--entity MalApi--><g class="entity" data-qualified-name="Coolify deployment.MalApi" data-source-line="13" id="ent0008"><rect fill="#F1F1F1" height="58.1358" rx="2.5" ry="2.5" style="stroke:#181818;stroke-width:0.5;" width="155.8135" x="23.09" y="369.7779"/><text fill="#000000" font-family="Arial" font-size="14" lengthAdjust="spacing" textLength="54.7818" x="33.09" y="394.7439">MAL API</text><text fill="#000000" font-family="Arial" font-size="14" lengthAdjust="spacing" textLength="135.8135" x="33.09" y="413.8118">FastAPI + scikit-learn</text></g><!--entity Db--><g class="entity" data-qualified-name="Coolify deployment.Db" data-source-line="14" id="ent0009"><path d="M105.53,516.9079 C105.53,506.9079 154.0019,506.9079 154.0019,506.9079 C154.0019,506.9079 202.4737,506.9079 202.4737,516.9079 L202.4737,544.9758 C202.4737,554.9758 154.0019,554.9758 154.0019,554.9758 C154.0019,554.9758 105.53,554.9758 105.53,544.9758 L105.53,516.9079" fill="#F1F1F1" style="stroke:#181818;stroke-width:0.5;"/><path d="M105.53,516.9079 C105.53,526.9079 154.0019,526.9079 154.0019,526.9079 C154.0019,526.9079 202.4737,526.9079 202.4737,516.9079" fill="none" style="stroke:#181818;stroke-width:0.5;"/><text fill="#000000" font-family="Arial" font-size="14" lengthAdjust="spacing" textLength="76.9437" x="115.53" y="545.8739">PostgreSQL</text></g><!--entity Student--><g class="entity" data-qualified-name="Student" data-source-line="6" id="ent0002"><ellipse cx="115.0019" cy="54.0679" fill="#F1F1F1" rx="8" ry="8" style="stroke:#181818;stroke-width:0.5;"/><path d="M115.0019,62.0679 L115.0019,89.0679 M102.0019,70.0679 L128.0019,70.0679 M115.0019,89.0679 L102.0019,104.0679 M115.0019,89.0679 L128.0019,104.0679" fill="none" style="stroke:#181818;stroke-width:0.5;"/><text fill="#000000" font-family="Arial" font-size="14" lengthAdjust="spacing" textLength="51.6038" x="89.2" y="120.5339">Student</text></g><!--entity Teacher--><g class="entity" data-qualified-name="Teacher" data-source-line="7" id="ent0003"><ellipse cx="202.0019" cy="54.0679" fill="#F1F1F1" rx="8" ry="8" style="stroke:#181818;stroke-width:0.5;"/><path d="M202.0019,62.0679 L202.0019,89.0679 M189.0019,70.0679 L215.0019,70.0679 M202.0019,89.0679 L189.0019,104.0679 M202.0019,89.0679 L215.0019,104.0679" fill="none" style="stroke:#181818;stroke-width:0.5;"/><text fill="#000000" font-family="Arial" font-size="14" lengthAdjust="spacing" textLength="52.5838" x="175.71" y="120.5339">Teacher</text></g><!--entity Device--><g class="entity" data-qualified-name="Device" data-source-line="8" id="ent0004"><polygon fill="#F1F1F1" points="355.98,214.6379,365.98,204.6379,534.0195,204.6379,534.0195,262.7738,524.0195,272.7738,355.98,272.7738,355.98,214.6379" style="stroke:#181818;stroke-width:0.5;"/><line style="stroke:#181818;stroke-width:0.5;" x1="524.0195" x2="534.0195" y1="214.6379" y2="204.6379"/><line style="stroke:#181818;stroke-width:0.5;" x1="355.98" x2="524.0195" y1="214.6379" y2="214.6379"/><line style="stroke:#181818;stroke-width:0.5;" x1="524.0195" x2="524.0195" y1="214.6379" y2="272.7738"/><text fill="#000000" font-family="Arial" font-size="14" lengthAdjust="spacing" textLength="66.4857" x="370.98" y="239.6039">IoT device</text><text fill="#000000" font-family="Arial" font-size="14" lengthAdjust="spacing" textLength="138.0395" x="370.98" y="258.6718">Arduino / PlatformIO</text></g><!--link Student to Frontend--><g class="link" data-entity-1="ent0002" data-entity-2="ent0006" data-link-type="dependency" data-source-line="17" id="lnk10"><path d="M126.22,124.7479 C133.86,151.0679 142.1281,179.5656 149.0481,203.4156" fill="none" id="Student-to-Frontend" style="stroke:#181818;stroke-width:1;"/><polygon fill="#181818" points="150.72,209.1779,152.0537,199.4198,149.3267,204.376,144.3705,201.649,150.72,209.1779" style="stroke:#181818;stroke-width:1;"/></g><!--link Teacher to Frontend--><g class="link" data-entity-1="ent0003" data-entity-2="ent0006" data-link-type="dependency" data-source-line="18" id="lnk11"><path d="M191.04,124.7479 C183.57,151.0679 175.4984,179.556 168.7284,203.406" fill="none" id="Teacher-to-Frontend" style="stroke:#181818;stroke-width:1;"/><polygon fill="#181818" points="167.09,209.1779,173.3956,201.6122,168.4553,204.3679,165.6996,199.4277,167.09,209.1779" style="stroke:#181818;stroke-width:1;"/></g><!--link Device to IotApi--><g class="link" data-entity-1="ent0004" data-entity-2="ent0007" data-link-type="dependency" data-source-line="19" id="lnk12"><path d="M413.22,273.1979 C393.8,293.1479 368.13,318.6179 344,339.7779 C332.48,349.8679 324.1981,356.6427 312.2481,365.8227" fill="none" id="Device-to-IotApi" style="stroke:#181818;stroke-width:1;"/><polygon fill="#181818" points="307.49,369.4779,317.064,367.1672,311.4551,366.4319,312.1904,360.8231,307.49,369.4779" style="stroke:#181818;stroke-width:1;"/><text fill="#000000" font-family="Arial" font-size="13" lengthAdjust="spacing" textLength="29.679" x="435.673" y="317.6749">REST</text><text fill="#000000" font-family="Arial" font-size="13" lengthAdjust="spacing" textLength="136.5651" x="382.23" y="335.3809">/Device /Session /Data</text></g><!--link Frontend to IotApi--><g class="link" data-entity-1="ent0006" data-entity-2="ent0007" data-link-type="dependency" data-source-line="20" id="lnk13"><path d="M178.67,267.9779 C198.56,296.5879 225.7331,335.6529 245.7031,364.3529" fill="none" id="Frontend-to-IotApi" style="stroke:#181818;stroke-width:1;"/><polygon fill="#181818" points="249.13,369.2779,247.273,359.6057,246.2742,365.1737,240.7062,364.175,249.13,369.2779" style="stroke:#181818;stroke-width:1;"/><text fill="#000000" font-family="Arial" font-size="13" lengthAdjust="spacing" textLength="29.679" x="267.181" y="317.6749">REST</text><text fill="#000000" font-family="Arial" font-size="13" lengthAdjust="spacing" textLength="107.8611" x="228.09" y="335.3809">history + sessions</text></g><!--link Frontend to MalApi--><g class="link" data-entity-1="ent0006" data-entity-2="ent0008" data-link-type="dependency" data-source-line="21" id="lnk14"><path d="M123.93,268.0779 C114.31,277.9379 105.12,289.8079 100,302.7779 C91.63,323.9579 91.7696,343.9829 94.4196,363.4229" fill="none" id="Frontend-to-MalApi" style="stroke:#181818;stroke-width:1;"/><polygon fill="#181818" points="95.23,369.3679,97.9777,359.9101,94.5547,364.4137,90.051,360.9907,95.23,369.3679" style="stroke:#181818;stroke-width:1;"/><text fill="#000000" font-family="Arial" font-size="13" lengthAdjust="spacing" textLength="29.679" x="120.3895" y="317.6749">REST</text><text fill="#000000" font-family="Arial" font-size="13" lengthAdjust="spacing" textLength="68.4581" x="101" y="335.3809">predictions</text></g><!--link IotApi to Db--><g class="link" data-entity-1="ent0007" data-entity-2="ent0009" data-link-type="dependency" data-source-line="22" id="lnk15"><path d="M243.76,428.3979 C223,451.8779 197.9129,480.2617 178.5529,502.1717" fill="none" id="IotApi-to-Db" style="stroke:#181818;stroke-width:1;"/><polygon fill="#181818" points="174.58,506.6679,183.5369,502.5722,177.8908,502.9211,177.5419,497.275,174.58,506.6679" style="stroke:#181818;stroke-width:1;"/><text fill="#000000" font-family="Arial" font-size="13" lengthAdjust="spacing" textLength="101.1791" x="215.95" y="472.8049">EF Core / Npgsql</text></g><!--link MalApi to Db--><g class="link" data-entity-1="ent0008" data-entity-2="ent0009" data-link-type="dependency" data-source-line="23" id="lnk16"><path d="M105.12,428.0579 C107.9,442.9879 112.32,461.3879 119,476.9079 C123.4,487.1479 126.3737,492.6186 132.4837,501.4786" fill="none" id="MalApi-to-Db" style="stroke:#181818;stroke-width:1;"/><polygon fill="#181818" points="135.89,506.4179,134.0735,496.738,133.0514,502.3018,127.4877,501.2797,135.89,506.4179" style="stroke:#181818;stroke-width:1;"/><text fill="#000000" font-family="Arial" font-size="13" lengthAdjust="spacing" textLength="50.9471" x="120" y="472.8049">psycopg</text></g><?plantuml-src RP51R-8m48Nl_XMZN5UKUm-LeW8g4cLPWdhYCZX3i70yNdlIAghwtskSb1QfDzlpldblncB44bJIrVqJMKy1jfqJqnAKGP-Ca9Oka8fdupm6R26UiEOtuneueeq_AvfRpuwSLDAddY6Xw1hxKrBJ4Jih2tQonknXq2g5MZZa48aURpj2VQAW7DS4nP9t2NurclQk37Ld7CCKDXRboA5T_Yq08yooGAchCnIFpDOS-yHwotsRsXVmhk0xAnIBaDAGg_Tkcom5_i1B6Zit_2hT0fSi1zJdp9JLvcuzty4ZXu5PifJUt1BFvGhApNBl5XWb7P97rEPiP689WylSCzg1gr7mW365tt2K9b3rRpMCTr0VIerRWidauJlVkApRns4T-Mq81VUmdLUxlPkEfMb5CHfsC9qbK_L5_eQSJ4o_qb-I3qoybG_nht8Vg3PQicxiT57D3aanN-HjfVzR-oR-jsfahm8VUys--GG0?></g></svg>