<?plantuml 1.2026.2?><svg xmlns="http://www.w3.org/2000/svg" xmlns:xlink="http://www.w3.org/1999/xlink" contentStyleType="text/css" data-diagram-type="DESCRIPTION" height="609px" preserveAspectRatio="none" style="width:2687px;height:609px;background:#FFFFFF;" version="1.1" viewBox="0 0 2687 609" width="2687px" zoomAndPan="magnify"><title>SEP4 Architecture Overview</title><defs/><g><g class="title" data-source-line="1"><text fill="#000000" font-family="Arial" font-size="14" font-weight="bold" lengthAdjust="spacing" textLength="193.6473" x="1239.9814" y="24.9659">SEP4 Architecture Overview</text></g><!--cluster Public Internet--><g class="cluster" data-qualified-name="Public Internet" data-source-line="11" id="ent0005"><path d="M157.158,458.9389 C161.5832,452.0888 167.3333,451.5387 172.0491,458.6285 C175.5382,452.6231 179.1201,452.816 183.4148,457.795 C187.4925,451.0978 192.8737,450.5366 197.4228,457.3045 C200.3758,450.3056 206.277,451.507 210.1059,456.3678 C214.2932,450.1001 218.6708,450.4144 222.4905,456.7295 C227.007,450.4945 232.831,450.6221 236.8931,457.2387 C241.0885,451.6431 245.9363,452.5551 248.4945,458.8377 C252.4362,452.567 257.5242,453.702 261.3137,459.0062 C268.2953,462.3978 270.3433,469.1697 262.6576,473.886 C267.978,476.9468 269.6641,480.7878 263.9237,485.0977 C271.0787,489.3505 269.878,494.3907 263.9421,498.6612 C269.4545,502.3936 270.9025,507.7072 264.3614,511.8236 C270.4494,515.9693 268.8515,522.1638 262.7847,524.8369 C268.5863,528.5815 269.0509,533.6577 262.5231,537.1402 C258.7525,543.6738 254.3751,544.4111 249.2251,538.6296 C246.5309,544.5974 241.4959,546.584 236.799,540.7357 C233.3784,547.1761 229.1885,547.4153 224.2977,542.3304 C221.8599,549.9922 215.6881,550.6137 211.1438,544.3151 C206.7077,550.8417 199.6447,549.939 196.8328,542.6344 C192.7388,547.9554 188.2286,548.1064 184.9677,541.7853 C180.0211,548.2905 173.481,546.4552 170.8373,539.3877 C167.1089,545.4074 162.0887,544.5056 159.0008,538.7442 C151.2408,536.2891 150.5489,531.2693 155.9191,525.7099 C150.0636,521.3086 148.2747,515.8514 155.9748,511.5032 C150.3303,508.3987 148.1727,502.8786 154.6398,498.5279 C149.9656,494.0765 150.5149,489.2727 156.631,486.6265 C149.8338,482.3112 151.8811,475.7176 157.9549,472.6189 C150.6905,469.3204 151.8727,462.9684 157.158,458.9389" fill="none" style="stroke:#181818;stroke-width:1;"/><text fill="#000000" font-family="Arial" font-size="14" font-weight="bold" lengthAdjust="spacing" textLength="104.6356" x="156.7822" y="478.7439">Public Internet</text></g><!--cluster VPS managed by Coolify--><g class="cluster" data-qualified-name="VPS managed by Coolify" data-source-line="15" id="ent0007"><rect fill="none" height="392" rx="2.5" ry="2.5" style="stroke:#181818;stroke-width:1;" width="2203.99" x="477.62" y="107.7779"/><text fill="#000000" font-family="Arial" font-size="14" font-weight="bold" lengthAdjust="spacing" textLength="167.1034" x="1496.0633" y="124.7439">VPS managed by Coolify</text></g><!--cluster FrontendContainer--><g class="cluster" data-qualified-name="VPS managed by Coolify.FrontendContainer" data-source-line="18" id="ent0009"><rect fill="none" height="169" rx="2.5" ry="2.5" style="stroke:#181818;stroke-width:1;" width="711.63" x="1004.19" y="298.7779"/><text fill="#000000" font-family="Arial" font-size="14" font-weight="bold" lengthAdjust="spacing" textLength="132.9855" x="1293.5123" y="315.7439">frontend container</text><text fill="#000000" font-family="Arial" font-size="14" font-weight="bold" lengthAdjust="spacing" textLength="143.5274" x="1288.2413" y="334.8118">nginx:alpine, port 80</text></g><!--cluster ApiContainer--><g class="cluster" data-qualified-name="VPS managed by Coolify.ApiContainer" data-source-line="23" id="ent0012"><rect fill="none" height="113" rx="2.5" ry="2.5" style="stroke:#181818;stroke-width:1;" width="211" x="1498.72" y="153.7779"/><text fill="#000000" font-family="Arial" font-size="14" font-weight="bold" lengthAdjust="spacing" textLength="92.4977" x="1557.9712" y="170.7439">api container</text><text fill="#000000" font-family="Arial" font-size="14" font-weight="bold" lengthAdjust="spacing" textLength="195.6212" x="1506.4094" y="189.8118">FastAPI + Uvicorn, port 8080</text></g><!--cluster MalContainer--><g class="cluster" data-qualified-name="VPS managed by Coolify.MalContainer" data-source-line="27" id="ent0014"><rect fill="none" height="131" rx="2.5" ry="2.5" style="stroke:#181818;stroke-width:1;" width="211" x="2042.72" y="153.7779"/><text fill="#000000" font-family="Arial" font-size="14" font-weight="bold" lengthAdjust="spacing" textLength="123.1855" x="2086.6272" y="170.7439">mal-api container</text><text fill="#000000" font-family="Arial" font-size="14" font-weight="bold" lengthAdjust="spacing" textLength="195.6212" x="2050.4094" y="189.8118">FastAPI + Uvicorn, port 8000</text></g><!--entity Browser--><g class="entity" data-qualified-name="Public Internet.Browser" data-source-line="12" id="ent0006"><rect fill="#F1F1F1" height="39.0679" rx="2.5" ry="2.5" style="stroke:#181818;stroke-width:0.5;" width="74.7398" x="171.23" y="489.2379"/><text fill="#000000" font-family="Arial" font-size="14" lengthAdjust="spacing" textLength="54.7398" x="181.23" y="514.2039">Browser</text></g><!--entity Coolify--><g class="entity" data-qualified-name="VPS managed by Coolify.Coolify" data-source-line="16" id="ent0008"><rect fill="#F1F1F1" height="77.2038" rx="2.5" ry="2.5" style="stroke:#181818;stroke-width:0.5;" width="214.9632" x="493.62" y="367.1679"/><text fill="#000000" font-family="Arial" font-size="14" lengthAdjust="spacing" textLength="44.9678" x="503.62" y="392.1339">Coolify</text><text fill="#000000" font-family="Arial" font-size="14" lengthAdjust="spacing" textLength="194.9632" x="503.62" y="411.2018">Docker Compose deployment</text><text fill="#000000" font-family="Arial" font-size="14" lengthAdjust="spacing" textLength="154.2374" x="503.62" y="430.2697">+ reverse proxy routing</text></g><!--entity Postgres--><g class="entity" data-qualified-name="VPS managed by Coolify.Postgres" data-source-line="31" id="ent0016"><path d="M2499.72,271.6679 C2499.72,261.6679 2582.6667,261.6679 2582.6667,261.6679 C2582.6667,261.6679 2665.6135,261.6679 2665.6135,271.6679 L2665.6135,337.8717 C2665.6135,347.8717 2582.6667,347.8717 2582.6667,347.8717 C2582.6667,347.8717 2499.72,347.8717 2499.72,337.8717 L2499.72,271.6679" fill="#F1F1F1" style="stroke:#181818;stroke-width:0.5;"/><path d="M2499.72,271.6679 C2499.72,281.6679 2582.6667,281.6679 2582.6667,281.6679 C2582.6667,281.6679 2665.6135,281.6679 2665.6135,271.6679" fill="none" style="stroke:#181818;stroke-width:0.5;"/><text fill="#000000" font-family="Arial" font-size="14" lengthAdjust="spacing" textLength="124.1655" x="2509.72" y="300.6339">postgres container</text><text fill="#000000" font-family="Arial" font-size="14" lengthAdjust="spacing" textLength="96.5996" x="2509.72" y="319.7018">PostgreSQL 16</text><text fill="#000000" font-family="Arial" font-size="14" lengthAdjust="spacing" textLength="145.8935" x="2509.72" y="338.7697">postgres_data volume</text></g><!--entity Nginx--><g class="entity" data-qualified-name="VPS managed by Coolify.FrontendContainer.Nginx" data-source-line="19" id="ent0010"><rect fill="#F1F1F1" height="39.0679" rx="2.5" ry="2.5" style="stroke:#181818;stroke-width:0.5;" width="58.9198" x="1028.19" y="386.2379"/><text fill="#000000" font-family="Arial" font-size="14" lengthAdjust="spacing" textLength="38.9198" x="1038.19" y="411.2039">Nginx</text></g><!--entity ReactBuild--><g class="entity" data-qualified-name="VPS managed by Coolify.FrontendContainer.ReactBuild" data-source-line="20" id="ent0011"><rect fill="#F1F1F1" height="61.1358" rx="2.5" ry="2.5" style="stroke:#181818;stroke-width:0.5;" width="176.2014" x="1515.62" y="378.2079"/><polygon fill="#F1F1F1" points="1674.8214,383.2079,1674.8214,397.2079,1686.8214,397.2079,1686.8214,389.2079,1680.8214,383.2079,1674.8214,383.2079" style="stroke:#181818;stroke-width:0.5;"/><line style="stroke:#181818;stroke-width:0.5;" x1="1680.8214" x2="1680.8214" y1="383.2079" y2="389.2079"/><line style="stroke:#181818;stroke-width:0.5;" x1="1686.8214" x2="1680.8214" y1="389.2079" y2="389.2079"/><text fill="#000000" font-family="Arial" font-size="14" lengthAdjust="spacing" textLength="113.2175" x="1525.62" y="406.1739">React + Vite build</text><text fill="#000000" font-family="Arial" font-size="14" lengthAdjust="spacing" textLength="146.2014" x="1525.62" y="425.2418">/usr/share/nginx/html</text></g><!--entity CoreApi--><g class="entity" data-qualified-name="VPS managed by Coolify.ApiContainer.CoreApi" data-source-line="24" id="ent0013"><rect fill="#F1F1F1" height="39.0679" rx="2.5" ry="2.5" style="stroke:#181818;stroke-width:0.5;" width="76.7978" x="1565.32" y="211.2379"/><text fill="#000000" font-family="Arial" font-size="14" lengthAdjust="spacing" textLength="56.7978" x="1575.32" y="236.2039">Core API</text></g><!--entity MalApi--><g class="entity" data-qualified-name="VPS managed by Coolify.MalContainer.MalApi" data-source-line="28" id="ent0015"><rect fill="#F1F1F1" height="58.1358" rx="2.5" ry="2.5" style="stroke:#181818;stroke-width:0.5;" width="104.2097" x="2095.61" y="210.7079"/><text fill="#000000" font-family="Arial" font-size="14" lengthAdjust="spacing" textLength="54.7818" x="2105.61" y="235.6739">MAL API</text><text fill="#000000" font-family="Arial" font-size="14" lengthAdjust="spacing" textLength="84.2097" x="2105.61" y="254.7418">ML predictor</text></g><!--entity Student--><g class="entity" data-qualified-name="Student" data-source-line="7" id="ent0002"><ellipse cx="32.2919" cy="420.7379" fill="#F1F1F1" rx="8" ry="8" style="stroke:#181818;stroke-width:0.5;"/><path d="M32.2919,428.7379 L32.2919,455.7379 M19.2919,436.7379 L45.2919,436.7379 M32.2919,455.7379 L19.2919,470.7379 M32.2919,455.7379 L45.2919,470.7379" fill="none" style="stroke:#181818;stroke-width:0.5;"/><text fill="#000000" font-family="Arial" font-size="14" lengthAdjust="spacing" textLength="51.6038" x="6.49" y="487.2039">Student</text></g><!--entity Teacher--><g class="entity" data-qualified-name="Teacher" data-source-line="8" id="ent0003"><ellipse cx="32.2919" cy="534.7379" fill="#F1F1F1" rx="8" ry="8" style="stroke:#181818;stroke-width:0.5;"/><path d="M32.2919,542.7379 L32.2919,569.7379 M19.2919,550.7379 L45.2919,550.7379 M32.2919,569.7379 L19.2919,584.7379 M32.2919,569.7379 L45.2919,584.7379" fill="none" style="stroke:#181818;stroke-width:0.5;"/><text fill="#000000" font-family="Arial" font-size="14" lengthAdjust="spacing" textLength="52.5838" x="6" y="601.2039">Teacher</text></g><!--entity IoTDevice--><g class="entity" data-qualified-name="IoTDevice" data-source-line="9" id="ent0004"><polygon fill="#F1F1F1" points="119.58,283.7079,129.58,273.7079,297.6195,273.7079,297.6195,331.8438,287.6195,341.8438,119.58,341.8438,119.58,283.7079" style="stroke:#181818;stroke-width:0.5;"/><line style="stroke:#181818;stroke-width:0.5;" x1="287.6195" x2="297.6195" y1="283.7079" y2="273.7079"/><line style="stroke:#181818;stroke-width:0.5;" x1="119.58" x2="287.6195" y1="283.7079" y2="283.7079"/><line style="stroke:#181818;stroke-width:0.5;" x1="287.6195" x2="287.6195" y1="283.7079" y2="341.8438"/><text fill="#000000" font-family="Arial" font-size="14" lengthAdjust="spacing" textLength="66.4857" x="134.58" y="308.6739">IoT device</text><text fill="#000000" font-family="Arial" font-size="14" lengthAdjust="spacing" textLength="138.0395" x="134.58" y="327.7418">Arduino / PlatformIO</text></g><!--entity Actions--><g class="entity" data-qualified-name="Actions" data-source-line="34" id="ent0017"><rect fill="#F1F1F1" height="58.1358" rx="2.5" ry="2.5" style="stroke:#181818;stroke-width:0.5;" width="129.1856" x="144.01" y="376.7079"/><text fill="#000000" font-family="Arial" font-size="14" lengthAdjust="spacing" textLength="98.2936" x="154.01" y="401.6739">GitHub Actions</text><text fill="#000000" font-family="Arial" font-size="14" lengthAdjust="spacing" textLength="109.1856" x="154.01" y="420.7418">Coolify webhook</text></g><g class="entity" data-qualified-name="GMN30" data-source-line="54" id="ent0031"><path d="M926.39,516.2179 L926.39,579.336 A0,0 0 0 0 926.39,579.336 L1188.9172,579.336 A0,0 0 0 0 1188.9172,579.336 L1188.9172,526.2179 L1178.9172,516.2179 L958.39,516.2179 L708.96,439.1579 L950.39,516.2179 L926.39,516.2179 A0,0 0 0 0 926.39,516.2179" fill="#FEFFDD" style="stroke:#181818;stroke-width:0.5;"/><path d="M1178.9172,516.2179 L1178.9172,526.2179 L1188.9172,526.2179 L1178.9172,516.2179" fill="#FEFFDD" style="stroke:#181818;stroke-width:0.5;"/><text fill="#000000" font-family="Arial" font-size="13" lengthAdjust="spacing" textLength="241.5272" x="932.39" y="535.1149">Coolify supplies the public routing layer</text><text fill="#000000" font-family="Arial" font-size="13" lengthAdjust="spacing" textLength="230.3472" x="932.39" y="552.8209">and starts the four Compose services:</text><text fill="#000000" font-family="Arial" font-size="13" lengthAdjust="spacing" textLength="195.8452" x="932.39" y="570.527">frontend, api, mal-api, postgres.</text></g><g class="entity" data-qualified-name="GMN33" data-source-line="60" id="ent0034"><path d="M910.59,46.0679 L910.59,91.4799 L1204.7202,91.4799 L1204.7202,56.0679 L1194.7202,46.0679 L910.59,46.0679" fill="#FEFFDD" style="stroke:#181818;stroke-width:0.5;"/><path d="M1194.7202,46.0679 L1194.7202,56.0679 L1204.7202,56.0679 L1194.7202,46.0679" fill="#FEFFDD" style="stroke:#181818;stroke-width:1;"/><text fill="#000000" font-family="Arial" font-size="13" lengthAdjust="spacing" textLength="273.1302" x="916.59" y="64.9649">The React app is compiled during the Docker</text><text fill="#000000" font-family="Arial" font-size="13" lengthAdjust="spacing" textLength="236.8732" x="916.59" y="82.6709">build and copied into the Nginx image.</text></g><!--link Student to Browser--><g class="link" data-entity-1="ent0002" data-entity-2="ent0006" data-link-type="dependency" data-source-line="36" id="lnk18"><path d="M58.27,459.9379 C87.73,469.5779 131.2775,483.8119 165.1075,494.8819" fill="none" id="Student-to-Browser" style="stroke:#181818;stroke-width:1;"/><polygon fill="#181818" points="170.81,496.7479,163.5003,490.1473,166.0579,495.1929,161.0123,497.7506,170.81,496.7479" style="stroke:#181818;stroke-width:1;"/></g><!--link Teacher to Browser--><g class="link" data-entity-1="ent0003" data-entity-2="ent0006" data-link-type="dependency" data-source-line="37" id="lnk19"><path d="M59.01,557.3679 C88.56,547.6979 131.5671,533.6326 165.1171,522.6626" fill="none" id="Teacher-to-Browser" style="stroke:#181818;stroke-width:1;"/><polygon fill="#181818" points="170.82,520.7979,161.0225,519.793,166.0676,522.3518,163.5088,527.3969,170.82,520.7979" style="stroke:#181818;stroke-width:1;"/></g><!--link Browser to Coolify--><g class="link" data-entity-1="ent0006" data-entity-2="ent0008" data-link-type="dependency" data-source-line="39" id="lnk20"><path d="M246.17,501.4179 C295.42,491.2579 385.69,471.8079 461.62,450.7779 C471.98,447.9079 476.972,446.5015 487.672,443.2315" fill="none" id="Browser-to-Coolify" style="stroke:#181818;stroke-width:1;"/><polygon fill="#181818" points="493.41,441.4779,483.6339,440.2829,488.6283,442.9392,485.972,447.9336,493.41,441.4779" style="stroke:#181818;stroke-width:1;"/><text fill="#000000" font-family="Arial" font-size="13" lengthAdjust="spacing" textLength="39.091" x="375.422" y="428.6749">HTTPS</text><text fill="#000000" font-family="Arial" font-size="13" lengthAdjust="spacing" textLength="97.6951" x="346.12" y="446.3809">GET / and /api/*</text></g><!--link Coolify to Nginx--><g class="link" data-entity-1="ent0008" data-entity-2="ent0010" data-link-type="dependency" data-source-line="40" id="lnk21"><path d="M708.96,405.7779 C813.41,405.7779 959.57,405.7779 1022.15,405.7779" fill="none" id="Coolify-to-Nginx" style="stroke:#181818;stroke-width:1;"/><polygon fill="#181818" points="1028.15,405.7779,1019.15,401.7779,1023.15,405.7779,1019.15,409.7779,1028.15,405.7779" style="stroke:#181818;stroke-width:1;"/><text fill="#000000" font-family="Arial" font-size="13" lengthAdjust="spacing" textLength="140.5431" x="739.59" y="383.6749">route frontend domain</text><text fill="#000000" font-family="Arial" font-size="13" lengthAdjust="spacing" textLength="105.7681" x="756.9775" y="401.3809">container port 80</text></g><!--link Nginx to ReactBuild--><g class="link" data-entity-1="ent0010" data-entity-2="ent0011" data-link-type="dependency" data-source-line="41" id="lnk22"><path d="M1087.52,405.9379 C1166.77,406.3679 1384.1101,407.5648 1509.1501,408.2548" fill="none" id="Nginx-to-ReactBuild" style="stroke:#181818;stroke-width:1;"/><polygon fill="#181818" points="1515.15,408.2879,1506.1722,404.2383,1510.1501,408.2603,1506.1281,412.2382,1515.15,408.2879" style="stroke:#181818;stroke-width:1;"/><text fill="#000000" font-family="Arial" font-size="13" lengthAdjust="spacing" textLength="95.4331" x="1288.22" y="384.7249">serve static SPA</text><text fill="#000000" font-family="Arial" font-size="13" lengthAdjust="spacing" textLength="32.136" x="1319.8685" y="402.4309">GET /</text></g><!--link Nginx to CoreApi--><g class="link" data-entity-1="ent0010" data-entity-2="ent0013" data-link-type="dependency" data-source-line="42" id="lnk23"><path d="M1087.6,404.6179 C1117.78,402.5979 1165.98,397.0379 1204.72,381.7779 C1219.63,375.8979 1219.72,367.4279 1234.72,361.7779 C1319.47,329.8279 1351.52,365.5179 1436.72,334.7779 C1491.74,314.9179 1543.039,278.5009 1573.879,254.3109" fill="none" id="Nginx-to-CoreApi" style="stroke:#181818;stroke-width:1;"/><polygon fill="#181818" points="1578.6,250.6079,1569.0498,253.0151,1574.6658,253.6938,1573.9872,259.3098,1578.6,250.6079" style="stroke:#181818;stroke-width:1;"/><text fill="#000000" font-family="Arial" font-size="13" lengthAdjust="spacing" textLength="68.25" x="1301.7536" y="312.6749">proxy_pass</text><text fill="#000000" font-family="Arial" font-size="13" lengthAdjust="spacing" textLength="200.3172" x="1235.72" y="330.3809">API_PROXY_URL=http://api:8080/</text></g><!--link IoTDevice to Coolify--><g class="link" data-entity-1="ent0004" data-entity-2="ent0008" data-link-type="dependency" data-source-line="44" id="lnk24"><path d="M297.91,323.9479 C346.52,333.4479 407.73,346.3979 461.62,360.7779 C472,363.5479 477.0036,364.9119 487.7236,368.1319" fill="none" id="IoTDevice-to-Coolify" style="stroke:#181818;stroke-width:1;"/><polygon fill="#181818" points="493.47,369.8579,486.0012,363.4379,488.6814,368.4195,483.6997,371.0997,493.47,369.8579" style="stroke:#181818;stroke-width:1;"/><text fill="#000000" font-family="Arial" font-size="13" lengthAdjust="spacing" textLength="65.0131" x="362.446" y="308.5949">HTTP REST</text><text fill="#000000" font-family="Arial" font-size="13" lengthAdjust="spacing" textLength="132.6651" x="328.62" y="326.3009">/device /session /data</text></g><!--link Coolify to CoreApi--><g class="link" data-entity-1="ent0008" data-entity-2="ent0013" data-link-type="dependency" data-source-line="45" id="lnk25"><path d="M687.62,366.7479 C748.5,340.7579 832.94,308.2679 910.59,290.7779 C1155.62,235.5579 1454.01,230.4662 1559.03,230.4962" fill="none" id="Coolify-to-CoreApi" style="stroke:#181818;stroke-width:1;"/><polygon fill="#181818" points="1565.03,230.4979,1556.03,226.4979,1560.03,230.4979,1556.03,234.4979,1565.03,230.4979" style="stroke:#181818;stroke-width:1;"/><text fill="#000000" font-family="Arial" font-size="13" lengthAdjust="spacing" textLength="96.5251" x="1009.7075" y="224.7949">route API traffic</text><text fill="#000000" font-family="Arial" font-size="13" lengthAdjust="spacing" textLength="120.6401" x="997.65" y="242.5009">container port 8080</text></g><!--link CoreApi to MalApi--><g class="link" data-entity-1="ent0013" data-entity-2="ent0015" data-link-type="dependency" data-source-line="47" id="lnk26"><path d="M1642.4,231.3979 C1737.46,232.9779 1981.1608,237.0287 2089.4308,238.8187" fill="none" id="CoreApi-to-MalApi" style="stroke:#181818;stroke-width:1;"/><polygon fill="#181818" points="2095.43,238.9179,2086.4974,234.7697,2090.4307,238.8353,2086.3651,242.7686,2095.43,238.9179" style="stroke:#181818;stroke-width:1;"/><text fill="#000000" font-family="Arial" font-size="13" lengthAdjust="spacing" textLength="31.954" x="1849.5071" y="193.0849">HTTP</text><text fill="#000000" font-family="Arial" font-size="13" lengthAdjust="spacing" textLength="229.5282" x="1750.72" y="210.7909">MAL_API_HOST_PORT -&gt; mal-api:8000</text><text fill="#000000" font-family="Arial" font-size="13" lengthAdjust="spacing" textLength="149.0061" x="1790.981" y="228.497">/predict, /instant-predict</text></g><!--link CoreApi to Postgres--><g class="link" data-entity-1="ent0013" data-entity-2="ent0016" data-link-type="dependency" data-source-line="48" id="lnk27"><path d="M1642.54,241.5679 C1716.9,262.1679 1887.68,306.3879 2034.72,321.7779 C2135.06,332.2779 2160.86,324.4479 2261.72,321.7779 C2342.62,319.6279 2428.922,314.807 2493.522,310.717" fill="none" id="CoreApi-to-Postgres" style="stroke:#181818;stroke-width:1;"/><polygon fill="#181818" points="2499.51,310.3379,2490.2752,306.9146,2494.52,310.6538,2490.7807,314.8986,2499.51,310.3379" style="stroke:#181818;stroke-width:1;"/><text fill="#000000" font-family="Arial" font-size="13" lengthAdjust="spacing" textLength="24.102" x="2135.7841" y="299.6749">SQL</text><text fill="#000000" font-family="Arial" font-size="13" lengthAdjust="spacing" textLength="152.2301" x="2071.72" y="317.3809">DB_HOST=postgres:5432</text></g><!--link MalApi to Postgres--><g class="link" data-entity-1="ent0015" data-entity-2="ent0016" data-link-type="dependency" data-source-line="49" id="lnk28"><path d="M2200.08,247.4879 C2274,258.5879 2405.2164,278.2875 2493.3764,291.5175" fill="none" id="MalApi-to-Postgres" style="stroke:#181818;stroke-width:1;"/><polygon fill="#181818" points="2499.31,292.4079,2491.0033,287.1166,2494.3654,291.6659,2489.816,295.028,2499.31,292.4079" style="stroke:#181818;stroke-width:1;"/><text fill="#000000" font-family="Arial" font-size="13" lengthAdjust="spacing" textLength="73.8401" x="2355.915" y="244.3449">SQL exports</text><text fill="#000000" font-family="Arial" font-size="13" lengthAdjust="spacing" textLength="152.2301" x="2316.72" y="262.0509">DB_HOST=postgres:5432</text></g><!--link Actions to Coolify--><g class="link" data-entity-1="ent0017" data-entity-2="ent0008" data-link-type="dependency" data-source-line="51" id="lnk29"><path d="M273.65,405.7779 C333.15,405.7779 416.91,405.7779 487.26,405.7779" fill="none" id="Actions-to-Coolify" style="stroke:#181818;stroke-width:1;stroke-dasharray:7,7;"/><polygon fill="#181818" points="493.26,405.7779,484.26,401.7779,488.26,405.7779,484.26,409.7779,493.26,405.7779" style="stroke:#181818;stroke-width:1;"/><text fill="#000000" font-family="Arial" font-size="13" lengthAdjust="spacing" textLength="86.6581" x="351.62" y="383.6749">deploy trigger</text><text fill="#000000" font-family="Arial" font-size="13" lengthAdjust="spacing" textLength="77.1811" x="356.3585" y="401.3809">main branch</text></g><!--link FrontendContainer to GMN33--><g class="link" data-entity-1="ent0009" data-entity-2="ent0034" data-link-type="association" data-source-line="60" id="lnk35"><path d="M1003.2861,351.5126 C1002.5504,351.5478 1001.8097,351.5827 1001.0644,351.6171 C995.1016,351.8926 988.8366,352.1416 982.3558,352.3455 C969.3942,352.7532 955.5694,352.9804 941.5725,352.8779 C885.585,352.4679 826.845,346.7829 809.59,326.2779 C758.36,265.4079 762.58,211.4579 809.59,147.2779 C833.61,114.4779 871.4,95.0379 910.31,83.6179" fill="none" id="FrontendContainer-GMN33" style="stroke:#181818;stroke-width:1;stroke-dasharray:7,7;"/></g><?plantuml-src ZLLXRzis4FtENt7mnpQ9sguR2WCTuAH94y2fDKijLa20GKkKHOGY1VBan1ZwttUaA4TPigAVB5FlxhsxUpoXH2KWkqpVmyAMZKHHOcy5hFR2xgMuP-vEwevRte9hU6NkfTv1pPKJapUbQJkZXSOC3vJDKWwkTseAgKJDUuLNHkCNtWeYarmn9Me4D63bha6ef8-KHZF6IpGMCkmhoXh_vOANZR1Ccqh0xCRab7GlIr7eXQrwgGqaa2gEjR7jpMe6t061FWKCOwKoVGMpjDygMSADHc6rm1dym-1HFypEhRbtmeRe-Cn-C7Oi2MRVqWnQhlbELB0zm8KnIjQ7PudYUQ4_cV9EMCBHAoT8SwVCeILCeLzJgwZFTDfPyt00Qtga_WRo6CyewuIyjjH0eIjYqiYb5hRGUYVrmvohZlwUG6SimeSt8STLH5-Cu23oYSmlFZY0mrDupItAcdeEixNmFw_X6_a2jhrKLQ6Jtjc4l6154fYJ1biLCWJqkKTHcX__KSuxEHLznHqkqXlA_PNcOwm-Ae_Q5vtyYUmBGnwb-DWgAmZ-0cdBrUal4xyPY6-v-WdnxMBfUGjzkwIXYKfwQuvn4n4LHxxbDDaPJHrtLhYfY7Guo_vQmji_2Zr2DZuAzaRrhGWv8yvv2qv4V9PutMzX4IwBAtJq2joBRMFCtT2_uILZyHB1wUcVHqV7g_JaZCM7S3XcdCDrdgTPeJzVvdIzE3aleOOchzY8yEXW7S9w_meuUhGoBTLRw6FXOwVP4E137pr3ySI-5-2G8rtHB5r4sWayZfgmuSPiEkweVXh89bsl_lw--RfUVcmGktdYPSwzcnB6ZclWXTfWVPdbvEfXbq3YX7FKE4ZyB9vK-SWzrEbTX9RNjInVg96gP6E4Znxi4Kd9Felbnik-NcNv9bsjSo1CjElSUv4aHN-TG28rDKNZQJnvadZq2AKcFz6-EGz9Fuwccl_-_hTtBD8_3m3nu1Mx_mjaqKXmTZPjtR36g7wvstb7-qd3rd9TDemsDBLdsEccFcwoCTZrNQSayMD3Ys_Ont7pWU87igAt6HLCgWAcDltZ_lGUeK6vEHjzTWBKivEnUVuw3_hFc3UXrn8LRGsYQRsaPukHvSGpR3lUTI1TkFDIqOwlUkkLUI73AcTX4OQxK9fE4aHg-ePvm61KsTB7OSB-Bm00?></g></svg>