<?plantuml 1.2026.2?><svg xmlns="http://www.w3.org/2000/svg" xmlns:xlink="http://www.w3.org/1999/xlink" contentStyleType="text/css" data-diagram-type="ACTIVITY" height="1882.6042px" preserveAspectRatio="none" style="width:1331px;height:1882px;background:#FFFFFF;" version="1.1" viewBox="0 0 1331 1882" width="1331.4583px" zoomAndPan="magnify"><title>Activity Diagram: StudyHelper Global Workflow</title><defs/><g><g class="title" data-source-line="2"><text fill="#000000" font-family="'Helvetica, Arial, sans-serif'" font-size="25.2083" font-weight="bold" lengthAdjust="spacing" textLength="594.7927" x="366.9245" y="47.5728">Activity Diagram: StudyHelper Global Workflow</text></g><rect fill="#FFFFFF" height="27.1631" style="stroke:#FFFFFF;stroke-width:1.1458;" width="1305.725" x="11.4583" y="72.1464"/><ellipse cx="160.8407" cy="116.497" fill="#FFFFFF" rx="11.4583" ry="11.4583" style="stroke:#000000;stroke-width:1.1458;"/><rect fill="#FFFFFF" height="50.0798" style="stroke:#000000;stroke-width:1.1458;" width="66.0631" x="127.8092" y="150.872"/><text fill="#000000" font-family="'Helvetica, Arial, sans-serif'" font-size="14.8958" lengthAdjust="spacing" textLength="36.2714" x="142.705" y="181.6915">logIn</text><rect fill="#FFFFFF" height="50.0798" style="stroke:#000000;stroke-width:1.1458;" width="130.6514" x="95.515" y="359.7346"/><text fill="#000000" font-family="'Helvetica, Arial, sans-serif'" font-size="14.8958" lengthAdjust="spacing" textLength="100.8598" x="110.4108" y="390.5541">registerDevice</text><polygon fill="#FFFFFF" points="92.584,298.028,229.0975,298.028,242.8475,311.778,229.0975,325.528,92.584,325.528,78.834,311.778,92.584,298.028" style="stroke:#000000;stroke-width:1.1458;"/><text fill="#000000" font-family="'Helvetica, Arial, sans-serif'" font-size="14.8958" lengthAdjust="spacing" textLength="18.2176" x="168.8616" y="344.8892">no</text><text fill="#000000" font-family="'Helvetica, Arial, sans-serif'" font-size="14.8958" lengthAdjust="spacing" textLength="129.6385" x="96.0215" y="317.5576">Device connected?</text><text fill="#000000" font-family="'Helvetica, Arial, sans-serif'" font-size="14.8958" lengthAdjust="spacing" textLength="23.1332" x="52.2632" y="303.976">yes</text><polygon fill="#FFFFFF" points="160.8407,522.3421,174.5907,536.0921,160.8407,549.8421,147.0907,536.0921,160.8407,522.3421" style="stroke:#000000;stroke-width:1.1458;"/><rect fill="#FFFFFF" height="50.0798" style="stroke:#000000;stroke-width:1.1458;" width="154.6189" x="83.5313" y="572.7588"/><text fill="#000000" font-family="'Helvetica, Arial, sans-serif'" font-size="14.8958" lengthAdjust="spacing" textLength="124.8272" x="98.4271" y="603.5783">startStudySession</text><rect fill="#FFFFFF" height="50.0798" style="stroke:#000000;stroke-width:1.1458;" width="256.4916" x="138.018" y="798.9601"/><text fill="#000000" font-family="'Helvetica, Arial, sans-serif'" font-size="14.8958" lengthAdjust="spacing" textLength="226.6999" x="152.9138" y="829.7796">requestStudyConditionOverview</text><rect fill="#FFFFFF" height="50.0798" style="stroke:#000000;stroke-width:1.1458;" width="142.2553" x="195.1361" y="946.1161"/><text fill="#000000" font-family="'Helvetica, Arial, sans-serif'" font-size="14.8958" lengthAdjust="spacing" textLength="112.4636" x="210.032" y="976.9356">View dashboard</text><rect fill="#FFFFFF" height="50.0798" style="stroke:#000000;stroke-width:1.1458;" width="150.5076" x="191.01" y="1098.0066"/><text fill="#000000" font-family="'Helvetica, Arial, sans-serif'" font-size="14.8958" lengthAdjust="spacing" textLength="120.7159" x="205.9058" y="1128.8261">rateStudySession</text><polygon fill="#FFFFFF" points="158.5926,1036.3,373.935,1036.3,387.685,1050.05,373.935,1063.8,158.5926,1063.8,144.8426,1050.05,158.5926,1036.3" style="stroke:#000000;stroke-width:1.1458;"/><text fill="#000000" font-family="'Helvetica, Arial, sans-serif'" font-size="14.8958" lengthAdjust="spacing" textLength="23.1332" x="274.2846" y="1083.1612">yes</text><text fill="#000000" font-family="'Helvetica, Arial, sans-serif'" font-size="14.8958" lengthAdjust="spacing" textLength="208.4674" x="162.0301" y="1055.8296">Submit rating during session?</text><text fill="#000000" font-family="'Helvetica, Arial, sans-serif'" font-size="14.8958" lengthAdjust="spacing" textLength="18.2176" x="123.1874" y="1042.2481">no</text><polygon fill="#FFFFFF" points="266.2638,1270.0341,280.0138,1283.7841,266.2638,1297.5341,252.5138,1283.7841,266.2638,1270.0341" style="stroke:#000000;stroke-width:1.1458;"/><polygon fill="#FFFFFF" points="266.2638,748.5434,280.0138,762.2934,266.2638,776.0434,252.5138,762.2934,266.2638,748.5434" style="stroke:#000000;stroke-width:1.1458;"/><rect fill="#FFFFFF" height="50.0798" style="stroke:#000000;stroke-width:1.1458;" width="148.9882" x="86.3466" y="1428.1935"/><text fill="#000000" font-family="'Helvetica, Arial, sans-serif'" font-size="14.8958" lengthAdjust="spacing" textLength="119.1966" x="101.2424" y="1459.013">endStudySession</text><rect fill="#FFFFFF" height="50.0798" style="stroke:#000000;stroke-width:1.1458;" width="150.5076" x="85.5869" y="1637.0561"/><text fill="#000000" font-family="'Helvetica, Arial, sans-serif'" font-size="14.8958" lengthAdjust="spacing" textLength="120.7159" x="100.4828" y="1667.8756">rateStudySession</text><polygon fill="#FFFFFF" points="60.7292,1575.3495,260.9523,1575.3495,274.7023,1589.0995,260.9523,1602.8495,60.7292,1602.8495,46.9792,1589.0995,60.7292,1575.3495" style="stroke:#000000;stroke-width:1.1458;"/><text fill="#000000" font-family="'Helvetica, Arial, sans-serif'" font-size="14.8958" lengthAdjust="spacing" textLength="23.1332" x="168.8616" y="1622.2107">yes</text><text fill="#000000" font-family="'Helvetica, Arial, sans-serif'" font-size="14.8958" lengthAdjust="spacing" textLength="193.3481" x="64.1667" y="1594.8791">Submit post-session rating?</text><text fill="#000000" font-family="'Helvetica, Arial, sans-serif'" font-size="14.8958" lengthAdjust="spacing" textLength="18.2176" x="25.324" y="1581.2975">no</text><polygon fill="#FFFFFF" points="160.8407,1799.6636,174.5907,1813.4136,160.8407,1827.1636,147.0907,1813.4136,160.8407,1799.6636" style="stroke:#000000;stroke-width:1.1458;"/><ellipse cx="160.8407" cy="1862.6845" fill="none" rx="12.6042" ry="12.6042" style="stroke:#000000;stroke-width:1.1458;"/><ellipse cx="160.8407" cy="1862.6845" fill="#FFFFFF" rx="6.875" ry="6.875" style="stroke:#000000;stroke-width:1.1458;"/><line style="stroke:#000000;stroke-width:1.1458;" x1="11.4583" x2="11.4583" y1="72.1464" y2="1875.2886"/><rect fill="#FFFFFF" height="50.0798" style="stroke:#000000;stroke-width:1.1458;" width="187.2855" x="778.8149" y="223.8685"/><text fill="#000000" font-family="'Helvetica, Arial, sans-serif'" font-size="14.8958" lengthAdjust="spacing" textLength="157.4938" x="793.7107" y="254.688">confirmAuthentication</text><rect fill="#FFFFFF" height="50.0798" style="stroke:#000000;stroke-width:1.1458;" width="215.5727" x="764.6713" y="449.3456"/><text fill="#000000" font-family="'Helvetica, Arial, sans-serif'" font-size="14.8958" lengthAdjust="spacing" textLength="185.781" x="779.5671" y="480.1651">confirmDeviceRegistration</text><rect fill="#FFFFFF" height="50.0798" style="stroke:#000000;stroke-width:1.1458;" width="170.5574" x="787.1789" y="645.7553"/><text fill="#000000" font-family="'Helvetica, Arial, sans-serif'" font-size="14.8958" lengthAdjust="spacing" textLength="140.7658" x="802.0747" y="676.5748">confirmSessionStart</text><rect fill="#000000" height="6.875" rx="2.8646" ry="2.8646" style="stroke:#000000;stroke-width:1.1458;" width="896.6244" x="411.7475" y="718.7517"/><rect fill="#FFFFFF" height="50.0798" style="stroke:#000000;stroke-width:1.1458;" width="176.5009" x="449.1796" y="871.9566"/><text fill="#000000" font-family="'Helvetica, Arial, sans-serif'" font-size="14.8958" lengthAdjust="spacing" textLength="146.7092" x="464.0754" y="902.776">monitorEnvironment</text><rect fill="#FFFFFF" height="50.0798" style="stroke:#000000;stroke-width:1.1458;" width="116.8281" x="479.016" y="1007.8226"/><text fill="#000000" font-family="'Helvetica, Arial, sans-serif'" font-size="14.8958" lengthAdjust="spacing" textLength="87.0364" x="493.9118" y="1038.6421">alertStudent</text><polygon fill="#FFFFFF" points="439.2475,946.1161,635.6126,946.1161,649.3626,959.8661,635.6126,973.6161,439.2475,973.6161,425.4975,959.8661,439.2475,946.1161" style="stroke:#000000;stroke-width:1.1458;"/><text fill="#000000" font-family="'Helvetica, Arial, sans-serif'" font-size="14.8958" lengthAdjust="spacing" textLength="23.1332" x="545.4508" y="992.9772">yes</text><text fill="#000000" font-family="'Helvetica, Arial, sans-serif'" font-size="14.8958" lengthAdjust="spacing" textLength="189.4901" x="442.685" y="965.6457">predictedStudyQuality == 1</text><text fill="#000000" font-family="'Helvetica, Arial, sans-serif'" font-size="14.8958" lengthAdjust="spacing" textLength="18.2176" x="652.8001" y="952.0641">no</text><polygon fill="#FFFFFF" points="537.43,1098.984,551.18,1112.734,537.43,1126.484,523.68,1112.734,537.43,1098.984" style="stroke:#000000;stroke-width:1.1458;"/><rect fill="#FFFFFF" height="50.0798" style="stroke:#000000;stroke-width:1.1458;" width="178.2735" x="448.2933" y="1166.5882"/><text fill="#000000" font-family="'Helvetica, Arial, sans-serif'" font-size="14.8958" lengthAdjust="spacing" textLength="148.4818" x="463.1891" y="1197.4077">Wait for next reading</text><polygon fill="#FFFFFF" points="537.43,806.6441,551.18,820.3941,537.43,834.1441,523.68,820.3941,537.43,806.6441" style="stroke:#000000;stroke-width:1.1458;"/><polygon fill="#FFFFFF" points="474.5953,1262.3501,600.2647,1262.3501,614.0147,1276.1001,600.2647,1289.8501,474.5953,1289.8501,460.8453,1276.1001,474.5953,1262.3501" style="stroke:#000000;stroke-width:1.1458;"/><text fill="#000000" font-family="'Helvetica, Arial, sans-serif'" font-size="14.8958" lengthAdjust="spacing" textLength="118.7944" x="478.0328" y="1281.8797">Session is active?</text><text fill="#000000" font-family="'Helvetica, Arial, sans-serif'" font-size="14.8958" lengthAdjust="spacing" textLength="23.1332" x="617.4522" y="1268.2981">yes</text><rect fill="#FFFFFF" height="50.0798" style="stroke:#000000;stroke-width:1.1458;" width="135.0755" x="682.476" y="1011.2601"/><text fill="#000000" font-family="'Helvetica, Arial, sans-serif'" font-size="14.8958" lengthAdjust="spacing" textLength="105.2838" x="697.3719" y="1042.0796">Telemetry loop</text><rect fill="#FFFFFF" height="50.0798" style="stroke:#000000;stroke-width:1.1458;" width="236.5609" x="859.6002" y="871.9566"/><text fill="#000000" font-family="'Helvetica, Arial, sans-serif'" font-size="14.8958" lengthAdjust="spacing" textLength="206.7693" x="874.496" y="902.776">sendStudyConditionOverview</text><rect fill="#FFFFFF" height="50.0798" style="stroke:#000000;stroke-width:1.1458;" width="191.6053" x="882.078" y="1188.1906"/><text fill="#000000" font-family="'Helvetica, Arial, sans-serif'" font-size="14.8958" lengthAdjust="spacing" textLength="161.8136" x="896.9738" y="1219.0101">confirmRatingReceived</text><polygon fill="#FFFFFF" points="915.046,1321.6138,1040.7153,1321.6138,1054.4653,1335.3638,1040.7153,1349.1138,915.046,1349.1138,901.296,1335.3638,915.046,1321.6138" style="stroke:#000000;stroke-width:1.1458;"/><text fill="#000000" font-family="'Helvetica, Arial, sans-serif'" font-size="14.8958" lengthAdjust="spacing" textLength="118.7944" x="918.4835" y="1341.1434">Session is active?</text><text fill="#000000" font-family="'Helvetica, Arial, sans-serif'" font-size="14.8958" lengthAdjust="spacing" textLength="23.1332" x="1057.9028" y="1327.5618">yes</text><rect fill="#FFFFFF" height="50.0798" style="stroke:#000000;stroke-width:1.1458;" width="187.0024" x="1107.6194" y="1011.2601"/><text fill="#000000" font-family="'Helvetica, Arial, sans-serif'" font-size="14.8958" lengthAdjust="spacing" textLength="157.2108" x="1122.5153" y="1042.0796">Dashboard interaction</text><rect fill="#000000" height="6.875" rx="2.8646" ry="2.8646" style="stroke:#000000;stroke-width:1.1458;" width="896.6244" x="411.7475" y="1398.4019"/><rect fill="#FFFFFF" height="50.0798" style="stroke:#000000;stroke-width:1.1458;" width="163.7649" x="790.5751" y="1501.19"/><text fill="#000000" font-family="'Helvetica, Arial, sans-serif'" font-size="14.8958" lengthAdjust="spacing" textLength="133.9733" x="805.471" y="1532.0095">confirmSessionEnd</text><rect fill="#FFFFFF" height="50.0798" style="stroke:#000000;stroke-width:1.1458;" width="191.6053" x="776.655" y="1726.6671"/><text fill="#000000" font-family="'Helvetica, Arial, sans-serif'" font-size="14.8958" lengthAdjust="spacing" textLength="161.8136" x="791.5508" y="1757.4866">confirmRatingReceived</text><line style="stroke:#000000;stroke-width:1.1458;" x1="404.8725" x2="404.8725" y1="72.1464" y2="1875.2886"/><line style="stroke:#000000;stroke-width:1.1458;" x1="1312.9552" x2="1312.9552" y1="72.1464" y2="1875.2886"/><line style="stroke:#000000;stroke-width:1.1458;" x1="160.8407" x2="160.8407" y1="127.9553" y2="150.872"/><polygon fill="#000000" points="156.2574,139.4137,160.8407,150.872,165.4241,139.4137,160.8407,143.997" style="stroke:#000000;stroke-width:1.1458;"/><line style="stroke:#000000;stroke-width:1.1458;" x1="160.8407" x2="160.8407" y1="325.528" y2="359.7346"/><polygon fill="#000000" points="156.2574,348.2762,160.8407,359.7346,165.4241,348.2762,160.8407,352.8596" style="stroke:#000000;stroke-width:1.1458;"/><line style="stroke:#000000;stroke-width:1.1458;" x1="78.834" x2="41.5961" y1="311.778" y2="311.778"/><polygon fill="#000000" points="37.0127,421.2727,41.5961,432.7311,46.1794,421.2727,41.5961,425.8561" style="stroke:#000000;stroke-width:1.1458;"/><line style="stroke:#000000;stroke-width:1.1458;" x1="41.5961" x2="41.5961" y1="311.778" y2="536.0921"/><line style="stroke:#000000;stroke-width:1.1458;" x1="41.5961" x2="147.0907" y1="536.0921" y2="536.0921"/><polygon fill="#000000" points="135.6324,531.5088,147.0907,536.0921,135.6324,540.6755,140.2157,536.0921" style="stroke:#000000;stroke-width:1.1458;"/><line style="stroke:#000000;stroke-width:1.1458;" x1="160.8407" x2="160.8407" y1="549.8421" y2="572.7588"/><polygon fill="#000000" points="156.2574,561.3005,160.8407,572.7588,165.4241,561.3005,160.8407,565.8838" style="stroke:#000000;stroke-width:1.1458;"/><line style="stroke:#000000;stroke-width:1.1458;" x1="266.2638" x2="266.2638" y1="1063.8" y2="1098.0066"/><polygon fill="#000000" points="261.6804,1086.5483,266.2638,1098.0066,270.8471,1086.5483,266.2638,1091.1316" style="stroke:#000000;stroke-width:1.1458;"/><line style="stroke:#000000;stroke-width:1.1458;" x1="144.8426" x2="131.0926" y1="1050.05" y2="1050.05"/><polygon fill="#000000" points="126.5092,1160.1177,131.0926,1171.576,135.6759,1160.1177,131.0926,1164.701" style="stroke:#000000;stroke-width:1.1458;"/><line style="stroke:#000000;stroke-width:1.1458;" x1="131.0926" x2="131.0926" y1="1050.05" y2="1283.7841"/><line style="stroke:#000000;stroke-width:1.1458;" x1="131.0926" x2="252.5138" y1="1283.7841" y2="1283.7841"/><polygon fill="#000000" points="241.0554,1279.2008,252.5138,1283.7841,241.0554,1288.3674,245.6388,1283.7841" style="stroke:#000000;stroke-width:1.1458;"/><line style="stroke:#000000;stroke-width:1.1458;" x1="266.2638" x2="266.2638" y1="996.1959" y2="1036.3"/><polygon fill="#000000" points="261.6804,1024.8417,266.2638,1036.3,270.8471,1024.8417,266.2638,1029.425" style="stroke:#000000;stroke-width:1.1458;"/><line style="stroke:#000000;stroke-width:1.1458;" x1="266.2638" x2="266.2638" y1="776.0434" y2="798.9601"/><polygon fill="#000000" points="261.6804,787.5017,266.2638,798.9601,270.8471,787.5017,266.2638,792.0851" style="stroke:#000000;stroke-width:1.1458;"/><line style="stroke:#000000;stroke-width:1.1458;" x1="160.8407" x2="160.8407" y1="1602.8495" y2="1637.0561"/><polygon fill="#000000" points="156.2574,1625.5978,160.8407,1637.0561,165.4241,1625.5978,160.8407,1630.1811" style="stroke:#000000;stroke-width:1.1458;"/><line style="stroke:#000000;stroke-width:1.1458;" x1="46.9792" x2="33.2292" y1="1589.0995" y2="1589.0995"/><polygon fill="#000000" points="28.6458,1698.5942,33.2292,1710.0526,37.8125,1698.5942,33.2292,1703.1776" style="stroke:#000000;stroke-width:1.1458;"/><line style="stroke:#000000;stroke-width:1.1458;" x1="33.2292" x2="33.2292" y1="1589.0995" y2="1813.4136"/><line style="stroke:#000000;stroke-width:1.1458;" x1="33.2292" x2="147.0907" y1="1813.4136" y2="1813.4136"/><polygon fill="#000000" points="135.6324,1808.8303,147.0907,1813.4136,135.6324,1817.997,140.2157,1813.4136" style="stroke:#000000;stroke-width:1.1458;"/><line style="stroke:#000000;stroke-width:1.1458;" x1="160.8407" x2="160.8407" y1="1827.1636" y2="1850.0803"/><polygon fill="#000000" points="156.2574,1838.622,160.8407,1850.0803,165.4241,1838.622,160.8407,1843.2053" style="stroke:#000000;stroke-width:1.1458;"/><line style="stroke:#000000;stroke-width:1.1458;" x1="537.43" x2="537.43" y1="973.6161" y2="1007.8226"/><polygon fill="#000000" points="532.8467,996.3643,537.43,1007.8226,542.0133,996.3643,537.43,1000.9476" style="stroke:#000000;stroke-width:1.1458;"/><line style="stroke:#000000;stroke-width:1.1458;" x1="649.3626" x2="663.1126" y1="959.8661" y2="959.8661"/><polygon fill="#000000" points="658.5292,1024.8417,663.1126,1036.3,667.6959,1024.8417,663.1126,1029.425" style="stroke:#000000;stroke-width:1.1458;"/><line style="stroke:#000000;stroke-width:1.1458;" x1="663.1126" x2="663.1126" y1="959.8661" y2="1112.734"/><line style="stroke:#000000;stroke-width:1.1458;" x1="663.1126" x2="551.18" y1="1112.734" y2="1112.734"/><polygon fill="#000000" points="562.6383,1108.1507,551.18,1112.734,562.6383,1117.3174,558.055,1112.734" style="stroke:#000000;stroke-width:1.1458;"/><line style="stroke:#000000;stroke-width:1.1458;" x1="537.43" x2="537.43" y1="1057.9025" y2="1098.984"/><polygon fill="#000000" points="532.8467,1087.5257,537.43,1098.984,542.0133,1087.5257,537.43,1092.109" style="stroke:#000000;stroke-width:1.1458;"/><line style="stroke:#000000;stroke-width:1.1458;" x1="537.43" x2="537.43" y1="922.0364" y2="946.1161"/><polygon fill="#000000" points="532.8467,934.6577,537.43,946.1161,542.0133,934.6577,537.43,939.2411" style="stroke:#000000;stroke-width:1.1458;"/><line style="stroke:#000000;stroke-width:1.1458;" x1="537.43" x2="537.43" y1="1126.484" y2="1166.5882"/><polygon fill="#000000" points="532.8467,1155.1299,537.43,1166.5882,542.0133,1155.1299,537.43,1159.7132" style="stroke:#000000;stroke-width:1.1458;"/><line style="stroke:#000000;stroke-width:1.1458;" x1="537.43" x2="537.43" y1="834.1441" y2="871.9566"/><polygon fill="#000000" points="532.8467,860.4982,537.43,871.9566,542.0133,860.4982,537.43,865.0816" style="stroke:#000000;stroke-width:1.1458;"/><line style="stroke:#000000;stroke-width:1.1458;" x1="614.0147" x2="750.0138" y1="1276.1001" y2="1276.1001"/><line style="stroke:#000000;stroke-width:1.1458;" x1="750.0138" x2="750.0138" y1="1061.34" y2="1276.1001"/><polygon fill="#000000" points="745.4304,1072.7983,750.0138,1061.34,754.5971,1072.7983,750.0138,1068.215" style="stroke:#000000;stroke-width:1.1458;"/><line style="stroke:#000000;stroke-width:1.1458;" x1="750.0138" x2="750.0138" y1="820.3941" y2="1011.2601"/><line style="stroke:#000000;stroke-width:1.1458;" x1="750.0138" x2="551.18" y1="820.3941" y2="820.3941"/><polygon fill="#000000" points="562.6383,815.8107,551.18,820.3941,562.6383,824.9774,558.055,820.3941" style="stroke:#000000;stroke-width:1.1458;"/><line style="stroke:#000000;stroke-width:1.1458;" x1="537.43" x2="537.43" y1="1216.668" y2="1262.3501"/><polygon fill="#000000" points="532.8467,1250.8918,537.43,1262.3501,542.0133,1250.8918,537.43,1255.4751" style="stroke:#000000;stroke-width:1.1458;"/><line style="stroke:#000000;stroke-width:1.1458;" x1="1054.4653" x2="1201.1206" y1="1335.3638" y2="1335.3638"/><line style="stroke:#000000;stroke-width:1.1458;" x1="1201.1206" x2="1201.1206" y1="1061.34" y2="1335.3638"/><polygon fill="#000000" points="1196.5373,1072.7983,1201.1206,1061.34,1205.704,1072.7983,1201.1206,1068.215" style="stroke:#000000;stroke-width:1.1458;"/><line style="stroke:#000000;stroke-width:1.1458;" x1="537.43" x2="537.43" y1="725.6267" y2="806.6441"/><polygon fill="#000000" points="532.8467,795.1857,537.43,806.6441,542.0133,795.1857,537.43,799.7691" style="stroke:#000000;stroke-width:1.1458;"/><line style="stroke:#000000;stroke-width:1.1458;" x1="537.43" x2="537.43" y1="1289.8501" y2="1398.4019"/><polygon fill="#000000" points="532.8467,1386.9435,537.43,1398.4019,542.0133,1386.9435,537.43,1391.5269" style="stroke:#000000;stroke-width:1.1458;"/><text fill="#000000" font-family="'Helvetica, Arial, sans-serif'" font-size="14.8958" lengthAdjust="spacing" textLength="18.2176" x="545.4508" y="1334.8413">no</text><line style="stroke:#000000;stroke-width:1.1458;" x1="977.8806" x2="977.8806" y1="1349.1138" y2="1398.4019"/><polygon fill="#000000" points="973.2973,1386.9435,977.8806,1398.4019,982.464,1386.9435,977.8806,1391.5269" style="stroke:#000000;stroke-width:1.1458;"/><text fill="#000000" font-family="'Helvetica, Arial, sans-serif'" font-size="14.8958" lengthAdjust="spacing" textLength="18.2176" x="985.9015" y="1379.1415">no</text><line style="stroke:#000000;stroke-width:1.1458;" x1="872.4576" x2="872.4576" y1="695.8351" y2="718.7517"/><polygon fill="#000000" points="867.8743,707.2934,872.4576,718.7517,877.0409,707.2934,872.4576,711.8767" style="stroke:#000000;stroke-width:1.1458;"/><line style="stroke:#000000;stroke-width:1.1458;" x1="160.8407" x2="160.8407" y1="200.9518" y2="206.681"/><line style="stroke:#000000;stroke-width:1.1458;" x1="160.8407" x2="872.4576" y1="206.681" y2="206.681"/><line style="stroke:#000000;stroke-width:1.1458;" x1="872.4576" x2="872.4576" y1="206.681" y2="223.8685"/><polygon fill="#000000" points="867.8743,212.4102,872.4576,223.8685,877.0409,212.4102,872.4576,216.9935" style="stroke:#000000;stroke-width:1.1458;"/><line style="stroke:#000000;stroke-width:1.1458;" x1="160.8407" x2="160.8407" y1="409.8144" y2="429.2936"/><line style="stroke:#000000;stroke-width:1.1458;" x1="160.8407" x2="872.4576" y1="429.2936" y2="429.2936"/><line style="stroke:#000000;stroke-width:1.1458;" x1="872.4576" x2="872.4576" y1="429.2936" y2="449.3456"/><polygon fill="#000000" points="867.8743,437.8873,872.4576,449.3456,877.0409,437.8873,872.4576,442.4706" style="stroke:#000000;stroke-width:1.1458;"/><line style="stroke:#000000;stroke-width:1.1458;" x1="872.4576" x2="872.4576" y1="499.4255" y2="505.1546"/><line style="stroke:#000000;stroke-width:1.1458;" x1="872.4576" x2="160.8407" y1="505.1546" y2="505.1546"/><line style="stroke:#000000;stroke-width:1.1458;" x1="160.8407" x2="160.8407" y1="505.1546" y2="522.3421"/><polygon fill="#000000" points="156.2574,510.8838,160.8407,522.3421,165.4241,510.8838,160.8407,515.4671" style="stroke:#000000;stroke-width:1.1458;"/><line style="stroke:#000000;stroke-width:1.1458;" x1="872.4576" x2="872.4576" y1="273.9483" y2="279.6775"/><line style="stroke:#000000;stroke-width:1.1458;" x1="872.4576" x2="160.8407" y1="279.6775" y2="279.6775"/><line style="stroke:#000000;stroke-width:1.1458;" x1="160.8407" x2="160.8407" y1="279.6775" y2="298.028"/><polygon fill="#000000" points="156.2574,286.5697,160.8407,298.028,165.4241,286.5697,160.8407,291.153" style="stroke:#000000;stroke-width:1.1458;"/><line style="stroke:#000000;stroke-width:1.1458;" x1="160.8407" x2="160.8407" y1="622.8386" y2="628.5678"/><line style="stroke:#000000;stroke-width:1.1458;" x1="160.8407" x2="872.4576" y1="628.5678" y2="628.5678"/><line style="stroke:#000000;stroke-width:1.1458;" x1="872.4576" x2="872.4576" y1="628.5678" y2="645.7553"/><polygon fill="#000000" points="867.8743,634.2969,872.4576,645.7553,877.0409,634.2969,872.4576,638.8803" style="stroke:#000000;stroke-width:1.1458;"/><line style="stroke:#000000;stroke-width:1.1458;" x1="266.2638" x2="266.2638" y1="849.0399" y2="854.7691"/><line style="stroke:#000000;stroke-width:1.1458;" x1="266.2638" x2="977.8806" y1="854.7691" y2="854.7691"/><line style="stroke:#000000;stroke-width:1.1458;" x1="977.8806" x2="977.8806" y1="854.7691" y2="871.9566"/><polygon fill="#000000" points="973.2973,860.4982,977.8806,871.9566,982.464,860.4982,977.8806,865.0816" style="stroke:#000000;stroke-width:1.1458;"/><line style="stroke:#000000;stroke-width:1.1458;" x1="977.8806" x2="977.8806" y1="922.0364" y2="927.7655"/><line style="stroke:#000000;stroke-width:1.1458;" x1="977.8806" x2="266.2638" y1="927.7655" y2="927.7655"/><line style="stroke:#000000;stroke-width:1.1458;" x1="266.2638" x2="266.2638" y1="927.7655" y2="946.1161"/><polygon fill="#000000" points="261.6804,934.6577,266.2638,946.1161,270.8471,934.6577,266.2638,939.2411" style="stroke:#000000;stroke-width:1.1458;"/><line style="stroke:#000000;stroke-width:1.1458;" x1="266.2638" x2="266.2638" y1="1148.0864" y2="1168.1385"/><line style="stroke:#000000;stroke-width:1.1458;" x1="266.2638" x2="977.8806" y1="1168.1385" y2="1168.1385"/><line style="stroke:#000000;stroke-width:1.1458;" x1="977.8806" x2="977.8806" y1="1168.1385" y2="1188.1906"/><polygon fill="#000000" points="973.2973,1176.7323,977.8806,1188.1906,982.464,1176.7323,977.8806,1181.3156" style="stroke:#000000;stroke-width:1.1458;"/><line style="stroke:#000000;stroke-width:1.1458;" x1="977.8806" x2="977.8806" y1="1238.2704" y2="1249.4933"/><line style="stroke:#000000;stroke-width:1.1458;" x1="977.8806" x2="266.2638" y1="1249.4933" y2="1249.4933"/><line style="stroke:#000000;stroke-width:1.1458;" x1="266.2638" x2="266.2638" y1="1249.4933" y2="1270.0341"/><polygon fill="#000000" points="261.6804,1258.5758,266.2638,1270.0341,270.8471,1258.5758,266.2638,1263.1591" style="stroke:#000000;stroke-width:1.1458;"/><line style="stroke:#000000;stroke-width:1.1458;" x1="1201.1206" x2="1201.1206" y1="762.2934" y2="1011.2601"/><line style="stroke:#000000;stroke-width:1.1458;" x1="1201.1206" x2="280.0138" y1="762.2934" y2="762.2934"/><polygon fill="#000000" points="291.4721,757.7101,280.0138,762.2934,291.4721,766.8767,286.8888,762.2934" style="stroke:#000000;stroke-width:1.1458;"/><line style="stroke:#000000;stroke-width:1.1458;" x1="266.2638" x2="266.2638" y1="1297.5341" y2="1303.2633"/><line style="stroke:#000000;stroke-width:1.1458;" x1="266.2638" x2="977.8806" y1="1303.2633" y2="1303.2633"/><line style="stroke:#000000;stroke-width:1.1458;" x1="977.8806" x2="977.8806" y1="1303.2633" y2="1321.6138"/><polygon fill="#000000" points="973.2973,1310.1555,977.8806,1321.6138,982.464,1310.1555,977.8806,1314.7388" style="stroke:#000000;stroke-width:1.1458;"/><line style="stroke:#000000;stroke-width:1.1458;" x1="977.8806" x2="977.8806" y1="725.6267" y2="730.2101"/><line style="stroke:#000000;stroke-width:1.1458;" x1="977.8806" x2="266.2638" y1="730.2101" y2="730.2101"/><line style="stroke:#000000;stroke-width:1.1458;" x1="266.2638" x2="266.2638" y1="730.2101" y2="748.5434"/><polygon fill="#000000" points="261.6804,737.0851,266.2638,748.5434,270.8471,737.0851,266.2638,741.6684" style="stroke:#000000;stroke-width:1.1458;"/><line style="stroke:#000000;stroke-width:1.1458;" x1="872.4576" x2="872.4576" y1="1405.2769" y2="1411.006"/><line style="stroke:#000000;stroke-width:1.1458;" x1="872.4576" x2="160.8407" y1="1411.006" y2="1411.006"/><line style="stroke:#000000;stroke-width:1.1458;" x1="160.8407" x2="160.8407" y1="1411.006" y2="1428.1935"/><polygon fill="#000000" points="156.2574,1416.7352,160.8407,1428.1935,165.4241,1416.7352,160.8407,1421.3185" style="stroke:#000000;stroke-width:1.1458;"/><line style="stroke:#000000;stroke-width:1.1458;" x1="160.8407" x2="160.8407" y1="1478.2733" y2="1484.0025"/><line style="stroke:#000000;stroke-width:1.1458;" x1="160.8407" x2="872.4576" y1="1484.0025" y2="1484.0025"/><line style="stroke:#000000;stroke-width:1.1458;" x1="872.4576" x2="872.4576" y1="1484.0025" y2="1501.19"/><polygon fill="#000000" points="867.8743,1489.7317,872.4576,1501.19,877.0409,1489.7317,872.4576,1494.315" style="stroke:#000000;stroke-width:1.1458;"/><line style="stroke:#000000;stroke-width:1.1458;" x1="160.8407" x2="160.8407" y1="1687.1359" y2="1706.6151"/><line style="stroke:#000000;stroke-width:1.1458;" x1="160.8407" x2="872.4576" y1="1706.6151" y2="1706.6151"/><line style="stroke:#000000;stroke-width:1.1458;" x1="872.4576" x2="872.4576" y1="1706.6151" y2="1726.6671"/><polygon fill="#000000" points="867.8743,1715.2088,872.4576,1726.6671,877.0409,1715.2088,872.4576,1719.7921" style="stroke:#000000;stroke-width:1.1458;"/><line style="stroke:#000000;stroke-width:1.1458;" x1="872.4576" x2="872.4576" y1="1776.747" y2="1782.4761"/><line style="stroke:#000000;stroke-width:1.1458;" x1="872.4576" x2="160.8407" y1="1782.4761" y2="1782.4761"/><line style="stroke:#000000;stroke-width:1.1458;" x1="160.8407" x2="160.8407" y1="1782.4761" y2="1799.6636"/><polygon fill="#000000" points="156.2574,1788.2053,160.8407,1799.6636,165.4241,1788.2053,160.8407,1792.7886" style="stroke:#000000;stroke-width:1.1458;"/><line style="stroke:#000000;stroke-width:1.1458;" x1="872.4576" x2="872.4576" y1="1551.2698" y2="1556.999"/><line style="stroke:#000000;stroke-width:1.1458;" x1="872.4576" x2="160.8407" y1="1556.999" y2="1556.999"/><line style="stroke:#000000;stroke-width:1.1458;" x1="160.8407" x2="160.8407" y1="1556.999" y2="1575.3495"/><polygon fill="#000000" points="156.2574,1563.8912,160.8407,1575.3495,165.4241,1563.8912,160.8407,1568.4745" style="stroke:#000000;stroke-width:1.1458;"/><text fill="#000000" font-family="'Helvetica, Arial, sans-serif'" font-size="14.8958" lengthAdjust="spacing" textLength="161.7838" x="127.2735" y="91.5075">User (Student/Teacher)</text><text fill="#000000" font-family="'Helvetica, Arial, sans-serif'" font-size="14.8958" lengthAdjust="spacing" textLength="50.6161" x="833.6058" y="91.5075">System</text><?plantuml-src dLHDZzem4BtdLqnlS62phNeAsgvGMRMLYje2spsRP9ACSEpKTaAH-F4TEm7AbW-fN0ZupSnxRvvZrwHgOKG5CxHM53YHL2X8KJaqaICd4IQfevRS5gOa2eOci71DjlsCiaO3dwHU2GalsgnpgJVH6rAfR3A4qhdQ9d5inEQk85SsgyQYIJLtLkukrLMS6yoqbQ9zTt__FfwHeah8POaLVd-UVOqDvZOkKMGshWIfkEe08-SHTtLJoIZQFNDF67X2t3LUeaXBDCDTP9qmBagaBhweSRHRRAt3QXSbF3ydKqqQxg8SfSAHPi3bHfJ3O8ejfGXSgp1rc3qEmPV3GEbX190OB8ZxcmutvhyE0_cq7zaTpWFKz6DHMeJ15kqmGfLHVeL74XG5vnUygb3-Zwp-PE6XB2hdfPoICLYZSFp0l2gjo6dpf5eoMbKyRXmElEAQLqDUQXZuen7I1-3X0TxkfGVI43w9aDXHE_JeX7NsyA-WBK1V13bWNg3mjsCw8YDL-9gLIDSROR9aYPBtwymMfDRr-40QDYLn6WUzHY0BmYSJUHlyl2Sq-g3qE2W7KN1ilFvBdfxwOV1NWxQp-ADcodv7treqBU6ca_MNarnWMTTLzEMvNFsJSP09MwuqopvQlsXM5Nla8w8Ao1hZlsmd-l6S-up4qrnq1oTaZpcSXyPpJ96zowwjwx2IwPuba7ylUDkxCV-n6MuE8PTNehxtzMRGdrHsw-xsTjRQkb7lOk_jQpFF6ddc8hysy6ZUhJjidQx_0000?></g></svg>