<?plantuml 1.2026.2?><svg xmlns="http://www.w3.org/2000/svg" xmlns:xlink="http://www.w3.org/1999/xlink" contentStyleType="text/css" data-diagram-type="ACTIVITY" height="638.2292px" preserveAspectRatio="none" style="width:2900px;height:638px;background:#FFFFFF;" version="1.1" viewBox="0 0 2900 638" width="2900.1042px" zoomAndPan="magnify"><title>Activity Diagram: StudyHelper</title><defs/><g><g class="title" data-source-line="3"><text fill="#000000" font-family="'Helvetica, Arial, sans-serif'" font-size="25.2083" font-weight="bold" lengthAdjust="spacing" textLength="379.9917" x="1258.8533" y="47.5728">Activity Diagram: StudyHelper</text></g><ellipse cx="1450.51" cy="82.4589" fill="#FFFFFF" rx="11.4583" ry="11.4583" style="stroke:#000000;stroke-width:1.1458;"/><line style="stroke:#000000;stroke-width:1.7188;" x1="146.5791" x2="2793.6508" y1="116.8339" y2="116.8339"/><rect fill="#FFFFFF" height="260.8296" style="stroke:#000000;stroke-width:1.1458;" width="279.4082" x="6.875" y="238.5283"/><path d="M80.1144,238.5283 L80.1144,257.6706 L68.6561,269.1289 L6.875,269.1289" fill="none" style="stroke:#000000;stroke-width:1.1458;"/><text fill="#000000" font-family="'Helvetica, Arial, sans-serif'" font-size="14.8958" lengthAdjust="spacing" textLength="54.9061" x="13.75" y="259.0353">Student</text><rect fill="#FFFFFF" height="50.0798" style="stroke:#000000;stroke-width:1.1458;" width="256.4916" x="18.3333" y="313.2607"/><text fill="#000000" font-family="'Helvetica, Arial, sans-serif'" font-size="14.8958" lengthAdjust="spacing" textLength="226.6999" x="33.2292" y="344.0802">requestStudyConditionOverview</text><rect fill="#FFFFFF" height="50.0798" style="stroke:#000000;stroke-width:1.1458;" width="236.5609" x="28.2987" y="403.4447"/><text fill="#000000" font-family="'Helvetica, Arial, sans-serif'" font-size="14.8958" lengthAdjust="spacing" textLength="206.7693" x="43.1945" y="434.2642">sendStudyConditionOverview</text><rect fill="#FFFFFF" height="260.8296" style="stroke:#000000;stroke-width:1.1458;" width="238.9958" x="297.7416" y="238.5283"/><path d="M370.981,238.5283 L370.981,257.6706 L359.5227,269.1289 L297.7416,269.1289" fill="none" style="stroke:#000000;stroke-width:1.1458;"/><text fill="#000000" font-family="'Helvetica, Arial, sans-serif'" font-size="14.8958" lengthAdjust="spacing" textLength="54.9061" x="304.6166" y="259.0353">Student</text><rect fill="#FFFFFF" height="50.0798" style="stroke:#000000;stroke-width:1.1458;" width="216.0792" x="309.1999" y="313.2607"/><text fill="#000000" font-family="'Helvetica, Arial, sans-serif'" font-size="14.8958" lengthAdjust="spacing" textLength="186.2875" x="324.0957" y="344.0802">submitStudySessionRating</text><rect fill="#FFFFFF" height="50.0798" style="stroke:#000000;stroke-width:1.1458;" width="181.0143" x="326.7323" y="403.4447"/><text fill="#000000" font-family="'Helvetica, Arial, sans-serif'" font-size="14.8958" lengthAdjust="spacing" textLength="151.2227" x="341.6282" y="434.2642">confirmRatingReceipt</text><rect fill="#FFFFFF" height="260.8296" style="stroke:#000000;stroke-width:1.1458;" width="314.9497" x="548.1957" y="238.5283"/><path d="M621.4352,238.5283 L621.4352,257.6706 L609.9768,269.1289 L548.1957,269.1289" fill="none" style="stroke:#000000;stroke-width:1.1458;"/><text fill="#000000" font-family="'Helvetica, Arial, sans-serif'" font-size="14.8958" lengthAdjust="spacing" textLength="54.9061" x="555.0707" y="259.0353">Student</text><rect fill="#FFFFFF" height="50.0798" style="stroke:#000000;stroke-width:1.1458;" width="292.0331" x="559.6541" y="313.2607"/><text fill="#000000" font-family="'Helvetica, Arial, sans-serif'" font-size="14.8958" lengthAdjust="spacing" textLength="262.2414" x="574.5499" y="344.0802">requestEnvironmentConditionHistory</text><rect fill="#FFFFFF" height="50.0798" style="stroke:#000000;stroke-width:1.1458;" width="272.1024" x="569.6194" y="403.4447"/><text fill="#000000" font-family="'Helvetica, Arial, sans-serif'" font-size="14.8958" lengthAdjust="spacing" textLength="242.3108" x="584.5152" y="434.2642">sendEnvironmentConditionHistory</text><rect fill="#FFFFFF" height="432.0308" style="stroke:#000000;stroke-width:1.1458;" width="286.945" x="874.6038" y="128.2922"/><path d="M947.8433,128.2922 L947.8433,147.4345 L936.3849,158.8928 L874.6038,158.8928" fill="none" style="stroke:#000000;stroke-width:1.1458;"/><text fill="#000000" font-family="'Helvetica, Arial, sans-serif'" font-size="14.8958" lengthAdjust="spacing" textLength="54.9061" x="881.4788" y="148.7992">Student</text><rect fill="#FFFFFF" height="50.0798" style="stroke:#000000;stroke-width:1.1458;" width="256.2979" x="886.0622" y="178.372"/><text fill="#000000" font-family="'Helvetica, Arial, sans-serif'" font-size="14.8958" lengthAdjust="spacing" textLength="226.5063" x="900.958" y="209.1915">monitorActiveSessionConditions</text><rect fill="#FFFFFF" height="50.0798" style="stroke:#000000;stroke-width:1.1458;" width="57.8852" x="985.2685" y="354.9152"/><text fill="#000000" font-family="'Helvetica, Arial, sans-serif'" font-size="14.8958" lengthAdjust="spacing" textLength="28.0936" x="1000.1643" y="385.7347">skip</text><polygon fill="#FFFFFF" points="916.0286,293.2086,1112.3937,293.2086,1126.1437,306.9586,1112.3937,320.7086,916.0286,320.7086,902.2786,306.9586,916.0286,293.2086" style="stroke:#000000;stroke-width:1.1458;"/><text fill="#000000" font-family="'Helvetica, Arial, sans-serif'" font-size="14.8958" lengthAdjust="spacing" textLength="23.1332" x="1022.2319" y="340.0698">yes</text><text fill="#000000" font-family="'Helvetica, Arial, sans-serif'" font-size="14.8958" lengthAdjust="spacing" textLength="189.4901" x="919.4661" y="312.7382">predictedStudyQuality == 1</text><text fill="#000000" font-family="'Helvetica, Arial, sans-serif'" font-size="14.8958" lengthAdjust="spacing" textLength="18.2176" x="1129.5812" y="299.1566">no</text><polygon fill="#FFFFFF" points="1014.2111,446.0766,1027.9611,459.8266,1014.2111,473.5766,1000.4611,459.8266,1014.2111,446.0766" style="stroke:#000000;stroke-width:1.1458;"/><rect fill="#FFFFFF" height="50.0798" style="stroke:#000000;stroke-width:1.1458;" width="158.7748" x="934.8237" y="496.4932"/><text fill="#000000" font-family="'Helvetica, Arial, sans-serif'" font-size="14.8958" lengthAdjust="spacing" textLength="128.9831" x="949.7196" y="527.3127">triggerBuzzerAlert</text><rect fill="#FFFFFF" height="260.8296" style="stroke:#000000;stroke-width:1.1458;" width="242.1984" x="1173.0071" y="238.5283"/><path d="M1246.2466,238.5283 L1246.2466,257.6706 L1234.7882,269.1289 L1173.0071,269.1289" fill="none" style="stroke:#000000;stroke-width:1.1458;"/><text fill="#000000" font-family="'Helvetica, Arial, sans-serif'" font-size="14.8958" lengthAdjust="spacing" textLength="54.9061" x="1179.8821" y="259.0353">Student</text><rect fill="#FFFFFF" height="50.0798" style="stroke:#000000;stroke-width:1.1458;" width="219.2818" x="1184.4654" y="313.2607"/><text fill="#000000" font-family="'Helvetica, Arial, sans-serif'" font-size="14.8958" lengthAdjust="spacing" textLength="189.4901" x="1199.3613" y="344.0802">pressButtonToStartSession</text><rect fill="#FFFFFF" height="50.0798" style="stroke:#000000;stroke-width:1.1458;" width="178.9736" x="1204.6195" y="403.4447"/><text fill="#000000" font-family="'Helvetica, Arial, sans-serif'" font-size="14.8958" lengthAdjust="spacing" textLength="149.1819" x="1219.5154" y="434.2642">confirmSessionActive</text><rect fill="#FFFFFF" height="260.8296" style="stroke:#000000;stroke-width:1.1458;" width="235.4059" x="1426.6639" y="238.5283"/><path d="M1499.9033,238.5283 L1499.9033,257.6706 L1488.445,269.1289 L1426.6639,269.1289" fill="none" style="stroke:#000000;stroke-width:1.1458;"/><text fill="#000000" font-family="'Helvetica, Arial, sans-serif'" font-size="14.8958" lengthAdjust="spacing" textLength="54.9061" x="1433.5389" y="259.0353">Student</text><rect fill="#FFFFFF" height="50.0798" style="stroke:#000000;stroke-width:1.1458;" width="212.4893" x="1438.1222" y="313.2607"/><text fill="#000000" font-family="'Helvetica, Arial, sans-serif'" font-size="14.8958" lengthAdjust="spacing" textLength="182.6976" x="1453.018" y="344.0802">pressButtonToEndSession</text><rect fill="#FFFFFF" height="50.0798" style="stroke:#000000;stroke-width:1.1458;" width="181.3271" x="1453.7033" y="403.4447"/><text fill="#000000" font-family="'Helvetica, Arial, sans-serif'" font-size="14.8958" lengthAdjust="spacing" textLength="151.5355" x="1468.5991" y="434.2642">confirmSessionEnded</text><rect fill="#FFFFFF" height="260.8296" style="stroke:#000000;stroke-width:1.1458;" width="303.4948" x="1673.5281" y="238.5283"/><path d="M1747.8103,238.5283 L1747.8103,257.6706 L1736.3519,269.1289 L1673.5281,269.1289" fill="none" style="stroke:#000000;stroke-width:1.1458;"/><text fill="#000000" font-family="'Helvetica, Arial, sans-serif'" font-size="14.8958" lengthAdjust="spacing" textLength="55.9488" x="1680.4031" y="259.0353">Teacher</text><rect fill="#FFFFFF" height="50.0798" style="stroke:#000000;stroke-width:1.1458;" width="280.5781" x="1684.9865" y="313.2607"/><text fill="#000000" font-family="'Helvetica, Arial, sans-serif'" font-size="14.8958" lengthAdjust="spacing" textLength="250.7865" x="1699.8823" y="344.0802">requestTeachingConditionOverview</text><rect fill="#FFFFFF" height="50.0798" style="stroke:#000000;stroke-width:1.1458;" width="260.6475" x="1694.9518" y="403.4447"/><text fill="#000000" font-family="'Helvetica, Arial, sans-serif'" font-size="14.8958" lengthAdjust="spacing" textLength="230.8558" x="1709.8476" y="434.2642">sendTeachingConditionOverview</text><rect fill="#FFFFFF" height="260.8296" style="stroke:#000000;stroke-width:1.1458;" width="210.2021" x="1988.4813" y="238.5283"/><path d="M2039.3918,238.5283 L2039.3918,257.6706 L2027.9335,269.1289 L1988.4813,269.1289" fill="none" style="stroke:#000000;stroke-width:1.1458;"/><text fill="#000000" font-family="'Helvetica, Arial, sans-serif'" font-size="14.8958" lengthAdjust="spacing" textLength="32.5772" x="1995.3563" y="259.0353">User</text><rect fill="#FFFFFF" height="50.0798" style="stroke:#000000;stroke-width:1.1458;" width="157.7321" x="2014.7163" y="313.2607"/><text fill="#000000" font-family="'Helvetica, Arial, sans-serif'" font-size="14.8958" lengthAdjust="spacing" textLength="127.9404" x="2029.6121" y="344.0802">submitCredentials</text><rect fill="#FFFFFF" height="50.0798" style="stroke:#000000;stroke-width:1.1458;" width="187.2855" x="1999.9396" y="403.4447"/><text fill="#000000" font-family="'Helvetica, Arial, sans-serif'" font-size="14.8958" lengthAdjust="spacing" textLength="157.4938" x="2014.8354" y="434.2642">confirmAuthentication</text><rect fill="#FFFFFF" height="260.8296" style="stroke:#000000;stroke-width:1.1458;" width="228.6878" x="2210.1418" y="238.5283"/><path d="M2283.3812,238.5283 L2283.3812,257.6706 L2271.9229,269.1289 L2210.1418,269.1289" fill="none" style="stroke:#000000;stroke-width:1.1458;"/><text fill="#000000" font-family="'Helvetica, Arial, sans-serif'" font-size="14.8958" lengthAdjust="spacing" textLength="54.9061" x="2217.0168" y="259.0353">Student</text><rect fill="#FFFFFF" height="50.0798" style="stroke:#000000;stroke-width:1.1458;" width="127.7765" x="2260.5974" y="313.2607"/><text fill="#000000" font-family="'Helvetica, Arial, sans-serif'" font-size="14.8958" lengthAdjust="spacing" textLength="97.9849" x="2275.4932" y="344.0802">enterDeviceId</text><rect fill="#FFFFFF" height="50.0798" style="stroke:#000000;stroke-width:1.1458;" width="205.7712" x="2221.6001" y="403.4447"/><text fill="#000000" font-family="'Helvetica, Arial, sans-serif'" font-size="14.8958" lengthAdjust="spacing" textLength="175.9795" x="2236.4959" y="434.2642">confirmDeviceConnected</text><rect fill="#FFFFFF" height="260.8296" style="stroke:#000000;stroke-width:1.1458;" width="231.2946" x="2450.2879" y="238.5283"/><path d="M2523.5274,238.5283 L2523.5274,257.6706 L2512.069,269.1289 L2450.2879,269.1289" fill="none" style="stroke:#000000;stroke-width:1.1458;"/><text fill="#000000" font-family="'Helvetica, Arial, sans-serif'" font-size="14.8958" lengthAdjust="spacing" textLength="54.9061" x="2457.1629" y="259.0353">Student</text><rect fill="#FFFFFF" height="50.0798" style="stroke:#000000;stroke-width:1.1458;" width="208.3779" x="2461.7463" y="313.2607"/><text fill="#000000" font-family="'Helvetica, Arial, sans-serif'" font-size="14.8958" lengthAdjust="spacing" textLength="178.5863" x="2476.6421" y="344.0802">updateProfilePreferences</text><rect fill="#FFFFFF" height="50.0798" style="stroke:#000000;stroke-width:1.1458;" width="190.1008" x="2470.8849" y="403.4447"/><text fill="#000000" font-family="'Helvetica, Arial, sans-serif'" font-size="14.8958" lengthAdjust="spacing" textLength="160.3091" x="2485.7807" y="434.2642">confirmProfileUpdated</text><rect fill="#FFFFFF" height="260.8296" style="stroke:#000000;stroke-width:1.1458;" width="201.2199" x="2693.0409" y="238.5283"/><path d="M2766.2803,238.5283 L2766.2803,257.6706 L2754.822,269.1289 L2693.0409,269.1289" fill="none" style="stroke:#000000;stroke-width:1.1458;"/><text fill="#000000" font-family="'Helvetica, Arial, sans-serif'" font-size="14.8958" lengthAdjust="spacing" textLength="54.9061" x="2699.9159" y="259.0353">Student</text><rect fill="#FFFFFF" height="50.0798" style="stroke:#000000;stroke-width:1.1458;" width="175.3538" x="2705.9739" y="313.2607"/><text fill="#000000" font-family="'Helvetica, Arial, sans-serif'" font-size="14.8958" lengthAdjust="spacing" textLength="145.5622" x="2720.8697" y="344.0802">createCalendarEvent</text><rect fill="#FFFFFF" height="50.0798" style="stroke:#000000;stroke-width:1.1458;" width="178.3032" x="2704.4992" y="403.4447"/><text fill="#000000" font-family="'Helvetica, Arial, sans-serif'" font-size="14.8958" lengthAdjust="spacing" textLength="148.5116" x="2719.395" y="434.2642">confirmEventCreated</text><line style="stroke:#000000;stroke-width:1.7188;" x1="146.5791" x2="2793.6508" y1="583.2397" y2="583.2397"/><ellipse cx="1450.51" cy="618.7605" fill="none" rx="12.6042" ry="12.6042" style="stroke:#000000;stroke-width:1.1458;"/><ellipse cx="1450.51" cy="618.7605" fill="#FFFFFF" rx="6.875" ry="6.875" style="stroke:#000000;stroke-width:1.1458;"/><line style="stroke:#000000;stroke-width:1.1458;" x1="146.5791" x2="146.5791" y1="118.5526" y2="313.2607"/><polygon fill="#000000" points="141.9958,301.8024,146.5791,313.2607,151.1624,301.8024,146.5791,306.3857" style="stroke:#000000;stroke-width:1.1458;"/><line style="stroke:#000000;stroke-width:1.1458;" x1="146.5791" x2="146.5791" y1="363.3405" y2="403.4447"/><polygon fill="#000000" points="141.9958,391.9863,146.5791,403.4447,151.1624,391.9863,146.5791,396.5697" style="stroke:#000000;stroke-width:1.1458;"/><line style="stroke:#000000;stroke-width:1.1458;" x1="146.5791" x2="146.5791" y1="453.5245" y2="583.2397"/><polygon fill="#000000" points="141.9958,571.7814,146.5791,583.2397,151.1624,571.7814,146.5791,576.3647" style="stroke:#000000;stroke-width:1.1458;"/><line style="stroke:#000000;stroke-width:1.1458;" x1="417.2395" x2="417.2395" y1="118.5526" y2="313.2607"/><polygon fill="#000000" points="412.6561,301.8024,417.2395,313.2607,421.8228,301.8024,417.2395,306.3857" style="stroke:#000000;stroke-width:1.1458;"/><line style="stroke:#000000;stroke-width:1.1458;" x1="417.2395" x2="417.2395" y1="363.3405" y2="403.4447"/><polygon fill="#000000" points="412.6561,391.9863,417.2395,403.4447,421.8228,391.9863,417.2395,396.5697" style="stroke:#000000;stroke-width:1.1458;"/><line style="stroke:#000000;stroke-width:1.1458;" x1="417.2395" x2="417.2395" y1="453.5245" y2="583.2397"/><polygon fill="#000000" points="412.6561,571.7814,417.2395,583.2397,421.8228,571.7814,417.2395,576.3647" style="stroke:#000000;stroke-width:1.1458;"/><line style="stroke:#000000;stroke-width:1.1458;" x1="705.6706" x2="705.6706" y1="118.5526" y2="313.2607"/><polygon fill="#000000" points="701.0873,301.8024,705.6706,313.2607,710.2539,301.8024,705.6706,306.3857" style="stroke:#000000;stroke-width:1.1458;"/><line style="stroke:#000000;stroke-width:1.1458;" x1="705.6706" x2="705.6706" y1="363.3405" y2="403.4447"/><polygon fill="#000000" points="701.0873,391.9863,705.6706,403.4447,710.2539,391.9863,705.6706,396.5697" style="stroke:#000000;stroke-width:1.1458;"/><line style="stroke:#000000;stroke-width:1.1458;" x1="705.6706" x2="705.6706" y1="453.5245" y2="583.2397"/><polygon fill="#000000" points="701.0873,571.7814,705.6706,583.2397,710.2539,571.7814,705.6706,576.3647" style="stroke:#000000;stroke-width:1.1458;"/><line style="stroke:#000000;stroke-width:1.1458;" x1="1014.2111" x2="1014.2111" y1="228.4518" y2="293.2086"/><polygon fill="#000000" points="1009.6278,281.7503,1014.2111,293.2086,1018.7944,281.7503,1014.2111,286.3336" style="stroke:#000000;stroke-width:1.1458;"/><line style="stroke:#000000;stroke-width:1.1458;" x1="1014.2111" x2="1014.2111" y1="320.7086" y2="354.9152"/><polygon fill="#000000" points="1009.6278,343.4569,1014.2111,354.9152,1018.7944,343.4569,1014.2111,348.0402" style="stroke:#000000;stroke-width:1.1458;"/><line style="stroke:#000000;stroke-width:1.1458;" x1="1126.1437" x2="1139.8937" y1="306.9586" y2="306.9586"/><polygon fill="#000000" points="1135.3103,371.9343,1139.8937,383.3926,1144.477,371.9343,1139.8937,376.5176" style="stroke:#000000;stroke-width:1.1458;"/><line style="stroke:#000000;stroke-width:1.1458;" x1="1139.8937" x2="1139.8937" y1="306.9586" y2="459.8266"/><line style="stroke:#000000;stroke-width:1.1458;" x1="1139.8937" x2="1027.9611" y1="459.8266" y2="459.8266"/><polygon fill="#000000" points="1039.4194,455.2432,1027.9611,459.8266,1039.4194,464.4099,1034.8361,459.8266" style="stroke:#000000;stroke-width:1.1458;"/><line style="stroke:#000000;stroke-width:1.1458;" x1="1014.2111" x2="1014.2111" y1="404.995" y2="446.0766"/><polygon fill="#000000" points="1009.6278,434.6182,1014.2111,446.0766,1018.7944,434.6182,1014.2111,439.2016" style="stroke:#000000;stroke-width:1.1458;"/><line style="stroke:#000000;stroke-width:1.1458;" x1="1014.2111" x2="1014.2111" y1="473.5766" y2="496.4932"/><polygon fill="#000000" points="1009.6278,485.0349,1014.2111,496.4932,1018.7944,485.0349,1014.2111,489.6182" style="stroke:#000000;stroke-width:1.1458;"/><line style="stroke:#000000;stroke-width:1.1458;" x1="1014.2111" x2="1014.2111" y1="546.573" y2="583.2397"/><polygon fill="#000000" points="1009.6278,571.7814,1014.2111,583.2397,1018.7944,571.7814,1014.2111,576.3647" style="stroke:#000000;stroke-width:1.1458;"/><line style="stroke:#000000;stroke-width:1.1458;" x1="1294.1063" x2="1294.1063" y1="118.5526" y2="313.2607"/><polygon fill="#000000" points="1289.523,301.8024,1294.1063,313.2607,1298.6897,301.8024,1294.1063,306.3857" style="stroke:#000000;stroke-width:1.1458;"/><line style="stroke:#000000;stroke-width:1.1458;" x1="1294.1063" x2="1294.1063" y1="363.3405" y2="403.4447"/><polygon fill="#000000" points="1289.523,391.9863,1294.1063,403.4447,1298.6897,391.9863,1294.1063,396.5697" style="stroke:#000000;stroke-width:1.1458;"/><line style="stroke:#000000;stroke-width:1.1458;" x1="1294.1063" x2="1294.1063" y1="453.5245" y2="583.2397"/><polygon fill="#000000" points="1289.523,571.7814,1294.1063,583.2397,1298.6897,571.7814,1294.1063,576.3647" style="stroke:#000000;stroke-width:1.1458;"/><line style="stroke:#000000;stroke-width:1.1458;" x1="1544.3668" x2="1544.3668" y1="118.5526" y2="313.2607"/><polygon fill="#000000" points="1539.7835,301.8024,1544.3668,313.2607,1548.9502,301.8024,1544.3668,306.3857" style="stroke:#000000;stroke-width:1.1458;"/><line style="stroke:#000000;stroke-width:1.1458;" x1="1544.3668" x2="1544.3668" y1="363.3405" y2="403.4447"/><polygon fill="#000000" points="1539.7835,391.9863,1544.3668,403.4447,1548.9502,391.9863,1544.3668,396.5697" style="stroke:#000000;stroke-width:1.1458;"/><line style="stroke:#000000;stroke-width:1.1458;" x1="1544.3668" x2="1544.3668" y1="453.5245" y2="583.2397"/><polygon fill="#000000" points="1539.7835,571.7814,1544.3668,583.2397,1548.9502,571.7814,1544.3668,576.3647" style="stroke:#000000;stroke-width:1.1458;"/><line style="stroke:#000000;stroke-width:1.1458;" x1="1825.2755" x2="1825.2755" y1="118.5526" y2="313.2607"/><polygon fill="#000000" points="1820.6922,301.8024,1825.2755,313.2607,1829.8589,301.8024,1825.2755,306.3857" style="stroke:#000000;stroke-width:1.1458;"/><line style="stroke:#000000;stroke-width:1.1458;" x1="1825.2755" x2="1825.2755" y1="363.3405" y2="403.4447"/><polygon fill="#000000" points="1820.6922,391.9863,1825.2755,403.4447,1829.8589,391.9863,1825.2755,396.5697" style="stroke:#000000;stroke-width:1.1458;"/><line style="stroke:#000000;stroke-width:1.1458;" x1="1825.2755" x2="1825.2755" y1="453.5245" y2="583.2397"/><polygon fill="#000000" points="1820.6922,571.7814,1825.2755,583.2397,1829.8589,571.7814,1825.2755,576.3647" style="stroke:#000000;stroke-width:1.1458;"/><line style="stroke:#000000;stroke-width:1.1458;" x1="2093.5823" x2="2093.5823" y1="118.5526" y2="313.2607"/><polygon fill="#000000" points="2088.999,301.8024,2093.5823,313.2607,2098.1657,301.8024,2093.5823,306.3857" style="stroke:#000000;stroke-width:1.1458;"/><line style="stroke:#000000;stroke-width:1.1458;" x1="2093.5823" x2="2093.5823" y1="363.3405" y2="403.4447"/><polygon fill="#000000" points="2088.999,391.9863,2093.5823,403.4447,2098.1657,391.9863,2093.5823,396.5697" style="stroke:#000000;stroke-width:1.1458;"/><line style="stroke:#000000;stroke-width:1.1458;" x1="2093.5823" x2="2093.5823" y1="453.5245" y2="583.2397"/><polygon fill="#000000" points="2088.999,571.7814,2093.5823,583.2397,2098.1657,571.7814,2093.5823,576.3647" style="stroke:#000000;stroke-width:1.1458;"/><line style="stroke:#000000;stroke-width:1.1458;" x1="2324.4857" x2="2324.4857" y1="118.5526" y2="313.2607"/><polygon fill="#000000" points="2319.9023,301.8024,2324.4857,313.2607,2329.069,301.8024,2324.4857,306.3857" style="stroke:#000000;stroke-width:1.1458;"/><line style="stroke:#000000;stroke-width:1.1458;" x1="2324.4857" x2="2324.4857" y1="363.3405" y2="403.4447"/><polygon fill="#000000" points="2319.9023,391.9863,2324.4857,403.4447,2329.069,391.9863,2324.4857,396.5697" style="stroke:#000000;stroke-width:1.1458;"/><line style="stroke:#000000;stroke-width:1.1458;" x1="2324.4857" x2="2324.4857" y1="453.5245" y2="583.2397"/><polygon fill="#000000" points="2319.9023,571.7814,2324.4857,583.2397,2329.069,571.7814,2324.4857,576.3647" style="stroke:#000000;stroke-width:1.1458;"/><line style="stroke:#000000;stroke-width:1.1458;" x1="2565.9352" x2="2565.9352" y1="118.5526" y2="313.2607"/><polygon fill="#000000" points="2561.3519,301.8024,2565.9352,313.2607,2570.5186,301.8024,2565.9352,306.3857" style="stroke:#000000;stroke-width:1.1458;"/><line style="stroke:#000000;stroke-width:1.1458;" x1="2565.9352" x2="2565.9352" y1="363.3405" y2="403.4447"/><polygon fill="#000000" points="2561.3519,391.9863,2565.9352,403.4447,2570.5186,391.9863,2565.9352,396.5697" style="stroke:#000000;stroke-width:1.1458;"/><line style="stroke:#000000;stroke-width:1.1458;" x1="2565.9352" x2="2565.9352" y1="453.5245" y2="583.2397"/><polygon fill="#000000" points="2561.3519,571.7814,2565.9352,583.2397,2570.5186,571.7814,2565.9352,576.3647" style="stroke:#000000;stroke-width:1.1458;"/><line style="stroke:#000000;stroke-width:1.1458;" x1="2793.6508" x2="2793.6508" y1="118.5526" y2="313.2607"/><polygon fill="#000000" points="2789.0675,301.8024,2793.6508,313.2607,2798.2342,301.8024,2793.6508,306.3857" style="stroke:#000000;stroke-width:1.1458;"/><line style="stroke:#000000;stroke-width:1.1458;" x1="2793.6508" x2="2793.6508" y1="363.3405" y2="403.4447"/><polygon fill="#000000" points="2789.0675,391.9863,2793.6508,403.4447,2798.2342,391.9863,2793.6508,396.5697" style="stroke:#000000;stroke-width:1.1458;"/><line style="stroke:#000000;stroke-width:1.1458;" x1="2793.6508" x2="2793.6508" y1="453.5245" y2="583.2397"/><polygon fill="#000000" points="2789.0675,571.7814,2793.6508,583.2397,2798.2342,571.7814,2793.6508,576.3647" style="stroke:#000000;stroke-width:1.1458;"/><line style="stroke:#000000;stroke-width:1.1458;" x1="1014.2111" x2="1014.2111" y1="118.5526" y2="178.372"/><polygon fill="#000000" points="1009.6278,166.9137,1014.2111,178.372,1018.7944,166.9137,1014.2111,171.497" style="stroke:#000000;stroke-width:1.1458;"/><line style="stroke:#000000;stroke-width:1.1458;" x1="1450.51" x2="1450.51" y1="93.9172" y2="116.8339"/><polygon fill="#000000" points="1445.9267,105.3755,1450.51,116.8339,1455.0934,105.3755,1450.51,109.9589" style="stroke:#000000;stroke-width:1.1458;"/><line style="stroke:#000000;stroke-width:1.1458;" x1="1450.51" x2="1450.51" y1="584.9585" y2="606.1564"/><polygon fill="#000000" points="1445.9267,594.698,1450.51,606.1564,1455.0934,594.698,1450.51,599.2814" style="stroke:#000000;stroke-width:1.1458;"/><?plantuml-src dLN1Rjim3BtxAxHUrXvMTyDE2Nf8qmuTiA1Pa-nQA3BZ49KbJw9TfCF-VRJbTNQRElLoC13nwV4zKfJUYxcMXbQpRo850quI96Az4xERosNaxz7aqibCpC1xcS94Osg40aFW8aBI82QAi4JQYKkKAKD7Oa55ihi6dJFc7HgbYmJ4bYZtepXsyk4qHTeMwyA3KvQP39qgcyKR1udrMfQVpiu-npCqc4czt486SrONEzZuU0ioyN4cqSHP07oW2d6Q5vcEF4b7aSyrKiIoMHzQ8uugFPpaIFoA1F-qN8CM4-_PKYrrQarIG_qNw-gL1OVu_rqWh3QD7Fmim5Dtmqq9haHu60UC1vFq0GPaPgReTx0YPCf-3ngwvSwrAHO5abmZ4-pQFdonpf3QGDw89cqiS4CswBAmTWiACAVn6xCCr_o3ItDbIdJMP1nyAiSrUh9kjwV-FUXM4mwYtfP-YA5HPWtohdeSeAdEl_vsQbYLjOI6e2LWei7HNOt4ZJZEUI1GyJpM1VzUoAhAulnSV3mHVEgDEDw1FwdXbUzxp4CMq1x4iR4Xn2Pm4oIImpG5Tr4yFeAhamsGDRoxYwfxhyqJc_F-eY2oPca3Ce2w1x5P35KTzv8F5tZLZEiXUHMkHno78HdtyFOgMu9KMt3xRgVEzL3ZU2Zt3CNVKD-zT01pE6slYPL_uQ2eZYYXuWkZYhwyWwPyl2k4rBvRrjRMfvA_GZgyvspEWA9BA571qawKieMXjhhwSGlnhqbNMLXjABezVuLtkC2PDFpGLkxcpcvGGrjRaITilGdC-Ka41qR1im8syLKDxgXyIVw_0gTIyrRfhae6-BP6vO3JTk9TUVNIj4Rj4VUCEEZZRtZM-MBE_m00?></g></svg>